<?xml version="1.0" encoding="utf-8"?>
<!-- Generator: Adobe Illustrator 24.1.1, SVG Export Plug-In . SVG Version: 6.00 Build 0)  -->
<svg version="1.1" id="Layer_1" xmlns="http://www.w3.org/2000/svg" xmlns:xlink="http://www.w3.org/1999/xlink" x="0px" y="0px"
	 viewBox="0 0 109.76 122.89" style="enable-background:new 0 0 109.76 122.89;" xml:space="preserve">
<style type="text/css">
	.st0{fill:#FBCB99;stroke:#231F20;stroke-width:4;stroke-miterlimit:10;}
	.st1{fill:none;stroke:#231F20;stroke-width:4;stroke-linecap:round;stroke-miterlimit:10;}
	.st2{fill:#231F20;}
	.st3{fill:#FFFFFF;stroke:#231F20;stroke-width:4;stroke-linecap:round;stroke-miterlimit:10;}
	.st4{fill:#FBCB99;stroke:#231F20;stroke-width:4;stroke-linecap:round;stroke-miterlimit:10;}
	.st5{fill:#34363B;stroke:#231F20;stroke-width:4;stroke-linejoin:round;stroke-miterlimit:10;}
	.st6{fill:#0F1011;}
	.st7{fill:#34363B;}
	.st8{fill:#272D17;stroke:#231F20;stroke-width:2;stroke-linecap:round;stroke-linejoin:round;stroke-miterlimit:10;}
	.st9{fill:#F9ED32;stroke:#231F20;stroke-width:4;stroke-miterlimit:10;}
	.st10{fill:#8B5E3C;stroke:#231F20;stroke-width:4;stroke-linejoin:round;stroke-miterlimit:10;}
	.st11{fill:#A97C50;stroke:#231F20;stroke-width:4;stroke-linecap:round;stroke-linejoin:round;stroke-miterlimit:10;}
	.st12{fill:#8B5E3C;stroke:#231F20;stroke-width:4;stroke-linecap:round;stroke-linejoin:round;stroke-miterlimit:10;}
	.st13{fill:#2DC1C3;stroke:#231F20;stroke-width:4;stroke-linecap:round;stroke-linejoin:round;stroke-miterlimit:10;}
	.st14{fill:none;stroke:#231F20;stroke-width:4;stroke-miterlimit:10;}
	.st15{fill:#FC6D84;}
	.st16{fill:none;stroke:#FC6D84;stroke-width:4;stroke-linecap:round;stroke-miterlimit:10;}
	.st17{fill:#594A42;stroke:#231F20;stroke-width:4;stroke-linecap:round;stroke-linejoin:round;stroke-miterlimit:10;}
	.st18{fill:#F93E3E;stroke:#231F20;stroke-width:4;stroke-miterlimit:10;}
	.st19{clip-path:url(#SVGID_2_);}
	.st20{fill:none;stroke:#231F20;stroke-width:4;stroke-linejoin:round;stroke-miterlimit:10;}
	.st21{clip-path:url(#SVGID_4_);}
	.st22{fill:#9D9D9C;stroke:#3C3C3B;stroke-width:4;stroke-linecap:round;stroke-linejoin:round;stroke-miterlimit:10;}
	.st23{fill:#FFFFFF;stroke:#3C3C3B;stroke-width:4;stroke-miterlimit:10;}
	.st24{fill:#FFFFFF;stroke:#3C3C3B;stroke-width:4;stroke-linecap:round;stroke-miterlimit:10;}
	.st25{fill:#3C3C3B;}
	.st26{fill:#FBCB99;stroke:#3C3C3B;stroke-width:4;stroke-linecap:round;stroke-miterlimit:10;}
	.st27{fill:#FFFFFF;stroke:#231F20;stroke-width:4;stroke-miterlimit:10;}
	.st28{fill:#F93E3E;stroke:#231F20;stroke-width:4;stroke-linejoin:round;stroke-miterlimit:10;}
	.st29{fill:#FFFFFF;stroke:#231F20;stroke-width:4;stroke-linejoin:round;stroke-miterlimit:10;}
	.st30{fill:#FBCB99;stroke:#231F20;stroke-width:4;stroke-linecap:round;stroke-linejoin:round;stroke-miterlimit:10;}
	.st31{fill:none;stroke:#231F20;stroke-width:4;stroke-linecap:round;stroke-linejoin:round;stroke-miterlimit:10;}
	.st32{fill:none;stroke:#3C3C3B;stroke-width:4;stroke-linecap:round;stroke-miterlimit:10;}
	.st33{fill:#D1D3D4;stroke:#3C3C3B;stroke-width:4;stroke-linecap:round;stroke-linejoin:round;stroke-miterlimit:10;}
	.st34{fill:none;stroke:#3C3C3B;stroke-width:4;stroke-miterlimit:10;}
	.st35{fill:#34363B;stroke:#231F20;stroke-width:4;stroke-linecap:round;stroke-linejoin:round;stroke-miterlimit:10;}
</style>
<path class="st0" d="M955.61,759.16c1.27,5.18-0.35,10.02-3.6,10.82c-3.26,0.8-6.92-2.75-8.19-7.93c-1.27-5.18,0.35-10.02,3.6-10.82
	C950.67,750.43,954.34,753.98,955.61,759.16z"/>
<path class="st0" d="M1023.9,759.16c-1.27,5.18,0.35,10.02,3.6,10.82c3.26,0.8,6.92-2.75,8.19-7.93c1.27-5.18-0.35-10.02-3.6-10.82
	C1028.83,750.43,1025.17,753.98,1023.9,759.16z"/>
<path class="st0" d="M1027.48,768.51c0,21.99-15.73,39.82-37.73,39.82l0,0c-21.99,0-37.73-17.83-37.73-39.82l-2.1-27.25
	c0-21.99,17.83-39.82,39.82-39.82l0,0c21.99,0,39.82,17.83,39.82,39.82L1027.48,768.51z"/>
<path class="st1" d="M984.88,771.4c0,0,4.17,5.24,8.33,0"/>
<path class="st0" d="M1197.69,542.24c1.27,5.18-0.34,10.02-3.6,10.82c-3.26,0.8-6.92-2.75-8.19-7.93
	c-1.27-5.18,0.35-10.02,3.6-10.82C1192.76,533.51,1196.43,537.06,1197.69,542.24z"/>
<path class="st0" d="M1265.99,542.24c-1.27,5.18,0.35,10.02,3.6,10.82c3.26,0.8,6.92-2.75,8.19-7.93c1.27-5.18-0.35-10.02-3.6-10.82
	C1270.92,533.51,1267.25,537.06,1265.99,542.24z"/>
<path class="st0" d="M1267.96,551.59c0,21.99-14.12,39.82-36.12,39.82l0,0c-21.99,0-36.12-17.83-36.12-39.82l-3.71-27.25
	c0-21.99,17.83-39.82,39.82-39.82l0,0c21.99,0,39.83,17.83,39.83,39.82L1267.96,551.59z"/>
<path class="st0" d="M1197.61,759.78c1.27,5.18-0.35,10.02-3.6,10.82c-3.26,0.8-6.92-2.75-8.19-7.93
	c-1.27-5.18,0.34-10.02,3.6-10.82C1192.68,751.05,1196.35,754.6,1197.61,759.78z"/>
<path class="st0" d="M1265.91,759.78c-1.27,5.18,0.34,10.02,3.6,10.82c3.26,0.8,6.92-2.75,8.19-7.93c1.27-5.18-0.35-10.02-3.6-10.82
	C1270.84,751.05,1267.17,754.6,1265.91,759.78z"/>
<path class="st0" d="M1269.49,769.13c0,21.99-15.73,39.82-37.73,39.82l0,0c-21.99,0-37.73-17.83-37.73-39.82l-2.1-27.25
	c0-22,17.83-39.83,39.83-39.83l0,0c21.99,0,39.82,17.83,39.82,39.83L1269.49,769.13z"/>
<path class="st0" d="M956.06,978.93c1.27,5.18-0.35,10.02-3.6,10.82c-3.26,0.8-6.92-2.76-8.19-7.93c-1.27-5.18,0.35-10.02,3.6-10.82
	C951.13,970.2,954.79,973.75,956.06,978.93z"/>
<path class="st0" d="M1024.35,978.93c-1.27,5.18,0.34,10.02,3.6,10.82c3.26,0.8,6.92-2.76,8.19-7.93c1.27-5.18-0.35-10.02-3.6-10.82
	C1029.29,970.2,1025.62,973.75,1024.35,978.93z"/>
<path class="st0" d="M1026.32,988.28c0,21.99-18.66,39.82-36.12,39.82l0,0c-17.46,0-36.12-17.83-36.12-39.82l-3.71-27.25
	c0-22,17.83-39.82,39.83-39.82l0,0c21.99,0,39.82,17.83,39.82,39.82L1026.32,988.28z"/>
<path class="st2" d="M1215.52,763.69c-3.64,0-3.64,5.64,0,5.64C1219.16,769.33,1219.16,763.69,1215.52,763.69z"/>
<path class="st2" d="M1247.21,763.69c-3.64,0-3.64,5.64,0,5.64C1250.85,769.33,1250.85,763.69,1247.21,763.69z"/>
<path class="st2" d="M972.75,975.94c-3.64,0-3.64,5.64,0,5.64C976.39,981.58,976.39,975.94,972.75,975.94z"/>
<path class="st2" d="M1007.66,975.94c-3.64,0-3.64,5.64,0,5.64C1011.3,981.58,1011.3,975.94,1007.66,975.94z"/>
<path class="st3" d="M1224.39,791.94c0,0,6.72,4.3,14.9,0"/>
<path class="st3" d="M1229.08,777.04c0,0,2.67,3.36,5.35,0"/>
<path class="st0" d="M1439.69,760.98c1.27,5.18-0.35,10.02-3.6,10.82c-3.25,0.8-6.92-2.75-8.19-7.93
	c-1.27-5.18,0.35-10.02,3.6-10.82C1434.75,752.25,1438.42,755.8,1439.69,760.98z"/>
<path class="st0" d="M1507.98,760.98c-1.27,5.18,0.35,10.02,3.6,10.82c3.26,0.8,6.92-2.75,8.19-7.93c1.27-5.18-0.35-10.02-3.6-10.82
	C1512.91,752.25,1509.25,755.8,1507.98,760.98z"/>
<path class="st0" d="M1509.95,770.33c0,21.99-14.59,37.82-36.12,37.82l0,0c-20.55,0-36.12-15.83-36.12-37.82l-3.71-27.25
	c0-21.99,17.83-39.82,39.82-39.82l0,0c21.99,0,39.83,17.83,39.83,39.82L1509.95,770.33z"/>
<path class="st2" d="M1453.28,763.83c-3.64,0-3.64,5.64,0,5.64C1456.92,769.47,1456.92,763.83,1453.28,763.83z"/>
<path class="st2" d="M1493.16,763.83c-3.64,0-3.64,5.64,0,5.64C1496.79,769.47,1496.79,763.83,1493.16,763.83z"/>
<path class="st4" d="M1489.17,754.21c0,0,5.93-1.63,9.66,1.74"/>
<path class="st4" d="M1458.5,754.21c0,0-5.93-1.63-9.66,1.74"/>
<path class="st2" d="M1211.99,536.38c-3.64,0-3.64,5.64,0,5.64C1215.63,542.02,1215.63,536.38,1211.99,536.38z"/>
<path class="st2" d="M1251.06,536.38c-3.64,0-3.64,5.64,0,5.64C1254.7,542.02,1254.7,536.38,1251.06,536.38z"/>
<path class="st1" d="M1224.15,569.51c0,0,6.72,4.3,14.9,0"/>
<path class="st0" d="M1439.16,1197.47c1.27,5.18-0.35,10.02-3.6,10.82c-3.26,0.8-6.92-2.75-8.19-7.93
	c-1.27-5.18,0.34-10.02,3.6-10.82C1434.23,1188.74,1437.9,1192.3,1439.16,1197.47z"/>
<path class="st0" d="M1507.46,1197.47c-1.27,5.18,0.34,10.02,3.6,10.82c3.26,0.8,6.92-2.75,8.19-7.93
	c1.27-5.18-0.35-10.02-3.6-10.82C1512.39,1188.74,1508.72,1192.3,1507.46,1197.47z"/>
<path class="st0" d="M1511.04,1206.82c0,21.99-15.73,39.82-37.73,39.82l0,0c-21.99,0-37.73-17.83-37.73-39.82l-2.1-27.25
	c0-21.99,17.83-39.82,39.83-39.82l0,0c21.99,0,39.82,17.83,39.82,39.82L1511.04,1206.82z"/>
<path class="st2" d="M1456.94,1192.25c-3.64,0-3.64,5.64,0,5.64C1460.58,1197.89,1460.58,1192.25,1456.94,1192.25z"/>
<path class="st2" d="M1489.68,1192.25c-3.64,0-3.64,5.64,0,5.64C1493.31,1197.89,1493.31,1192.25,1489.68,1192.25z"/>
<path class="st5" d="M1472.95,1138.73c-21.46,0.4-41.11,13.76-40.78,36.45c0.1,6.97,1.09,13.92,2.97,20.64
	c11.49-0.37,7.79-25.58,7.79-25.58c0.74-14.46,14.83-9.27,14.83-9.27c5.93,2.22,15.2,2.22,15.2,2.22s9.27,0,15.2-2.22
	c0,0,14.08-5.19,14.83,9.27c0,0-3.71,25.21,7.78,25.58c1.87-6.72,2.87-13.67,2.97-20.64
	C1514.06,1152.49,1494.41,1139.12,1472.95,1138.73z"/>
<path class="st3" d="M1470.64,1212.69c0,0,2.67,3.36,5.35,0"/>
<path class="st4" d="M1468.15,1227.69c0,0,4.42,1.82,10.32,0"/>
<path class="st3" d="M983.7,1010.72c0,0,6.23,2.88,13.02,0"/>
<polygon class="st6" points="1392.63,375.33 1077.47,375.33 1057.47,340.05 1077.47,307.65 1392.63,307.65 1412.63,340.72 "/>
<polygon class="st7" points="1389.34,370.33 1074.18,370.33 1054.18,335.05 1074.18,302.65 1389.34,302.65 1409.34,335.72 "/>
<path class="st8" d="M1450.63,971.05c0,0,30.67-21.87,28.22-36.37"/>
<path class="st8" d="M1486.03,927.45c0,0-1.66,13.5-9.46,17.11"/>
<path class="st0" d="M1442,980.93c1.27,5.18-0.34,10.02-3.6,10.82c-3.26,0.8-6.92-2.76-8.19-7.93c-1.27-5.18,0.35-10.02,3.6-10.82
	C1437.06,972.2,1440.73,975.75,1442,980.93z"/>
<path class="st0" d="M1510.29,980.93c-1.27,5.18,0.34,10.02,3.6,10.82c3.26,0.8,6.92-2.76,8.19-7.93c1.27-5.18-0.35-10.02-3.6-10.82
	C1515.23,972.2,1511.56,975.75,1510.29,980.93z"/>
<path class="st0" d="M1513.87,990.28c0,21.99-15.73,37.82-37.73,37.82l0,0c-21.99,0-37.73-15.83-37.73-37.82l-2.1-27.25
	c0-22,17.83-39.82,39.82-39.82l0,0c21.99,0,39.83,17.83,39.83,39.82L1513.87,990.28z"/>
<path class="st2" d="M1493.73,977.28c-3.64,0-3.64,5.64,0,5.64C1497.37,982.92,1497.37,977.28,1493.73,977.28z"/>
<path class="st2" d="M1458.56,977.28c-3.64,0-3.64,5.64,0,5.64C1462.19,982.92,1462.19,977.28,1458.56,977.28z"/>
<text transform="matrix(1 0 0 1 1128.6757 282.425)" style="fill:#EFEFEF; font-family:'MCgdjb'; font-size:25.9042px;">CHARACTER SET</text>
<path class="st1" d="M1470.57,776.43c0,0,3.27,4.11,6.54,0"/>
<path class="st1" d="M1463.22,789.88c0,0,11.15,3.88,21.22,0"/>
<g>
	<path class="st9" d="M1231.4,693.97c-22.93,0-41.56,18.41-41.93,41.25h83.86C1272.96,712.37,1254.33,693.97,1231.4,693.97z"/>
</g>
<path class="st10" d="M1221.29,735.43c0,0,3.16,8.14-7.08,18.47c0,0,23.1-1.38,25.05-21.55"/>
<path class="st10" d="M1207.71,737.22c0,0-13.11,19.57-13.68,31.91c0,0-8.8-15.16-4.56-30.16L1207.71,737.22z"/>
<path class="st10" d="M1255.81,737.22c0,0,13.11,19.57,13.68,31.91c0,0,8.8-15.16,4.56-30.16L1255.81,737.22z"/>
<path class="st10" d="M1233.42,735.85c0,0,4.65,8.44-4.53,19.26c0,0,22.7-4.48,21.92-24.73"/>
<path class="st11" d="M1451.26,712.47c0,6.56-5.32,11.88-11.88,11.88c-6.56,0-11.87-5.32-11.87-11.88c0-6.56,5.32-11.88,11.87-11.88
	C1445.94,700.6,1451.26,705.92,1451.26,712.47z"/>
<path class="st11" d="M1519.11,712.47c0,6.56-5.32,11.88-11.88,11.88c-6.56,0-11.88-5.32-11.88-11.88c0-6.56,5.32-11.88,11.88-11.88
	C1513.79,700.6,1519.11,705.92,1519.11,712.47z"/>
<g>
	<path class="st11" d="M1437.4,716.13c0,0-11.88,14.88-2.87,35.78c0,0,0.07-0.05,0.18-0.13c0.54,2.5,1.42,7.51,0.48,9.81
		c1.73-2.3,5.58-8.13,5.27-14.27c7.37-6.05,19.57-17.27,24.49-28.9v-16.53C1464.97,701.89,1452.3,698.08,1437.4,716.13z"/>
	<path class="st12" d="M1435.2,761.59c-0.5,0.66-0.82,1.03-0.82,1.03C1434.74,762.42,1435.01,762.06,1435.2,761.59z"/>
</g>
<path class="st13" d="M1447.26,703.5l2.22,3.33c0,0-2.73,11.85-17.75,16.42l-2.43-2.8C1429.3,720.44,1441,714.9,1447.26,703.5z"/>
<path class="st11" d="M1503.74,711.96c0,0-17.23-18.61-38.77-10.06v16.53c0,0,19.64,26.45,42.81,32.5
	c-0.23-0.06,0.83,3.47,0.97,3.76c1.32,2.73,1.78,6.27,0.55,9.14c0,0,6.74-8.15,4.63-17.18
	C1515.13,738.25,1515.64,721.74,1503.74,711.96z"/>
<path class="st13" d="M1498.99,703.5l-2.22,3.33c0,0,2.73,11.85,17.75,16.42l2.43-2.8C1516.94,720.44,1505.24,714.9,1498.99,703.5z"
	/>
<path class="st13" d="M1246.95,732.86c2.37-9.61,6.88-17.84,16.13-20.02c4.89-1.15,12.18-5.41,14.43-9.95
	c-0.2,2.48-0.68,4.9-0.42,7.44c2.55,0.13,4.67,0.72,6.97,0.49c-6.19,5.39-15.6,6.05-20.66,12.84c-1.02,1.37-2.02,2.98-2.79,4.52
	c-0.65,1.29-1.15,4-2.49,4.7c-2.35,1.24-7.62-0.27-10.05-0.46L1246.95,732.86z"/>
<g>
	<path class="st9" d="M1287.44,728.59c1.48,4.41-1.39,9.35-6.48,10.72c-32.17,8.69-66.08,8.69-98.26,0
		c-5.09-1.37-7.96-6.31-6.48-10.72l0,0c1.48-4.42,6.32-6.78,10.87-5.56c29.3,7.91,60.17,7.91,89.46,0
		C1281.12,721.81,1285.96,724.18,1287.44,728.59L1287.44,728.59z"/>
	<path class="st14" d="M1287.44,728.59c1.48,4.41-1.39,9.35-6.48,10.72c-32.17,8.69-66.08,8.69-98.26,0
		c-5.09-1.37-7.96-6.31-6.48-10.72l0,0c1.48-4.42,6.32-6.78,10.87-5.56c29.3,7.91,60.17,7.91,89.46,0
		C1281.12,721.81,1285.96,724.18,1287.44,728.59L1287.44,728.59z"/>
</g>
<path class="st15" d="M1212.8,780.88c0,1.71-2.99,3.09-6.67,3.09s-6.67-1.38-6.67-3.09c0-1.71,2.99-3.09,6.67-3.09
	S1212.8,779.17,1212.8,780.88z"/>
<path class="st15" d="M1264.18,780.88c0,1.71-2.99,3.09-6.67,3.09s-6.67-1.38-6.67-3.09c0-1.71,2.99-3.09,6.67-3.09
	S1264.18,779.17,1264.18,780.88z"/>
<g>
	<line class="st16" x1="1444.63" y1="774.79" x2="1442.13" y2="777.34"/>
	<line class="st16" x1="1451.51" y1="774.79" x2="1449.01" y2="777.34"/>
	<line class="st16" x1="1458.39" y1="774.79" x2="1455.89" y2="777.34"/>
	<line class="st16" x1="1492.66" y1="774.79" x2="1490.16" y2="777.34"/>
	<line class="st16" x1="1499.54" y1="774.79" x2="1497.04" y2="777.34"/>
	<line class="st16" x1="1506.43" y1="774.79" x2="1503.93" y2="777.34"/>
</g>
<path class="st1" d="M1430.16,704.13c-3.47-0.76-8.35-1.64-10,2.74c-1.74,4.62,2.09,6.8,3.5,10.53c1.84,4.87-1.31,6.37-3.81,9.67
	c-2.29,3.03-1.86,7.55,0.32,10.56c0.6,0.83,1.17,1.46,1.99,2"/>
<path class="st1" d="M1517.51,704.13c3.47-0.76,8.35-1.64,10,2.74c1.74,4.62-2.09,6.8-3.5,10.53c-1.84,4.87,1.31,6.37,3.81,9.67
	c2.29,3.03,1.86,7.55-0.32,10.56c-0.6,0.83-1.17,1.46-1.99,2"/>
<path class="st17" d="M1196.77,497.36c0,0-14.7,15.52-4.75,30.86c0,0,3.78-18.67,11.78-28.67L1196.77,497.36z"/>
<g>
	<path class="st17" d="M1258.69,516.39c-0.2-0.38-0.4-0.75-0.57-1.07C1258.22,515.7,1258.42,516.06,1258.69,516.39z"/>
	<path class="st17" d="M1232.69,475.86c-15.54,0-29.05,8.7-35.92,21.5l1.59,2.59c3.84,3.9,8.55,8.09,13.58,10.54
		c0.1-1.52,0.08-3.08,0.05-4.62c3.03,4.96,9.59,7.2,14.62,9.4c0.09-1.3,0.07-2.64,0.04-3.96c2.83,3.6,11.67,6.1,16.01,6.33
		c-0.19-1.35-0.43-2.68-0.93-3.91c3.86,4,14.13,6.65,19.35,7.67c-0.48-1.42-1.54-3.41-2.39-5c-0.27-0.33-0.47-0.68-0.57-1.07
		c0.17,0.32,0.36,0.69,0.57,1.07c2.01,2.49,8.47,3.61,14.22,4.16l0.53-3.93C1273.45,494.11,1255.2,475.86,1232.69,475.86z"/>
</g>
<path class="st1" d="M1234.56,555.66c-0.7,0.85-1.77,1.39-2.96,1.39c-2.12,0-3.83-1.72-3.83-3.83c0-2.12,1.72-3.83,3.83-3.83"/>
<ellipse class="st15" cx="1208.05" cy="555.05" rx="6.67" ry="3.09"/>
<ellipse class="st15" cx="1256.38" cy="555.05" rx="6.67" ry="3.09"/>
<path class="st17" d="M1037.65,949.45c-13.73-33.44-42.28-32.44-47.41-31.97c-5.13-0.47-33.68-1.46-47.41,31.97
	c0,0-11.75,25.6-9.5,34.76l21.36,9.15l4.64-36.1c0,0,11.01-2.13,30.11-2.15v0c0.27,0,0.54,0,0.8,0c0.27,0,0.53,0,0.8,0v0
	c19.09,0.02,30.11,2.15,30.11,2.15l4.64,36.1l21.36-9.15C1049.4,975.05,1037.65,949.45,1037.65,949.45z"/>
<path class="st11" d="M972.75,943.05c0,0-2.33,8.09-2.73,12.88"/>
<path class="st11" d="M983.7,939.05c0,0-2.33,9.97-2.73,15.88"/>
<path class="st11" d="M995.78,939.05c0,0,2.33,9.97,2.73,15.88"/>
<path class="st11" d="M1006.12,943.05c0,0,2.33,8.09,2.73,12.88"/>
<path class="st1" d="M989.04,987.38c0,0-2.97,7.77,3.89,8"/>
<g>
	<path class="st18" d="M1046.63,935.63c6.49-16.28-23.01-6.22-23.01-6.22l-1.71,4.38l-1.71,4.37c0,0,14.89,27.38,21.15,11.01
		l2.64-6.77L1046.63,935.63z"/>
	<path class="st18" d="M996.8,916.19c6.25-16.37,21.15,11.01,21.15,11.01l-1.71,4.38l-1.71,4.37c0,0-29.5,10.06-23.01-6.22
		l2.64-6.77L996.8,916.19z"/>
	<g>
		<defs>
			<path id="SVGID_1_" d="M1046.63,935.63c6.49-16.28-23.01-6.22-23.01-6.22l-1.71,4.38l-1.71,4.37c0,0,14.89,27.38,21.15,11.01
				l2.64-6.77L1046.63,935.63z"/>
		</defs>
		<clipPath id="SVGID_2_">
			<use xlink:href="#SVGID_1_"  style="overflow:visible;"/>
		</clipPath>
		<g class="st19">
			<line class="st20" x1="999.3" y1="895.65" x2="995.92" y2="897.33"/>
			<line class="st20" x1="1006.73" y1="898.54" x2="1003.35" y2="900.22"/>
			<line class="st20" x1="1014.15" y1="901.44" x2="1010.77" y2="903.12"/>
			<line class="st20" x1="1021.57" y1="904.34" x2="1018.19" y2="906.02"/>
			<line class="st20" x1="1029" y1="907.24" x2="1025.62" y2="908.91"/>
			<line class="st20" x1="1036.42" y1="910.13" x2="1033.04" y2="911.81"/>
			<line class="st20" x1="1043.85" y1="913.03" x2="1040.47" y2="914.71"/>
			<line class="st20" x1="1051.27" y1="915.93" x2="1047.89" y2="917.61"/>
			<line class="st20" x1="1058.69" y1="918.82" x2="1055.31" y2="920.5"/>
			<line class="st20" x1="1066.12" y1="921.72" x2="1062.74" y2="923.4"/>
			<line class="st20" x1="997.07" y1="901.36" x2="993.69" y2="903.04"/>
			<line class="st20" x1="1004.5" y1="904.25" x2="1001.12" y2="905.93"/>
			<line class="st20" x1="1011.92" y1="907.15" x2="1008.54" y2="908.83"/>
			<line class="st20" x1="1019.35" y1="910.05" x2="1015.97" y2="911.73"/>
			<line class="st20" x1="1026.77" y1="912.95" x2="1023.39" y2="914.62"/>
			<line class="st20" x1="1034.19" y1="915.84" x2="1030.81" y2="917.52"/>
			<line class="st20" x1="1041.62" y1="918.74" x2="1038.24" y2="920.42"/>
			<line class="st20" x1="1049.04" y1="921.64" x2="1045.66" y2="923.32"/>
			<line class="st20" x1="1056.47" y1="924.53" x2="1053.09" y2="926.21"/>
			<line class="st20" x1="1063.89" y1="927.43" x2="1060.51" y2="929.11"/>
			<line class="st20" x1="994.85" y1="907.07" x2="991.47" y2="908.75"/>
			<line class="st20" x1="1002.27" y1="909.96" x2="998.89" y2="911.64"/>
			<line class="st20" x1="1009.69" y1="912.86" x2="1006.31" y2="914.54"/>
			<line class="st20" x1="1017.12" y1="915.76" x2="1013.74" y2="917.44"/>
			<line class="st20" x1="1024.54" y1="918.66" x2="1021.16" y2="920.33"/>
			<line class="st20" x1="1031.97" y1="921.55" x2="1028.59" y2="923.23"/>
			<line class="st20" x1="1039.39" y1="924.45" x2="1036.01" y2="926.13"/>
			<line class="st20" x1="1046.81" y1="927.35" x2="1043.43" y2="929.03"/>
			<line class="st20" x1="1054.24" y1="930.24" x2="1050.86" y2="931.92"/>
			<line class="st20" x1="1061.66" y1="933.14" x2="1058.28" y2="934.82"/>
			<line class="st20" x1="992.62" y1="912.78" x2="989.24" y2="914.46"/>
			<line class="st20" x1="1000.04" y1="915.68" x2="996.66" y2="917.35"/>
			<line class="st20" x1="1007.47" y1="918.57" x2="1004.09" y2="920.25"/>
			<line class="st20" x1="1014.89" y1="921.47" x2="1011.51" y2="923.15"/>
			<line class="st20" x1="1022.31" y1="924.37" x2="1018.94" y2="926.04"/>
			<line class="st20" x1="1029.74" y1="927.26" x2="1026.36" y2="928.94"/>
			<line class="st20" x1="1037.16" y1="930.16" x2="1033.78" y2="931.84"/>
			<line class="st20" x1="1044.59" y1="933.06" x2="1041.21" y2="934.74"/>
			<line class="st20" x1="1052.01" y1="935.96" x2="1048.63" y2="937.63"/>
			<line class="st20" x1="1059.43" y1="938.85" x2="1056.05" y2="940.53"/>
			<line class="st20" x1="990.39" y1="918.49" x2="987.01" y2="920.17"/>
			<line class="st20" x1="997.81" y1="921.39" x2="994.43" y2="923.06"/>
			<line class="st20" x1="1005.24" y1="924.28" x2="1001.86" y2="925.96"/>
			<line class="st20" x1="1012.66" y1="927.18" x2="1009.28" y2="928.86"/>
			<line class="st20" x1="1020.09" y1="930.08" x2="1016.71" y2="931.76"/>
			<line class="st20" x1="1027.51" y1="932.97" x2="1024.13" y2="934.65"/>
			<line class="st20" x1="1034.93" y1="935.87" x2="1031.55" y2="937.55"/>
			<line class="st20" x1="1042.36" y1="938.77" x2="1038.98" y2="940.45"/>
			<line class="st20" x1="1049.78" y1="941.66" x2="1046.4" y2="943.34"/>
			<line class="st20" x1="1057.21" y1="944.56" x2="1053.83" y2="946.24"/>
			<line class="st20" x1="988.16" y1="924.2" x2="984.78" y2="925.88"/>
			<line class="st20" x1="995.58" y1="927.1" x2="992.21" y2="928.77"/>
			<line class="st20" x1="1003.01" y1="929.99" x2="999.63" y2="931.67"/>
			<line class="st20" x1="1010.43" y1="932.89" x2="1007.05" y2="934.57"/>
			<line class="st20" x1="1017.86" y1="935.79" x2="1014.48" y2="937.47"/>
			<line class="st20" x1="1025.28" y1="938.69" x2="1021.9" y2="940.36"/>
			<line class="st20" x1="1032.71" y1="941.58" x2="1029.33" y2="943.26"/>
			<line class="st20" x1="1040.13" y1="944.48" x2="1036.75" y2="946.16"/>
			<line class="st20" x1="1047.55" y1="947.38" x2="1044.17" y2="949.05"/>
			<line class="st20" x1="1054.98" y1="950.27" x2="1051.6" y2="951.95"/>
			<line class="st20" x1="985.93" y1="929.91" x2="982.55" y2="931.59"/>
			<line class="st20" x1="993.36" y1="932.81" x2="989.98" y2="934.49"/>
			<line class="st20" x1="1000.78" y1="935.7" x2="997.4" y2="937.38"/>
			<line class="st20" x1="1008.2" y1="938.6" x2="1004.82" y2="940.28"/>
			<line class="st20" x1="1015.63" y1="941.5" x2="1012.25" y2="943.18"/>
			<line class="st20" x1="1023.05" y1="944.39" x2="1019.67" y2="946.07"/>
			<line class="st20" x1="1030.48" y1="947.29" x2="1027.1" y2="948.97"/>
			<line class="st20" x1="1037.9" y1="950.19" x2="1034.52" y2="951.87"/>
			<line class="st20" x1="1045.32" y1="953.09" x2="1041.94" y2="954.77"/>
			<line class="st20" x1="1052.75" y1="955.98" x2="1049.37" y2="957.66"/>
			<line class="st20" x1="983.7" y1="935.62" x2="980.32" y2="937.3"/>
			<line class="st20" x1="991.13" y1="938.52" x2="987.75" y2="940.19"/>
			<line class="st20" x1="998.55" y1="941.41" x2="995.17" y2="943.09"/>
			<line class="st20" x1="1005.98" y1="944.31" x2="1002.6" y2="945.99"/>
			<line class="st20" x1="1013.4" y1="947.21" x2="1010.02" y2="948.89"/>
			<line class="st20" x1="1020.82" y1="950.11" x2="1017.44" y2="951.78"/>
			<line class="st20" x1="1028.25" y1="953" x2="1024.87" y2="954.68"/>
			<line class="st20" x1="1035.67" y1="955.9" x2="1032.29" y2="957.58"/>
			<line class="st20" x1="1043.1" y1="958.8" x2="1039.72" y2="960.47"/>
			<line class="st20" x1="1050.52" y1="961.69" x2="1047.14" y2="963.37"/>
			<line class="st20" x1="981.48" y1="941.33" x2="978.1" y2="943.01"/>
			<line class="st20" x1="988.9" y1="944.23" x2="985.52" y2="945.91"/>
			<line class="st20" x1="996.32" y1="947.12" x2="992.94" y2="948.8"/>
			<line class="st20" x1="1003.75" y1="950.02" x2="1000.37" y2="951.7"/>
			<line class="st20" x1="1011.17" y1="952.92" x2="1007.79" y2="954.6"/>
			<line class="st20" x1="1018.6" y1="955.82" x2="1015.22" y2="957.49"/>
			<line class="st20" x1="1026.02" y1="958.71" x2="1022.64" y2="960.39"/>
			<line class="st20" x1="1033.44" y1="961.61" x2="1030.06" y2="963.29"/>
			<line class="st20" x1="1040.87" y1="964.51" x2="1037.49" y2="966.19"/>
			<line class="st20" x1="1048.29" y1="967.4" x2="1044.91" y2="969.08"/>
			<line class="st20" x1="979.25" y1="947.04" x2="975.87" y2="948.72"/>
			<line class="st20" x1="986.67" y1="949.94" x2="983.29" y2="951.61"/>
			<line class="st20" x1="994.1" y1="952.83" x2="990.72" y2="954.51"/>
			<line class="st20" x1="1001.52" y1="955.73" x2="998.14" y2="957.41"/>
			<line class="st20" x1="1008.94" y1="958.63" x2="1005.56" y2="960.31"/>
			<line class="st20" x1="1016.37" y1="961.53" x2="1012.99" y2="963.2"/>
			<line class="st20" x1="1023.79" y1="964.42" x2="1020.41" y2="966.1"/>
			<line class="st20" x1="1031.22" y1="967.32" x2="1027.84" y2="969"/>
			<line class="st20" x1="1038.64" y1="970.22" x2="1035.26" y2="971.9"/>
			<line class="st20" x1="1046.06" y1="973.11" x2="1042.68" y2="974.79"/>
		</g>
	</g>
	<path class="st18" d="M1025.01,940.57c-0.76,1.96-2.97,2.92-4.93,2.16l-8.1-3.16c-1.96-0.76-2.92-2.97-2.16-4.92l3.09-7.91
		c0.76-1.96,2.97-2.92,4.93-2.16l8.1,3.16c1.96,0.76,2.92,2.97,2.16,4.92L1025.01,940.57z"/>
	<g>
		<defs>
			<path id="SVGID_3_" d="M996.8,916.19c6.25-16.37,21.15,11.01,21.15,11.01l-1.71,4.37l-1.71,4.37c0,0-29.5,10.06-23.01-6.22
				l2.64-6.77L996.8,916.19z"/>
		</defs>
		<clipPath id="SVGID_4_">
			<use xlink:href="#SVGID_3_"  style="overflow:visible;"/>
		</clipPath>
		<g class="st21">
			<line class="st20" x1="999.3" y1="895.65" x2="995.92" y2="897.33"/>
			<line class="st20" x1="1006.73" y1="898.54" x2="1003.35" y2="900.22"/>
			<line class="st20" x1="1014.15" y1="901.44" x2="1010.77" y2="903.12"/>
			<line class="st20" x1="1021.57" y1="904.34" x2="1018.19" y2="906.02"/>
			<line class="st20" x1="1029" y1="907.24" x2="1025.62" y2="908.91"/>
			<line class="st20" x1="1036.42" y1="910.13" x2="1033.04" y2="911.81"/>
			<line class="st20" x1="1043.85" y1="913.03" x2="1040.47" y2="914.71"/>
			<line class="st20" x1="1051.27" y1="915.93" x2="1047.89" y2="917.61"/>
			<line class="st20" x1="1058.69" y1="918.82" x2="1055.31" y2="920.5"/>
			<line class="st20" x1="1066.12" y1="921.72" x2="1062.74" y2="923.4"/>
			<line class="st20" x1="997.07" y1="901.36" x2="993.69" y2="903.04"/>
			<line class="st20" x1="1004.5" y1="904.26" x2="1001.12" y2="905.93"/>
			<line class="st20" x1="1011.92" y1="907.15" x2="1008.54" y2="908.83"/>
			<line class="st20" x1="1019.35" y1="910.05" x2="1015.97" y2="911.73"/>
			<line class="st20" x1="1026.77" y1="912.95" x2="1023.39" y2="914.63"/>
			<line class="st20" x1="1034.19" y1="915.84" x2="1030.81" y2="917.52"/>
			<line class="st20" x1="1041.62" y1="918.74" x2="1038.24" y2="920.42"/>
			<line class="st20" x1="1049.04" y1="921.64" x2="1045.66" y2="923.32"/>
			<line class="st20" x1="1056.47" y1="924.53" x2="1053.09" y2="926.21"/>
			<line class="st20" x1="1063.89" y1="927.43" x2="1060.51" y2="929.11"/>
			<line class="st20" x1="994.85" y1="907.07" x2="991.47" y2="908.75"/>
			<line class="st20" x1="1002.27" y1="909.96" x2="998.89" y2="911.64"/>
			<line class="st20" x1="1009.69" y1="912.86" x2="1006.31" y2="914.54"/>
			<line class="st20" x1="1017.12" y1="915.76" x2="1013.74" y2="917.44"/>
			<line class="st20" x1="1024.54" y1="918.66" x2="1021.16" y2="920.33"/>
			<line class="st20" x1="1031.97" y1="921.55" x2="1028.59" y2="923.23"/>
			<line class="st20" x1="1039.39" y1="924.45" x2="1036.01" y2="926.13"/>
			<line class="st20" x1="1046.81" y1="927.35" x2="1043.43" y2="929.03"/>
			<line class="st20" x1="1054.24" y1="930.24" x2="1050.86" y2="931.92"/>
			<line class="st20" x1="1061.66" y1="933.14" x2="1058.28" y2="934.82"/>
			<line class="st20" x1="992.62" y1="912.78" x2="989.24" y2="914.46"/>
			<line class="st20" x1="1000.04" y1="915.68" x2="996.66" y2="917.35"/>
			<line class="st20" x1="1007.47" y1="918.57" x2="1004.09" y2="920.25"/>
			<line class="st20" x1="1014.89" y1="921.47" x2="1011.51" y2="923.15"/>
			<line class="st20" x1="1022.31" y1="924.37" x2="1018.93" y2="926.05"/>
			<line class="st20" x1="1029.74" y1="927.26" x2="1026.36" y2="928.94"/>
			<line class="st20" x1="1037.16" y1="930.16" x2="1033.78" y2="931.84"/>
			<line class="st20" x1="1044.59" y1="933.06" x2="1041.21" y2="934.74"/>
			<line class="st20" x1="1052.01" y1="935.96" x2="1048.63" y2="937.63"/>
			<line class="st20" x1="1059.43" y1="938.85" x2="1056.05" y2="940.53"/>
			<line class="st20" x1="990.39" y1="918.49" x2="987.01" y2="920.17"/>
			<line class="st20" x1="997.81" y1="921.39" x2="994.43" y2="923.06"/>
			<line class="st20" x1="1005.24" y1="924.28" x2="1001.86" y2="925.96"/>
			<line class="st20" x1="1012.66" y1="927.18" x2="1009.28" y2="928.86"/>
			<line class="st20" x1="1020.08" y1="930.08" x2="1016.71" y2="931.76"/>
			<line class="st20" x1="1027.51" y1="932.97" x2="1024.13" y2="934.65"/>
			<line class="st20" x1="1034.93" y1="935.87" x2="1031.55" y2="937.55"/>
			<line class="st20" x1="1042.36" y1="938.77" x2="1038.98" y2="940.45"/>
			<line class="st20" x1="1049.78" y1="941.67" x2="1046.4" y2="943.34"/>
			<line class="st20" x1="1057.2" y1="944.56" x2="1053.83" y2="946.24"/>
			<line class="st20" x1="988.16" y1="924.2" x2="984.78" y2="925.88"/>
			<line class="st20" x1="995.58" y1="927.1" x2="992.21" y2="928.78"/>
			<line class="st20" x1="1003.01" y1="929.99" x2="999.63" y2="931.67"/>
			<line class="st20" x1="1010.43" y1="932.89" x2="1007.05" y2="934.57"/>
			<line class="st20" x1="1017.86" y1="935.79" x2="1014.48" y2="937.47"/>
			<line class="st20" x1="1025.28" y1="938.69" x2="1021.9" y2="940.36"/>
			<line class="st20" x1="1032.71" y1="941.58" x2="1029.33" y2="943.26"/>
			<line class="st20" x1="1040.13" y1="944.48" x2="1036.75" y2="946.16"/>
			<line class="st20" x1="1047.55" y1="947.38" x2="1044.17" y2="949.05"/>
			<line class="st20" x1="1054.98" y1="950.27" x2="1051.6" y2="951.95"/>
			<line class="st20" x1="985.93" y1="929.91" x2="982.55" y2="931.59"/>
			<line class="st20" x1="993.35" y1="932.81" x2="989.98" y2="934.49"/>
			<line class="st20" x1="1000.78" y1="935.7" x2="997.4" y2="937.38"/>
			<line class="st20" x1="1008.2" y1="938.6" x2="1004.82" y2="940.28"/>
			<line class="st20" x1="1015.63" y1="941.5" x2="1012.25" y2="943.18"/>
			<line class="st20" x1="1023.05" y1="944.4" x2="1019.67" y2="946.07"/>
			<line class="st20" x1="1030.48" y1="947.29" x2="1027.1" y2="948.97"/>
			<line class="st20" x1="1037.9" y1="950.19" x2="1034.52" y2="951.87"/>
			<line class="st20" x1="1045.32" y1="953.09" x2="1041.94" y2="954.77"/>
			<line class="st20" x1="1052.75" y1="955.98" x2="1049.37" y2="957.66"/>
			<line class="st20" x1="983.7" y1="935.62" x2="980.32" y2="937.3"/>
			<line class="st20" x1="991.13" y1="938.52" x2="987.75" y2="940.19"/>
			<line class="st20" x1="998.55" y1="941.41" x2="995.17" y2="943.09"/>
			<line class="st20" x1="1005.98" y1="944.31" x2="1002.6" y2="945.99"/>
			<line class="st20" x1="1013.4" y1="947.21" x2="1010.02" y2="948.89"/>
			<line class="st20" x1="1020.82" y1="950.11" x2="1017.44" y2="951.78"/>
			<line class="st20" x1="1028.25" y1="953" x2="1024.87" y2="954.68"/>
			<line class="st20" x1="1035.67" y1="955.9" x2="1032.29" y2="957.58"/>
			<line class="st20" x1="1043.1" y1="958.8" x2="1039.72" y2="960.47"/>
			<line class="st20" x1="1050.52" y1="961.69" x2="1047.14" y2="963.37"/>
			<line class="st20" x1="981.48" y1="941.33" x2="978.1" y2="943.01"/>
			<line class="st20" x1="988.9" y1="944.23" x2="985.52" y2="945.91"/>
			<line class="st20" x1="996.32" y1="947.12" x2="992.94" y2="948.8"/>
			<line class="st20" x1="1003.75" y1="950.02" x2="1000.37" y2="951.7"/>
			<line class="st20" x1="1011.17" y1="952.92" x2="1007.79" y2="954.6"/>
			<line class="st20" x1="1018.6" y1="955.82" x2="1015.22" y2="957.49"/>
			<line class="st20" x1="1026.02" y1="958.71" x2="1022.64" y2="960.39"/>
			<line class="st20" x1="1033.44" y1="961.61" x2="1030.06" y2="963.29"/>
			<line class="st20" x1="1040.87" y1="964.51" x2="1037.49" y2="966.19"/>
			<line class="st20" x1="1048.29" y1="967.4" x2="1044.91" y2="969.08"/>
			<line class="st20" x1="979.25" y1="947.04" x2="975.87" y2="948.72"/>
			<line class="st20" x1="986.67" y1="949.94" x2="983.29" y2="951.62"/>
			<line class="st20" x1="994.1" y1="952.83" x2="990.72" y2="954.51"/>
			<line class="st20" x1="1001.52" y1="955.73" x2="998.14" y2="957.41"/>
			<line class="st20" x1="1008.94" y1="958.63" x2="1005.56" y2="960.31"/>
			<line class="st20" x1="1016.37" y1="961.53" x2="1012.99" y2="963.2"/>
			<line class="st20" x1="1023.79" y1="964.42" x2="1020.41" y2="966.1"/>
			<line class="st20" x1="1031.22" y1="967.32" x2="1027.84" y2="969"/>
			<line class="st20" x1="1038.64" y1="970.22" x2="1035.26" y2="971.9"/>
			<line class="st20" x1="1046.06" y1="973.11" x2="1042.68" y2="974.79"/>
		</g>
	</g>
</g>
<g>
	<path class="st11" d="M947.28,1163.02c0,0-5.95-16.09-5.96-16.12c-0.32-0.86,13.67-1.64,14.53-1.55
		c10.78,1.18,15.89,8.81,20.77,17.59c2.9,5.23,10.77,22,18.68,20.41l-19.28,4.21L947.28,1163.02z"/>
	<path class="st11" d="M1024.55,1179.72c5.37,1.05,8.16,6.12,11.79,9.65c3.9,3.8,9.75,5.73,15.16,4.29c0.13-0.03,0.13-0.04,0-0.01
		c-2.91,1.78-7.22,3.95-10.54,4.96c-3.63,1.11-7.51-1.68-10.43-3.89c-1.4-1.06-3.16-3.17-4.94-3.7c-3.79-1.14-13.11,3.03-13.41-4.08
		c-0.23-5.36,4.77-7.11,9.23-7.41C1022.57,1179.47,1023.61,1179.53,1024.55,1179.72z"/>
	<path class="st9" d="M932.81,1173.53c2.02,6.45,11.84,5.55,16.49,8.33c11.3,6.75-5.21,26.35-1.43,35.84
		c3.36,8.42,10.62-1.29,12.82-4.57c4.31-6.41,7.73-8.42,15.5-8.41c7.23,0.01,24.22-0.74,30.84,2.72c2.81,1.46,5.14,3.51,6.68,6.39
		c1.51,2.83,1.34,5.26,3.91,6.92c7.3,4.72,7.97-3.13,6.6-8.34c-1.45-5.5-2.49-11.42-4.21-16.82c-1.46-4.59-3.52-9.84-8.05-12.25
		c-5.25-2.79-21.79-1.8-27.37-3.49c-7.78-2.35-12.2-7.2-17.15-13.33c-2.75-3.39-4.09-5.51-8.43-6.66
		C951.35,1157.84,928.65,1160.22,932.81,1173.53z"/>
	<path class="st1" d="M932.3,1204.49c7.75,16.85,29.15,28.97,54.36,28.97c25.21,0,46.61-12.12,54.36-28.97"/>
	<g>
		<path class="st18" d="M981.63,1190.56c0,0,10.66,5.12,21.38,2.59c0,0,1.16-5.36,1.41-11.51c-6.97-0.73-16-0.63-19.84-1.79
			c-0.09-0.03-0.16-0.06-0.25-0.09C982.71,1183.9,981.32,1188.29,981.63,1190.56z"/>
	</g>
	<path class="st2" d="M950.63,1164.88c-2.79,0-2.79,4.33,0,4.33C953.42,1169.22,953.42,1164.88,950.63,1164.88z"/>
</g>
<g>
	<path class="st22" d="M-190.28,258.27c0,0-25.13,4.77-22.12,31.73C-212.4,290-190.3,288.27-190.28,258.27z"/>
	<path class="st22" d="M-129.76,258.27c0,0,25.13,4.77,22.12,31.73C-107.64,290-129.74,288.27-129.76,258.27z"/>
	<path class="st23" d="M-190.54,248.87c1.13,4.99-0.31,9.65-3.22,10.41c-2.91,0.77-6.19-2.65-7.32-7.64
		c-1.13-4.98,0.31-9.65,3.22-10.41C-194.95,240.47-191.67,243.89-190.54,248.87z"/>
	<path class="st23" d="M-129.5,248.87c-1.13,4.99,0.31,9.65,3.22,10.41c2.91,0.77,6.19-2.65,7.32-7.64
		c1.13-4.98-0.31-9.65-3.22-10.41C-125.09,240.47-128.37,243.89-129.5,248.87z"/>
	<path class="st23" d="M-126.3,259.8c0,21.18-14.06,38.34-33.72,38.34l0,0c-19.66,0-33.72-17.17-33.72-38.34l-1.15-26.23
		c0-21.18,15.22-38.34,34.87-38.34l0,0c19.66,0,34.87,17.17,34.87,38.34L-126.3,259.8z"/>
	<path class="st24" d="M-164.93,278.59c0,0,3.95,1.75,9.22,0"/>
	<path class="st25" d="M-143.71,247.47c-3.25,0-3.25,5.43,0,5.43S-140.46,247.47-143.71,247.47z"/>
	<path class="st25" d="M-176.93,247.47c-3.25,0-3.25,5.43,0,5.43C-173.68,252.9-173.68,247.47-176.93,247.47z"/>
	<path class="st22" d="M-166.84,193.49v16.51c0,0,19.96,30.43,42.33,33.45c0,0,6.44-26.39-8.09-39.91
		C-132.61,203.53-147.82,184.95-166.84,193.49z"/>
	<path class="st22" d="M-166.84,193.49c0,0-11.74-3.81-25.55,14.22c0,0-11.01,14.87-2.66,35.74c0,0,21.46-16.3,28.21-33.45V193.49z"
		/>
	<path class="st24" d="M-162.82,262.58c0,0,2.38,3.05,5.36,0"/>
</g>
<g>
	<ellipse class="st23" cx="-193.47" cy="212.56" rx="3.46" ry="6.46"/>
	<ellipse class="st23" cx="-193.47" cy="225.48" rx="3.46" ry="6.46"/>
	<ellipse class="st23" cx="-187.48" cy="219.02" rx="5.99" ry="3.73"/>
	<ellipse class="st23" cx="-199.46" cy="219.02" rx="5.99" ry="3.73"/>
</g>
<g>
	<path class="st23" d="M20.73,73.34c1.27,5.18-0.34,10.02-3.6,10.82c-3.26,0.8-6.92-2.76-8.19-7.93c-1.27-5.18,0.34-10.02,3.6-10.82
		C15.8,64.62,19.47,68.17,20.73,73.34z"/>
	<path class="st23" d="M89.03,73.34c-1.27,5.18,0.35,10.02,3.6,10.82c3.26,0.8,6.92-2.76,8.19-7.93c1.27-5.18-0.35-10.02-3.6-10.82
		C93.96,64.62,90.3,68.17,89.03,73.34z"/>
	<path class="st23" d="M92.61,82.69c0,21.99-15.73,36.82-37.73,36.82l0,0c-21.99,0-37.73-14.83-37.73-36.82l-2.1-27.25
		c0-22,17.83-39.82,39.83-39.82l0,0c21.99,0,39.82,17.83,39.82,39.82L92.61,82.69z"/>
	<path class="st26" d="M42.65,100.25c0,0,10.2,5.78,23.79,0"/>
	<path class="st25" d="M72.14,68.88c-3.64,0-3.64,5.64,0,5.64C75.77,74.52,75.77,68.88,72.14,68.88z"/>
	<path class="st25" d="M36.96,68.88c-3.64,0-3.64,5.64,0,5.64S40.59,68.88,36.96,68.88z"/>
	<path class="st22" d="M81.4,12.88c-7.7-4.28-17.65-7.59-26.86-7.5c-9.21-0.09-19.15,3.22-26.86,7.5
		c-10.2,5.67-17.25,19.68-17.25,32.25c0,13.01,0.23,30.6,7.52,30.6c1.81,0,5.25-9.87,6.41-15.09c0.32-1.44,0.86-2.8,1.53-4.09
		c4.43-1.41,13.22-5.18,17.22-13.54c0.33-0.13,0.65-0.26,0.98-0.38c-0.1,3.42-1.34,8.01-5.7,13.15c0,0,14.93-2.95,20.16-14.87
		c0.29,3.5-0.52,8.81-5.65,14.87c0,0,11.27-2.23,17.65-10.64c0.05,0.02,0.09,0.05,0.14,0.07c-0.32,3.28-1.71,7.45-5.63,12.06
		c0,0,7.4-1.47,13.61-6.49c2.92,2.75,5.16,6.02,6.02,9.86c1.17,5.22,4.6,15.09,6.41,15.09c7.29,0,7.52-17.59,7.52-30.6
		C98.65,32.56,91.6,18.55,81.4,12.88z"/>
</g>
<path class="st27" d="M1495.49,581.05c0,5.52-4.45,10-9.94,10h-24.23c-5.49,0-9.94-4.48-9.94-10v-28.28c0-5.52,4.45-10,9.94-10
	h24.23c5.49,0,9.94,4.48,9.94,10V581.05z"/>
<rect x="1451.64" y="512.79" class="st28" width="43.85" height="59.95"/>
<g>
	<polygon class="st5" points="1473.08,489.16 1477.58,492.72 1481.74,489.96 1473.31,475.97 1465.03,490.04 1468.42,492.72 	"/>
	<polygon class="st29" points="1495.49,512.79 1481.74,489.96 1477.58,492.72 1473.08,489.16 1468.42,492.72 1465.03,490.04 
		1451.64,512.79 	"/>
</g>
<rect x="1465.03" y="512.79" class="st13" width="16.71" height="59.95"/>
<g>
	<path class="st9" d="M1473.31,1131.54c-22.93,0-41.56,18.41-41.93,41.25h83.86C1514.87,1149.94,1496.24,1131.54,1473.31,1131.54z"
		/>
</g>
<path class="st14" d="M1451.29,1164.38c0,0,5.98-25.51,21.66-32.84"/>
<path class="st14" d="M1494.61,1164.38c0,0-5.98-25.51-21.66-32.84"/>
<g>
	<path class="st9" d="M1528.92,1175.27c1.48-4.41-1.39-9.35-6.48-10.72c-32.17-8.69-66.08-8.69-98.26,0
		c-5.09,1.37-7.96,6.31-6.48,10.72l0,0c1.48,4.42,6.32,6.78,10.87,5.56c29.29-7.92,60.17-7.92,89.46,0
		C1522.59,1182.05,1527.44,1179.69,1528.92,1175.27L1528.92,1175.27z"/>
	<path class="st14" d="M1528.92,1175.27c1.48-4.41-1.39-9.35-6.48-10.72c-32.17-8.69-66.08-8.69-98.26,0
		c-5.09,1.37-7.96,6.31-6.48,10.72l0,0c1.48,4.42,6.32,6.78,10.87,5.56c29.29-7.92,60.17-7.92,89.46,0
		C1522.59,1182.05,1527.44,1179.69,1528.92,1175.27L1528.92,1175.27z"/>
</g>
<path class="st24" d="M51.87,85.96c0,0,2.67,3.36,5.35,0"/>
<g>
	<path class="st11" d="M946.96,491.53c-4.92,0.55-9.25,3.5-12.08,7.68c-6.31,9.32,2.24,21.67-0.17,32.32
		c-0.52,2.28-1.96,5.43-3.99,6.76c-2.1,1.37-4.86,0.56-6.81,1.92c8.83,6.66,24.76,6.06,33.1-0.66c8.68-6.99,11.33-20.33,9.38-30.85
		c-0.68-3.67-1.54-10.12-3.88-13.17C959.35,491.39,951.67,491.01,946.96,491.53z"/>
	<path class="st11" d="M1033.46,491.53c4.92,0.55,9.25,3.5,12.08,7.68c6.31,9.32-2.24,21.67,0.17,32.32
		c0.52,2.28,1.96,5.43,3.99,6.76c2.1,1.37,4.86,0.56,6.81,1.92c-8.83,6.66-24.76,6.06-33.1-0.66c-8.68-6.99-11.33-20.33-9.38-30.85
		c0.68-3.67,1.54-10.12,3.88-13.17C1021.07,491.39,1028.75,491.01,1033.46,491.53z"/>
	<path class="st0" d="M956.06,541.6c1.27,5.18-0.35,10.02-3.6,10.82c-3.26,0.8-6.92-2.75-8.19-7.93c-1.27-5.18,0.35-10.02,3.6-10.82
		C951.13,532.87,954.79,536.42,956.06,541.6z"/>
	<path class="st0" d="M1024.35,541.6c-1.27,5.18,0.34,10.02,3.6,10.82c3.26,0.8,6.92-2.75,8.19-7.93c1.27-5.18-0.35-10.02-3.6-10.82
		C1029.29,532.87,1025.62,536.42,1024.35,541.6z"/>
	<path class="st0" d="M1027.94,550.94c0,21.99-15.73,39.82-37.73,39.82l0,0c-21.99,0-37.73-17.83-37.73-39.82l-2.1-27.25
		c0-22,17.83-39.83,39.83-39.83l0,0c21.99,0,39.82,17.83,39.82,39.83L1027.94,550.94z"/>
	<path class="st2" d="M973.3,543.4c-3.64,0-3.64,5.64,0,5.64C976.94,549.04,976.94,543.4,973.3,543.4z"/>
	<path class="st2" d="M1006.87,543.4c-3.64,0-3.64,5.64,0,5.64C1010.5,549.04,1010.5,543.4,1006.87,543.4z"/>
	<path class="st30" d="M965.11,537.01c0,0,3.77-5.29,10.91-3.39"/>
	<path class="st30" d="M1015.3,537.01c0,0-3.77-5.29-10.91-3.39"/>
	<path class="st1" d="M986.04,556.69c0,0,4.17,5.24,8.33,0"/>
	<path class="st1" d="M982.32,571.63c0,0,8.28,2.1,15.77,0"/>
	<path class="st31" d="M980.25,516.36c6.51-2.37,5.83-12.18,5.71-17.38"/>
	<path class="st31" d="M988.62,514.51c4.79-5-0.16-13.5-2.58-18.11"/>
	<path class="st11" d="M997.94,484.62c0.1,0.02-5.84,9.9-6.23,10.47c-4.34,6.27-10.2,13.3-17.21,16.57
		c-6.23,2.9-12.09,5.75-15.93,11.7c-3.86,5.99-5.99,12.58-6.7,19.68c0,0-7.49-20.51-0.17-36.76
		C951.71,506.28,965.11,477.03,997.94,484.62z"/>
	<path class="st11" d="M982.48,484.62c0,0,3.6,25.41,21.91,30.16c0,0,21.99,6.51,24.15,28.26c0,0,8.81-20.76,1.49-37.01
		C1030.03,506.03,1013.71,472.53,982.48,484.62z"/>
	<path class="st15" d="M966.47,559.02c0,2.68-2.17,4.85-4.85,4.85c-2.68,0-4.85-2.17-4.85-4.85c0-2.68,2.17-4.85,4.85-4.85
		C964.3,554.17,966.47,556.34,966.47,559.02z"/>
	<path class="st15" d="M1023.11,559.02c0,2.68-2.17,4.85-4.85,4.85c-2.68,0-4.85-2.17-4.85-4.85c0-2.68,2.17-4.85,4.85-4.85
		C1020.94,554.17,1023.11,556.34,1023.11,559.02z"/>
</g>
<path class="st13" d="M965.5,493.96c-0.3,3.13-3.07,5.42-6.2,5.13c-3.13-0.3-5.42-3.07-5.13-6.2c0.3-3.13,3.07-5.42,6.2-5.13
	C963.5,488.06,965.79,490.84,965.5,493.96z"/>
<path class="st13" d="M957.93,502.28c-0.3,3.13-3.07,5.42-6.2,5.13c-3.13-0.3-5.42-3.07-5.13-6.2c0.3-3.13,3.07-5.42,6.2-5.13
	C955.93,496.38,958.23,499.15,957.93,502.28z"/>
<path class="st13" d="M1014.92,493.96c0.3,3.13,3.07,5.42,6.2,5.13c3.13-0.3,5.42-3.07,5.13-6.2c-0.3-3.13-3.07-5.42-6.2-5.13
	C1016.92,488.06,1014.62,490.84,1014.92,493.96z"/>
<path class="st13" d="M1022.49,502.28c0.3,3.13,3.07,5.42,6.2,5.13c3.13-0.3,5.42-3.07,5.13-6.2c-0.3-3.13-3.07-5.42-6.2-5.13
	C1024.48,496.38,1022.19,499.15,1022.49,502.28z"/>
<path class="st27" d="M985.9,783.03c-3.03-0.39-5.91-0.49-7.63,0.93c-1.82,1.5-1.31,5.5,0.12,6.87c2.79,2.67,11.08,2.2,14.7,1.49
	c2.65-0.51,12.01-5.73,8.56-9.72c-1.6-1.85-4.58,0.64-6.14,1.09C993.18,784.36,989.44,783.49,985.9,783.03z"/>
<path class="st31" d="M964.46,755.72c0,0,7.25-0.67,11.25,2.17c0,0-9.25,1.33-11.25,5.72"/>
<path class="st31" d="M1015.05,755.72c0,0-7.25-0.67-11.25,2.17c0,0,9.25,1.33,11.25,5.72"/>
<path class="st17" d="M1467.89,921.53l-1.25,22.4c0,0,23.59,26.35,48.61,29.49c0,0,7.21-27.41-9.05-41.45
	C1506.2,931.97,1491.01,916.22,1467.89,921.53z"/>
<path class="st17" d="M1467.89,921.53c0,0-13.13-3.95-28.59,14.77c0,0-12.32,15.44-2.97,37.12c0,0,24.01-16.93,31.56-34.74V921.53z"
	/>
<path class="st17" d="M946.96,753.19c-0.41-4.22-3.88-8.4-4.62-13c-0.66-4.11-0.56-8.74-0.28-12.96c0.95,1.24,2.53,1.81,3.81,2.4
	c-0.29-6.55,2.39-11.84,3.95-17.79c0.34,0.83,0.93,1.41,1.22,2.27c0.6,0.27,1.23,0.27,1.81,0.54c0.77-4.65,4.03-8.57,5.74-12.91
	c0.4,1.04,1.56,2.2,1.95,3.37c5.89,0.01,6.97-6.78,10.8-9.37c1.09,2.9,3.2,7.05,6.25,5.6c1.3-0.62,4.98-7.4,5.99-9.09
	c2.09,2.82,4.87,4.05,8.4,4.36c1.53,0.14,1.98-1.31,4.47-0.43c2.11,0.75,3.37,4.31,5.5,5.04c3.45,1.17,4.04-2.28,7.51-2.03
	c3.64,0.26,7.24,6.85,9.9,8.97c0.21-1.44,1.07-2.5,1.17-3.9c4.42,1.97,4.96,10.99,6,15.36c1.14-0.61,2.21-0.31,3.34-1.77
	c0.39,4.36,0.42,8.8,0.65,13.27c1.68-0.28,3.4-1.58,4.84-2.36c0.59,6.99-3.06,17.56-6.05,23.9c-2.35-3.23-3.88-8.92-5.45-12.87
	c-0.65,0.46-0.82,0.09-1.5,0.82c-8.09,0.68-6.15-14.03-14.3-6.45c-3.37-7.17-5.28-1.41-9.11-0.94c-5.07,0.63-6.97-6.39-11.47,0.05
	c-4.51-3.55-5.79-1.84-10.43-0.15c-2.1-3.85-4.22-0.52-6.2,1.5c-3.18-2.89-3.9,0.12-6.9,1.14c-2.57,0.87-3.46-1.7-6.01,2.27
	c-3.08-2.38-8.42,11.71-8.99,14.67L946.96,753.19z"/>
<path class="st31" d="M1475.13,988.34c0,0-1.94,6.59,2.98,6.26"/>
<path class="st31" d="M1494.59,1005.72c0,0-4.63,7.67-18.02,7.67c-13.39,0-18.02-7.67-18.02-7.67"/>
<path class="st9" d="M1478.26,923.44c0,1.93-1.57,3.5-3.5,3.5l0,0c-1.93,0-3.5-1.57-3.5-3.5v-8.01c0-1.93,1.57-3.5,3.5-3.5l0,0
	c1.93,0,3.5,1.57,3.5,3.5V923.44z"/>
<g>
	<path class="st9" d="M1516.34,960.22c0.21-2.03,0.34-4.08,0.37-6.12c0.34-21.72-19.93-34.51-42.08-34.89
		c-22.14,0.38-42.42,13.18-42.07,34.89c0.03,1.88,0.3,4.27,0.68,6.73C1447.01,956,1479.24,947.87,1516.34,960.22z"/>
</g>
<path class="st23" d="M326.65,81.8c1.31,5.34-0.36,10.34-3.72,11.16c-3.36,0.82-7.14-2.84-8.45-8.18
	c-1.31-5.34,0.36-10.34,3.72-11.16C321.56,72.79,325.34,76.46,326.65,81.8z"/>
<path class="st23" d="M397.12,81.8c-1.31,5.34,0.36,10.34,3.72,11.16c3.36,0.82,7.14-2.84,8.45-8.18
	c1.31-5.34-0.36-10.34-3.72-11.16C402.21,72.79,398.43,76.46,397.12,81.8z"/>
<path class="st23" d="M399.15,91.45c0,22.7-10.03,41.67-37.27,41.09l0,0c-25.9,0.57-37.27-18.4-37.27-41.09l-3.83-28.12
	c0-22.7,18.4-41.09,41.09-41.09l0,0c22.7,0,41.1,18.4,41.1,41.09L399.15,91.45z"/>
<path class="st25" d="M341.4,73.69c-3.75,0-3.75,5.82,0,5.82C345.15,79.51,345.15,73.69,341.4,73.69z"/>
<path class="st25" d="M381.72,73.69c-3.75,0-3.75,5.82,0,5.82C385.47,79.51,385.47,73.69,381.72,73.69z"/>
<path class="st32" d="M353.95,110.97c0,0,6.94,4.43,15.38,0"/>
<path class="st32" d="M358.51,94.65c0,0,3.37,4.24,6.74,0"/>
<path class="st33" d="M321.02,45.49c-2.77,1.33-4.4,3.3-4.82,6.19c-0.76,5.28,0.1,11.63,0.7,16.85c0.53,4.67,6.63,11.01,9.7,5.16
	c1.27-2.42,1.63-5.41,2.76-7.91c1.25-2.78,2.39-4.96,2.67-7.91c0.55-5.85-2.82-13.38-9.63-12.73L321.02,45.49z"/>
<path class="st32" d="M393.94,47.9c0.43-2.25-3.46-4.82-4.91-6.04c-6.14-5.17-12.86-7.84-20.88-8.44c-4.46-0.34-8.07-0.09-12.43,0.9
	c-2.91,0.66-5.44,1.84-8.04,3.1"/>
<path class="st32" d="M393.94,56.57c0.43-2.25-3.46-4.82-4.91-6.04c-6.14-5.17-12.86-7.84-20.88-8.44
	c-4.46-0.34-8.07-0.09-12.43,0.9c-2.91,0.66-5.44,1.84-8.04,3.1"/>
<path class="st33" d="M402.75,45.49c2.77,1.33,4.4,3.3,4.82,6.19c0.76,5.28-0.1,11.63-0.7,16.85c-0.53,4.67-6.63,11.01-9.7,5.16
	c-1.27-2.42-1.63-5.41-2.76-7.91c-1.25-2.78-2.39-4.96-2.67-7.91c-0.55-5.85,2.82-13.38,9.63-12.73L402.75,45.49z"/>
<path class="st32" d="M353.54,101.47c0,0-7.15,2.98-10.44,9.5"/>
<path class="st32" d="M370.23,101.47c0,0,7.15,2.98,10.44,9.5"/>
<g>
	<path class="st23" d="M190.11,112.34c1.21,4.95-0.33,9.57-3.44,10.33c-3.11,0.76-6.61-2.63-7.83-7.58
		c-1.21-4.95,0.33-9.57,3.44-10.33C185.4,104,188.9,107.39,190.11,112.34z"/>
	<g>
		<path class="st22" d="M222.06,44.24c-23.27,0-42.16,20.46-42.54,45.86h85.08C264.22,64.71,245.32,44.24,222.06,44.24z"/>
	</g>
	<path class="st23" d="M255.36,112.34c-1.21,4.95,0.33,9.57,3.44,10.33c3.11,0.76,6.61-2.63,7.82-7.58
		c1.21-4.95-0.33-9.57-3.44-10.33C260.07,104,256.57,107.39,255.36,112.34z"/>
	<path class="st23" d="M258.78,121.27c0,21.01-15.03,38.05-36.05,38.05l0,0c-21.01,0-36.05-17.03-36.05-38.05l-2-26.03
		c0-21.01,17.04-38.05,38.05-38.05l0,0c21.01,0,38.05,17.03,38.05,38.05L258.78,121.27z"/>
	<path class="st32" d="M218.07,122.12c0,0,3.98,5.01,7.96,0"/>
	<path class="st33" d="M262.37,88.87c0,0-3.52-3.36-3.2-6.24c0,0,2.08-9.12-5.12-11.84c0,0,1.28-10.08-7.52-11.2
		c0,0-4.8-9.23-12.32-3.98l-0.54,0.64c-1.84-1.9-4.4-3.08-7.25-3.08c-0.87,0-1.69,0.14-2.49,0.35c-1.74-3.59-5.41-6.06-9.67-6.06
		c-5.94,0-10.76,4.82-10.76,10.76c0,0.57,0.06,1.12,0.14,1.66c-6.49,0.26-11.67,5.59-11.67,12.14c0,0.5,0.04,1,0.1,1.48
		c-0.33-0.05-0.67-0.08-1.02-0.08c-3.41,0-6.17,2.66-6.4,6.01c-6.28,0.47-11.24,5.71-11.24,12.11c0,2.87,1,5.51,2.67,7.59
		c0.61,6.14,5.8,10.94,12.1,10.94c6.72,0,12.16-5.45,12.16-12.16c0-0.46-0.03-0.91-0.08-1.36c-0.03-5.52,4.2-6.04,5.84-6.03
		c0.21,0.01,0.42,0.03,0.64,0.03c5.97,0,10.92-4.3,11.95-9.97l0,0c1.32-3.71,5.19-2.19,5.19-2.19l0.02-0.04
		c1.51,0.89,3.24,1.44,5.12,1.44c3.34,0,6.3-1.63,8.14-4.13c2.28-0.2,5.48,0.25,7.48,3.69c-0.22,1.2-0.59,4.06,0.38,6.73
		c-0.08,0.23-0.16,0.46-0.26,0.69c0,0-2.88,10.91,7.2,12.67c0,0,4.48,1.76,2.08,9.28c0,0,0.16,3.84,3.68,2.56
		c0,0,8.16-5.4,4.83-13.92C263.51,95.07,263.82,92.2,262.37,88.87z"/>
	<path class="st34" d="M251.25,104.72c0.84,3.95-3.82,11.12-10.44,11.33c-6.65,0.21-12.47-0.69-13.31-4.64
		c-0.84-3.95,3.76-8.27,10.27-9.65C244.28,100.37,250.41,100.77,251.25,104.72z"/>
	<path class="st34" d="M194.51,104.72c-0.84,3.95,3.82,11.12,10.44,11.33c6.65,0.21,12.47-0.69,13.31-4.64
		c0.84-3.95-3.76-8.27-10.27-9.65C201.48,100.37,195.35,100.77,194.51,104.72z"/>
	<path class="st34" d="M218.36,108.95c0,0,5.14-2.6,9.05,0.74"/>
	<path class="st25" d="M206.57,106.14c-3.47,0-3.47,5.39,0,5.39C210.04,111.53,210.04,106.14,206.57,106.14z"/>
	<path class="st25" d="M239.38,106.14c-3.47,0-3.47,5.39,0,5.39C242.85,111.53,242.85,106.14,239.38,106.14z"/>
	<path class="st32" d="M214.76,131.58c0,0-6.11,3.75-8.19,10.19"/>
	<path class="st32" d="M230.71,131.58c0,0,6.11,3.75,8.19,10.19"/>
	<path class="st32" d="M218.39,141.88c0,0,3.66,2.75,7.64,0"/>
	<path class="st32" d="M228.64,137.56c0,0-0.77,0.9-3.72,0c0,0-1.28-0.9-2.82,0h0.22c-1.54-0.9-2.82,0-2.82,0
		c-2.95,0.9-3.72,0-3.72,0"/>
</g>
<g>
	<path class="st0" d="M322.26,246.25c1.27,5.18-0.35,10.02-3.6,10.82c-3.26,0.8-6.92-2.75-8.19-7.93
		c-1.27-5.18,0.35-10.02,3.6-10.82C317.32,237.52,320.99,241.07,322.26,246.25z"/>
	<path class="st0" d="M390.55,246.25c-1.27,5.18,0.34,10.02,3.6,10.82c3.26,0.8,6.92-2.75,8.19-7.93c1.27-5.18-0.35-10.02-3.6-10.82
		C395.48,237.52,391.82,241.07,390.55,246.25z"/>
	<path class="st0" d="M394.13,255.6c0,21.99-15.73,39.82-37.73,39.82l0,0c-21.99,0-37.73-17.83-37.73-39.82l-2.1-27.25
		c0-22,17.83-39.83,39.83-39.83l0,0c21.99,0,39.82,17.83,39.82,39.83L394.13,255.6z"/>
	<path class="st2" d="M339.49,239.05c-3.64,0-3.64,5.64,0,5.64C343.13,244.69,343.13,239.05,339.49,239.05z"/>
	<path class="st2" d="M373.06,239.05c-3.64,0-3.64,5.64,0,5.64C376.7,244.69,376.7,239.05,373.06,239.05z"/>
	<path class="st1" d="M352.24,258.34c0,0,4.17,5.24,8.33,0"/>
	<path class="st1" d="M345.79,273.12c0,0,11.15,2.82,21.22,0"/>
	<g>
		<path class="st14" d="M349.24,251.94c0,1.66-1.34,3-3,3h-17.5c-1.66,0-3-1.34-3-3l-1-14.5c0-1.66,1.34-3,3-3h20.5
			c1.66,0,3,1.34,3,3L349.24,251.94z"/>
		<path class="st14" d="M363.57,251.94c0,1.66,1.34,3,3,3h17.5c1.66,0,3-1.34,3-3l1-14.5c0-1.66-1.34-3-3-3h-20.5
			c-1.66,0-3,1.34-3,3L363.57,251.94z"/>
		<path class="st14" d="M350.92,239.72c0,0,5.23-4.85,10.96,0"/>
	</g>
	<path class="st35" d="M361.49,199.85c0,0-45.2,14.32-44.22,38.67l-6.39-21.35c0,0,5.78-53.91,61.51-34.87L361.49,199.85z"/>
	<path class="st35" d="M361.49,199.85c0,0,30.6,14.78,33.36,43.21l1.23-8.46c0,0,17.42-39.02-23.69-52.3L361.49,199.85z"/>
	<line class="st14" x1="317.37" y1="235.69" x2="324.74" y2="238.64"/>
	<line class="st14" x1="395.44" y1="235.69" x2="388.07" y2="238.64"/>
</g>
<g>
	<path class="st23" d="M188.87,282.55c1.27,5.18-0.35,10.02-3.6,10.82c-3.26,0.8-6.92-2.75-8.19-7.93
		c-1.27-5.18,0.35-10.02,3.6-10.82C183.93,273.83,187.6,277.38,188.87,282.55z"/>
	<path class="st23" d="M257.16,282.55c-1.27,5.18,0.34,10.02,3.6,10.82c3.26,0.8,6.92-2.75,8.19-7.93
		c1.27-5.18-0.35-10.02-3.6-10.82C262.1,273.83,258.43,277.38,257.16,282.55z"/>
	<path class="st23" d="M260.74,291.9c0,21.99-15.73,39.82-37.73,39.82l0,0c-21.99,0-37.73-17.83-37.73-39.82l-2.1-27.25
		c0-22,17.83-39.83,39.83-39.83l0,0c21.99,0,39.82,17.83,39.82,39.83L260.74,291.9z"/>
	<path class="st25" d="M206.11,275.36c-3.64,0-3.64,5.64,0,5.64S209.74,275.36,206.11,275.36z"/>
	<path class="st25" d="M239.67,275.36c-3.64,0-3.64,5.64,0,5.64C243.31,281,243.31,275.36,239.67,275.36z"/>
	<path class="st32" d="M218.85,294.65c0,0,4.17,5.24,8.33,0"/>
	<path class="st32" d="M212.4,309.43c0,0,11.15,2.82,21.22,0"/>
	<g>
		<path class="st34" d="M215.85,288.25c0,1.66-1.34,3-3,3h-17.5c-1.66,0-3-1.34-3-3l-1-14.5c0-1.66,1.34-3,3-3h20.5
			c1.66,0,3,1.34,3,3L215.85,288.25z"/>
		<path class="st34" d="M230.18,288.25c0,1.66,1.34,3,3,3h17.5c1.66,0,3-1.34,3-3l1-14.5c0-1.66-1.34-3-3-3h-20.5
			c-1.66,0-3,1.34-3,3L230.18,288.25z"/>
		<path class="st34" d="M217.54,276.02c0,0,5.23-4.85,10.96,0"/>
	</g>
	<path class="st22" d="M228.1,236.15c0,0-45.2,14.32-44.22,38.67l-6.39-21.35c0,0,5.78-53.91,61.51-34.87L228.1,236.15z"/>
	<path class="st22" d="M228.1,236.15c0,0,30.6,14.78,33.36,43.21l1.23-8.46c0,0,17.42-39.02-23.69-52.3L228.1,236.15z"/>
	<line class="st23" x1="183.98" y1="271.99" x2="191.35" y2="274.94"/>
	<line class="st34" x1="262.05" y1="271.99" x2="254.68" y2="274.94"/>
</g>
<g>
	<path class="st0" d="M1.08,258.77c1.24,5.18-0.34,10.02-3.51,10.82c-3.18,0.8-6.76-2.75-7.99-7.93
		c-1.24-5.18,0.34-10.02,3.51-10.82C-3.73,250.04-0.15,253.59,1.08,258.77z"/>
	<path class="st0" d="M67.74,258.77c-1.24,5.18,0.34,10.02,3.52,10.82c3.18,0.8,6.76-2.75,7.99-7.93
		c1.24-5.18-0.34-10.02-3.52-10.82C72.55,250.04,68.97,253.59,67.74,258.77z"/>
	<path class="st23" d="M69.87,269.28c0,21.99-13.78,39.82-35.25,39.82l0,0c-21.47,0-35.25-17.83-35.25-39.82l-3.62-27.25
		c0-21.99,17.4-39.82,38.87-39.82l0,0c21.46,0,38.87,17.83,38.87,39.82L69.87,269.28z"/>
	<g>
		<path class="st22" d="M17.29,197.59c-10.9,5.12-18.68,14.47-23.08,25.75c-2.15,5.51-2.83,11.42-3.77,17.48
			c-0.91,5.86-3.36,11.36-4.97,17.16c-1.97,7.09-2.84,15.32-2.77,22.99c0.07,7.27,3.99,13.1,5.12,20.34
			c0.12,0.75,1.26,6.85,0.68,7.17c11.03-6.11,27.18,0.58,30.32-4.8c-0.15-0.34-0.31-0.67-0.46-1.01
			c-16.5-9.07-18.97-25.95-18.97-25.95c-4.28-48,31.83-67.46,31.83-67.46s3.8-3.05,14.71-5.25
			C47.73,198.67,25.76,193.62,17.29,197.59z"/>
	</g>
	<g>
		<path class="st22" d="M80.31,308.5c-3.18-1.77,4.31-16.75,4.95-18.98c2.75-9.56,0.58-22.52-1.92-31.54
			c-2.03-7.3-4.8-14.6-5.45-22.22c-0.37-4.33-1.71-8.4-3.28-12.42c-4.4-11.28-12.18-20.63-23.08-25.75c-8.47-3.98-18.37-5-27.6-4.54
			c-3.95,0.2-2.71,6.3-0.7,11.97c1.51,4.26,3.45,8.29,3.94,9.39c9.94,22.08,38.72,29.74,37.85,56.87
			c-0.31,9.77-7.78,17.85-12.01,26.13c-1.04,2.04-2.06,4.14-3,6.29C53.14,309.07,69.28,302.39,80.31,308.5z"/>
	</g>
</g>
<ellipse class="st25" cx="30.71" cy="85.96" rx="6.67" ry="3.09"/>
<ellipse class="st25" cx="79.05" cy="85.96" rx="6.67" ry="3.09"/>
<path class="st25" d="M45.23,255.66c-3.55,0-3.55,5.64,0,5.64C48.77,261.3,48.77,255.66,45.23,255.66z"/>
<path class="st25" d="M14.74,255.48c-3.55,0-3.55,5.64,0,5.64C18.29,261.12,18.29,255.48,14.74,255.48z"/>
<path class="st34" d="M25.16,258.3c0,5.9-4.67,10.68-10.42,10.68S4.32,264.19,4.32,258.3c0-5.9,4.67-10.68,10.42-10.68
	S25.16,252.4,25.16,258.3z"/>
<path class="st34" d="M55.02,258.3c0,5.9-4.67,10.68-10.42,10.68c-5.76,0-10.42-4.78-10.42-10.68c0-5.9,4.67-10.68,10.42-10.68
	C50.35,247.62,55.02,252.4,55.02,258.3z"/>
<path class="st32" d="M25.61,257.25c0,0,4.08-4.7,8.11,0"/>
<path class="st32" d="M20.88,289.9c0,0,8.57,2.75,17.57,0"/>
<path class="st32" d="M26.9,276.1c0,0,2.58,2.83,5.54,0"/>
<ellipse class="st25" cx="-181.92" cy="261.62" rx="5.96" ry="2.97"/>
<ellipse class="st25" cx="-138.72" cy="261.62" rx="5.96" ry="2.97"/>
</svg>
