<?xml version="1.0" encoding="utf-8"?>
<!-- Generator: Adobe Illustrator 23.1.0, SVG Export Plug-In . SVG Version: 6.00 Build 0)  -->
<svg version="1.1" id="Layer_1" xmlns="http://www.w3.org/2000/svg" xmlns:xlink="http://www.w3.org/1999/xlink" x="0px" y="0px"
	 viewBox="0 0 373.7 55.2" style="enable-background:new 0 0 373.7 55.2;" xml:space="preserve">
<style type="text/css">
	.st0{fill:#242424;}
	.st1{fill:#404041;}
</style>
<g>
	<g>
		<path class="st0" d="M12,48.2c0,0.2-0.1,0.4-0.2,0.6c-0.1,0.2-0.4,0.3-0.7,0.4c-0.3,0.1-0.8,0.2-1.4,0.3c-0.6,0.1-1.3,0.1-2.2,0.1
			c-0.9,0-1.6,0-2.2-0.1c-0.6-0.1-1-0.2-1.4-0.3c-0.3-0.1-0.6-0.3-0.7-0.4C3.1,48.7,3,48.4,3,48.2V6.6c0-0.2,0.1-0.4,0.2-0.6
			C3.4,5.8,3.6,5.6,4,5.5c0.4-0.1,0.8-0.2,1.4-0.3s1.3-0.1,2.1-0.1c0.9,0,1.6,0,2.2,0.1c0.6,0.1,1,0.2,1.4,0.3
			c0.3,0.1,0.6,0.3,0.7,0.4C11.9,6.1,12,6.3,12,6.6V48.2z"/>
		<path class="st0" d="M58,46.3c0,0.5-0.1,1-0.3,1.4c-0.2,0.4-0.4,0.8-0.7,1c-0.3,0.3-0.7,0.5-1.1,0.6c-0.4,0.1-0.8,0.2-1.3,0.2
			h-3.8c-0.8,0-1.5-0.1-2.1-0.2c-0.6-0.2-1.1-0.4-1.6-0.9c-0.5-0.4-1-1-1.4-1.7c-0.5-0.7-1-1.6-1.5-2.8l-11-20.6
			c-0.6-1.2-1.3-2.6-1.9-4c-0.7-1.4-1.3-2.8-1.8-4.1h-0.1c0.1,1.6,0.2,3.3,0.2,4.9c0,1.6,0.1,3.3,0.1,5v23.1c0,0.2-0.1,0.4-0.2,0.6
			c-0.1,0.2-0.3,0.3-0.6,0.5c-0.3,0.1-0.7,0.2-1.2,0.3s-1.2,0.1-2,0.1c-0.8,0-1.5,0-2-0.1c-0.5-0.1-0.9-0.2-1.2-0.3
			c-0.3-0.1-0.5-0.3-0.6-0.5c-0.1-0.2-0.2-0.4-0.2-0.6V8.5c0-1.1,0.3-1.9,0.9-2.4c0.6-0.5,1.4-0.8,2.3-0.8h4.8
			c0.9,0,1.6,0.1,2.2,0.2c0.6,0.1,1.1,0.4,1.6,0.7c0.5,0.3,0.9,0.8,1.3,1.4S35.6,9,36,9.9l8.6,16.1c0.5,1,1,1.9,1.5,2.9
			c0.5,0.9,1,1.9,1.4,2.8c0.5,0.9,0.9,1.9,1.3,2.8c0.4,0.9,0.9,1.8,1.3,2.7h0c-0.1-1.6-0.1-3.3-0.2-5c0-1.7,0-3.4,0-4.9V6.7
			c0-0.2,0.1-0.4,0.2-0.6c0.1-0.2,0.4-0.3,0.7-0.5c0.3-0.1,0.7-0.2,1.3-0.3c0.5-0.1,1.2-0.1,2-0.1c0.8,0,1.4,0,1.9,0.1
			c0.5,0.1,0.9,0.2,1.2,0.3c0.3,0.1,0.5,0.3,0.6,0.5C57.9,6.2,58,6.4,58,6.7V46.3z"/>
		<path class="st0" d="M99.6,36.2c0,1.6-0.2,3-0.6,4.3c-0.4,1.3-1,2.4-1.8,3.4c-0.8,1-1.7,1.8-2.7,2.5c-1.1,0.7-2.2,1.3-3.5,1.7
			c-1.3,0.5-2.6,0.8-4.1,1c-1.4,0.2-3,0.3-4.8,0.3H70.3c-0.8,0-1.4-0.2-1.9-0.7c-0.5-0.4-0.8-1.2-0.8-2.2V8.2c0-1,0.3-1.7,0.8-2.2
			c0.5-0.4,1.1-0.7,1.9-0.7h11.1c2.7,0,5,0.2,6.9,0.7c1.9,0.5,3.5,1.1,4.7,2.1c1.3,0.9,2.3,2.1,3,3.5s1,3.1,1,5c0,1.1-0.1,2.1-0.4,3
			c-0.3,0.9-0.7,1.8-1.2,2.6c-0.5,0.8-1.2,1.5-1.9,2c-0.8,0.6-1.6,1.1-2.6,1.4c1.3,0.2,2.4,0.6,3.5,1.2c1.1,0.6,2,1.3,2.8,2.2
			c0.8,0.9,1.4,2,1.9,3.2C99.3,33.4,99.6,34.7,99.6,36.2z M88,17.6c0-0.9-0.1-1.7-0.4-2.4c-0.3-0.7-0.7-1.3-1.2-1.8
			c-0.5-0.5-1.2-0.8-2.1-1.1c-0.8-0.3-1.9-0.4-3.3-0.4h-4.5v11.5h5c1.3,0,2.3-0.2,3.1-0.5c0.8-0.3,1.4-0.7,1.9-1.3
			c0.5-0.5,0.9-1.2,1.1-1.9C87.8,19.2,88,18.4,88,17.6z M90.2,36.5c0-1-0.2-1.9-0.5-2.7c-0.3-0.8-0.8-1.5-1.5-2
			c-0.7-0.5-1.5-1-2.5-1.3c-1-0.3-2.4-0.4-4-0.4h-5.3v12.5h6.5c1.3,0,2.3-0.1,3.2-0.4c0.9-0.3,1.6-0.6,2.2-1.2
			c0.6-0.5,1.1-1.1,1.5-1.9C90.1,38.4,90.2,37.5,90.2,36.5z"/>
		<path class="st0" d="M122.2,32.7v15.5c0,0.2-0.1,0.4-0.2,0.6c-0.1,0.2-0.4,0.3-0.7,0.4s-0.8,0.2-1.4,0.3c-0.6,0.1-1.3,0.1-2.2,0.1
			c-0.9,0-1.6,0-2.2-0.1c-0.6-0.1-1-0.2-1.4-0.3c-0.4-0.1-0.6-0.3-0.7-0.4c-0.1-0.2-0.2-0.4-0.2-0.6V32.7l-12.1-24
			c-0.4-0.8-0.7-1.5-0.8-2c-0.1-0.5-0.1-0.8,0.2-1.1c0.3-0.2,0.7-0.4,1.4-0.4c0.7-0.1,1.7-0.1,2.9-0.1c1,0,1.9,0,2.5,0.1
			c0.6,0,1.1,0.1,1.5,0.3c0.4,0.1,0.6,0.3,0.8,0.5c0.2,0.2,0.3,0.5,0.5,0.8l4.9,10.8c0.5,1,0.9,2.1,1.4,3.3c0.5,1.2,0.9,2.4,1.4,3.6
			h0.1c0.4-1.2,0.9-2.4,1.3-3.6c0.5-1.2,0.9-2.3,1.3-3.3l4.8-10.8c0.1-0.4,0.3-0.7,0.4-0.9c0.2-0.2,0.4-0.4,0.8-0.5
			c0.3-0.1,0.8-0.2,1.4-0.3c0.6,0,1.4-0.1,2.4-0.1c1.3,0,2.3,0,3,0.1c0.7,0.1,1.2,0.2,1.5,0.4c0.3,0.2,0.3,0.6,0.2,1.1
			c-0.1,0.5-0.4,1.1-0.8,1.9L122.2,32.7z"/>
		<path class="st0" d="M176.7,33c0,2.7-0.4,5.1-1.2,7.3c-0.8,2.1-2,3.9-3.5,5.4c-1.5,1.5-3.5,2.6-5.7,3.4c-2.3,0.8-4.9,1.2-7.8,1.2
			c-2.8,0-5.3-0.3-7.5-1c-2.2-0.7-4.1-1.7-5.6-3.2s-2.7-3.2-3.5-5.3c-0.8-2.1-1.2-4.6-1.2-7.4V6.6c0-0.2,0.1-0.4,0.2-0.6
			c0.1-0.2,0.4-0.3,0.7-0.4c0.4-0.1,0.8-0.2,1.4-0.3c0.6-0.1,1.3-0.1,2.2-0.1c0.9,0,1.6,0,2.1,0.1c0.6,0.1,1,0.2,1.4,0.3
			c0.3,0.1,0.6,0.3,0.7,0.4c0.1,0.2,0.2,0.4,0.2,0.6v26.1c0,1.8,0.2,3.3,0.6,4.6c0.4,1.3,1.1,2.3,1.9,3.2c0.8,0.8,1.8,1.5,2.9,1.9
			c1.1,0.4,2.4,0.6,3.8,0.6c1.4,0,2.7-0.2,3.8-0.6c1.1-0.4,2.1-1.1,2.8-1.9c0.8-0.8,1.4-1.9,1.8-3.1c0.4-1.2,0.6-2.6,0.6-4.1V6.6
			c0-0.2,0.1-0.4,0.2-0.6c0.1-0.2,0.4-0.3,0.7-0.4c0.3-0.1,0.8-0.2,1.4-0.3c0.6-0.1,1.3-0.1,2.2-0.1s1.6,0,2.1,0.1
			c0.6,0.1,1,0.2,1.3,0.3c0.3,0.1,0.6,0.3,0.7,0.4c0.1,0.2,0.2,0.4,0.2,0.6V33z"/>
	</g>
	<g>
		<g>
			<g>
				<path class="st1" d="M193.2,40.4c1-0.7,2.3-1,3.4-1c1.7,0,2.9,0.8,3.4,2.1c0.2,0.4,0.2,0.9,0.2,1.6v4.2c0,0.5,0,1.3,0.2,2.1
					h-1.8c-0.1-0.2-0.2-0.9-0.2-0.9c-0.6,0.6-1.8,1.2-2.9,1.2c-1.8,0-3.5-1.2-3.5-3.2c0-2.5,2.1-3.5,4.9-3.5c0.5,0,0.9,0,1.4,0.1
					v-0.2c0-1.1-0.6-2-2.1-2c-0.9,0-1.7,0.3-2.5,0.8L193.2,40.4z M195.9,48.2c1.5,0,2.6-0.9,2.6-2.4v-1.5c-0.4,0-0.9-0.1-1.3-0.1
					c-2,0-3.3,0.6-3.3,2.1C193.9,47.5,194.8,48.2,195.9,48.2z"/>
				<path class="st1" d="M302.5,48.4c-1,0.9-2.2,1.3-3.4,1.3c-2.9,0-4.9-2.2-4.9-5c0-3.1,2.1-5.2,5-5.2c1.2,0,2.2,0.4,3.1,0.9
					l-0.7,1.3c-0.7-0.4-1.5-0.7-2.5-0.7c-1.9,0-3.2,1.5-3.2,3.7c0,2.4,1.7,3.6,3.2,3.6c0.9,0,1.7-0.3,2.5-1L302.5,48.4z"/>
				<path class="st1" d="M308.5,39.4c2.6,0,4.7,2,4.7,5.1c0,3.1-2.1,5.1-4.7,5.1s-4.7-2-4.7-5.1C303.9,41.4,305.9,39.4,308.5,39.4z
					 M308.5,48.3c1.6,0,2.9-1.4,2.9-3.7c0-2.4-1.3-3.8-2.9-3.8c-1.6,0-2.9,1.4-2.9,3.8C305.6,46.9,306.9,48.3,308.5,48.3z"/>
				<path class="st1" d="M317.1,40.7c0.5-0.8,1.5-1.3,2.3-1.3c1.2,0,2.3,0.6,2.9,1.8c0.5-1.1,1.6-1.8,2.8-1.8c1.9,0,3.5,1.1,3.5,3.4
					v6.5h-1.7v-6.6c0-1.3-0.9-2-2-2c-1,0-2.1,0.6-2.1,2.3v6.3h-1.7v-6.5c0-1.4-0.9-2.1-2-2.1c-1.1,0-2.1,0.8-2.1,2.3v6.3h-1.7v-9.7
					h1.7V40.7z"/>
				<path class="st1" d="M333.3,48v5.3h-1.8V39.7h1.8v1.5c0.6-0.9,1.6-1.7,3-1.7c2.4,0,4.3,1.9,4.3,5.1c0,3.1-1.6,5.1-4.3,5.1
					C335,49.6,333.9,49,333.3,48z M338.8,44.5c0-2-0.9-3.7-2.8-3.7c-1.9,0-2.8,1.7-2.8,3.7v0.2c0,2.3,1.2,3.6,2.8,3.6
					C338,48.3,338.8,46.4,338.8,44.5z"/>
				<path class="st1" d="M343.1,40.4c1-0.7,2.3-1,3.4-1c1.7,0,2.9,0.8,3.4,2.1c0.2,0.4,0.2,0.9,0.2,1.6v4.2c0,0.5,0,1.3,0.2,2.1
					h-1.8c-0.1-0.2-0.2-0.9-0.2-0.9c-0.6,0.6-1.8,1.2-2.9,1.2c-1.8,0-3.5-1.2-3.5-3.2c0-2.5,2.1-3.5,4.9-3.5c0.5,0,0.9,0,1.4,0.1
					v-0.2c0-1.1-0.6-2-2.1-2c-0.9,0-1.7,0.3-2.5,0.8L343.1,40.4z M345.7,48.2c1.5,0,2.6-0.9,2.6-2.4v-1.5c-0.4,0-0.9-0.1-1.3-0.1
					c-2,0-3.3,0.6-3.3,2.1C343.8,47.5,344.6,48.2,345.7,48.2z"/>
				<path class="st1" d="M354.6,41c0.6-1,1.8-1.6,2.8-1.6c2.1,0,3.8,1.3,3.8,3.6v6.3h-1.8v-6.1c0-1.6-1-2.4-2.2-2.4
					c-1.7,0-2.7,1.4-2.7,2.9v5.6h-1.8v-9.7h1.8V41z"/>
				<path class="st1" d="M362.9,52c1.9-0.4,2.7-1.1,3.3-2.9l-3.6-9.4h1.8l2.6,7.3l2.5-7.3h1.8l-3.2,8.8c-1.1,2.9-1.8,4.3-4.8,4.9
					L362.9,52z"/>
			</g>
		</g>
		<g>
			<g>
				<path class="st1" d="M211.6,49.9h-2.5V27.7l2.5-0.6V49.9z M218.8,33.8l2,1.5l-5.1,6.4l5.9,7.1l-2,1.5l-6.9-8.5L218.8,33.8z"/>
				<path class="st1" d="M230.3,40.8h3.1v-1.3c0-2.5-1.1-3.4-3.2-3.4c-1.5,0-3.1,0.4-4.4,1l-0.7-1.7c1.6-0.9,3.5-1.4,5.2-1.4
					c3.7,0,5.5,1.8,5.5,5.7v10.2H234l-0.3-1.7c-1.5,1.2-3.5,2-5.1,2c-2.8,0-4.4-1.7-4.4-4.4C224.2,42.5,226.3,40.8,230.3,40.8z
					 M233.4,46.3v-3.7h-2.8c-2.8,0-4.1,0.9-4.1,3c0,1.6,0.9,2.5,2.5,2.5C230.5,48.1,232.4,47.3,233.4,46.3z"/>
				<path class="st1" d="M244,49.9h-2.5V27.7l2.5-0.6V49.9z M251.2,33.8l2,1.5l-5.1,6.4l5.9,7.1l-2,1.5l-6.9-8.5L251.2,33.8z"/>
				<path class="st1" d="M262.6,40.8h3.1v-1.3c0-2.5-1.1-3.4-3.2-3.4c-1.5,0-3.1,0.4-4.4,1l-0.7-1.7c1.6-0.9,3.5-1.4,5.2-1.4
					c3.7,0,5.5,1.8,5.5,5.7v10.2h-1.8l-0.3-1.7c-1.5,1.2-3.5,2-5.1,2c-2.8,0-4.4-1.7-4.4-4.4C256.5,42.5,258.6,40.8,262.6,40.8z
					 M265.7,46.3v-3.7h-2.8c-2.8,0-4.1,0.9-4.1,3c0,1.6,0.9,2.5,2.5,2.5C262.8,48.1,264.7,47.3,265.7,46.3z"/>
				<path class="st1" d="M286.8,42.1c0,5.2-2.6,8.1-6.9,8.1c-4.3,0-6.9-2.9-6.9-8.1c0-5.2,2.6-8.1,6.9-8.1
					C284.2,34,286.8,36.9,286.8,42.1z M275.5,42.1c0,3.9,1.6,6,4.4,6s4.4-2.1,4.4-6s-1.6-6.1-4.4-6.1S275.5,38.2,275.5,42.1z"/>
			</g>
		</g>
	</g>
</g>
</svg>
