<?xml version="1.0" encoding="utf-8"?>
<!-- Generator: Adobe Illustrator 23.1.0, SVG Export Plug-In . SVG Version: 6.00 Build 0)  -->
<svg version="1.1" id="레이어_1" xmlns="http://www.w3.org/2000/svg" xmlns:xlink="http://www.w3.org/1999/xlink" x="0px"
	 y="0px" viewBox="0 0 254 76" style="enable-background:new 0 0 254 76;" xml:space="preserve">
<g>
	<path d="M22,9.2c2.4,0,4.7,0.4,6.7,1.2c2,0.8,3.8,2,5.3,3.6c1.5,1.6,2.6,3.6,3.5,6c0.8,2.4,1.3,5.2,1.3,8.4v7.5
		c0,3.2-0.4,6-1.3,8.4c-0.8,2.4-2,4.4-3.5,6c-1.5,1.6-3.2,2.8-5.3,3.6c-2,0.8-4.3,1.2-6.7,1.2c-2.4,0-4.7-0.4-6.7-1.2
		c-2-0.8-3.8-2-5.3-3.6c-1.5-1.6-2.6-3.6-3.5-6c-0.8-2.4-1.3-5.2-1.3-8.4v-7.5c0-3.2,0.4-6,1.3-8.4c0.8-2.4,2-4.4,3.5-6
		c1.5-1.6,3.2-2.8,5.3-3.6C17.3,9.6,19.6,9.2,22,9.2z M22,48.7c1.3,0,2.5-0.2,3.7-0.7c1.2-0.5,2.2-1.3,3.1-2.3
		c0.9-1.1,1.6-2.5,2.2-4.2c0.6-1.8,0.8-3.9,0.8-6.4v-5.5c0-2.5-0.3-4.7-0.8-6.4c-0.6-1.8-1.3-3.2-2.2-4.2c-0.9-1.1-1.9-1.9-3.1-2.3
		c-1.2-0.5-2.4-0.7-3.7-0.7s-2.5,0.2-3.7,0.7c-1.2,0.5-2.2,1.3-3.1,2.3c-0.9,1.1-1.6,2.5-2.2,4.2c-0.6,1.8-0.8,3.9-0.8,6.4v5.5
		c0,2.5,0.3,4.7,0.8,6.4c0.6,1.8,1.3,3.2,2.2,4.2c0.9,1.1,1.9,1.9,3.1,2.3C19.5,48.4,20.7,48.7,22,48.7z M65.5,34.9H55.3v36.2h-7.1
		V4.7h7.1v24h10.2V34.9z"/>
	<path d="M85.3,9.2c2.4,0,4.7,0.4,6.7,1.2c2,0.8,3.8,2,5.3,3.7c1.5,1.6,2.7,3.6,3.5,6c0.8,2.4,1.3,5.2,1.3,8.4v7.5
		c0,3.2-0.4,6-1.3,8.4c-0.8,2.4-2,4.4-3.5,6c-1.5,1.6-3.3,2.8-5.3,3.6c-2,0.8-4.3,1.2-6.7,1.2c-2.4,0-4.7-0.4-6.7-1.2
		c-2-0.8-3.8-2-5.3-3.6c-1.5-1.6-2.7-3.6-3.5-6c-0.8-2.4-1.3-5.2-1.3-8.4v-7.5c0-3.2,0.4-6,1.3-8.4c0.8-2.4,2-4.4,3.5-6
		c1.5-1.6,3.3-2.8,5.3-3.6C80.6,9.6,82.9,9.2,85.3,9.2z M85.3,48.8c1.3,0,2.5-0.2,3.7-0.7c1.2-0.5,2.3-1.3,3.2-2.4
		c0.9-1.1,1.6-2.5,2.2-4.3c0.6-1.8,0.8-3.9,0.8-6.4v-5.5c0-2.5-0.3-4.7-0.8-6.4c-0.6-1.8-1.3-3.2-2.2-4.3c-0.9-1.1-2-1.9-3.2-2.4
		c-1.2-0.5-2.4-0.7-3.7-0.7s-2.5,0.2-3.7,0.7c-1.2,0.5-2.3,1.3-3.2,2.4c-0.9,1.1-1.6,2.5-2.2,4.3c-0.6,1.8-0.8,3.9-0.8,6.4v5.5
		c0,2.5,0.3,4.7,0.8,6.4c0.6,1.8,1.3,3.2,2.2,4.3c0.9,1.1,2,1.9,3.2,2.4C82.8,48.5,84,48.8,85.3,48.8z M113.1,71.1V4.7h7.1v66.4
		H113.1z"/>
	<path d="M163.3,16.9H139v30.5h4.5c4.7,0,9.1-0.2,13.2-0.5c4.1-0.3,8.1-0.8,12-1.5l0.9,6.1c-3.6,0.7-7.8,1.2-12.4,1.6
		c-4.6,0.3-9.7,0.5-15.2,0.5h-10.2V10.7h31.4V16.9z M175,71.1V4.7h7.1v66.4H175z"/>
</g>
<g>
	<path d="M8.1,222.7v-43.6h7.1v15.7H32v-15.7H39v43.6H8.1z M15.2,216.5H32v-15.7H15.2V216.5z M51.2,240.1v-66.4h7.1v66.4H51.2z"/>
	<path d="M99.9,203.8H69.5v-27.5h30.3V203.8z M76.5,197.8h16.5v-15.6H76.5V197.8z M79.1,240.5v-18.2h34.1v-6.5H78.8v-5.9h41.5v18.1
		H86.1v6.6h36v5.9H79.1z M113.2,206.6v-32.9h7.1v32.9H113.2z"/>
	<path d="M175.5,221.1v-24.5h-13v13.9h-31.4v-33.7h7v11.7h17.4v-11.7h7v13.8h13v-16.8h7.1v47.4H175.5z M138.1,204.4h17.4v-9.9h-17.4
		V204.4z M148.2,233.2H184v6.2h-42.8v-21.5h7.1V233.2z"/>
	<path d="M250,225.2v6h-60.9v-6h26.9v-8c-2.6-0.2-4.9-0.6-7-1.3c-2.1-0.7-3.8-1.6-5.2-2.6c-1.4-1.1-2.5-2.3-3.3-3.6
		c-0.8-1.4-1.2-2.8-1.2-4.4v-2.3c0-1.8,0.5-3.4,1.4-4.9c0.9-1.5,2.3-2.8,4-3.9c1.8-1.1,3.9-1.9,6.4-2.5c2.5-0.6,5.3-0.9,8.4-0.9
		s5.9,0.3,8.4,0.9c2.5,0.6,4.6,1.4,6.4,2.5s3.1,2.4,4,3.9c0.9,1.5,1.4,3.1,1.4,4.9v2.3c0,1.6-0.4,3.1-1.2,4.4
		c-0.8,1.4-1.9,2.6-3.3,3.6c-1.4,1.1-3.2,1.9-5.2,2.6c-2,0.7-4.4,1.1-6.9,1.3v8H250z M223.2,181.3h21.1v6h-49.5v-6h21.1V173h7.3
		V181.3z M206.3,204.8c0,0.8,0.3,1.6,0.8,2.4s1.3,1.5,2.4,2.2s2.5,1.2,4.1,1.6c1.7,0.4,3.6,0.6,5.9,0.6c2.3,0,4.2-0.2,5.9-0.6
		c1.7-0.4,3.1-0.9,4.1-1.6s1.9-1.4,2.4-2.2c0.5-0.8,0.8-1.6,0.8-2.4v-1.6c0-0.8-0.3-1.6-0.8-2.4c-0.5-0.8-1.3-1.5-2.4-2.2
		s-2.5-1.2-4.1-1.6c-1.7-0.4-3.6-0.6-5.9-0.6c-2.3,0-4.2,0.2-5.9,0.6c-1.7,0.4-3.1,0.9-4.1,1.6s-1.9,1.4-2.4,2.2
		c-0.5,0.8-0.8,1.6-0.8,2.4V204.8z"/>
</g>
</svg>
