<?xml version="1.0" encoding="utf-8"?>
<!-- Generator: Adobe Illustrator 24.1.1, SVG Export Plug-In . SVG Version: 6.00 Build 0)  -->
<svg version="1.1" xmlns="http://www.w3.org/2000/svg" xmlns:xlink="http://www.w3.org/1999/xlink" x="0px" y="0px"
	 viewBox="0 0 94.3 85.78" style="enable-background:new 0 0 94.3 85.78;" xml:space="preserve">
<style type="text/css">
	.st0{fill:#2C8CDC;}
	.st1{fill:#2B84D5;}
	.st2{fill:#76D2D5;}
	.st3{fill:none;stroke:#76D2D5;stroke-width:3;stroke-linecap:round;stroke-linejoin:round;stroke-miterlimit:10;}
	.st4{fill:none;stroke:#76D2D5;stroke-width:4;stroke-linecap:round;stroke-linejoin:round;stroke-miterlimit:10;}
	.st5{fill:none;stroke:#3A3A3A;stroke-width:2.5;stroke-linecap:round;stroke-linejoin:round;stroke-miterlimit:10;}
	.st6{fill:#222221;stroke:#222221;stroke-width:0.5;stroke-linecap:round;stroke-linejoin:round;stroke-miterlimit:10;}
	.st7{fill:#222221;stroke:#222221;stroke-width:0.5;stroke-miterlimit:10;}
	.st8{clip-path:url(#SVGID_2_);fill:#76D2D5;}
	.st9{fill:#222221;}
	.st10{fill:#1B2344;}
</style>
<g id="image">
	<rect x="272.83" y="-505.92" class="st0" width="162" height="186.84"/>
	<g>
		<g>
			<path class="st1" d="M103.2-165.63H76.86c-1.98,0-3.59-1.61-3.59-3.58v-48.76c0-1.98,1.61-3.58,3.59-3.58h40.63
				c1.98,0,3.58,1.61,3.58,3.58v18.73c0,1.38-1.12,2.5-2.5,2.5c-1.38,0-2.5-1.12-2.5-2.5v-17.31h-37.8v45.93h24.92
				c1.38,0,2.5,1.12,2.5,2.5C105.7-166.75,104.58-165.63,103.2-165.63z"/>
			<path class="st2" d="M107.61-210.55c-1.38,0-2.5-1.12-2.5-2.5v-5.03c0-4.05-3.3-7.34-7.35-7.34H96.6c-4.05,0-7.35,3.29-7.35,7.34
				v5.03c0,1.38-1.12,2.5-2.5,2.5c-1.38,0-2.5-1.12-2.5-2.5v-5.03c0-6.81,5.54-12.34,12.35-12.34h1.16
				c6.81,0,12.35,5.54,12.35,12.34v5.03C110.11-211.67,108.99-210.55,107.61-210.55z"/>
		</g>
		<g>
			<g>
				<path class="st3" d="M105.72-200.08"/>
				<path class="st4" d="M121.26-179.08"/>
				<path class="st2" d="M119.64-173.88c-0.12,0-0.23,0-0.33-0.01l-3.69,0c-1.1,0-2-0.9-2-2c0-1.1,0.9-2,2-2h3.77
					c0.08,0,0.17,0,0.25,0l-6.64-11.2c-0.56-0.95-0.25-2.18,0.7-2.74c0.95-0.56,2.18-0.25,2.74,0.7l6.66,11.24
					c1.16,1.92,0.63,3.79-0.17,4.79C122.13-174.07,120.63-173.88,119.64-173.88z"/>
				<path class="st2" d="M96.07-173.89c-1.23,0-3.49,0-4.35-1.85c-0.73-1.55-0.64-3.07,0.25-4.5l0.12-0.22l0.01,0.01
					c0.09-0.19,0.21-0.38,0.32-0.58l1.59-2.76c0.55-0.96,1.77-1.29,2.73-0.74c0.96,0.55,1.29,1.77,0.74,2.73l-1.91,3.32
					c0,0-0.01,0.01-0.01,0.02l-0.16,0.27c-0.07,0.12-0.12,0.2-0.15,0.28c0.29,0.02,0.63,0.02,0.82,0.02h13.33c1.1,0,2,0.9,2,2
					c0,1.1-0.9,2-2,2H96.07C96.07-173.89,96.07-173.89,96.07-173.89z"/>
				<path class="st2" d="M99.74-187.72c-0.34,0-0.68-0.09-1-0.27c-0.96-0.55-1.29-1.77-0.73-2.73c2.66-4.63,5.64-9.77,6-10.38
					c0.73-1.18,2.27-1.95,3.67-1.85c1.72,0.13,2.87,1.22,3.36,2.15l1.78,3.08c0.55,0.96,0.22,2.18-0.73,2.73
					c-0.96,0.55-2.18,0.22-2.73-0.73l-1.8-3.12c-0.03-0.06-0.04-0.05-0.04-0.05c0,0,0,0-0.02-0.06c-0.01,0.01-0.06,0-0.1,0
					c0,0,0,0,0,0c0.01,0,0,0.01-0.02,0.03c-0.49,0.83-3.06,5.27-5.9,10.21C101.1-188.08,100.43-187.72,99.74-187.72z"/>
			</g>
			<path class="st2" d="M112.94-185c-0.13,0-0.26-0.01-0.4-0.04c-1.08-0.22-1.78-1.27-1.56-2.36l0.95-4.69
				c0.12-0.58,0.48-1.08,1-1.36c0.52-0.28,1.14-0.32,1.69-0.1l4.72,1.86c1.03,0.4,1.53,1.56,1.13,2.59
				c-0.4,1.03-1.57,1.54-2.59,1.13l-2.51-0.98l-0.48,2.35C114.71-185.65,113.88-185,112.94-185z"/>
			<path class="st2" d="M98.72-185.8c-0.32,0-0.65-0.08-0.94-0.23c-0.52-0.28-0.89-0.77-1.02-1.35l-1.05-4.97
				c-0.23-1.08,0.46-2.14,1.54-2.37c1.08-0.23,2.14,0.46,2.37,1.54l0.56,2.63l2.23-0.9c1.02-0.41,2.19,0.08,2.6,1.11
				c0.41,1.02-0.08,2.19-1.1,2.6l-4.44,1.79C99.23-185.85,98.98-185.8,98.72-185.8z"/>
			<path class="st2" d="M106.68-170.87c-0.51,0-1.02-0.19-1.41-0.58c-0.79-0.78-0.79-2.04-0.02-2.83l1.89-1.92l-1.98-1.37
				c-0.91-0.63-1.14-1.87-0.51-2.78c0.63-0.91,1.87-1.14,2.78-0.51l3.94,2.72c0.49,0.34,0.8,0.87,0.85,1.46
				c0.06,0.59-0.15,1.17-0.57,1.59l-3.57,3.61C107.71-171.07,107.2-170.87,106.68-170.87z"/>
		</g>
	</g>
	<g>
		<g>
			<path class="st1" d="M244.4-165.63h-27.43c-1.98,0-3.58-1.61-3.58-3.58v-48.76c0-1.98,1.61-3.58,3.58-3.58h40.64
				c1.98,0,3.58,1.61,3.58,3.58v18.35c0,1.38-1.12,2.5-2.5,2.5c-1.38,0-2.5-1.12-2.5-2.5v-16.93h-37.8v45.93h26.02
				c1.38,0,2.5,1.12,2.5,2.5C246.9-166.75,245.78-165.63,244.4-165.63z"/>
			<path class="st2" d="M247.71-210.55c-1.38,0-2.5-1.12-2.5-2.5v-5.03c0-4.05-3.3-7.34-7.35-7.34h-1.16
				c-4.05,0-7.35,3.29-7.35,7.34v5.03c0,1.38-1.12,2.5-2.5,2.5c-1.38,0-2.5-1.12-2.5-2.5v-5.03c0-6.81,5.54-12.34,12.35-12.34h1.16
				c6.81,0,12.35,5.54,12.35,12.34v5.03C250.21-211.67,249.09-210.55,247.71-210.55z"/>
		</g>
		<g>
			<path class="st2" d="M248.22-171.09c-1.1,0-2-0.9-2-2v-7.38c-0.27-0.98-1.9-6.18-7.69-11.39c-0.82-0.74-0.89-2-0.15-2.82
				c0.74-0.82,2-0.89,2.82-0.15c7.43,6.69,8.91,13.42,8.97,13.71c0.03,0.13,0.04,0.27,0.04,0.41v7.62
				C250.22-171.99,249.33-171.09,248.22-171.09z"/>
			<path class="st2" d="M249.13-181.72c-0.03,0-0.06,0-0.09,0c-0.37-0.02-9.24-0.46-14.68-6.38c-5.44-5.91-5.15-14.78-5.13-15.16
				c0.02-0.53,0.25-1.03,0.65-1.39c0.39-0.36,0.91-0.55,1.44-0.53c0.37,0.02,9.23,0.47,14.67,6.38c5.44,5.91,5.15,14.78,5.13,15.16
				c-0.02,0.53-0.25,1.03-0.64,1.39C250.11-181.9,249.63-181.72,249.13-181.72z M233.33-200.89c0.25,2.6,1.12,6.97,3.98,10.08
				c2.86,3.11,7.14,4.33,9.72,4.8c-0.26-2.61-1.12-6.98-3.98-10.09C240.19-199.19,235.9-200.42,233.33-200.89z"/>
			<path class="st2" d="M249.36-177.53c-0.5,0-0.98-0.19-1.35-0.53c-0.39-0.36-0.62-0.86-0.64-1.39c-0.01-0.24-0.19-5.91,3.31-9.71
				c3.5-3.8,9.16-4.09,9.4-4.1c0.54-0.02,1.05,0.16,1.44,0.53c0.39,0.36,0.62,0.86,0.64,1.39c0.01,0.24,0.19,5.9-3.3,9.71
				c-3.5,3.81-9.16,4.09-9.4,4.1C249.42-177.53,249.39-177.53,249.36-177.53z M257.94-188.86c-1.38,0.37-3.1,1.08-4.33,2.41
				c-1.22,1.33-1.79,3.11-2.04,4.52c1.38-0.37,3.11-1.08,4.33-2.41C257.12-185.67,257.68-187.45,257.94-188.86z"/>
		</g>
	</g>
	<g>
		<g>
			<g>
				<path class="st3" d="M107.16-74.63"/>
				<path class="st4" d="M122.27-54.21"/>
				<path class="st2" d="M120.69-49.1c-0.11,0-0.22,0-0.32-0.01l-3.59,0c-1.1,0-2-0.9-2-2s0.9-2,2-2h3.67c0.05,0,0.1,0,0.15,0
					l-6.41-10.82c-0.56-0.95-0.25-2.18,0.7-2.74c0.95-0.56,2.18-0.25,2.74,0.7l6.48,10.94c1.14,1.9,0.62,3.73-0.17,4.72
					C123.14-49.29,121.67-49.1,120.69-49.1z"/>
				<path class="st2" d="M97.76-49.1c-1.21,0-3.43,0-4.28-1.83c-0.71-1.53-0.63-3.03,0.25-4.43l1.98-3.45
					c0.55-0.96,1.77-1.29,2.73-0.74c0.96,0.55,1.29,1.77,0.74,2.73l-2.02,3.51c-0.05,0.08-0.09,0.14-0.12,0.2
					c0.25,0.01,0.54,0.01,0.71,0.01h12.97c1.1,0,2,0.9,2,2s-0.9,2-2,2H97.76C97.77-49.1,97.76-49.1,97.76-49.1z"/>
				<path class="st2" d="M101.33-62.56c-0.34,0-0.68-0.09-1-0.27c-0.96-0.55-1.29-1.77-0.73-2.73c2.56-4.45,5.48-9.5,5.84-10.1
					c0.72-1.17,2.24-1.93,3.62-1.82c1.69,0.13,2.83,1.2,3.31,2.12l1.73,3c0.55,0.96,0.22,2.18-0.73,2.73
					c-0.96,0.55-2.18,0.22-2.73-0.73l-1.75-3.04c-0.01-0.02-0.02-0.03-0.02-0.04c0,0-0.01-0.01-0.01-0.01l0,0c0,0,0,0,0,0
					c-0.01-0.01-0.02-0.02-0.03-0.02c-0.48,0.81-2.92,5.04-5.74,9.93C102.7-62.92,102.02-62.56,101.33-62.56z"/>
			</g>
			<path class="st2" d="M114.18-59.91c-0.13,0-0.26-0.01-0.4-0.04c-1.08-0.22-1.78-1.27-1.56-2.36l0.92-4.56
				c0.12-0.58,0.48-1.08,1-1.36c0.52-0.28,1.14-0.32,1.69-0.1l4.6,1.8c1.03,0.4,1.53,1.56,1.13,2.59c-0.4,1.03-1.57,1.54-2.59,1.13
				l-2.38-0.93l-0.45,2.23C115.95-60.56,115.11-59.91,114.18-59.91z"/>
			<path class="st2" d="M100.35-60.69c-0.32,0-0.65-0.08-0.94-0.23c-0.52-0.28-0.89-0.77-1.02-1.35l-1.03-4.83
				c-0.23-1.08,0.46-2.14,1.54-2.37c1.08-0.23,2.14,0.46,2.37,1.54l0.53,2.5l2.11-0.85c1.02-0.41,2.19,0.08,2.6,1.11
				c0.41,1.02-0.08,2.19-1.11,2.6l-4.32,1.74C100.85-60.74,100.6-60.69,100.35-60.69z"/>
			<path class="st2" d="M108.09-46.17c-0.51,0-1.02-0.19-1.41-0.58c-0.79-0.78-0.79-2.04-0.02-2.83l1.79-1.82l-1.87-1.29
				c-0.91-0.63-1.14-1.87-0.51-2.78c0.63-0.91,1.87-1.14,2.78-0.51l3.83,2.65c0.49,0.34,0.8,0.87,0.85,1.46
				c0.06,0.59-0.15,1.17-0.57,1.59l-3.47,3.51C109.12-46.37,108.6-46.17,108.09-46.17z"/>
		</g>
		<g>
			<g>
				<g>
					<path class="st5" d="M115.43-79.71"/>
				</g>
			</g>
			<g>
				<path class="st1" d="M104.66-33.98H79.98c-0.77,0-1.5-0.36-1.97-0.96l-5.2-6.66c-0.34-0.44-0.53-0.98-0.53-1.54v-38.97
					c0-0.57,0.2-1.13,0.56-1.57l4.06-5.03c0.47-0.59,1.19-0.93,1.94-0.93h27.44c0.85,0,1.65,0.44,2.11,1.15l3.11,4.88
					c0.74,1.16,0.4,2.71-0.76,3.45c-1.16,0.74-2.71,0.4-3.45-0.76l-2.38-3.72H80.04l-2.75,3.41v37.22l3.92,5.02h22.33l4.6-5.21
					c0.91-1.04,2.49-1.13,3.53-0.22c1.03,0.91,1.13,2.49,0.22,3.53l-5.35,6.05C106.06-34.29,105.37-33.98,104.66-33.98z"/>
				<path class="st1" d="M110.5-41.15H74.78c-1.1,0-2-0.9-2-2s0.9-2,2-2h35.72c1.1,0,2,0.9,2,2S111.61-41.15,110.5-41.15z"/>
				<path class="st1" d="M110.5-79.18H74.78c-1.1,0-2-0.9-2-2s0.9-2,2-2h35.72c1.1,0,2,0.9,2,2S111.61-79.18,110.5-79.18z"/>
			</g>
		</g>
	</g>
	<g>
		<g>
			<g>
				<path class="st3" d="M241.55-72.48"/>
				<path class="st4" d="M255.86-53.14"/>
				<path class="st2" d="M254.39-48.19c-0.11,0-0.22,0-0.33-0.01l-3.4,0c-1.1,0-2-0.9-2-2s0.9-2,2-2h3.43l-5.97-10.08
					c-0.56-0.95-0.25-2.18,0.7-2.74c0.95-0.56,2.18-0.25,2.74,0.7l6.13,10.36c1.11,1.84,0.6,3.63-0.17,4.59
					C256.77-48.42,255.46-48.19,254.39-48.19z"/>
				<path class="st2" d="M232.66-48.19c-1.17,0-3.32,0-4.15-1.8c-0.69-1.48-0.61-2.93,0.24-4.3l1.88-3.26
					c0.55-0.96,1.77-1.28,2.73-0.74c0.96,0.55,1.29,1.77,0.74,2.73l-1.91,3.32c-0.01,0.01-0.02,0.03-0.02,0.04
					c0.19,0.01,0.37,0.01,0.5,0.01h12.28c1.1,0,2,0.9,2,2s-0.9,2-2,2H232.66C232.66-48.19,232.66-48.19,232.66-48.19z"/>
				<path class="st2" d="M236.04-60.94c-0.34,0-0.68-0.09-1-0.27c-0.96-0.55-1.29-1.77-0.73-2.73c2.5-4.34,5.2-9.02,5.53-9.57
					c0.7-1.14,2.18-1.88,3.52-1.78c1.65,0.12,2.75,1.17,3.22,2.06l1.64,2.84c0.55,0.96,0.22,2.18-0.73,2.73
					c-0.96,0.55-2.18,0.22-2.73-0.73l-1.62-2.82c-0.59,1-2.77,4.78-5.35,9.27C237.4-61.3,236.73-60.94,236.04-60.94z"/>
			</g>
			<path class="st2" d="M248.2-58.43c-0.13,0-0.26-0.01-0.4-0.04c-1.08-0.22-1.78-1.27-1.56-2.36l0.87-4.32
				c0.12-0.58,0.48-1.08,1-1.36c0.52-0.28,1.14-0.32,1.69-0.1l4.35,1.71c1.03,0.4,1.53,1.56,1.13,2.59
				c-0.4,1.03-1.56,1.53-2.59,1.13l-2.13-0.84l-0.4,1.99C249.97-59.08,249.14-58.43,248.2-58.43z"/>
			<path class="st2" d="M235.1-59.17c-0.32,0-0.65-0.08-0.94-0.23c-0.52-0.28-0.89-0.77-1.02-1.35l-0.97-4.58
				c-0.23-1.08,0.46-2.14,1.54-2.37c1.08-0.23,2.14,0.46,2.37,1.54l0.48,2.24l1.88-0.76c1.02-0.41,2.19,0.08,2.6,1.11
				c0.41,1.02-0.08,2.19-1.11,2.6l-4.09,1.65C235.61-59.22,235.36-59.17,235.1-59.17z"/>
			<path class="st2" d="M242.43-45.41c-0.51,0-1.02-0.19-1.41-0.58c-0.79-0.78-0.79-2.04-0.02-2.83l1.61-1.63l-1.67-1.15
				c-0.91-0.63-1.14-1.87-0.51-2.78c0.63-0.91,1.87-1.14,2.78-0.51l3.63,2.51c0.49,0.34,0.8,0.87,0.85,1.46
				c0.06,0.59-0.15,1.17-0.57,1.59l-3.29,3.33C243.46-45.61,242.95-45.41,242.43-45.41z"/>
		</g>
		<g>
			<g>
				<g>
					<path class="st5" d="M248.12-75.27"/>
				</g>
			</g>
			<g>
				<path class="st1" d="M228.09-64.47h-7.71c-1.38,0-2.5-1.12-2.5-2.5c0-1.38,1.12-2.5,2.5-2.5h7.71c1.38,0,2.5,1.12,2.5,2.5
					C230.59-65.59,229.47-64.47,228.09-64.47z"/>
				<path class="st1" d="M225.84-45.84h-5.46c-1.38,0-2.5-1.12-2.5-2.5c0-1.38,1.12-2.5,2.5-2.5h5.46c1.38,0,2.5,1.12,2.5,2.5
					C228.34-46.96,227.22-45.84,225.84-45.84z"/>
				<path class="st1" d="M239.99-33.53h-18.46c-2.39,0-4.33-1.94-4.33-4.32v-28.81c0-3.47,0.23-7.46,2.97-10.91
					c4.15-5.22,4.85-8.37,4.84-15.21c0-0.66,0.26-1.3,0.73-1.77c0.47-0.47,1.11-0.73,1.77-0.73h7.9c1.38,0,2.5,1.12,2.5,2.5
					c0,3.19,0.08,6.26,0.98,8.86c0.52,1.48,1.33,2.85,2.49,4.21c0.9,1.05,0.78,2.63-0.27,3.53c-1.05,0.9-2.63,0.78-3.53-0.27
					c-1.57-1.83-2.69-3.73-3.42-5.81c-0.9-2.57-1.16-5.25-1.24-8.01h-2.96c-0.21,6.07-1.4,10.18-5.89,15.83
					c-1.74,2.19-1.89,5.05-1.89,7.8v28.14h17.12v-3.16c0-1.38,1.12-2.5,2.5-2.5c1.38,0,2.5,1.12,2.5,2.5v3.83
					C244.32-35.47,242.37-33.53,239.99-33.53z"/>
			</g>
		</g>
	</g>
	<g>
		<g>
			<g>
				<path class="st2" d="M670.6-197.79c-0.45,0-0.91-0.12-1.33-0.38l-23.68-14.84c-1.17-0.73-1.52-2.28-0.79-3.45
					c0.73-1.17,2.28-1.52,3.45-0.79l23.68,14.84c1.17,0.73,1.52,2.28,0.79,3.45C672.24-198.2,671.43-197.79,670.6-197.79z"/>
				<path class="st1" d="M658.76-160.7c-0.43,0-0.86-0.11-1.25-0.33l-25.74-14.86c-0.77-0.45-1.25-1.27-1.25-2.16v-29.72
					c0-0.89,0.48-1.72,1.25-2.16l25.74-14.86c0.77-0.45,1.73-0.45,2.5,0l25.74,14.86c0.77,0.45,1.25,1.27,1.25,2.16v2.79
					c0,1.38-1.12,2.5-2.5,2.5c-1.38,0-2.5-1.12-2.5-2.5v-1.34l-23.24-13.42l-23.24,13.42v26.84l23.24,13.42l12.34-7.13
					c1.19-0.69,2.72-0.28,3.42,0.92c0.69,1.2,0.28,2.72-0.92,3.41l-13.59,7.85C659.63-160.81,659.2-160.7,658.76-160.7z"/>
				<path class="st1" d="M658.76-160.54c-1.38,0-2.5-1.12-2.5-2.5v-28.93c0-0.87,0.45-1.67,1.19-2.13l25.74-15.82
					c1.18-0.72,2.72-0.36,3.44,0.82c0.72,1.18,0.36,2.72-0.82,3.44l-24.55,15.09v27.53C661.26-161.66,660.15-160.54,658.76-160.54z"
					/>
				<path class="st1" d="M658.76-189.47c-0.45,0-0.9-0.12-1.31-0.37l-25.74-15.82c-1.18-0.72-1.54-2.26-0.82-3.44
					c0.72-1.18,2.26-1.54,3.44-0.82l25.74,15.82c1.18,0.72,1.54,2.26,0.82,3.44C660.42-189.89,659.6-189.47,658.76-189.47z"/>
			</g>
			<path class="st2" d="M649.17-182.94c-0.44,0-0.89-0.12-1.29-0.36l-7.2-4.37c-1.18-0.72-1.56-2.25-0.84-3.43
				c0.72-1.18,2.25-1.55,3.43-0.84l7.2,4.37c1.18,0.72,1.56,2.25,0.84,3.43C650.84-183.37,650.01-182.94,649.17-182.94z"/>
		</g>
		<g>
			<g>
				<path class="st3" d="M681.24-198.14"/>
				<path class="st4" d="M695.55-178.8"/>
				<path class="st2" d="M694.07-173.85c-0.11,0-0.22,0-0.33-0.01l-3.4,0c-1.1,0-2-0.9-2-2c0-1.1,0.9-2,2-2h3.43l-5.97-10.08
					c-0.56-0.95-0.25-2.18,0.7-2.74c0.95-0.56,2.18-0.25,2.74,0.7l6.13,10.36c1.11,1.84,0.6,3.63-0.17,4.59
					C696.46-174.08,695.15-173.85,694.07-173.85z"/>
				<path class="st2" d="M672.34-173.85c-1.17,0-3.32,0-4.15-1.8c-0.69-1.48-0.61-2.93,0.24-4.3l1.88-3.26
					c0.55-0.96,1.77-1.28,2.73-0.74c0.96,0.55,1.29,1.77,0.74,2.73l-1.91,3.32c-0.01,0.01-0.02,0.03-0.02,0.04
					c0.19,0.01,0.37,0.01,0.5,0.01h12.28c1.1,0,2,0.9,2,2c0,1.1-0.9,2-2,2H672.34C672.35-173.85,672.34-173.85,672.34-173.85z"/>
				<path class="st2" d="M675.72-186.6c-0.34,0-0.68-0.09-1-0.27c-0.96-0.55-1.29-1.77-0.74-2.73c2.5-4.34,5.21-9.02,5.53-9.57
					c0.7-1.14,2.16-1.88,3.52-1.78c1.65,0.12,2.75,1.17,3.22,2.06l1.64,2.84c0.55,0.96,0.22,2.18-0.73,2.73
					c-0.96,0.55-2.18,0.22-2.73-0.73l-1.63-2.82c-0.59,1-2.77,4.78-5.35,9.27C677.09-186.96,676.41-186.6,675.72-186.6z"/>
			</g>
			<path class="st2" d="M687.89-184.09c-0.13,0-0.26-0.01-0.4-0.04c-1.08-0.22-1.78-1.27-1.56-2.36l0.87-4.32
				c0.12-0.58,0.48-1.08,1-1.36c0.52-0.28,1.14-0.32,1.69-0.1l4.35,1.71c1.03,0.4,1.53,1.56,1.13,2.59
				c-0.4,1.03-1.56,1.54-2.59,1.13l-2.13-0.84l-0.4,1.99C689.66-184.74,688.82-184.09,687.89-184.09z"/>
			<path class="st2" d="M674.79-184.83c-0.32,0-0.65-0.08-0.94-0.23c-0.52-0.28-0.89-0.77-1.02-1.35l-0.97-4.58
				c-0.23-1.08,0.46-2.14,1.54-2.37c1.08-0.23,2.14,0.46,2.37,1.54l0.48,2.24l1.88-0.76c1.03-0.41,2.19,0.08,2.6,1.11
				c0.41,1.02-0.08,2.19-1.11,2.6l-4.09,1.65C675.3-184.88,675.04-184.83,674.79-184.83z"/>
			<path class="st2" d="M682.12-171.08c-0.51,0-1.02-0.19-1.41-0.58c-0.79-0.78-0.79-2.04-0.02-2.83l1.61-1.63l-1.67-1.15
				c-0.91-0.63-1.14-1.87-0.51-2.78c0.63-0.91,1.87-1.14,2.78-0.51l3.63,2.51c0.49,0.34,0.8,0.87,0.85,1.46
				c0.06,0.59-0.15,1.17-0.57,1.59l-3.29,3.33C683.15-171.27,682.63-171.08,682.12-171.08z"/>
		</g>
	</g>
	<g>
		<g>
			<g>
				<path class="st6" d="M177.76,85.05"/>
				<path class="st7" d="M118.21,88.66c-2,0-3.61-1.62-3.61-3.61V36.29c0-2,1.62-3.61,3.61-3.61c2,0,3.61,1.62,3.61,3.61v48.75
					C121.83,87.04,120.21,88.66,118.21,88.66z"/>
				<path class="st7" d="M105.46,48.58c-1.11,0-2.21-0.51-2.92-1.48c-1.18-1.61-0.83-3.87,0.79-5.05l41.53-36.93
					c1.27-0.93,2.99-0.93,4.26,0l43.06,36.55c1.61,1.18,1.97,3.44,0.79,5.05c-1.18,1.61-3.44,1.97-5.05,0.79l-40.93-34.99
					l-39.4,35.37C106.94,48.36,106.2,48.58,105.46,48.58z"/>
				<path class="st7" d="M177.76,88.66c-2,0-3.61-1.62-3.61-3.61V36.29c0-2,1.62-3.61,3.61-3.61c2,0,3.61,1.62,3.61,3.61v48.75
					C181.37,87.04,179.75,88.66,177.76,88.66z"/>
			</g>
		</g>
	</g>
	<g>
		<g>
			<path class="st2" d="M378.19,89.97c-1.38,0-2.5-1.12-2.5-2.5v-8.08c-0.31-1.12-2.11-6.72-8.35-12.34
				c-1.03-0.92-1.11-2.5-0.19-3.53c0.92-1.02,2.5-1.11,3.53-0.19c8.25,7.42,9.89,14.92,9.96,15.23c0.04,0.17,0.05,0.34,0.05,0.51
				v8.38C380.69,88.85,379.57,89.97,378.19,89.97z"/>
			<path class="st2" d="M379.19,77.79c-0.03,0-0.06,0-0.09,0c-0.41-0.02-10.08-0.51-16-6.95c-5.93-6.44-5.61-16.12-5.59-16.53
				c0.02-0.53,0.25-1.03,0.64-1.39c0.39-0.36,0.92-0.55,1.44-0.53c0.41,0.02,10.07,0.51,16,6.95c5.92,6.44,5.61,16.12,5.6,16.52
				c-0.02,0.53-0.25,1.03-0.64,1.39C380.17,77.6,379.69,77.79,379.19,77.79z M361.59,56.65c0.25,2.85,1.17,7.91,4.45,11.47
				c3.3,3.58,8.24,4.91,11.06,5.4c-0.25-2.86-1.17-7.91-4.45-11.47C369.35,58.46,364.41,57.13,361.59,56.65z"/>
			<path class="st2" d="M379.44,82.38c-0.5,0-0.98-0.19-1.35-0.53c-0.39-0.36-0.62-0.86-0.64-1.39c-0.01-0.26-0.21-6.41,3.58-10.53
				c3.79-4.12,9.94-4.44,10.2-4.45c0.53-0.02,1.05,0.17,1.44,0.53c0.39,0.36,0.62,0.86,0.64,1.39c0.01,0.26,0.21,6.41-3.58,10.53
				c-3.79,4.13-9.94,4.44-10.2,4.45C379.5,82.38,379.47,82.38,379.44,82.38z M389.12,69.86c-1.59,0.39-3.69,1.19-5.15,2.78
				c-1.46,1.59-2.08,3.75-2.34,5.37c1.59-0.39,3.69-1.19,5.15-2.78C388.24,73.64,388.86,71.48,389.12,69.86z"/>
		</g>
		<g>
			<g>
				<path class="st5" d="M403.13,87.41"/>
				<path class="st1" d="M350.89,89.91c-1.38,0-2.5-1.12-2.5-2.5V53.69c0-1.38,1.12-2.5,2.5-2.5c1.38,0,2.5,1.12,2.5,2.5v33.72
					C353.39,88.79,352.27,89.91,350.89,89.91z"/>
				<path class="st1" d="M342.07,62.19c-0.77,0-1.53-0.36-2.02-1.03c-0.81-1.11-0.57-2.68,0.54-3.49l34.95-25.54
					c0.88-0.64,2.07-0.64,2.95,0l34.62,25.27c1.12,0.81,1.36,2.38,0.55,3.49c-0.81,1.12-2.38,1.36-3.49,0.55l-33.15-24.2
					l-33.47,24.46C343.09,62.03,342.58,62.19,342.07,62.19z"/>
				<path class="st1" d="M403.13,89.91c-1.38,0-2.5-1.12-2.5-2.5V53.69c0-1.38,1.12-2.5,2.5-2.5c1.38,0,2.5,1.12,2.5,2.5v33.72
					C405.63,88.79,404.51,89.91,403.13,89.91z"/>
			</g>
		</g>
	</g>
	<g>
		<g>
			<g>
				<path class="st5" d="M264.3,87.41"/>
				<path class="st1" d="M212.06,89.91c-1.38,0-2.5-1.12-2.5-2.5V53.69c0-1.38,1.12-2.5,2.5-2.5c1.38,0,2.5,1.12,2.5,2.5v33.72
					C214.56,88.79,213.44,89.91,212.06,89.91z"/>
				<path class="st1" d="M203.24,62.19c-0.77,0-1.53-0.36-2.02-1.03c-0.81-1.11-0.57-2.68,0.54-3.49l34.95-25.54
					c0.88-0.64,2.07-0.64,2.95,0l34.62,25.27c1.12,0.81,1.36,2.38,0.54,3.49c-0.81,1.12-2.38,1.36-3.49,0.55l-33.15-24.2
					l-33.47,24.46C204.26,62.03,203.75,62.19,203.24,62.19z"/>
				<path class="st1" d="M264.3,89.91c-1.38,0-2.5-1.12-2.5-2.5V53.69c0-1.38,1.12-2.5,2.5-2.5c1.38,0,2.5,1.12,2.5,2.5v33.72
					C266.8,88.79,265.68,89.91,264.3,89.91z"/>
			</g>
		</g>
		<g>
			<path class="st2" d="M236.73,80.26c-1.58,0-3.11-0.39-4.54-1.17c-1.54-0.84-2.5-1.88-2.81-2.24c-2.08-2.08-4.57-7.25,0.4-12.59
				c3.05-3.28,5.82-3.37,8.4-3.33c0.25,0,0.49,0.01,0.74,0.01c1.11,0,1.93-0.1,2.81-0.63c3.94-2.35,4.59-4.38,4.6-4.39
				c0.18-0.84,0.87-1.43,1.72-1.52c0.85-0.09,1.66,0.4,2.02,1.17c1.84,3.93,3.3,13.26-4.36,20.48
				C242.75,78.85,239.73,80.26,236.73,80.26z M232.43,74.26c0,0,0.62,0.74,1.68,1.32c2.63,1.44,5.65,0.6,8.86-2.43
				c4.41-4.16,4.85-8.89,4.45-12.1c-0.9,0.85-2.09,1.77-3.65,2.71c-1.76,1.05-3.44,1.19-4.85,1.19c-0.27,0-0.54,0-0.81-0.01
				c-0.25,0-0.49-0.01-0.74-0.01c-1.55,0-2.88,0.15-4.65,2.06c-3.46,3.71-0.98,6.55-0.45,7.08
				C232.32,74.12,232.38,74.2,232.43,74.26L232.43,74.26z"/>
			<path class="st2" d="M229.89,83.95c-0.91,0-1.73-0.62-1.95-1.54c-0.04-0.18-1.03-4.53,0.67-8.11c0.47-1,1.67-1.42,2.66-0.95
				c1,0.47,1.42,1.67,0.95,2.66c-1.09,2.3-0.39,5.45-0.39,5.48c0.25,1.08-0.42,2.15-1.49,2.4
				C230.19,83.94,230.04,83.95,229.89,83.95z"/>
			<path class="st2" d="M230.34,76.99c-0.25,0-0.5-0.05-0.74-0.14c-1.02-0.41-1.53-1.56-1.12-2.59c0.11-0.27,2.65-6.56,8.67-7.25
				c1.09-0.12,2.09,0.66,2.21,1.76c0.13,1.1-0.66,2.09-1.76,2.21c-3.62,0.42-5.39,4.7-5.41,4.74
				C231.89,76.51,231.14,76.99,230.34,76.99z"/>
		</g>
	</g>
	<g>
		<g>
			<g>
				<path class="st1" d="M254.73,198.36h-47.07c-0.7,0-1.37-0.29-1.84-0.81s-0.71-1.21-0.65-1.91l2.46-28.31
					c0.11-1.29,1.19-2.28,2.49-2.28H261c1.3,0,2.38,0.99,2.49,2.28l0.47,5.38c0.12,1.38-0.9,2.59-2.27,2.71
					c-1.37,0.13-2.59-0.9-2.71-2.27l-0.27-3.1h-46.3l-2.03,23.31h44.35c1.38,0,2.5,1.12,2.5,2.5
					C257.23,197.24,256.11,198.36,254.73,198.36z"/>
				<path class="st1" d="M249.92,210.03H221.2c-1.38,0-2.5-1.12-2.5-2.5c0-1.38,1.12-2.5,2.5-2.5h28.72c1.38,0,2.5,1.12,2.5,2.5
					C252.42,208.91,251.3,210.03,249.92,210.03z"/>
				<path class="st1" d="M235.86,209.13c-1.38,0-2.5-1.12-2.5-2.5v-9.85c0-1.38,1.12-2.5,2.5-2.5c1.38,0,2.5,1.12,2.5,2.5v9.85
					C238.36,208.01,237.24,209.13,235.86,209.13z"/>
				<path class="st1" d="M253.1,197.55c-1.06,0-1.95-0.84-2-1.91l-1.23-27.08c-0.05-1.1,0.8-2.04,1.91-2.09
					c1.1-0.05,2.04,0.8,2.09,1.91l1.23,27.08c0.05,1.1-0.8,2.04-1.91,2.09C253.16,197.55,253.13,197.55,253.1,197.55z"/>
				<path class="st1" d="M241.81,197.55c-1.1,0-2-0.9-2-2v-27.08c0-1.1,0.9-2,2-2c1.1,0,2,0.9,2,2v27.08
					C243.81,196.66,242.92,197.55,241.81,197.55z"/>
				<path class="st1" d="M230.53,197.55c-1.1,0-2-0.9-2-2v-27.08c0-1.1,0.9-2,2-2c1.1,0,2,0.9,2,2v27.08
					C232.53,196.66,231.63,197.55,230.53,197.55z"/>
				<path class="st1" d="M219.25,197.55c-0.03,0-0.06,0-0.09,0c-1.1-0.05-1.96-0.99-1.91-2.09l1.23-27.08
					c0.05-1.1,0.99-1.95,2.09-1.91c1.1,0.05,1.96,0.99,1.91,2.09l-1.23,27.08C221.19,196.72,220.31,197.55,219.25,197.55z"/>
				<path class="st1" d="M252.73,188.32H209.4c-1.1,0-2-0.9-2-2c0-1.1,0.9-2,2-2h43.33c1.1,0,2,0.9,2,2
					C254.73,187.43,253.83,188.32,252.73,188.32z"/>
				<path class="st1" d="M261.71,178.47H209.4c-1.1,0-2-0.9-2-2c0-1.1,0.9-2,2-2h52.32c1.1,0,2,0.9,2,2
					C263.71,177.58,262.82,178.47,261.71,178.47z"/>
			</g>
		</g>
		<g>
			<path class="st2" d="M257.08,205.98c-0.2,0-0.4-0.03-0.59-0.09c-0.84-0.26-1.41-1.03-1.41-1.91V193.4h-3.65
				c-0.74,0-1.42-0.41-1.77-1.07c-0.35-0.66-0.3-1.45,0.12-2.07l11.3-16.4c0.5-0.72,1.41-1.03,2.24-0.78
				c0.84,0.26,1.41,1.03,1.41,1.91v10.58h3.65c0.74,0,1.42,0.41,1.77,1.07c0.35,0.66,0.3,1.45-0.12,2.07l-11.3,16.4
				C258.35,205.67,257.73,205.98,257.08,205.98z M255.24,189.4h1.85c1.1,0,2,0.9,2,2v6.15l5.49-7.97h-1.84c-1.1,0-2-0.9-2-2v-6.15
				L255.24,189.4z"/>
		</g>
	</g>
	<g>
		<g>
			<path class="st2" d="M389.52-168.73c-1.38,0-2.5-1.12-2.5-2.5v-7.31c-0.3-1.05-1.94-6.05-7.52-11.08
				c-1.03-0.92-1.11-2.5-0.18-3.53c0.92-1.03,2.5-1.11,3.53-0.19c7.55,6.8,9.06,13.69,9.12,13.98c0.04,0.17,0.05,0.34,0.05,0.51
				v7.62C392.02-169.85,390.91-168.73,389.52-168.73z"/>
			<path class="st2" d="M390.43-179.85c-0.03,0-0.06,0-0.09,0c-0.37-0.02-9.24-0.46-14.68-6.38c-5.44-5.91-5.15-14.78-5.13-15.16
				c0.02-0.53,0.25-1.03,0.64-1.39c0.39-0.36,0.92-0.55,1.44-0.53c0.37,0.02,9.23,0.47,14.67,6.38c5.44,5.91,5.15,14.78,5.14,15.16
				c-0.02,0.53-0.25,1.03-0.64,1.39C391.41-180.04,390.93-179.85,390.43-179.85z M374.63-199.02c0.25,2.6,1.12,6.97,3.98,10.08
				c2.86,3.11,7.14,4.33,9.72,4.8c-0.26-2.61-1.12-6.98-3.98-10.09C381.49-197.33,377.21-198.55,374.63-199.02z"/>
			<path class="st2" d="M390.66-175.67c-0.5,0-0.98-0.19-1.35-0.53c-0.39-0.36-0.62-0.86-0.64-1.39c-0.01-0.24-0.19-5.9,3.3-9.71
				c3.5-3.8,9.16-4.09,9.4-4.1c0.54-0.02,1.05,0.16,1.44,0.53c0.39,0.36,0.62,0.86,0.64,1.39c0.01,0.24,0.19,5.9-3.3,9.71
				c-3.5,3.81-9.16,4.09-9.4,4.1C390.72-175.67,390.69-175.67,390.66-175.67z M399.24-187c-1.38,0.37-3.11,1.08-4.33,2.41
				c-1.22,1.33-1.78,3.11-2.04,4.52c1.38-0.37,3.1-1.08,4.33-2.41C398.43-183.81,398.99-185.59,399.24-187z"/>
		</g>
		<path class="st1" d="M382.99-165.96h-30.75c-1.38,0-2.5-1.12-2.5-2.5v-52c0-1.38,1.12-2.5,2.5-2.5h8.42c1.38,0,2.5,1.12,2.5,2.5
			v10.38h17.28v-10.38c0-1.38,1.12-2.5,2.5-2.5h8.42c1.38,0,2.5,1.12,2.5,2.5V-198c0,1.38-1.12,2.5-2.5,2.5
			c-1.38,0-2.5-1.12-2.5-2.5v-19.96h-3.42v10.38c0,1.38-1.12,2.5-2.5,2.5h-22.28c-1.38,0-2.5-1.12-2.5-2.5v-10.38h-3.42v47h28.25
			c1.38,0,2.5,1.12,2.5,2.5C385.49-167.08,384.37-165.96,382.99-165.96z"/>
	</g>
	<g>
		<g>
			<g>
				<path class="st3" d="M375.33-71.62"/>
				<path class="st4" d="M388.56-53.75"/>
				<path class="st2" d="M387.19-49.02c-0.1,0-0.21,0-0.31-0.01l-3.13,0c-1.1,0-2-0.9-2-2c0-1.1,0.9-2,2-2h2.91l-5.38-9.09
					c-0.56-0.95-0.25-2.18,0.7-2.74c0.95-0.56,2.18-0.25,2.74,0.7l5.67,9.57c1.06,1.77,0.58,3.49-0.17,4.42
					C389.48-49.24,388.22-49.02,387.19-49.02z"/>
				<path class="st2" d="M367.12-49.03c-1.12,0-3.17,0-3.97-1.75c-0.66-1.41-0.59-2.8,0.23-4.11l1.73-3.01
					c0.55-0.96,1.77-1.29,2.73-0.74c0.96,0.55,1.29,1.77,0.74,2.73l-1.66,2.88c0.08,0,0.14,0,0.2,0h11.34c1.1,0,2,0.9,2,2
					c0,1.1-0.9,2-2,2H367.12C367.12-49.03,367.12-49.03,367.12-49.03z"/>
				<path class="st2" d="M370.24-60.8c-0.34,0-0.68-0.09-1-0.27c-0.96-0.55-1.29-1.77-0.73-2.73c2.33-4.04,4.81-8.34,5.11-8.84
					c0.68-1.1,2.1-1.81,3.4-1.71c1.58,0.12,2.64,1.12,3.1,1.98l1.51,2.62c0.55,0.96,0.22,2.18-0.73,2.73
					c-0.96,0.55-2.18,0.22-2.73-0.73l-1.37-2.38c-0.67,1.15-2.51,4.34-4.81,8.34C371.6-61.16,370.93-60.8,370.24-60.8z"/>
			</g>
			<path class="st2" d="M381.48-58.48c-0.13,0-0.26-0.01-0.4-0.04c-1.08-0.22-1.78-1.27-1.56-2.36l0.81-4
				c0.12-0.58,0.48-1.08,1-1.36c0.52-0.28,1.14-0.32,1.69-0.1l4.02,1.58c1.03,0.4,1.53,1.56,1.13,2.59
				c-0.4,1.03-1.56,1.54-2.59,1.13l-1.8-0.71l-0.33,1.66C383.25-59.14,382.41-58.48,381.48-58.48z"/>
			<path class="st2" d="M369.38-59.17c-0.32,0-0.65-0.08-0.94-0.23c-0.52-0.28-0.89-0.77-1.02-1.35l-0.9-4.23
				c-0.23-1.08,0.46-2.14,1.54-2.37c1.08-0.23,2.14,0.46,2.37,1.54l0.4,1.9l1.57-0.63c1.03-0.41,2.19,0.08,2.6,1.11
				c0.41,1.02-0.08,2.19-1.11,2.6l-3.78,1.53C369.88-59.22,369.63-59.17,369.38-59.17z"/>
			<path class="st2" d="M376.15-46.46c-0.51,0-1.02-0.19-1.41-0.58c-0.79-0.78-0.79-2.04-0.02-2.83l1.36-1.38l-1.39-0.96
				c-0.91-0.63-1.14-1.87-0.51-2.78c0.63-0.91,1.87-1.14,2.78-0.51l3.35,2.32c0.49,0.34,0.8,0.87,0.86,1.46
				c0.06,0.59-0.15,1.17-0.57,1.59l-3.04,3.07C377.18-46.66,376.66-46.46,376.15-46.46z"/>
		</g>
		<g>
			<path class="st2" d="M384.71-84.15c-1.38,0-2.5-1.12-2.5-2.5c0-2.96-2.41-5.36-5.36-5.36c-2.96,0-5.36,2.41-5.36,5.36
				c0,1.38-1.12,2.5-2.5,2.5c-1.38,0-2.5-1.12-2.5-2.5c0-5.71,4.65-10.36,10.36-10.36c5.71,0,10.36,4.65,10.36,10.36
				C387.21-85.27,386.09-84.15,384.71-84.15z"/>
			<path class="st1" d="M401.62-82.76h-49.54c-1.38,0-2.5-1.12-2.5-2.5c0-1.38,1.12-2.5,2.5-2.5h49.54c1.38,0,2.5,1.12,2.5,2.5
				C404.12-83.88,403-82.76,401.62-82.76z"/>
			<path class="st1" d="M393.52-32.35h-33.34c-1.31,0-2.4-1.02-2.49-2.33l-3.45-50.42c-0.05-0.69,0.19-1.37,0.67-1.88
				c0.47-0.51,1.13-0.79,1.83-0.79h40.25c0.69,0,1.35,0.29,1.83,0.79c0.47,0.51,0.71,1.19,0.67,1.88l-3.46,50.42
				C395.92-33.36,394.83-32.35,393.52-32.35z M362.51-37.35h28.68l3.11-45.42H359.4L362.51-37.35z"/>
		</g>
	</g>
	<g>
		<g>
			<g>
				<path class="st3" d="M528.54-200.08"/>
				<path class="st4" d="M544.07-179.08"/>
				<path class="st2" d="M542.45-173.88c-0.12,0-0.23,0-0.33-0.01l-3.69,0c-1.1,0-2-0.9-2-2c0-1.1,0.9-2,2-2h3.77
					c0.08,0,0.17,0,0.25,0l-6.64-11.2c-0.56-0.95-0.25-2.18,0.7-2.74c0.95-0.56,2.18-0.25,2.74,0.7l6.66,11.24
					c1.16,1.93,0.63,3.79-0.17,4.79C544.94-174.07,543.44-173.88,542.45-173.88z"/>
				<path class="st2" d="M518.88-173.89c-1.23,0-3.5,0-4.35-1.85c-0.72-1.55-0.64-3.06,0.25-4.5l2.04-3.55
					c0.55-0.96,1.77-1.29,2.73-0.74c0.96,0.55,1.29,1.77,0.74,2.73l-2.08,3.61c-0.07,0.12-0.12,0.2-0.15,0.28
					c0.29,0.02,0.63,0.02,0.82,0.02h13.33c1.1,0,2,0.9,2,2c0,1.1-0.9,2-2,2H518.88C518.88-173.89,518.88-173.89,518.88-173.89z"/>
				<path class="st2" d="M522.55-187.72c-0.34,0-0.68-0.09-1-0.27c-0.96-0.55-1.29-1.77-0.74-2.73c2.67-4.64,5.65-9.79,6-10.38
					c0.73-1.18,2.25-1.95,3.66-1.85c1.72,0.13,2.87,1.22,3.36,2.15l1.78,3.08c0.55,0.96,0.22,2.18-0.73,2.73
					c-0.96,0.55-2.18,0.22-2.73-0.73l-1.8-3.12c-0.04-0.08-0.04-0.05-0.04-0.05c0,0,0,0-0.02-0.06c-0.01,0-0.06,0-0.1,0v0
					c0.01,0,0,0.01-0.02,0.03c-0.48,0.82-3.05,5.26-5.9,10.21C523.91-188.08,523.24-187.72,522.55-187.72z"/>
			</g>
			<path class="st2" d="M535.75-185c-0.13,0-0.26-0.01-0.4-0.04c-1.08-0.22-1.78-1.27-1.56-2.36l0.95-4.69
				c0.12-0.58,0.48-1.08,1-1.36c0.52-0.28,1.14-0.32,1.69-0.1l4.72,1.86c1.03,0.4,1.53,1.56,1.13,2.59
				c-0.4,1.03-1.56,1.54-2.59,1.13l-2.51-0.98l-0.48,2.36C537.52-185.65,536.69-185,535.75-185z"/>
			<path class="st2" d="M521.53-185.8c-0.32,0-0.65-0.08-0.94-0.23c-0.52-0.28-0.89-0.77-1.02-1.35l-1.05-4.97
				c-0.23-1.08,0.46-2.14,1.54-2.37c1.08-0.23,2.14,0.46,2.37,1.54l0.56,2.63l2.23-0.9c1.03-0.41,2.19,0.08,2.6,1.11
				c0.41,1.02-0.08,2.19-1.11,2.6l-4.44,1.79C522.04-185.85,521.79-185.8,521.53-185.8z"/>
			<path class="st2" d="M529.49-170.87c-0.51,0-1.02-0.19-1.41-0.58c-0.79-0.78-0.79-2.04-0.02-2.83l1.89-1.92l-1.98-1.37
				c-0.91-0.63-1.14-1.87-0.51-2.78c0.63-0.91,1.87-1.14,2.78-0.51l3.94,2.72c0.49,0.34,0.8,0.87,0.86,1.46
				c0.06,0.59-0.15,1.17-0.57,1.59l-3.57,3.61C530.52-171.07,530.01-170.87,529.49-170.87z"/>
		</g>
		<g>
			<g>
				<g>
					<path class="st1" d="M528.96-164.99h-27.97c-2.81,0-5.09-2.28-5.09-5.08v-36.94c0-0.68,0.28-1.33,0.77-1.8l13.53-12.97
						c0.46-0.45,1.08-0.7,1.73-0.7h22.74c2.8,0,5.08,2.28,5.08,5.08v12.73c0,1.38-1.12,2.5-2.5,2.5c-1.38,0-2.5-1.12-2.5-2.5v-12.73
						c0-0.04-0.04-0.08-0.08-0.08h-21.74l-12.04,11.53v35.88c0,0.04,0.04,0.08,0.09,0.08l34.26-0.01c0,0,0,0,0,0
						c1.38,0,2.5,1.12,2.5,2.5c0,1.38-1.12,2.5-2.5,2.5L528.96-164.99z"/>
				</g>
				<path class="st1" d="M512.17-204.27h-13.43c-1.38,0-2.5-1.12-2.5-2.5c0-1.38,1.12-2.5,2.5-2.5h10.93v-10.62
					c0-1.38,1.12-2.5,2.5-2.5c1.38,0,2.5,1.12,2.5,2.5v13.12C514.67-205.39,513.55-204.27,512.17-204.27z"/>
			</g>
		</g>
	</g>
	<g>
		<g>
			<g>
				<path class="st1" d="M74.34,203.11c-0.8,0-1.57-0.38-2.05-1.07c-0.3-0.43-2.87-4.29-1.72-8.66c0.73-2.79,2.75-5,5.99-6.57
					c5.63-2.73,11.53-5,16.57-3.16c1.3,0.47,1.97,1.91,1.5,3.2c-0.47,1.3-1.91,1.97-3.2,1.5c-2.63-0.95-6.42-0.07-12.69,2.96
					c-1.87,0.91-2.99,2.03-3.33,3.34c-0.23,0.86-0.12,1.76,0.1,2.52l15.27-8.05c1.22-0.64,2.73-0.18,3.38,1.05
					c0.64,1.22,0.18,2.73-1.05,3.38l-17.6,9.28C75.13,203.02,74.73,203.11,74.34,203.11z"/>
				<path class="st1" d="M117.78,199.98c-1.35,0-2.79-0.27-4.32-0.8c-4.82-1.67-8.61-3.62-11.26-5.78
					c-1.07-0.87-1.23-2.45-0.36-3.52c0.87-1.07,2.45-1.23,3.52-0.36c2.17,1.77,5.54,3.47,9.74,4.93c1.96,0.68,3.55,0.68,4.72,0
					c0.76-0.45,1.31-1.14,1.7-1.83l-18.24-5.44c-1.32-0.39-2.08-1.79-1.68-3.11c0.39-1.32,1.78-2.08,3.11-1.68l20.79,6.2
					c1.22,0.36,1.97,1.58,1.75,2.84c-0.09,0.51-1.01,5.06-4.9,7.34C120.97,199.57,119.44,199.98,117.78,199.98z"/>
				<path class="st1" d="M101.73,185.24c-0.44,0-0.88-0.12-1.29-0.36c-1.18-0.71-1.56-2.25-0.85-3.43
					c1.62-2.69,2.55-7.24,2.55-12.48c0-2.07-0.51-3.56-1.53-4.44c-0.7-0.6-1.57-0.9-2.37-1.04l0.35,19.13
					c0.03,1.38-1.07,2.52-2.45,2.55c-0.02,0-0.03,0-0.05,0c-1.36,0-2.47-1.09-2.5-2.45l-0.4-21.7c-0.02-1.25,0.88-2.32,2.11-2.52
					c0.51-0.08,5.11-0.71,8.54,2.22c2.19,1.87,3.3,4.65,3.3,8.25c0,6.21-1.16,11.56-3.27,15.06
					C103.4,184.81,102.57,185.24,101.73,185.24z"/>
			</g>
			<path class="st1" d="M93.18,214.14c-1.38,0-2.5-1.12-2.5-2.5v-20.82c0-1.38,1.12-2.5,2.5-2.5s2.5,1.12,2.5,2.5v20.82
				C95.68,213.02,94.56,214.14,93.18,214.14z"/>
			<path class="st1" d="M103.75,214.14c-1.38,0-2.5-1.12-2.5-2.5v-20.82c0-1.38,1.12-2.5,2.5-2.5c1.38,0,2.5,1.12,2.5,2.5v20.82
				C106.25,213.02,105.14,214.14,103.75,214.14z"/>
			<g>
				<path class="st2" d="M121.46,183.03C121.46,183.03,121.45,183.03,121.46,183.03c-1.11,0-2-0.9-2-2
					c0.01-2.69-0.85-5.24-2.46-7.36c-1.54-2.03-3.66-3.49-6.12-4.24c-1.06-0.32-1.65-1.44-1.33-2.49c0.32-1.06,1.44-1.66,2.49-1.33
					c3.28,0.99,6.09,2.94,8.15,5.64c2.15,2.83,3.29,6.21,3.28,9.79C123.45,182.14,122.56,183.03,121.46,183.03z"/>
				<path class="st2" d="M116.01,183.21c-1.07,0-1.96-0.85-2-1.93c-0.05-1.54-0.57-3-1.49-4.21c-0.86-1.13-2.02-1.98-3.37-2.46
					c-1.04-0.37-1.58-1.52-1.21-2.56c0.37-1.04,1.52-1.58,2.56-1.21c2.08,0.75,3.88,2.06,5.2,3.8c1.43,1.87,2.23,4.12,2.31,6.49
					c0.04,1.1-0.82,2.03-1.93,2.07C116.06,183.21,116.04,183.21,116.01,183.21z"/>
				<path class="st2" d="M121.46,183.03C121.46,183.03,121.45,183.03,121.46,183.03c-1.11,0-2-0.9-2-2
					c0.01-2.69-0.85-5.24-2.46-7.36c-1.54-2.03-3.66-3.49-6.12-4.24c-1.06-0.32-1.65-1.44-1.33-2.49c0.32-1.06,1.44-1.66,2.49-1.33
					c3.28,0.99,6.09,2.94,8.15,5.64c2.15,2.83,3.29,6.21,3.28,9.79C123.45,182.14,122.56,183.03,121.46,183.03z"/>
			</g>
			<g>
				<path class="st2" d="M76.58,183.03c-1.1,0-2-0.89-2-2c-0.01-3.58,1.13-6.97,3.28-9.79c2.06-2.7,4.87-4.65,8.15-5.64
					c1.06-0.32,2.17,0.28,2.49,1.33c0.32,1.06-0.28,2.17-1.33,2.49c-2.46,0.75-4.58,2.21-6.13,4.24c-1.61,2.12-2.47,4.67-2.46,7.36
					C78.58,182.13,77.69,183.03,76.58,183.03C76.59,183.03,76.58,183.03,76.58,183.03z"/>
				<path class="st2" d="M82.03,183.21c-0.02,0-0.05,0-0.07,0c-1.1-0.04-1.97-0.97-1.93-2.07c0.08-2.38,0.88-4.62,2.31-6.5
					c1.32-1.74,3.12-3.05,5.2-3.8c1.04-0.38,2.19,0.17,2.56,1.21c0.37,1.04-0.17,2.19-1.21,2.56c-1.35,0.49-2.52,1.34-3.37,2.46
					c-0.92,1.21-1.44,2.67-1.5,4.21C83.98,182.37,83.1,183.21,82.03,183.21z"/>
				<path class="st2" d="M76.58,183.03c-1.1,0-2-0.89-2-2c-0.01-3.58,1.13-6.97,3.28-9.79c2.06-2.7,4.87-4.65,8.15-5.64
					c1.06-0.32,2.17,0.28,2.49,1.33c0.32,1.06-0.28,2.17-1.33,2.49c-2.46,0.75-4.58,2.21-6.13,4.24c-1.61,2.12-2.47,4.67-2.46,7.36
					C78.58,182.13,77.69,183.03,76.58,183.03C76.59,183.03,76.58,183.03,76.58,183.03z"/>
			</g>
		</g>
		<path class="st2" d="M98.32,195.8c-4.16,0-7.55-3.39-7.55-7.55c0-4.16,3.39-7.55,7.55-7.55c4.16,0,7.55,3.39,7.55,7.55
			C105.87,192.41,102.48,195.8,98.32,195.8z M98.32,184.7c-1.96,0-3.55,1.59-3.55,3.55c0,1.96,1.59,3.55,3.55,3.55
			c1.96,0,3.55-1.59,3.55-3.55C101.87,186.29,100.27,184.7,98.32,184.7z"/>
	</g>
	<g>
		<g>
			<g>
				<path class="st1" d="M379.77,178.66h-0.47c-3.56,0-6.91-1.5-9.29-4.02c-2.38,2.52-5.73,4.02-9.29,4.02h-0.47
					c-3.56,0-6.91-1.5-9.29-4.02c-2.38,2.52-5.73,4.02-9.29,4.02h-0.46c-1.38,0-2.5-1.12-2.5-2.5c0-1.38,1.12-2.5,2.5-2.5h0.46
					c3,0,5.75-1.76,7.02-4.47c0.41-0.88,1.29-1.44,2.27-1.44s1.85,0.56,2.27,1.44c1.27,2.72,4.02,4.47,7.02,4.47h0.47
					c3,0,5.75-1.76,7.02-4.47c0.41-0.88,1.29-1.44,2.26-1.44c0.97,0,1.85,0.56,2.27,1.44c1.27,2.72,4.03,4.47,7.02,4.47h0.47
					c3.55,0,5.42-1.16,7.38-4.59c0.46-0.81,1.34-1.27,2.27-1.26c0.93,0.04,1.77,0.59,2.16,1.43c0,0,1.21,2.41,3.93,3.62
					c1.26,0.56,1.83,2.04,1.26,3.3c-0.56,1.26-2.04,1.83-3.3,1.26c-1.75-0.78-3.1-1.84-4.1-2.86
					C386.91,177.4,383.89,178.66,379.77,178.66z"/>
			</g>
			<g>
				<path class="st1" d="M379.77,189.86h-0.47c-3.56,0-6.91-1.51-9.29-4.02c-2.38,2.52-5.73,4.02-9.29,4.02h-0.47
					c-3.56,0-6.91-1.5-9.29-4.02c-2.37,2.52-5.73,4.02-9.29,4.02h-0.46c-1.38,0-2.5-1.12-2.5-2.5c0-1.38,1.12-2.5,2.5-2.5h0.46
					c3,0,5.75-1.76,7.02-4.47c0.41-0.88,1.29-1.44,2.27-1.44s1.86,0.56,2.27,1.44c1.27,2.72,4.02,4.47,7.02,4.47h0.47
					c3,0,5.75-1.76,7.02-4.47c0.41-0.88,1.29-1.44,2.26-1.44c0.97,0,1.85,0.56,2.27,1.44c1.27,2.72,4.03,4.48,7.02,4.48h0.47
					c3.55,0,5.42-1.16,7.38-4.59c0.69-1.2,2.21-1.61,3.41-0.93c1.2,0.69,1.61,2.21,0.93,3.41
					C388.64,187.73,385.14,189.86,379.77,189.86z"/>
			</g>
			<g>
				<path class="st1" d="M379.77,201.06h-0.47c-3.56,0-6.91-1.51-9.29-4.02c-2.38,2.52-5.73,4.02-9.29,4.02h-0.47
					c-3.56,0-6.91-1.5-9.29-4.02c-2.37,2.52-5.73,4.02-9.29,4.02h-0.46c-1.38,0-2.5-1.12-2.5-2.5s1.12-2.5,2.5-2.5h0.46
					c3,0,5.75-1.76,7.02-4.47c0.41-0.88,1.29-1.44,2.27-1.44s1.86,0.56,2.27,1.44c1.27,2.72,4.02,4.47,7.02,4.47h0.47
					c3,0,5.75-1.76,7.02-4.47c0.41-0.88,1.29-1.44,2.26-1.44c0.97,0,1.85,0.56,2.27,1.44c1.27,2.72,4.03,4.48,7.02,4.48h0.47
					c1.84,0,3.21-0.32,4.31-1.01c1.17-0.73,2.71-0.38,3.45,0.78c0.74,1.17,0.38,2.71-0.78,3.45
					C384.84,200.48,382.56,201.06,379.77,201.06z"/>
			</g>
		</g>
		<g>
			<path class="st2" d="M398.11,210.31c-0.22,0-0.43-0.04-0.65-0.11c-0.83-0.28-1.38-1.07-1.35-1.95l0.37-13.36l-4.9-0.14
				c-0.74-0.02-1.41-0.45-1.74-1.12c-0.33-0.67-0.26-1.46,0.18-2.06l14.36-19.66c0.52-0.71,1.43-1,2.26-0.71
				c0.83,0.28,1.38,1.07,1.35,1.95l-0.37,13.37l4.9,0.14c0.74,0.02,1.41,0.45,1.74,1.12c0.33,0.67,0.26,1.46-0.18,2.06l-14.36,19.65
				C399.34,210.02,398.73,210.31,398.11,210.31z M395.49,190.86l3.1,0.09c0.53,0.01,1.03,0.24,1.4,0.63
				c0.36,0.38,0.56,0.9,0.55,1.43l-0.25,8.94l8.32-11.39l-3.1-0.09c-0.53-0.01-1.03-0.24-1.4-0.63c-0.36-0.38-0.56-0.9-0.55-1.43
				l0.25-8.94L395.49,190.86z"/>
		</g>
	</g>
	<g>
		<g>
			<g>
				<path class="st5" d="M547.78,87.41"/>
				<path class="st1" d="M495.54,89.91c-1.38,0-2.5-1.12-2.5-2.5V53.69c0-1.38,1.12-2.5,2.5-2.5c1.38,0,2.5,1.12,2.5,2.5v33.72
					C498.04,88.79,496.92,89.91,495.54,89.91z"/>
				<path class="st1" d="M486.71,62.19c-0.77,0-1.53-0.36-2.02-1.03c-0.81-1.11-0.57-2.68,0.54-3.49l34.95-25.54
					c0.88-0.64,2.07-0.64,2.95,0l34.62,25.27c1.12,0.81,1.36,2.38,0.55,3.49c-0.81,1.12-2.38,1.36-3.49,0.55l-33.15-24.2
					l-33.47,24.46C487.74,62.03,487.22,62.19,486.71,62.19z"/>
				<path class="st1" d="M547.78,71.17c-1.38,0-2.5-1.12-2.5-2.5V53.69c0-1.38,1.12-2.5,2.5-2.5c1.38,0,2.5,1.12,2.5,2.5v14.98
					C550.28,70.05,549.16,71.17,547.78,71.17z"/>
			</g>
		</g>
		<g>
			<path class="st2" d="M543.76,95.07c-0.2,0-0.4-0.03-0.59-0.09c-0.84-0.26-1.41-1.03-1.41-1.91v-9.71h-3.26
				c-0.74,0-1.42-0.41-1.77-1.07c-0.35-0.66-0.3-1.45,0.12-2.07l10.52-15.27c0.5-0.72,1.41-1.03,2.24-0.78
				c0.84,0.26,1.41,1.03,1.41,1.91v9.71h3.26c0.74,0,1.42,0.41,1.77,1.07c0.35,0.66,0.3,1.45-0.12,2.07l-10.52,15.27
				C545.03,94.76,544.41,95.07,543.76,95.07z M542.31,79.36h1.46c1.1,0,2,0.9,2,2v5.28l4.71-6.84h-1.45c-1.1,0-2-0.9-2-2v-5.28
				L542.31,79.36z"/>
		</g>
		<g>
			<path class="st2" d="M522.28,81.35c-6.35,0-11.52-5.69-11.52-12.68v-5.13c0-1.1,0.9-2,2-2h19.04c1.1,0,2,0.9,2,2v5.13
				C533.8,75.66,528.63,81.35,522.28,81.35z M514.76,65.54v3.13c0,4.79,3.37,8.68,7.52,8.68c4.15,0,7.52-3.89,7.52-8.68v-3.13
				H514.76z"/>
			<g>
				<path class="st2" d="M517.26,63.84c-1.1,0-2-0.9-2-2v-5.35c0-1.1,0.9-2,2-2s2,0.9,2,2v5.35
					C519.26,62.95,518.36,63.84,517.26,63.84z"/>
				<path class="st2" d="M527.3,63.84c-1.1,0-2-0.9-2-2v-5.35c0-1.1,0.9-2,2-2s2,0.9,2,2v5.35C529.3,62.95,528.41,63.84,527.3,63.84
					z"/>
			</g>
			<path class="st2" d="M527.28,70.24h-10.01c-0.83,0-1.5-0.67-1.5-1.5c0-0.83,0.67-1.5,1.5-1.5h10.01c0.83,0,1.5,0.67,1.5,1.5
				C528.78,69.56,528.11,70.24,527.28,70.24z"/>
			<path class="st2" d="M526.19,74.15h-7.83c-0.83,0-1.5-0.67-1.5-1.5s0.67-1.5,1.5-1.5h7.83c0.83,0,1.5,0.67,1.5,1.5
				S527.02,74.15,526.19,74.15z"/>
		</g>
		<path class="st2" d="M522.28,90.75c-1.1,0-2-0.9-2-2v-9.4c0-1.1,0.9-2,2-2c1.1,0,2,0.9,2,2v9.4
			C524.28,89.85,523.39,90.75,522.28,90.75z"/>
	</g>
	<g>
		<g>
			<g>
				<path class="st1" d="M507.83,205.9c-0.22,0-0.36-0.01-0.4-0.01c-1.38-0.06-2.45-1.23-2.39-2.61c0.06-1.38,1.24-2.41,2.6-2.39
					c0.09,0,6.47,0.18,9.61-3.84c2.18-2.8,2.44-7.15,0.76-12.94c-3.94-13.58-12.04-20.83-12.12-20.9c-1.03-0.91-1.14-2.49-0.23-3.53
					c0.91-1.04,2.48-1.14,3.52-0.24c0.38,0.33,9.26,8.21,13.63,23.27c2.16,7.44,1.61,13.31-1.64,17.45
					C516.94,205.55,509.64,205.9,507.83,205.9z"/>
			</g>
		</g>
		<g>
			<path class="st1" d="M506.82,205.9c-1.81,0-9.11-0.35-13.34-5.73c-3.25-4.13-3.8-10-1.64-17.45
				c4.37-15.06,13.26-22.94,13.63-23.27c1.04-0.91,2.62-0.8,3.53,0.24c0.91,1.04,0.8,2.62-0.24,3.53
				c-0.08,0.07-8.18,7.32-12.12,20.9c-1.68,5.81-1.42,10.17,0.77,12.96c3.13,3.99,9.53,3.83,9.59,3.82c0.04,0,0.08,0,0.11,0
				c1.33,0,2.44,1.05,2.5,2.39c0.06,1.38-1.01,2.55-2.39,2.61C507.19,205.89,507.05,205.9,506.82,205.9z"/>
		</g>
		<g>
			<path class="st2" d="M507.32,185.65c-0.51,0-1.02-0.2-1.41-0.59c-0.78-0.78-0.78-2.05,0-2.83l6.1-6.1c0.78-0.78,2.05-0.78,2.83,0
				c0.78,0.78,0.78,2.05,0,2.83l-6.1,6.1C508.34,185.46,507.83,185.65,507.32,185.65z"/>
			<path class="st2" d="M507.06,188.14c-0.51,0-1.02-0.2-1.42-0.59l-6.1-6.1c-0.78-0.78-0.78-2.05,0-2.83
				c0.78-0.78,2.05-0.78,2.83,0l6.1,6.1c0.78,0.78,0.78,2.05,0,2.83C508.08,187.95,507.57,188.14,507.06,188.14z"/>
			<path class="st2" d="M507.32,195.34c-0.51,0-1.02-0.2-1.41-0.59c-0.78-0.78-0.78-2.05,0-2.83l6.1-6.1c0.78-0.78,2.05-0.78,2.83,0
				c0.78,0.78,0.78,2.05,0,2.83l-6.1,6.1C508.34,195.14,507.83,195.34,507.32,195.34z"/>
			<path class="st2" d="M507.06,198.37c-0.51,0-1.02-0.2-1.41-0.59l-6.1-6.1c-0.78-0.78-0.78-2.05,0-2.83
				c0.78-0.78,2.05-0.78,2.83,0l6.1,6.1c0.78,0.78,0.78,2.05,0,2.83C508.08,198.18,507.57,198.37,507.06,198.37z"/>
			<path class="st2" d="M507.09,215.23c-1.38,0-2.5-1.12-2.5-2.5v-41.98c0-1.38,1.12-2.5,2.5-2.5c1.38,0,2.5,1.12,2.5,2.5v41.98
				C509.59,214.11,508.47,215.23,507.09,215.23z"/>
		</g>
		<g>
			<g>
				<path class="st1" d="M536.17,205.9c-0.22,0-0.36-0.01-0.4-0.01c-1.38-0.06-2.45-1.23-2.39-2.61c0.06-1.38,1.24-2.41,2.6-2.39
					c0.09,0,6.47,0.18,9.61-3.84c2.18-2.8,2.44-7.15,0.76-12.94c-3.94-13.58-12.04-20.83-12.12-20.9c-1.03-0.91-1.14-2.49-0.23-3.53
					c0.91-1.04,2.48-1.14,3.52-0.24c0.38,0.33,9.26,8.21,13.63,23.27c2.16,7.44,1.61,13.31-1.64,17.45
					C545.27,205.55,537.98,205.9,536.17,205.9z"/>
			</g>
		</g>
		<g>
			<path class="st1" d="M525.47,178.17c-0.35,0-0.71-0.08-1.05-0.23c-1.25-0.58-1.8-2.07-1.22-3.32
				c4.55-9.82,10.35-14.95,10.6-15.17c1.04-0.91,2.62-0.8,3.53,0.24c0.91,1.04,0.8,2.62-0.24,3.53c-0.05,0.04-5.27,4.7-9.35,13.5
				C527.32,177.63,526.42,178.17,525.47,178.17z"/>
			<path class="st1" d="M535.17,205.9c-1.3,0-5.57-0.18-9.4-2.37c-1.2-0.68-1.62-2.21-0.93-3.41c0.68-1.2,2.21-1.62,3.41-0.93
				c3.21,1.83,7.07,1.71,7.1,1.71c1.36-0.05,2.54,1.02,2.59,2.4c0.06,1.38-1.01,2.54-2.38,2.6
				C535.53,205.89,535.39,205.9,535.17,205.9z"/>
		</g>
		<g>
			<path class="st2" d="M535.65,185.65c-0.51,0-1.02-0.2-1.41-0.59c-0.78-0.78-0.78-2.05,0-2.83l6.1-6.1c0.78-0.78,2.05-0.78,2.83,0
				c0.78,0.78,0.78,2.05,0,2.83l-6.1,6.1C536.68,185.46,536.17,185.65,535.65,185.65z"/>
			<path class="st2" d="M535.39,188.14c-0.51,0-1.02-0.2-1.42-0.59l-6.1-6.1c-0.78-0.78-0.78-2.05,0-2.83
				c0.78-0.78,2.05-0.78,2.83,0l6.1,6.1c0.78,0.78,0.78,2.05,0,2.83C536.42,187.95,535.91,188.14,535.39,188.14z"/>
			<path class="st2" d="M535.65,195.34c-0.51,0-1.02-0.2-1.41-0.59c-0.78-0.78-0.78-2.05,0-2.83l6.1-6.1c0.78-0.78,2.05-0.78,2.83,0
				c0.78,0.78,0.78,2.05,0,2.83l-6.1,6.1C536.68,195.14,536.17,195.34,535.65,195.34z"/>
			<path class="st2" d="M535.39,198.37c-0.51,0-1.02-0.2-1.41-0.59l-6.1-6.1c-0.78-0.78-0.78-2.05,0-2.83
				c0.78-0.78,2.05-0.78,2.83,0l6.1,6.1c0.78,0.78,0.78,2.05,0,2.83C536.42,198.18,535.91,198.37,535.39,198.37z"/>
			<path class="st2" d="M535.42,215.23c-1.38,0-2.5-1.12-2.5-2.5v-41.98c0-1.38,1.12-2.5,2.5-2.5c1.38,0,2.5,1.12,2.5,2.5v41.98
				C537.92,214.11,536.8,215.23,535.42,215.23z"/>
		</g>
	</g>
	<g>
		<path class="st2" d="M671.33,175.4h-13.61c-1.1,0-2-0.9-2-2c0-1.1,0.9-2,2-2h13.61c1.1,0,2,0.9,2,2
			C673.33,174.5,672.43,175.4,671.33,175.4z"/>
		<path class="st2" d="M668.96,180.72h-8.87c-1.1,0-2-0.9-2-2c0-1.1,0.9-2,2-2h8.87c1.1,0,2,0.9,2,2
			C670.96,179.82,670.07,180.72,668.96,180.72z"/>
		<g>
			<path class="st1" d="M664.52,212.49c-1.38,0-2.5-1.12-2.5-2.5v-22.11c0-1.38,1.12-2.5,2.5-2.5c1.38,0,2.5,1.12,2.5,2.5v22.11
				C667.02,211.37,665.91,212.49,664.52,212.49z"/>
			<g>
				<path class="st1" d="M655.04,210.38L655.04,210.38c-13.87,0-17.83-14.31-17.98-21.87c-0.02-0.78,0.34-1.53,0.95-2.01
					c0.61-0.49,1.42-0.66,2.18-0.46c1.7,0.44,3.5,0.77,5.41,1.12c6.71,1.21,14.31,2.59,18.42,9.76c0.04,0.07,3.57,7.03,2.6,9.72
					c-0.28,0.79-0.88,1.41-1.65,1.7C661.39,209.69,658.05,210.38,655.04,210.38z M642.39,191.65c0.8,4.94,3.51,13.73,12.65,13.73h0
					c1.96,0,4.14-0.38,6.52-1.14c-0.49-1.63-1.53-4.16-1.9-4.88c-2.93-5.1-8.77-6.16-14.95-7.28
					C643.95,191.94,643.17,191.8,642.39,191.65z"/>
				<path class="st1" d="M674.01,210.38c-3,0-6.35-0.69-9.94-2.04c-0.76-0.29-1.37-0.91-1.65-1.7c-0.97-2.69,2.56-9.65,2.6-9.72
					c4.11-7.17,11.72-8.55,18.43-9.76c1.91-0.35,3.71-0.67,5.41-1.12c0.76-0.2,1.56-0.03,2.18,0.46c0.62,0.49,0.97,1.23,0.95,2.01
					C691.83,196.08,687.88,210.38,674.01,210.38z M667.48,204.24c2.38,0.76,4.57,1.14,6.52,1.14c5.21,0,8.84-2.67,11.08-8.16
					c0.81-1.99,1.28-3.99,1.55-5.58c-0.77,0.15-1.54,0.29-2.3,0.43c-6.18,1.12-12.02,2.18-14.98,7.33
					C669.01,200.09,667.97,202.61,667.48,204.24z"/>
			</g>
		</g>
		<g>
			<g>
				<path class="st2" d="M657.69,165.47c-1.38,0-2.5-1.12-2.5-2.5v-4.82c0-1.38,1.12-2.5,2.5-2.5s2.5,1.12,2.5,2.5v4.82
					C660.19,164.35,659.07,165.47,657.69,165.47z"/>
				<path class="st2" d="M671.36,165.47c-1.38,0-2.5-1.12-2.5-2.5v-4.82c0-1.38,1.12-2.5,2.5-2.5c1.38,0,2.5,1.12,2.5,2.5v4.82
					C673.86,164.35,672.74,165.47,671.36,165.47z"/>
			</g>
		</g>
		<path class="st2" d="M664.52,189.28c-8.52,0-15.45-7.64-15.45-17.03v-5.92c0-1.38,1.12-2.5,2.5-2.5h25.9c1.38,0,2.5,1.12,2.5,2.5
			v5.92C679.97,181.64,673.04,189.28,664.52,189.28z M654.08,168.83v3.42c0,6.63,4.69,12.03,10.45,12.03
			c5.76,0,10.45-5.4,10.45-12.03v-3.42H654.08z"/>
	</g>
	<g>
		<g>
			<g>
				<path class="st2" d="M106.73,337.48c-4.67,0-8.47-3.8-8.47-8.47c0-0.65,0.08-1.31,0.23-1.95c0.31-1.35,1.65-2.18,3-1.87
					c1.34,0.31,2.18,1.66,1.86,3c-0.06,0.27-0.09,0.54-0.09,0.81c0,1.91,1.56,3.47,3.47,3.47c1.91,0,3.47-1.56,3.47-3.47
					c0-0.31-0.04-0.62-0.12-0.92c-0.36-1.33,0.43-2.71,1.76-3.07c1.34-0.36,2.71,0.43,3.06,1.76c0.2,0.72,0.29,1.47,0.29,2.23
					C115.2,333.68,111.4,337.48,106.73,337.48z"/>
				<path class="st2" d="M76.96,337.48c-4.67,0-8.47-3.8-8.47-8.47c0-0.66,0.08-1.31,0.23-1.95c0.32-1.34,1.66-2.17,3.01-1.86
					c1.34,0.32,2.18,1.66,1.86,3.01c-0.06,0.26-0.09,0.53-0.09,0.81c0,1.91,1.56,3.47,3.47,3.47s3.47-1.56,3.47-3.47
					c0-0.31-0.04-0.62-0.12-0.92c-0.36-1.33,0.42-2.71,1.76-3.07c1.33-0.36,2.71,0.42,3.07,1.76c0.2,0.72,0.3,1.47,0.3,2.23
					C85.43,333.68,81.63,337.48,76.96,337.48z"/>
			</g>
		</g>
		<path class="st2" d="M129.33,297.74h-2.55c-4.03,0-7.32-3.02-7.32-6.74s3.28-6.74,7.32-6.74h2.55c1.1,0,2,0.9,2,2v9.48
			C131.33,296.84,130.44,297.74,129.33,297.74z M126.78,288.26c-1.83,0-3.32,1.23-3.32,2.74s1.49,2.74,3.32,2.74h0.55v-5.48H126.78z
			"/>
		<g>
			<path class="st2" d="M133.93,290.5h-3.75c-1.1,0-2-0.9-2-2s0.9-2,2-2h3.75c1.1,0,2,0.9,2,2S135.03,290.5,133.93,290.5z"/>
			<path class="st2" d="M133.93,295.5h-3.75c-1.1,0-2-0.9-2-2s0.9-2,2-2h3.75c1.1,0,2,0.9,2,2S135.03,295.5,133.93,295.5z"/>
		</g>
		<path class="st2" d="M128.76,323h-2.84c-1.1,0-2-0.9-2-2s0.9-2,2-2h2.84c3.58,0,6.5-2.92,6.5-6.5c0-3.24-1.7-6.5-5.5-6.5h-8.67
			c-4.78,0-8.67-3.89-8.67-8.67c0-4.78,3.89-8.67,8.67-8.67c1.1,0,2,0.9,2,2c0,1.1-0.9,2-2,2c-2.57,0-4.67,2.09-4.67,4.67
			c0,2.57,2.09,4.67,4.67,4.67h8.67c5.5,0,9.5,4.42,9.5,10.5C139.26,318.29,134.55,323,128.76,323z"/>
		<g>
			<path class="st1" d="M92.17,311.71c-1.38,0-2.5-1.12-2.5-2.5v-10.49c0-1.38,1.12-2.5,2.5-2.5c1.38,0,2.5,1.12,2.5,2.5v10.49
				C94.67,310.59,93.55,311.71,92.17,311.71z"/>
			<path class="st1" d="M70.82,312.17c-0.44,0-0.89-0.12-1.29-0.36c-1.18-0.71-1.56-2.25-0.85-3.43l7.47-12.35
				c0.02-0.04,0.05-0.08,0.08-0.12c1.2-1.75,3.73-2.8,5.48-2.8h23.92c2.17,0,3.96,1.65,4.19,3.77l3.47,11.62
				c0.39,1.32-0.36,2.72-1.68,3.11c-1.32,0.39-2.72-0.36-3.11-1.68l-3.53-11.82H81.71c-0.34,0.02-1.11,0.34-1.34,0.6l-7.41,12.25
				C72.49,311.74,71.67,312.17,70.82,312.17z"/>
		</g>
		<path class="st1" d="M122.56,329.81H60.29c-0.7,0-1.37-0.3-1.85-0.82c-0.47-0.52-0.71-1.21-0.64-1.92l1.07-11.56
			c0.09-4.03,4.39-7.03,8.25-7.03h50.78c3.95,0,7.16,3.21,7.16,7.16v11.66C125.06,328.69,123.94,329.81,122.56,329.81z
			 M63.03,324.81h57.03v-9.16c0-1.19-0.97-2.16-2.16-2.16H67.12c-1.51,0-3.25,1.31-3.25,2.16c0,0.08,0,0.15-0.01,0.23L63.03,324.81z
			"/>
	</g>
	<g>
		<g>
			<path class="st2" d="M263.88,319.61c-1.58,0-3.11-0.39-4.54-1.17c-1.54-0.84-2.5-1.88-2.81-2.24c-2.08-2.08-4.57-7.25,0.4-12.59
				c3.05-3.28,5.82-3.37,8.4-3.33c0.25,0,0.49,0.01,0.74,0.01c1.11,0,1.93-0.1,2.81-0.63c3.94-2.35,4.59-4.38,4.6-4.39
				c0.18-0.84,0.87-1.43,1.72-1.52c0.85-0.09,1.66,0.4,2.02,1.17c1.84,3.93,3.3,13.26-4.36,20.48
				C269.9,318.19,266.88,319.61,263.88,319.61z M259.58,313.6c0,0,0.62,0.74,1.68,1.32c2.63,1.44,5.65,0.6,8.86-2.43
				c4.41-4.16,4.85-8.89,4.45-12.1c-0.9,0.85-2.09,1.77-3.65,2.71c-1.76,1.05-3.44,1.19-4.85,1.19c-0.27,0-0.54,0-0.81-0.01
				c-0.25,0-0.49-0.01-0.74-0.01c-1.55,0-2.88,0.15-4.65,2.06c-3.46,3.71-0.98,6.55-0.45,7.08
				C259.46,313.47,259.53,313.54,259.58,313.6L259.58,313.6z"/>
			<path class="st2" d="M257.03,323.3c-0.91,0-1.73-0.62-1.95-1.54c-0.04-0.18-1.03-4.53,0.67-8.11c0.47-1,1.67-1.42,2.66-0.95
				c1,0.47,1.42,1.67,0.95,2.66c-1.09,2.3-0.39,5.45-0.39,5.48c0.25,1.08-0.42,2.15-1.49,2.4
				C257.34,323.28,257.19,323.3,257.03,323.3z"/>
			<path class="st2" d="M257.49,316.33c-0.25,0-0.5-0.05-0.74-0.14c-1.02-0.41-1.53-1.56-1.12-2.59c0.11-0.27,2.65-6.56,8.67-7.25
				c1.1-0.13,2.09,0.66,2.21,1.76c0.13,1.1-0.66,2.09-1.76,2.21c-3.62,0.42-5.39,4.7-5.41,4.74
				C259.04,315.86,258.28,316.33,257.49,316.33z"/>
		</g>
		<g>
			<g>
				<path class="st2" d="M245.79,337.48c-4.67,0-8.47-3.8-8.47-8.47c0-0.65,0.08-1.31,0.23-1.95c0.31-1.35,1.65-2.18,3-1.87
					c1.34,0.31,2.18,1.66,1.86,3c-0.06,0.27-0.09,0.54-0.09,0.81c0,1.91,1.56,3.47,3.47,3.47c1.91,0,3.47-1.56,3.47-3.47
					c0-0.31-0.04-0.62-0.12-0.92c-0.36-1.33,0.43-2.71,1.76-3.07c1.34-0.36,2.71,0.43,3.06,1.76c0.2,0.72,0.29,1.47,0.29,2.23
					C254.26,333.68,250.46,337.48,245.79,337.48z"/>
				<path class="st2" d="M216.02,337.48c-4.67,0-8.47-3.8-8.47-8.47c0-0.66,0.08-1.31,0.23-1.95c0.32-1.34,1.66-2.17,3.01-1.86
					c1.34,0.32,2.18,1.66,1.86,3.01c-0.06,0.26-0.09,0.53-0.09,0.81c0,1.91,1.56,3.47,3.47,3.47c1.91,0,3.47-1.56,3.47-3.47
					c0-0.31-0.04-0.62-0.12-0.92c-0.36-1.33,0.42-2.71,1.76-3.07c1.33-0.36,2.71,0.42,3.07,1.76c0.2,0.72,0.3,1.47,0.3,2.23
					C224.49,333.68,220.69,337.48,216.02,337.48z"/>
			</g>
		</g>
		<g>
			<path class="st1" d="M231.23,311.71c-1.38,0-2.5-1.12-2.5-2.5v-10.49c0-1.38,1.12-2.5,2.5-2.5c1.38,0,2.5,1.12,2.5,2.5v10.49
				C233.73,310.59,232.61,311.71,231.23,311.71z"/>
			<path class="st1" d="M209.88,312.17c-0.44,0-0.89-0.12-1.29-0.36c-1.18-0.71-1.56-2.25-0.85-3.43l7.47-12.35
				c0.02-0.04,0.05-0.08,0.08-0.12c1.2-1.75,3.73-2.8,5.48-2.8h23.92c2.17,0,3.96,1.65,4.19,3.77l3.47,11.62
				c0.39,1.32-0.36,2.72-1.68,3.11c-1.32,0.39-2.72-0.36-3.11-1.68l-3.53-11.82h-23.26c-0.34,0.02-1.11,0.34-1.34,0.6l-7.41,12.25
				C211.55,311.74,210.73,312.17,209.88,312.17z"/>
		</g>
		<path class="st1" d="M261.62,329.81h-62.27c-0.7,0-1.37-0.3-1.85-0.82c-0.47-0.52-0.71-1.21-0.64-1.92l1.07-11.56
			c0.09-4.03,4.39-7.03,8.25-7.03h44.32c1.38,0,2.5,1.12,2.5,2.5c0,1.38-1.12,2.5-2.5,2.5h-44.32c-1.51,0-3.25,1.31-3.25,2.16
			c0,0.08,0,0.15-0.01,0.23l-0.83,8.92h59.53c1.38,0,2.5,1.12,2.5,2.5C264.12,328.69,263,329.81,261.62,329.81z"/>
	</g>
	<g>
		<path class="st1" d="M521.5-33.55c-15.57,0-28.24-12.67-28.24-28.24c0-15.57,12.67-28.24,28.24-28.24
			c15.57,0,28.23,12.67,28.23,28.24C549.73-46.22,537.07-33.55,521.5-33.55z M521.5-85.03c-12.81,0-23.24,10.42-23.24,23.24
			s10.42,23.24,23.24,23.24c12.81,0,23.23-10.42,23.23-23.24S534.31-85.03,521.5-85.03z"/>
		<g>
			<defs>
				<path id="SVGID_1_" d="M521.5-33.55c-15.57,0-28.24-12.67-28.24-28.24c0-15.57,12.67-28.24,28.24-28.24
					c15.57,0,28.23,12.67,28.23,28.24C549.73-46.22,537.07-33.55,521.5-33.55z M521.5-85.03c-12.81,0-23.24,10.42-23.24,23.24
					s10.42,23.24,23.24,23.24c12.81,0,23.23-10.42,23.23-23.24S534.31-85.03,521.5-85.03z"/>
			</defs>
			<use xlink:href="#SVGID_1_"  style="overflow:visible;fill:#2B84D5;"/>
			<clipPath id="SVGID_2_">
				<use xlink:href="#SVGID_1_"  style="overflow:visible;"/>
			</clipPath>
			<path class="st8" d="M539.98-48.33C539.98-48.33,539.98-48.33,539.98-48.33c-5.54,0-13.41-2.39-16.47-6.24
				c-1.63-2.06-2.27-3.96-1.93-5.81c0.54-2.98,3.34-4.66,6.04-6.29c1.78-1.07,3.79-2.28,4.24-3.5c0.42-1.14,0.45-2.73,0.48-4.41
				c0.06-3.32,0.13-7.44,3.79-9.59c2.79-1.64,5.95-1.71,8.97-0.22c4.84,2.4,8.39,8.35,9.02,12.72c0.63,4.41-1.25,12.3-3.35,16.4
				c-0.56,1.09-2.65,4.75-6.08,6.17C543.42-48.59,541.84-48.33,539.98-48.33z M540.74-81.46c-0.89,0-1.74,0.24-2.59,0.74
				c-1.61,0.94-1.76,2.97-1.81,6.21c-0.03,1.94-0.07,3.94-0.72,5.72c-0.93,2.53-3.47,4.06-5.93,5.54c-1.85,1.12-3.95,2.38-4.17,3.58
				c-0.14,0.8,0.53,1.86,1.13,2.61c1.93,2.43,8.41,4.73,13.34,4.73l0,0c1.32,0,2.42-0.17,3.18-0.48c1.42-0.58,3.01-2.27,4.04-4.29
				c1.74-3.4,3.45-10.53,2.95-14c-0.47-3.28-3.33-7.96-6.84-9.7C542.44-81.24,541.57-81.46,540.74-81.46z"/>
			<path class="st8" d="M506.29-52.29c-1.69,0-3.27-0.68-4.66-1.27c-0.67-0.29-1.57-0.67-1.96-0.7c-0.53,0.19-1.05,0.29-1.56,0.29h0
				c-1.09,0-2.07-0.44-2.84-1.28c-2.39-2.62-2.02-8.98-1.86-10.87c0.58-6.27,5.78-18.21,14.08-19.71c0.57-0.1,1.23-0.15,1.97-0.15
				c5.47,0,16.45,2.79,17.08,9.26c0.29,3.01-0.95,6.45-3.25,8.98c-2.07,2.28-4.67,3.54-7.33,3.54l-0.37,0
				c-1.59,0-1.85,0.36-2.51,3.53c-0.11,0.54-0.23,1.1-0.37,1.66C511.61-54.55,509.44-52.29,506.29-52.29z M499.64-58.26
				c1.18,0,2.34,0.5,3.57,1.02c1.04,0.44,2.21,0.95,3.08,0.95c0.4,0,1.63,0,2.55-3.71c0.13-0.51,0.24-1.02,0.34-1.52
				c0.6-2.83,1.41-6.7,6.43-6.7l0.37,0c1.52,0,3.07-0.79,4.37-2.22c1.54-1.7,2.42-4.01,2.23-5.91c-0.21-2.18-6.29-5.64-13.1-5.64
				c-0.63,0-1.03,0.05-1.26,0.09c-5.7,1.03-10.28,10.4-10.81,16.14c-0.33,3.64,0.15,7.07,0.78,7.77c0.03-0.01,0.08-0.02,0.14-0.04
				C498.74-58.18,499.17-58.26,499.64-58.26z"/>
			<path class="st8" d="M520.96-30.82L520.96-30.82c-3.28,0-6.84-0.4-10.59-1.18c-10.08-2.11-13.19-14.26-13.32-14.79v0
				c-0.26-1.07,0.39-2.16,1.46-2.42c1.03-0.25,2.06,0.34,2.38,1.32c0.64,0.79,4.21,2.17,6.15,2.5c3.18,0.54,5.66,0.41,7.26-0.36
				c0.8-0.38,1.55-1.05,2.35-1.75c1.5-1.32,3.36-2.96,6.09-2.96c0.42,0,0.86,0.04,1.29,0.12c1.83,0.33,2.78,1.2,3.54,1.89
				c0.37,0.34,0.7,0.63,1.15,0.9c0.77,0.45,2.17,0.58,3.54,0.71c1.49,0.14,3.03,0.28,4.48,0.82c1.49,0.56,2.64,1.47,3.4,2.72
				c0.8,1.31,1.02,2.72,0.63,4.06c-0.75,2.6-3.52,4.26-5.84,5.41C530.91-31.83,526.2-30.82,520.96-30.82z M503.29-42.26
				c1.61,2.71,4.15,5.56,7.91,6.34c8.83,1.85,16.24,1.34,21.97-1.5c2.82-1.4,3.61-2.37,3.77-2.94c0.03-0.11,0.1-0.36-0.2-0.87
				c-0.3-0.48-0.72-0.81-1.39-1.06c-0.95-0.35-2.22-0.47-3.45-0.59c-1.79-0.17-3.65-0.34-5.18-1.24c-0.82-0.48-1.38-0.99-1.82-1.4
				c-0.59-0.54-0.86-0.78-1.56-0.91c-1.47-0.27-2.43,0.5-4.03,1.91c-0.92,0.81-1.97,1.73-3.26,2.36c-2.38,1.15-5.61,1.39-9.66,0.7
				C506.35-41.44,504.97-41.7,503.29-42.26z"/>
		</g>
	</g>
	<g>
		<g>
			<path class="st2" d="M532.12,340.19c-0.06,0-0.09,0-0.11,0l-4.36,0c-1.1,0-2-0.9-2-2s0.9-2,2-2h4.41
				c0.07-0.02,3.26,0.03,5.3-1.97c1.2-1.18,1.81-2.91,1.81-5.13v-22.81c0-1.1,0.9-2,2-2c1.1,0,2,0.9,2,2v22.81
				c0,3.36-1.02,6.05-3.04,8.02C537.1,340.06,532.86,340.19,532.12,340.19z"/>
			<path class="st2" d="M540.96,308.07c-3.82,0-6.93-3.38-6.93-7.53v-2.65c0-1.1,0.9-2,2-2h9.86c1.1,0,2,0.9,2,2v2.65
				C547.89,304.69,544.78,308.07,540.96,308.07z M538.03,299.88v0.65c0,1.95,1.31,3.53,2.93,3.53c1.62,0,2.93-1.58,2.93-3.53v-0.65
				H538.03z"/>
			<g>
				<path class="st2" d="M543.56,299c-1.1,0-2-0.9-2-2v-3.9c0-1.1,0.9-2,2-2s2,0.9,2,2v3.9C545.56,298.1,544.66,299,543.56,299z"/>
				<path class="st2" d="M538.35,299c-1.1,0-2-0.9-2-2v-3.9c0-1.1,0.9-2,2-2s2,0.9,2,2v3.9C540.35,298.1,539.46,299,538.35,299z"/>
			</g>
			<path class="st1" d="M527.26,340.72h-28.43c-2.33,0-4.22-1.9-4.22-4.23v-48.06c0-2.33,1.89-4.23,4.22-4.23h28.43
				c2.33,0,4.23,1.9,4.23,4.23v48.06C531.48,338.82,529.59,340.72,527.26,340.72z M499.6,335.72h26.88V289.2H499.6V335.72z"/>
			<path class="st2" d="M523.09,308.17H503c-1.1,0-2-0.9-2-2v-13.01c0-1.1,0.9-2,2-2h20.09c1.1,0,2,0.9,2,2v13.01
				C525.09,307.27,524.19,308.17,523.09,308.17z M505,304.17h16.09v-9.01H505V304.17z"/>
		</g>
		<path class="st2" d="M512.1,333.33c-0.15,0-0.3-0.02-0.45-0.07c-0.63-0.2-1.05-0.78-1.05-1.43v-7.79h-2.68
			c-0.56,0-1.07-0.31-1.33-0.8c-0.26-0.49-0.22-1.09,0.09-1.55l8.35-12.11c0.37-0.54,1.05-0.78,1.68-0.58
			c0.63,0.2,1.05,0.78,1.05,1.43v7.79h2.67c0.56,0,1.07,0.31,1.33,0.8c0.26,0.49,0.22,1.09-0.09,1.55l-8.34,12.11
			C513.05,333.1,512.59,333.33,512.1,333.33z M510.78,321.05h1.32c0.83,0,1.5,0.67,1.5,1.5v4.46l3.99-5.79h-1.32
			c-0.83,0-1.5-0.67-1.5-1.5v-4.46L510.78,321.05z"/>
	</g>
	<g>
		<g>
			<path class="st2" d="M674.34-64.45c-1.63,0-3.2-0.41-4.67-1.21c-1.59-0.86-2.58-1.94-2.89-2.3c-2.14-2.13-4.7-7.46,0.41-12.95
				c3.14-3.37,5.99-3.48,8.65-3.42c0.25,0,0.51,0.01,0.76,0.01c1.17,0,2.02-0.11,2.94-0.66c4.12-2.46,4.79-4.57,4.8-4.59
				c0.18-0.84,0.87-1.43,1.72-1.52c0.85-0.1,1.66,0.4,2.02,1.17c1.9,4.05,3.41,13.69-4.5,21.14
				C680.54-65.91,677.43-64.45,674.34-64.45z M669.82-70.56c0,0,0.65,0.78,1.76,1.39c2.76,1.5,5.91,0.63,9.26-2.53
				c4.69-4.42,5.09-9.42,4.63-12.76c-0.94,0.91-2.2,1.9-3.89,2.91c-1.81,1.08-3.54,1.22-4.99,1.22c-0.28,0-0.56,0-0.84-0.01
				c-0.26,0-0.51-0.01-0.77-0.01c-1.62,0-3.01,0.16-4.87,2.16c-3.76,4.05-0.83,7.09-0.48,7.43C669.7-70.7,669.77-70.63,669.82-70.56
				L669.82-70.56z"/>
			<path class="st2" d="M667.24-60.63c-0.91,0-1.73-0.62-1.94-1.54c-0.04-0.19-1.06-4.66,0.68-8.35c0.47-1,1.67-1.42,2.66-0.95
				c1,0.47,1.42,1.67,0.95,2.66c-1.14,2.41-0.41,5.7-0.4,5.73c0.25,1.08-0.42,2.15-1.5,2.4C667.54-60.65,667.39-60.63,667.24-60.63z
				"/>
			<path class="st2" d="M667.72-67.85c-0.25,0-0.49-0.05-0.74-0.14c-1.02-0.41-1.53-1.56-1.12-2.59c0.11-0.28,2.72-6.75,8.93-7.46
				c1.09-0.13,2.09,0.66,2.21,1.76c0.13,1.1-0.66,2.09-1.76,2.21c-3.8,0.43-5.64,4.91-5.66,4.96
				C669.26-68.33,668.51-67.85,667.72-67.85z"/>
		</g>
		<g>
			<path class="st1" d="M677.05-37.76c-1.38,0-2.5-1.12-2.5-2.5l0-0.78c-0.01-3.37-0.02-6.55,1.59-9.97
				c1.1-2.34,2.43-3.49,3.39-4.33c1.3-1.13,2.16-1.87,2.03-7.44c-0.03-1.38,1.06-2.53,2.44-2.56c0.02,0,0.04,0,0.06,0
				c1.35,0,2.47,1.08,2.5,2.44c0.17,7.35-1.44,9.33-3.75,11.33c-0.84,0.73-1.5,1.3-2.15,2.68c-1.13,2.4-1.12,4.79-1.11,7.83l0,0.8
				C679.55-38.88,678.43-37.76,677.05-37.76z"/>
			<path class="st1" d="M654.64-37.57c-2.83,0-5.89-0.33-7.99-2.37c-1.43-1.39-2.15-3.32-2.15-5.74c0-0.05,0-0.3,0.01-0.68
				c0.05-3.04,0.07-4.9,0.06-6.03c-2.39-0.48-3.98-0.84-4.98-2.35c-1.06-1.62-0.68-3.42,0.02-6.7l0.1-0.46
				c2.3-10.83,5.46-25.67,21.3-28.42c0.25-0.04,4.27-0.57,8.77,0.93c1.31,0.44,2.02,1.85,1.58,3.16c-0.44,1.31-1.86,2.02-3.16,1.58
				c-3.35-1.12-6.39-0.74-6.42-0.74c-11.51,2-14.49,11.85-17.18,24.51l-0.1,0.46c-0.22,1.04-0.45,2.1-0.54,2.76
				c0.47,0.12,1.15,0.26,1.77,0.38c0.53,0.11,1.12,0.22,1.77,0.37c0.05,0.01,0.1,0.02,0.16,0.04c1.92,0.55,1.92,1.75,1.9,5.74
				c-0.01,1.78-0.04,3.81-0.06,4.83l-0.01,0.6c0,1.53,0.48,1.99,0.63,2.14c1.1,1.07,4.04,0.98,6.4,0.92
				c0.63-0.02,1.24-0.04,1.82-0.04c1.38,0,2.5,1.12,2.5,2.5c0,1.38-1.12,2.5-2.5,2.5c-0.53,0-1.09,0.02-1.67,0.03
				C656.04-37.59,655.35-37.57,654.64-37.57z"/>
			<path class="st4" d="M678.43-68.21"/>
			<path class="st1" d="M658.37-67.86c0,1.38-1.12,2.5-2.5,2.5c-1.38,0-2.5-1.12-2.5-2.5c0-1.38,1.12-2.5,2.5-2.5
				C657.25-70.36,658.37-69.24,658.37-67.86z"/>
		</g>
	</g>
	<g>
		<g>
			<path class="st2" d="M354.95,335.07c-7.44,0-13.48-6.05-13.48-13.48c0-7.44,6.05-13.49,13.48-13.49
				c7.44,0,13.49,6.05,13.49,13.49C368.44,329.02,362.39,335.07,354.95,335.07z M354.95,312.1c-5.23,0-9.48,4.26-9.48,9.49
				c0,5.23,4.25,9.48,9.48,9.48c5.23,0,9.49-4.25,9.49-9.48C364.44,316.35,360.18,312.1,354.95,312.1z"/>
			<path class="st2" d="M398.74,335.07c-7.44,0-13.49-6.05-13.49-13.48c0-7.44,6.05-13.49,13.49-13.49
				c7.44,0,13.49,6.05,13.49,13.49C412.23,329.02,406.18,335.07,398.74,335.07z M398.74,312.1c-5.23,0-9.49,4.26-9.49,9.49
				c0,5.23,4.26,9.48,9.49,9.48c5.23,0,9.49-4.25,9.49-9.48C408.23,316.35,403.97,312.1,398.74,312.1z"/>
			<path class="st1" d="M354.95,324.08c-0.28,0-0.56-0.05-0.84-0.15c-1.3-0.46-1.98-1.89-1.52-3.19l10.39-29.24
				c0.46-1.3,1.89-1.98,3.19-1.52c1.3,0.46,1.98,1.89,1.52,3.19l-10.39,29.24C356.94,323.44,355.98,324.08,354.95,324.08z"/>
			<path class="st1" d="M399.88,324.08c-0.01,0-0.01,0-0.02,0h-21.74c-0.83,0-1.61-0.42-2.08-1.11l-13.71-20.46
				c-0.51-0.77-0.56-1.75-0.13-2.57c0.43-0.81,1.28-1.32,2.21-1.32h23.01c0.87,0,1.68,0.46,2.14,1.2l12.28,20.22
				c0.33,0.42,0.53,0.96,0.53,1.54C402.38,322.96,401.26,324.08,399.88,324.08z M379.46,319.08h15.96l-9.39-15.46H369.1
				L379.46,319.08z"/>
			<path class="st1" d="M388.43,303.63c-0.32,0-0.64-0.06-0.95-0.19c-1.28-0.52-1.89-1.98-1.36-3.26l3-7.31
				c0.52-1.28,1.98-1.89,3.26-1.36c1.28,0.52,1.89,1.98,1.36,3.26l-3,7.31C390.35,303.04,389.41,303.63,388.43,303.63z"/>
		</g>
		<path class="st2" d="M369.38,293.23c-0.16,0-0.33-0.02-0.5-0.05l-9.85-2c-1.35-0.27-2.23-1.59-1.95-2.95
			c0.27-1.35,1.6-2.22,2.95-1.95l9.85,2c1.35,0.27,2.23,1.59,1.95,2.95C371.58,292.41,370.54,293.23,369.38,293.23z"/>
		<path class="st2" d="M395.69,296.25H385.6c-1.38,0-2.5-1.12-2.5-2.5s1.12-2.5,2.5-2.5h10.09c1.38,0,2.5,1.12,2.5,2.5
			S397.08,296.25,395.69,296.25z"/>
	</g>
	<g>
		<g>
			<path class="st2" d="M668.29,317.13c-1.38,0-2.5-1.12-2.5-2.5v-4.88c-0.32-1.17-2.22-7.14-8.88-13.13
				c-1.03-0.92-1.11-2.5-0.19-3.53c0.92-1.02,2.5-1.11,3.53-0.19c8.68,7.82,10.41,15.7,10.48,16.03c0.04,0.17,0.05,0.34,0.05,0.51
				v5.18C670.79,316.01,669.67,317.13,668.29,317.13z"/>
			<path class="st2" d="M669.34,307.96c-0.03,0-0.06,0-0.09,0c-0.43-0.02-10.61-0.53-16.84-7.31c-6.24-6.78-5.9-16.96-5.88-17.39
				c0.02-0.53,0.25-1.03,0.64-1.39c0.39-0.36,0.91-0.55,1.44-0.53c0.43,0.02,10.6,0.54,16.84,7.31c6.23,6.78,5.9,16.96,5.88,17.39
				c-0.02,0.53-0.25,1.03-0.64,1.39C670.32,307.77,669.84,307.96,669.34,307.96z M650.61,285.59c0.25,3,1.2,8.49,4.75,12.34
				c3.57,3.88,8.93,5.27,11.9,5.76c-0.25-3.01-1.2-8.49-4.75-12.34C658.94,287.48,653.58,286.09,650.61,285.59z"/>
			<path class="st2" d="M669.61,312.82c-0.5,0-0.98-0.19-1.35-0.53c-0.39-0.36-0.62-0.86-0.64-1.39c-0.01-0.27-0.22-6.73,3.76-11.05
				c3.98-4.32,10.43-4.65,10.7-4.67c0.53-0.03,1.05,0.17,1.44,0.53c0.39,0.36,0.62,0.86,0.64,1.39c0.01,0.27,0.22,6.73-3.76,11.05
				c-3.98,4.33-10.43,4.65-10.7,4.66C669.66,312.82,669.63,312.82,669.61,312.82z M679.98,299.54c-1.72,0.4-4.05,1.25-5.67,3.02
				c-1.61,1.75-2.27,4.16-2.53,5.91c1.72-0.41,4.05-1.25,5.67-3.02C679.07,303.68,679.72,301.28,679.98,299.54z"/>
		</g>
		<g>
			<g>
				<path class="st1" d="M688.31,341.27h-40.46c-1.38,0-2.5-1.12-2.5-2.5v-24.72c0-1.38,1.12-2.5,2.5-2.5h11.04
					c1.38,0,2.5,1.12,2.5,2.5c0,1.38-1.12,2.5-2.5,2.5h-8.54v19.72h35.46v-19.72h-5.93c-1.38,0-2.5-1.12-2.5-2.5
					c0-1.38,1.12-2.5,2.5-2.5h8.43c1.38,0,2.5,1.12,2.5,2.5v24.72C690.81,340.15,689.69,341.27,688.31,341.27z"/>
				<path class="st1" d="M647.11,334.53h-6.37c-1.38,0-2.5-1.12-2.5-2.5v-11.24c0-1.38,1.12-2.5,2.5-2.5h6.37
					c1.38,0,2.5,1.12,2.5,2.5v11.24C649.61,333.41,648.49,334.53,647.11,334.53z M643.24,329.53h1.37v-6.24h-1.37V329.53z"/>
			</g>
			<rect x="674.77" y="319.53" class="st2" width="7.4" height="13.21"/>
			<rect x="664.2" y="319.53" class="st2" width="7.4" height="13.21"/>
		</g>
	</g>
	<g>
		<g>
			<path class="st1" d="M685.55,91.93h-43.09c-1.38,0-2.5-1.12-2.5-2.5V58.09c0-1.38,1.12-2.5,2.5-2.5h8.42c1.38,0,2.5,1.12,2.5,2.5
				v8.4l4.1,4.28v-5.38c0-0.99,0.59-1.89,1.5-2.29c0.91-0.4,1.97-0.22,2.7,0.46l8.32,7.71v-5.42c0-0.97,0.57-1.86,1.45-2.27
				c0.88-0.41,1.93-0.27,2.67,0.37l13.08,11.15c0.58,0.49,0.9,1.21,0.88,1.97l-0.03,1.2l0,11.16
				C688.05,90.81,686.94,91.93,685.55,91.93z M644.96,86.93h38.09l0-8.8L675,71.27V77c0,0.99-0.59,1.89-1.5,2.29
				c-0.91,0.4-1.97,0.22-2.7-0.46l-8.32-7.71V77c0,1.02-0.62,1.94-1.57,2.32c-0.95,0.38-2.03,0.15-2.74-0.59l-9.1-9.51
				c-0.45-0.46-0.69-1.08-0.69-1.73v-6.9h-3.42V86.93z"/>
			<path class="st2" d="M658.48,54.25c-7.57,0-11.02-5.59-11.81-8.63c-0.44-1.3-2.83-9.65,6.77-13.69c1.81-0.76,3.47-1.13,5.08-1.13
				c2.48,0,4.33,0.88,5.97,1.66c1.6,0.76,2.94,1.4,4.74,1.19c6.03-0.69,7.96-2.81,7.97-2.83c0.51-0.69,1.4-0.97,2.22-0.71
				c0.82,0.26,1.37,1.02,1.39,1.87c0,0.16,0.05,15.65-15.44,20.99C662.9,53.82,660.58,54.25,658.48,54.25z M658.51,34.81
				c-1.06,0-2.22,0.27-3.53,0.82c-6.59,2.77-4.77,8.1-4.54,8.7c0.03,0.08,0.06,0.17,0.08,0.25c0.06,0.22,1.57,5.68,7.95,5.68
				c1.66,0,3.54-0.36,5.58-1.06c8.28-2.85,11.18-9.06,12.2-13.17c-1.6,0.67-3.75,1.29-6.58,1.61c-2.92,0.33-5.06-0.67-6.9-1.55
				C661.33,35.4,660.09,34.81,658.51,34.81z"/>
			<path class="st2" d="M643.35,53.61c-0.23,0-0.47-0.04-0.7-0.13c-1.03-0.39-1.55-1.54-1.17-2.57c0.08-0.2,1.9-4.98,5.46-8.01
				c0.84-0.72,2.1-0.61,2.82,0.23c0.72,0.84,0.61,2.1-0.23,2.82c-2.77,2.35-4.3,6.33-4.31,6.37
				C644.92,53.12,644.16,53.61,643.35,53.61z"/>
			<path class="st2" d="M648.25,46.19c-0.52,0-1.04-0.2-1.43-0.6c-0.77-0.79-0.75-2.06,0.04-2.83c0.25-0.25,6.27-6,13.33-3.74
				c1.05,0.34,1.63,1.46,1.29,2.51c-0.34,1.05-1.46,1.63-2.51,1.29c-4.79-1.53-9.27,2.75-9.31,2.8
				C649.26,46,648.75,46.19,648.25,46.19z"/>
		</g>
		<path class="st2" d="M673.59,56.67c-0.79,0-1.54-0.47-1.85-1.25c-0.42-1.02,0.08-2.19,1.1-2.6c3.39-1.37,6.4-4.87,7.49-8.7
			c0.3-1.06,1.41-1.68,2.47-1.37c1.06,0.3,1.68,1.41,1.37,2.47c-1.43,5.03-5.3,9.47-9.84,11.3
			C674.09,56.62,673.84,56.67,673.59,56.67z"/>
		<path class="st2" d="M681.25,59.33c-0.78,0-1.51-0.46-1.84-1.21c-0.44-1.02,0.04-2.19,1.05-2.63c2.01-0.86,3.51-2.56,4.22-4.77
			c0.34-1.05,1.46-1.63,2.51-1.29c1.05,0.34,1.63,1.46,1.29,2.51c-1.05,3.29-3.41,5.92-6.45,7.23
			C681.79,59.28,681.52,59.33,681.25,59.33z"/>
	</g>
	<g>
		<g>
			<g>
				<path class="st9" d="M72.94,84.36c-1.48,0-2.68-1.2-2.68-2.68V63.62c0-10.81-7.66-20.31-18.21-22.59
					c-1.18-0.26-2.05-1.27-2.11-2.48c-0.06-1.21,0.69-2.31,1.84-2.68c6.15-2.01,10.28-7.7,10.28-14.18
					c0-8.22-6.69-14.91-14.91-14.91c-8.22,0-14.92,6.69-14.92,14.91c0,6.47,4.13,12.17,10.28,14.18c1.15,0.38,1.91,1.48,1.84,2.68
					c-0.06,1.21-0.93,2.22-2.11,2.48C31.7,43.31,24.04,52.81,24.04,63.62v18.06c0,1.48-1.2,2.68-2.68,2.68
					c-1.48,0-2.68-1.2-2.68-2.68V63.62c0-11.1,6.56-21.08,16.28-25.72c-5-3.75-8.08-9.69-8.08-16.21c0-11.17,9.09-20.27,20.27-20.27
					c11.18,0,20.27,9.09,20.27,20.27c0,6.52-3.08,12.46-8.08,16.21c9.72,4.64,16.28,14.62,16.28,25.72v18.06
					C75.62,83.16,74.42,84.36,72.94,84.36z"/>
				<path class="st9" d="M72.94,85.34c-2.02,0-3.67-1.64-3.67-3.67V63.62c0-10.35-7.33-19.44-17.43-21.62
					c-1.62-0.35-2.8-1.75-2.89-3.4c-0.09-1.65,0.95-3.16,2.52-3.67c5.74-1.87,9.6-7.19,9.6-13.24c0-7.68-6.25-13.92-13.92-13.92
					c-7.68,0-13.93,6.25-13.93,13.92c0,6.04,3.86,11.36,9.6,13.24c1.57,0.51,2.61,2.02,2.52,3.67c-0.08,1.65-1.27,3.05-2.89,3.4
					c-10.1,2.18-17.43,11.27-17.43,21.62v18.06c0,2.02-1.64,3.67-3.67,3.67c-2.02,0-3.67-1.64-3.67-3.67V63.62
					c0-10.77,6.02-20.78,15.47-25.91c-4.58-4-7.27-9.88-7.27-16.02c0-11.72,9.54-21.26,21.26-21.26c11.72,0,21.26,9.54,21.26,21.26
					c0,6.14-2.69,12.02-7.27,16.02c9.44,5.13,15.46,15.14,15.46,25.91v18.06C76.61,83.7,74.96,85.34,72.94,85.34z M47.15,5.79
					c8.77,0,15.9,7.13,15.9,15.9c0,6.9-4.41,12.98-10.96,15.12c-0.72,0.24-1.2,0.93-1.16,1.69s0.59,1.4,1.33,1.57
					c11,2.37,18.99,12.28,18.99,23.55v18.06c0,0.93,0.76,1.69,1.69,1.69c0.93,0,1.69-0.76,1.69-1.69V63.62
					c0-10.53-6.17-20.27-15.71-24.83l-1.47-0.7l1.31-0.98c4.81-3.61,7.69-9.37,7.69-15.42c0-10.63-8.65-19.28-19.28-19.28
					c-10.63,0-19.28,8.65-19.28,19.28c0,6.04,2.87,11.81,7.69,15.42l1.31,0.98l-1.47,0.7c-9.55,4.56-15.72,14.3-15.72,24.83v18.06
					c0,0.93,0.76,1.69,1.69,1.69c0.93,0,1.69-0.76,1.69-1.69V63.62c0-11.27,7.99-21.18,18.99-23.55c0.74-0.16,1.29-0.8,1.33-1.56
					c0.04-0.76-0.44-1.46-1.16-1.69c-6.56-2.14-10.97-8.22-10.97-15.12C31.25,12.92,38.39,5.79,47.15,5.79z"/>
			</g>
		</g>
	</g>
</g>
<g id="text_x5F_x">
	<g>
		<path class="st0" d="M286.19-299.18h-7.44v4.29h6.9v1.91h-6.9v4.45h7.44v1.93h-9.79v-14.5h9.79V-299.18z"/>
		<path class="st0" d="M303.74-288.71c-0.65,0.68-1.39,1.22-2.23,1.64c-0.86,0.41-1.87,0.63-3.02,0.63c-1.06,0-2.02-0.2-2.86-0.59
			c-0.86-0.38-1.58-0.9-2.18-1.58c-0.61-0.65-1.08-1.42-1.4-2.32c-0.34-0.88-0.5-1.82-0.5-2.83c0-0.95,0.14-1.87,0.47-2.77
			c0.29-0.86,0.74-1.66,1.35-2.34c0.58-0.67,1.31-1.21,2.18-1.62c0.85-0.4,1.84-0.61,2.95-0.61c1.12,0,2.09,0.2,2.95,0.59
			c0.83,0.4,1.6,0.95,2.3,1.66l-1.53,1.55c-0.54-0.58-1.12-1.03-1.71-1.37c-0.61-0.32-1.3-0.5-2.02-0.5c-0.68,0-1.3,0.14-1.87,0.43
			c-0.58,0.29-1.08,0.68-1.49,1.17c-0.43,0.5-0.76,1.08-0.99,1.73c-0.25,0.67-0.36,1.37-0.36,2.09c0,0.74,0.11,1.42,0.36,2.07
			c0.23,0.67,0.56,1.24,0.99,1.73c0.41,0.5,0.92,0.88,1.49,1.17c0.58,0.29,1.19,0.43,1.87,0.43c0.72,0,1.39-0.16,2-0.5
			c0.59-0.32,1.15-0.79,1.67-1.37L303.74-288.71z"/>
		<path class="st0" d="M315.82-286.44c-0.97,0-1.87-0.2-2.7-0.59c-0.83-0.4-1.55-0.94-2.14-1.62c-0.61-0.67-1.1-1.46-1.42-2.36
			c-0.34-0.88-0.5-1.82-0.5-2.83c0-0.97,0.16-1.89,0.49-2.79c0.32-0.88,0.77-1.67,1.39-2.36c0.58-0.67,1.3-1.21,2.14-1.62
			c0.83-0.4,1.75-0.59,2.75-0.59c0.94,0,1.82,0.2,2.65,0.58c0.81,0.4,1.53,0.94,2.14,1.58c0.61,0.68,1.1,1.46,1.46,2.34
			c0.34,0.9,0.52,1.86,0.52,2.86c0,0.95-0.16,1.87-0.49,2.75c-0.34,0.9-0.81,1.67-1.39,2.36c-0.61,0.7-1.31,1.26-2.14,1.66
			C317.72-286.65,316.81-286.44,315.82-286.44z M315.82-299.29c-0.65,0-1.24,0.14-1.78,0.41c-0.56,0.29-1.03,0.67-1.42,1.13
			c-0.41,0.5-0.74,1.08-0.95,1.73c-0.25,0.68-0.36,1.4-0.36,2.18c0,0.79,0.11,1.51,0.36,2.18c0.22,0.68,0.54,1.26,0.95,1.73
			c0.4,0.5,0.86,0.88,1.42,1.15c0.54,0.29,1.13,0.41,1.78,0.41c0.61,0,1.21-0.13,1.75-0.41c0.54-0.27,1.01-0.65,1.42-1.15
			c0.4-0.47,0.72-1.04,0.97-1.73c0.22-0.67,0.34-1.39,0.34-2.18c0-0.77-0.13-1.49-0.34-2.18c-0.25-0.65-0.58-1.22-0.97-1.73
			c-0.41-0.47-0.88-0.85-1.42-1.13C317.02-299.15,316.43-299.29,315.82-299.29z"/>
		<path class="st0" d="M348.54-299.18h-7.44v4.29h6.9v1.91h-6.9v4.45h7.44v1.93h-9.79v-14.5h9.79V-299.18z"/>
		<path class="st0" d="M355.56-301.11l6.84,9.54v-9.54h2.38v14.5h-1.46l-6.99-9.81v9.81h-2.38v-14.5H355.56z"/>
		<path class="st0" d="M380.06-299.18h-7.44v4.29h6.9v1.91h-6.9v4.45h7.44v1.93h-9.79v-14.5h9.79V-299.18z"/>
		<path class="st0" d="M395.81-296.34c0,0.54-0.07,1.04-0.2,1.51c-0.14,0.49-0.34,0.92-0.58,1.28c-0.25,0.4-0.54,0.72-0.86,1.01
			c-0.34,0.29-0.7,0.52-1.06,0.67l3.17,5.26h-2.59l-3.08-4.97h-2.77v4.97h-2.36v-14.5h6.05c0.56,0,1.1,0.13,1.62,0.34
			c0.5,0.23,0.97,0.56,1.37,0.97c0.4,0.43,0.7,0.92,0.96,1.5C395.68-297.71,395.81-297.06,395.81-296.34z M391.52-293.53
			c0.23,0,0.47-0.05,0.7-0.2c0.22-0.11,0.43-0.29,0.61-0.54c0.18-0.23,0.32-0.52,0.43-0.88c0.11-0.34,0.16-0.74,0.16-1.19
			c0-0.43-0.05-0.85-0.16-1.21c-0.11-0.34-0.25-0.65-0.41-0.9c-0.18-0.23-0.4-0.41-0.61-0.56c-0.23-0.11-0.47-0.18-0.68-0.18h-3.73
			v5.65H391.52z"/>
		<path class="st0" d="M413.47-288.71c-0.65,0.68-1.44,1.22-2.41,1.64c-0.99,0.41-2.05,0.63-3.21,0.63c-1.06,0-2.02-0.2-2.86-0.59
			c-0.86-0.38-1.58-0.9-2.18-1.58c-0.61-0.65-1.08-1.42-1.4-2.32c-0.34-0.88-0.5-1.82-0.5-2.83c0-0.95,0.14-1.87,0.47-2.77
			c0.29-0.86,0.74-1.66,1.35-2.34c0.58-0.67,1.31-1.21,2.18-1.62c0.85-0.4,1.84-0.61,2.95-0.61c1.12,0,2.09,0.2,2.95,0.59
			c0.83,0.4,1.6,0.95,2.3,1.66l-1.53,1.55c-0.54-0.58-1.12-1.03-1.71-1.37c-0.61-0.32-1.3-0.5-2.02-0.5c-0.68,0-1.29,0.14-1.87,0.43
			c-0.58,0.29-1.08,0.68-1.5,1.17c-0.43,0.5-0.76,1.08-0.99,1.73c-0.25,0.67-0.36,1.37-0.36,2.09c0,0.74,0.11,1.42,0.36,2.07
			c0.23,0.67,0.56,1.24,0.99,1.73c0.41,0.5,0.92,0.88,1.5,1.17c0.58,0.29,1.19,0.43,1.87,0.43c0.59,0,1.21-0.11,1.82-0.36
			c0.6-0.22,1.15-0.54,1.66-0.97v-3.26h-3.13v-1.95h5.33L413.47-288.71z"/>
		<path class="st0" d="M426.03-293.13h0.04v6.52h-2.38v-6.52h0.04l-4.99-7.98h2.65l3.49,5.73l3.49-5.73H431L426.03-293.13z"/>
	</g>
	<g>
		<path class="st10" d="M316.89-439.75h5.97c3.23,0,4.84,1.25,4.84,3.75v0.45c0,0.34-0.04,0.67-0.12,0.99
			c-0.08,0.32-0.21,0.62-0.41,0.9c-0.19,0.28-0.44,0.52-0.76,0.72c-0.31,0.21-0.7,0.37-1.15,0.48c0.94,0.14,1.69,0.49,2.27,1.06
			c0.58,0.56,0.86,1.37,0.86,2.44v0.53c0,1.27-0.4,2.26-1.19,2.97c-0.8,0.72-2.02,1.08-3.69,1.08h-6.63V-439.75z M319.59-437.49
			v4.01h2c0.53,0,1-0.01,1.42-0.04c0.42-0.03,0.77-0.11,1.04-0.23c0.28-0.13,0.49-0.32,0.64-0.59c0.15-0.26,0.22-0.64,0.22-1.12
			v-0.38c0-0.65-0.25-1.09-0.76-1.31c-0.5-0.22-1.33-0.33-2.48-0.33H319.59z M319.59-426.64h2.47c0.6,0,1.12-0.03,1.57-0.08
			c0.45-0.05,0.82-0.15,1.11-0.3c0.29-0.15,0.51-0.36,0.65-0.63c0.14-0.27,0.21-0.63,0.21-1.09v-0.47c0-0.4-0.07-0.73-0.2-0.99
			c-0.14-0.26-0.36-0.48-0.67-0.64c-0.31-0.16-0.72-0.28-1.23-0.34c-0.5-0.06-1.12-0.1-1.84-0.1h-2.07V-426.64z"/>
		<path class="st10" d="M340.1-439.75v13.07h7.01v2.3h-9.74v-15.37H340.1z"/>
		<path class="st10" d="M361.35-426.62c0.55,0,1.04-0.07,1.45-0.2c0.41-0.13,0.75-0.36,1.01-0.68c0.26-0.32,0.46-0.74,0.59-1.26
			c0.13-0.52,0.19-1.15,0.19-1.91v-9.08h2.73v9.04c0,1.27-0.13,2.32-0.39,3.16c-0.26,0.84-0.65,1.51-1.15,2.01
			c-0.5,0.5-1.13,0.86-1.87,1.08c-0.74,0.21-1.59,0.32-2.56,0.32c-0.97,0-1.82-0.11-2.56-0.32c-0.74-0.21-1.36-0.57-1.87-1.08
			c-0.5-0.5-0.89-1.18-1.15-2.01c-0.26-0.84-0.39-1.89-0.39-3.16v-9.04h2.73v9.08c0,0.75,0.06,1.39,0.19,1.91
			c0.13,0.52,0.32,0.94,0.59,1.26c0.26,0.32,0.6,0.55,1.01,0.68C360.31-426.68,360.79-426.62,361.35-426.62z"/>
		<path class="st10" d="M386.78-439.75v2.26h-7.18v4.13h6.74v2.22h-6.74v4.5h7.33v2.26h-10.04v-15.37H386.78z"/>
		<path class="st10" d="M323.3-409.75v13.07h7.01v2.3h-9.74v-15.37H323.3z"/>
		<path class="st10" d="M338.86-409.75h2.73v15.37h-2.73V-409.75z"/>
		<path class="st10" d="M351.44-409.75h3.13l5.24,9.31c0.16,0.29,0.33,0.64,0.52,1.05c0.19,0.42,0.34,0.88,0.46,1.38v-11.74h2.56
			v15.37h-3.13l-5.27-9.34c-0.2-0.34-0.38-0.71-0.55-1.11c-0.17-0.4-0.31-0.82-0.41-1.26v11.7h-2.56V-409.75z"/>
		<path class="st10" d="M383.09-409.75v2.26h-7.18v4.13h6.74v2.22h-6.74v4.5h7.33v2.26H373.2v-15.37H383.09z"/>
		<path class="st10" d="M318.31-379.75h2.73v15.37h-2.73V-379.75z"/>
		<path class="st10" d="M336.75-379.98c1.08,0,2.04,0.13,2.87,0.38c0.83,0.26,1.64,0.7,2.42,1.32l-1.47,2.09
			c-0.63-0.53-1.24-0.87-1.85-1.04c-0.61-0.16-1.26-0.24-1.96-0.24c-0.45,0-0.9,0.07-1.34,0.2c-0.44,0.14-0.83,0.38-1.17,0.74
			c-0.34,0.36-0.62,0.84-0.83,1.45c-0.21,0.61-0.32,1.39-0.32,2.34v1.58c0,0.81,0.1,1.5,0.3,2.07c0.2,0.57,0.47,1.03,0.8,1.38
			c0.33,0.36,0.72,0.62,1.16,0.78c0.44,0.16,0.9,0.25,1.39,0.25c0.71,0,1.44-0.11,2.18-0.33c0.75-0.22,1.42-0.64,2.04-1.27
			l1.45,2.09c-0.46,0.46-0.93,0.81-1.44,1.08c-0.5,0.26-1.01,0.47-1.5,0.62c-0.5,0.15-0.99,0.25-1.47,0.29
			c-0.48,0.04-0.94,0.06-1.36,0.06c-0.84,0-1.64-0.12-2.4-0.36c-0.76-0.24-1.43-0.63-2-1.15c-0.58-0.53-1.03-1.19-1.37-2
			c-0.34-0.81-0.51-1.79-0.51-2.94v-2.75c0-1.15,0.17-2.14,0.5-2.97c0.33-0.83,0.79-1.52,1.37-2.07c0.58-0.55,1.26-0.95,2.04-1.2
			C335.02-379.85,335.86-379.98,336.75-379.98z"/>
		<path class="st10" d="M357.26-379.98c0.87,0,1.69,0.13,2.48,0.37c0.79,0.25,1.48,0.64,2.08,1.17c0.6,0.53,1.07,1.22,1.42,2.06
			c0.35,0.84,0.52,1.85,0.52,3.05v2.54c0,1.21-0.17,2.23-0.52,3.08c-0.35,0.85-0.82,1.53-1.41,2.06c-0.59,0.53-1.28,0.91-2.07,1.15
			c-0.79,0.24-1.62,0.36-2.5,0.36c-0.88,0-1.72-0.12-2.5-0.36c-0.79-0.24-1.48-0.63-2.07-1.15c-0.59-0.53-1.06-1.21-1.41-2.06
			c-0.35-0.84-0.52-1.87-0.52-3.08v-2.54c0-1.19,0.17-2.21,0.52-3.05c0.35-0.84,0.82-1.52,1.42-2.06c0.6-0.53,1.29-0.92,2.08-1.17
			C355.56-379.86,356.39-379.98,357.26-379.98z M357.26-366.64c0.53,0,1.02-0.07,1.47-0.2c0.45-0.13,0.85-0.37,1.19-0.71
			c0.34-0.34,0.61-0.8,0.8-1.39c0.19-0.58,0.29-1.31,0.29-2.2v-1.85c0-0.88-0.1-1.61-0.29-2.2s-0.46-1.04-0.8-1.39
			c-0.34-0.34-0.74-0.58-1.19-0.71c-0.46-0.13-0.95-0.2-1.47-0.2c-0.51,0-0.99,0.07-1.45,0.2c-0.45,0.14-0.85,0.37-1.19,0.71
			c-0.34,0.34-0.61,0.8-0.81,1.39c-0.2,0.58-0.3,1.31-0.3,2.2v1.85c0,0.88,0.1,1.61,0.3,2.2c0.2,0.58,0.47,1.05,0.81,1.39
			c0.34,0.34,0.74,0.58,1.19,0.71C356.26-366.71,356.74-366.64,357.26-366.64z"/>
		<path class="st10" d="M373.05-379.75h3.13l5.24,9.31c0.16,0.29,0.33,0.64,0.52,1.05c0.19,0.42,0.34,0.88,0.46,1.38v-11.74h2.56
			v15.37h-3.13l-5.27-9.34c-0.2-0.34-0.38-0.71-0.55-1.11c-0.17-0.4-0.31-0.82-0.41-1.26v11.7h-2.56V-379.75z"/>
	</g>
</g>
</svg>
