<?xml version="1.0" encoding="utf-8"?>
<!-- Generator: Adobe Illustrator 23.1.0, SVG Export Plug-In . SVG Version: 6.00 Build 0)  -->
<svg version="1.1" id="레이어_1" xmlns="http://www.w3.org/2000/svg" xmlns:xlink="http://www.w3.org/1999/xlink" x="0px"
	 y="0px" viewBox="0 0 254 76" style="enable-background:new 0 0 254 76;" xml:space="preserve">
<g>
	<path d="M22-159.8c2.4,0,4.7,0.4,6.7,1.2c2,0.8,3.8,2,5.3,3.6c1.5,1.6,2.6,3.6,3.5,6c0.8,2.4,1.3,5.2,1.3,8.4v7.5
		c0,3.2-0.4,6-1.3,8.4c-0.8,2.4-2,4.4-3.5,6c-1.5,1.6-3.2,2.8-5.3,3.6c-2,0.8-4.3,1.2-6.7,1.2c-2.4,0-4.7-0.4-6.7-1.2
		c-2-0.8-3.8-2-5.3-3.6c-1.5-1.6-2.6-3.6-3.5-6c-0.8-2.4-1.3-5.2-1.3-8.4v-7.5c0-3.2,0.4-6,1.3-8.4c0.8-2.4,2-4.4,3.5-6
		c1.5-1.6,3.2-2.8,5.3-3.6C17.3-159.4,19.6-159.8,22-159.8z M22-120.3c1.3,0,2.5-0.2,3.7-0.7c1.2-0.5,2.2-1.3,3.1-2.3
		c0.9-1.1,1.6-2.5,2.2-4.2c0.6-1.8,0.8-3.9,0.8-6.4v-5.5c0-2.5-0.3-4.7-0.8-6.4c-0.6-1.8-1.3-3.2-2.2-4.2c-0.9-1.1-1.9-1.9-3.1-2.3
		c-1.2-0.5-2.4-0.7-3.7-0.7s-2.5,0.2-3.7,0.7c-1.2,0.5-2.2,1.3-3.1,2.3c-0.9,1.1-1.6,2.5-2.2,4.2c-0.6,1.8-0.8,3.9-0.8,6.4v5.5
		c0,2.5,0.3,4.7,0.8,6.4c0.6,1.8,1.3,3.2,2.2,4.2c0.9,1.1,1.9,1.9,3.1,2.3C19.5-120.6,20.7-120.3,22-120.3z M65.5-134.1H55.3v36.2
		h-7.1v-66.4h7.1v24h10.2V-134.1z"/>
	<path d="M85.3-159.8c2.4,0,4.7,0.4,6.7,1.2c2,0.8,3.8,2,5.3,3.7c1.5,1.6,2.7,3.6,3.5,6c0.8,2.4,1.3,5.2,1.3,8.4v7.5
		c0,3.2-0.4,6-1.3,8.4c-0.8,2.4-2,4.4-3.5,6c-1.5,1.6-3.3,2.8-5.3,3.6c-2,0.8-4.3,1.2-6.7,1.2c-2.4,0-4.7-0.4-6.7-1.2
		c-2-0.8-3.8-2-5.3-3.6c-1.5-1.6-2.7-3.6-3.5-6c-0.8-2.4-1.3-5.2-1.3-8.4v-7.5c0-3.2,0.4-6,1.3-8.4c0.8-2.4,2-4.4,3.5-6
		c1.5-1.6,3.3-2.8,5.3-3.6C80.6-159.4,82.9-159.8,85.3-159.8z M85.3-120.2c1.3,0,2.5-0.2,3.7-0.7c1.2-0.5,2.3-1.3,3.2-2.4
		c0.9-1.1,1.6-2.5,2.2-4.3c0.6-1.8,0.8-3.9,0.8-6.4v-5.5c0-2.5-0.3-4.7-0.8-6.4c-0.6-1.8-1.3-3.2-2.2-4.3c-0.9-1.1-2-1.9-3.2-2.4
		c-1.2-0.5-2.4-0.7-3.7-0.7s-2.5,0.2-3.7,0.7c-1.2,0.5-2.3,1.3-3.2,2.4c-0.9,1.1-1.6,2.5-2.2,4.3c-0.6,1.8-0.8,3.9-0.8,6.4v5.5
		c0,2.5,0.3,4.7,0.8,6.4c0.6,1.8,1.3,3.2,2.2,4.3c0.9,1.1,2,1.9,3.2,2.4C82.8-120.5,84-120.2,85.3-120.2z M113.1-97.9v-66.4h7.1
		v66.4H113.1z"/>
	<path d="M163.3-152.1H139v30.5h4.5c4.7,0,9.1-0.2,13.2-0.5c4.1-0.3,8.1-0.8,12-1.5l0.9,6.1c-3.6,0.7-7.8,1.2-12.4,1.6
		c-4.6,0.3-9.7,0.5-15.2,0.5h-10.2v-42.9h31.4V-152.1z M175-97.9v-66.4h7.1v66.4H175z"/>
</g>
<g>
	<path d="M8.1,53.7V10.1h7.1v15.7H32V10.1H39v43.6H8.1z M15.2,47.5H32V31.8H15.2V47.5z M51.2,71.1V4.7h7.1v66.4H51.2z"/>
	<path d="M99.9,34.8H69.5V7.3h30.3V34.8z M76.5,28.8h16.5V13.3H76.5V28.8z M79.1,71.5V53.3h34.1v-6.5H78.8v-5.9h41.5v18.1H86.1v6.6
		h36v5.9H79.1z M113.2,37.6V4.7h7.1v32.9H113.2z"/>
	<path d="M175.5,52.1V27.6h-13v13.9h-31.4V7.8h7v11.7h17.4V7.8h7v13.8h13V4.7h7.1v47.4H175.5z M138.1,35.4h17.4v-9.9h-17.4V35.4z
		 M148.2,64.2H184v6.2h-42.8V48.8h7.1V64.2z"/>
	<path d="M250,56.2v6h-60.9v-6h26.9v-8c-2.6-0.2-4.9-0.6-7-1.3c-2.1-0.7-3.8-1.6-5.2-2.6c-1.4-1.1-2.5-2.3-3.3-3.6
		c-0.8-1.4-1.2-2.8-1.2-4.4v-2.3c0-1.8,0.5-3.4,1.4-4.9c0.9-1.5,2.3-2.8,4-3.9c1.8-1.1,3.9-1.9,6.4-2.5c2.5-0.6,5.3-0.9,8.4-0.9
		s5.9,0.3,8.4,0.9c2.5,0.6,4.6,1.4,6.4,2.5s3.1,2.4,4,3.9c0.9,1.5,1.4,3.1,1.4,4.9v2.3c0,1.6-0.4,3.1-1.2,4.4
		c-0.8,1.4-1.9,2.6-3.3,3.6c-1.4,1.1-3.2,1.9-5.2,2.6c-2,0.7-4.4,1.1-6.9,1.3v8H250z M223.2,12.3h21.1v6h-49.5v-6h21.1V4h7.3V12.3z
		 M206.3,35.8c0,0.8,0.3,1.6,0.8,2.4s1.3,1.5,2.4,2.2s2.5,1.2,4.1,1.6c1.7,0.4,3.6,0.6,5.9,0.6c2.3,0,4.2-0.2,5.9-0.6
		c1.7-0.4,3.1-0.9,4.1-1.6s1.9-1.4,2.4-2.2c0.5-0.8,0.8-1.6,0.8-2.4v-1.6c0-0.8-0.3-1.6-0.8-2.4c-0.5-0.8-1.3-1.5-2.4-2.2
		s-2.5-1.2-4.1-1.6c-1.7-0.4-3.6-0.6-5.9-0.6c-2.3,0-4.2,0.2-5.9,0.6c-1.7,0.4-3.1,0.9-4.1,1.6s-1.9,1.4-2.4,2.2
		c-0.5,0.8-0.8,1.6-0.8,2.4V35.8z"/>
</g>
</svg>
