<svg xmlns="http://www.w3.org/2000/svg" width="24" height="24" viewBox="0 0 24 24">
    <g fill="none" fill-rule="evenodd">
        <g fill="#000" fill-rule="nonzero">
            <g>
                <g>
                    <path d="M18.272.297c.395-.396 1.036-.396 1.431 0 .365.365.393.94.085 1.338l-.085.096L11.445 10l8.258 8.27c.365.365.393.94.085 1.338l-.085.095c-.364.366-.939.394-1.336.084l-.095-.084-8.975-8.986c-.365-.366-.393-.94-.085-1.338l.085-.096L18.272.297z" transform="translate(-316 -42) translate(316 42) translate(2 2)"/>
                    <path d="M9.272.297c.395-.396 1.036-.396 1.431 0 .365.365.393.94.085 1.338l-.085.096L2.445 10l8.258 8.27c.365.365.393.94.085 1.338l-.085.095c-.364.366-.939.394-1.336.084l-.095-.084-8.975-8.986c-.365-.366-.393-.94-.085-1.338l.085-.096L9.272.297z" transform="translate(-316 -42) translate(316 42) translate(2 2) matrix(-1 0 0 1 11 0)"/>
                </g>
            </g>
        </g>
    </g>
</svg>
