<svg xmlns="http://www.w3.org/2000/svg" xmlns:xlink="http://www.w3.org/1999/xlink" width="50" height="50" viewBox="0 0 50 50">
    <defs>
        <path id="ubcexrhtca" d="M.124 11.549c0 6.155 4.988 11.145 11.144 11.145 6.154 0 11.144-4.99 11.144-11.145 0-6.155-4.99-11.145-11.144-11.145C5.112.404.124 5.394.124 11.549z"/>
        <path id="s7jox4zzic" d="M0 46.362L48 46.362 48 0.362 0 0.362z"/>
    </defs>
    <g fill="none" fill-rule="evenodd">
        <g>
            <g>
                <g>
                    <path stroke="#2A2A2A" stroke-linejoin="round" stroke-width="2" d="M31.827 5.729L38 5.729 38 22.667M11.363 5.729L27.258 5.729" transform="translate(-155 -204) translate(155 204) translate(2 2)"/>
                    <g stroke="#2A2A2A" stroke-linejoin="round" stroke-width="2">
                        <path d="M23.609 32.729L1.001 32.729 1.001.729 7.279.729M.512 10.954L38.489 10.954" transform="translate(-155 -204) translate(155 204) translate(2 2) translate(0 5)"/>
                    </g>
                    <g transform="translate(-155 -204) translate(155 204) translate(2 2) translate(25 23)">
                        <mask id="afx6xlghhb" fill="#fff">
                            <use xlink:href="#ubcexrhtca"/>
                        </mask>
                        <path fill="#FFEB00" d="M-5.183 28L27.719 28 27.719 -4.902 -5.183 -4.902z" mask="url(#afx6xlghhb)"/>
                    </g>
                    <path stroke="#2A2A2A" stroke-linecap="round" stroke-linejoin="round" stroke-width="2" d="M33.884 27.425L33.884 33.32 29.747 37.173" transform="translate(-155 -204) translate(155 204) translate(2 2)"/>
                    <g transform="translate(-155 -204) translate(155 204) translate(2 2)">
                        <path stroke="#2A2A2A" stroke-linecap="round" stroke-linejoin="round" stroke-width="2" d="M42.906 38.259c-3.091 5.137-9.761 6.795-14.897 3.704-5.137-3.091-6.796-9.76-3.706-14.896 3.091-5.137 9.762-6.795 14.899-3.704 1.525.917 2.744 2.152 3.623 3.567"/>
                        <path stroke="#2A2A2A" stroke-linecap="round" stroke-linejoin="round" stroke-width="2" d="M44.277 21.806L43.872 28.189 37.489 27.785"/>
                        <mask id="1v2ukaiv2d" fill="#fff">
                            <use xlink:href="#s7jox4zzic"/>
                        </mask>
                        <path stroke="#2A2A2A" stroke-linejoin="round" stroke-width="2" d="M7.64 9.465L10.969 9.465 10.969 1.362 7.64 1.362zM28.083 9.465L31.411 9.465 31.411 1.362 28.083 1.362z" mask="url(#1v2ukaiv2d)"/>
                    </g>
                </g>
                <path d="M0 0H50V50H0z" transform="translate(-155 -204) translate(155 204)"/>
            </g>
        </g>
    </g>
</svg>
