<svg xmlns="http://www.w3.org/2000/svg" xmlns:xlink="http://www.w3.org/1999/xlink" width="22" height="22" viewBox="0 0 22 22">
    <defs>
        <path id="is83b5sxba" d="M0 0L12 0 12 15 0 15z"/>
    </defs>
    <g fill="none" fill-rule="evenodd">
        <g>
            <g>
                <g transform="translate(-113 -2604) translate(113 2604) matrix(-1 0 0 1 18 4)">
                    <mask id="28ztx8ni2b" fill="#fff">
                        <use xlink:href="#is83b5sxba"/>
                    </mask>
                    <path fill="#212529" d="M7.094 10.742c-.981 1.227-2.258 2.505-2.549 2.77-.264.243-1.196.962-2.322.004l-.196-.167-.629-.534c-.214-.182-.66-.95-.192-1.629l1.018-1.478c.497-.723 1.16-.404 1.432-.173l.466.396c.264.225.685-.048.945-.24.246-.18 1.07-.971 1.535-1.648.56-.812.853-1.566.996-2.027.147-.475.26-.902-.004-1.127l-.466-.396c-.272-.231-.722-.86-.225-1.582l1.018-1.478c.468-.68 1.251-.401 1.465-.22l.629.535.196.167c1.126.958.765 2.063.604 2.492-.17.449-.971 2.196-1.765 3.494-.338.553-.587.972-.939 1.483-.41.597-.643.89-1.017 1.358z" mask="url(#28ztx8ni2b)"/>
                </g>
                <path d="M0 0H22V22H0z" transform="translate(-113 -2604) translate(113 2604)"/>
            </g>
        </g>
    </g>
</svg>
