<svg xmlns="http://www.w3.org/2000/svg" xmlns:xlink="http://www.w3.org/1999/xlink" width="55" height="16" viewBox="0 0 55 16">
    <defs>
        <path id="logr6cfj8a" d="M0.031 0.01L10.162 0.01 10.162 14.988 0.031 14.988z"/>
    </defs>
    <g fill="none" fill-rule="evenodd">
        <g>
            <g>
                <g>
                    <g>
                        <path fill="#1E1E1E" d="M.093 5.095C.543 2.705 3.766-.793 9.991.16c6.224.954 6.292 5.92 5.986 7.04-.306 1.117-2.109 5.59-8.911 4.966-1.905 1.283-3.742 2.533-4.048 2.73-.306.197-.884.099-.646-.559s.986-3.19.986-3.19S-.655 9.074.093 5.094M27.147 8.262c-.864 2.001-3.321 1.428-3.321 1.428V3.65s.763-.295 1.461-.425c2.292-.164 2.724 3.036 1.86 5.037m.764-6.8c-1.495-.49-2.956-.523-4.55.848l-.366-.849h-1.827v13.911h2.624v-3.755s3.986 1.208 5.614-2.253c1.627-3.462.498-7.25-1.495-7.903" transform="translate(-50 -1863) translate(47 1863) translate(3.092) translate(.284)"/>
                        <g transform="translate(-50 -1863) translate(47 1863) translate(3.092) translate(.284) translate(41.553 .769)">
                            <mask id="foku2zb0db" fill="#fff">
                                <use xlink:href="#logr6cfj8a"/>
                            </mask>
                            <path fill="#1E1E1E" d="M.031.837l3.67 9.853s-.607 1.256-2.222 2.81c1.043 1.025 1.649 1.488 1.649 1.488s1.986-.893 3.13-3.67S10.162.837 10.162.837L7.47.01 5.097 8.243 2.859.148.03.837z" mask="url(#foku2zb0db)"/>
                        </g>
                        <path fill="#1E1E1E" d="M37.785 8.71s-1.422.882-2.224.794c-.803-.088-1.284-.375-1.238-1.383.046-1.009 1.032-1.328 1.307-1.328h2.155V8.71zM36.833.782c-2.75-.15-4.54 1.106-4.54 1.106l.792 1.753s1.616-.76 3.06-.595c1.445.165 1.686 1.025 1.582 1.918-1.685.066-4.677-.166-5.811 2.248-.688 2.68.928 4.233 2.441 4.233 0 0 1.823.53 3.749-1.058l.378.86h1.892s-.035-6.449 0-7.309c.034-.86-.791-3.005-3.543-3.156z" transform="translate(-50 -1863) translate(47 1863) translate(3.092) translate(.284)"/>
                    </g>
                </g>
            </g>
        </g>
    </g>
</svg>
