<svg xmlns="http://www.w3.org/2000/svg" xmlns:xlink="http://www.w3.org/1999/xlink" width="26" height="16" viewBox="0 0 26 16">
    <defs>
        <path id="k0txuohjpa" d="M0.139 0L23.667 0 23.667 13.547 0.139 13.547z"/>
        <path id="d8rtnp6z9c" d="M-2 15.686L23.667 15.686 23.667 0 -2 0z"/>
    </defs>
    <g fill="none" fill-rule="evenodd">
        <g>
            <g transform="translate(-166 -575) translate(168 575)">
                <mask id="f1l0q7p1lb" fill="#fff">
                    <use xlink:href="#k0txuohjpa"/>
                </mask>
                <path fill="#444B52" stroke="#444B52" stroke-width=".2" d="M23.167 13.547c-.276 0-.5-.224-.5-.5V1H.639c-.277 0-.5-.224-.5-.5s.223-.5.5-.5h22.528c.276 0 .5.224.5.5v12.547c0 .276-.224.5-.5.5" mask="url(#f1l0q7p1lb)"/>
                <mask id="imzojltnid" fill="#fff">
                    <use xlink:href="#d8rtnp6z9c"/>
                </mask>
                <path fill="#444B52" stroke="#444B52" stroke-width=".2" d="M-1 14.686h21.528V3.139H-1v11.547zm22.028 1H-1.5c-.276 0-.5-.224-.5-.5V2.639c0-.276.224-.5.5-.5h22.528c.276 0 .5.224.5.5v12.547c0 .276-.224.5-.5.5h0z" mask="url(#imzojltnid)"/>
                <path fill="#444B52" stroke="#444B52" stroke-width=".15" d="M8.332 12.247h0c-.208 0-.39-.119-.454-.292L5.9 6.535c-.08-.22.058-.458.308-.529.25-.071.52.05.6.272l1.529 4.186 1.52-4.097c.065-.176.255-.301.465-.29.21.005.392.13.448.309l1.226 3.915 1.295-3.83c.075-.223.338-.35.594-.284.252.067.395.3.32.524l-1.77 5.235c-.06.179-.247.3-.457.3h-.005c-.212-.001-.398-.127-.455-.308l-1.246-3.983-1.486 4.002c-.064.173-.246.29-.453.29" mask="url(#imzojltnid)"/>
                <path fill="#444B52" stroke="#444B52" stroke-width=".15" d="M14.725 9.116h-9.35c-.3 0-.542-.234-.542-.522 0-.288.242-.521.542-.521h9.35c.3 0 .543.233.543.521 0 .288-.243.522-.543.522" mask="url(#imzojltnid)"/>
            </g>
        </g>
    </g>
</svg>
