<svg xmlns="http://www.w3.org/2000/svg" xmlns:xlink="http://www.w3.org/1999/xlink" width="36" height="22" viewBox="0 0 36 22">
    <defs>
        <path id="had41cof1a" d="M0 0L33 0 33 19 0 19z"/>
        <path id="13dvdjprvc" d="M-3 22L33 22 33 0 -3 0z"/>
    </defs>
    <g fill="none" fill-rule="evenodd">
        <g>
            <g transform="translate(-262 -1860) translate(265 1860)">
                <mask id="h7snisfxxb" fill="#fff">
                    <use xlink:href="#had41cof1a"/>
                </mask>
                <path fill="#CED4DA" d="M32.299 19c-.387 0-.702-.314-.702-.701V1.403H.701C.314 1.403 0 1.089 0 .7 0 .314.314 0 .701 0H32.3c.387 0 .701.314.701.701V18.3c0 .387-.314.701-.701.701" mask="url(#h7snisfxxb)"/>
                <mask id="gtohy4xjtd" fill="#fff">
                    <use xlink:href="#13dvdjprvc"/>
                </mask>
                <path fill="#CED4DA" d="M-1.597 20.597h30.194V4.403H-1.597v16.194zM29.299 22H-2.3c-.387 0-.701-.314-.701-.701V3.7c0-.387.314-.701.701-.701H29.3c.387 0 .701.314.701.701V21.3c0 .387-.314.701-.701.701z" mask="url(#gtohy4xjtd)"/>
                <path fill="#CED4DA" d="M11.942 17h-.001c-.248 0-.467-.151-.543-.373l-2.37-6.924c-.097-.283.069-.586.369-.677.299-.091.622.064.719.347l1.83 5.349 1.821-5.235c.079-.225.306-.385.557-.37.252.005.47.166.537.394l1.468 5.003 1.552-4.895c.09-.284.405-.447.711-.362.302.085.474.384.384.67l-2.12 6.69c-.072.227-.296.383-.548.383h-.005c-.255-.002-.478-.163-.545-.395l-1.494-5.09-1.78 5.115c-.076.22-.295.37-.542.37" mask="url(#gtohy4xjtd)"/>
                <path fill="#CED4DA" d="M19.428 13H9.572C9.255 13 9 12.776 9 12.5s.255-.5.572-.5h9.856c.317 0 .572.224.572.5s-.255.5-.572.5" mask="url(#gtohy4xjtd)"/>
            </g>
        </g>
    </g>
</svg>
