<svg width="360" height="326" xmlns="http://www.w3.org/2000/svg" xmlns:xlink="http://www.w3.org/1999/xlink">
    <defs>
        <path id="a" d="M0 0h324.92v243.105H0z"/>
        <path id="c" d="M0 0h11.204v11.94H0z"/>
    </defs>
    <g fill="none" fill-rule="evenodd">
        <g transform="translate(-9.195 59.694)">
            <mask id="b" fill="#fff">
                <use xlink:href="#a"/>
            </mask>
            <path d="M274.634 243.105a.831.831 0 0 1-.519-1.482c24.642-19.617 33.59-36.962 44.327-68.42 5.272-15.445 6.252-32.025 2.759-46.685-3.815-16.014-12.728-29.275-25.776-38.352-15.774-10.974-31.742-11.141-48.646-11.317-11.367-.119-23.121-.242-34.773-3.962-16.317-5.21-28.722-17.991-40.719-30.353-9.034-9.308-18.376-18.934-29.254-25.133C111.851.204 72.692-3.267 44.593 8.765 23.974 17.593 10.155 34.01 4.625 56.241c-8.548 34.372 1.144 70.15 28.81 106.341 20.899 27.343 48.7 55.413 78.283 79.041a.831.831 0 1 1-1.038 1.3c-29.685-23.71-57.588-51.884-78.568-79.33-12.845-16.804-21.966-33.862-27.111-50.7-5.919-19.37-6.589-38.566-1.99-57.052 5.66-22.758 19.811-39.565 40.926-48.606 28.554-12.225 68.307-8.722 98.919 8.721 11.083 6.315 20.509 16.028 29.624 25.42 11.853 12.214 24.111 24.843 40.03 29.926 11.415 3.644 23.041 3.766 34.286 3.883 16.412.171 33.384.348 49.58 11.616 13.387 9.313 22.532 22.914 26.443 39.332 3.564 14.961 2.569 31.87-2.803 47.607-10.847 31.778-19.898 49.308-44.864 69.183a.83.83 0 0 1-.519.182" fill="#FFDB00" mask="url(#b)"/>
        </g>
        <path d="M213.855 79.019c-.292 2.525.829 4.87.66 7.354-.166 2.475-.585 4.871-.607 7.4-.057 6.319.15 12.635.184 18.952.001.1 3.362-.484 3.637-.383 1.27.466 1.051 1.014 1.255 2.501 3.709.14 8.063-.622 11.857-.83 3.835-.209 8.076-.04 11.86-.677 1.404-.236 1.378.12 1.98-.934.579-1.014.245-3.897.26-5.02.034-3.02-.234-6.078-.336-9.098-.088-2.593-.229-5.128-.092-7.724.075-1.443.41-3.062-.198-4.413" fill="#131313"/>
        <path d="M226.484 293.615c-.014.276-.028.551-.04.828-.235 5.069-4.145 6.254-7.797 8.744-2.94 2.005-4.95 5.024-7.803 7.073-2.255 1.62-4.529.49-3.976-2.558.488-2.696 3.48-5.1 5.225-7.036 2.424-2.688 5.114-5.62 4.946-9.498-.623-14.43-2.751-28.735-5.113-42.968-.399-2.401-5.768-34.265-3.81-34.414 3.258-.247 6.516-.546 9.777-.745 1.509-.092 15.792.27 15.528 2.844-1.577 15.406-2.607 30.86-3.965 46.285-.531 6.04-1.054 12.083-1.768 18.105-.544 4.584-.97 8.816-1.204 13.34" fill="#FFF"/>
        <path d="M208.582 214.584c-.36 1.9.503 11.508 4.118 33.198l.046.282c2.648 15.953 4.533 29.382 5.124 43.068.18 4.171-2.61 7.264-5.072 9.993l-.087.099c-.39.432-.841.888-1.314 1.365-1.583 1.598-3.375 3.41-3.711 5.261-.186 1.025.007 1.83.515 2.15.518.327 1.346.167 2.157-.416 1.317-.944 2.44-2.1 3.628-3.323 1.279-1.316 2.6-2.676 4.193-3.762.723-.493 1.45-.932 2.153-1.358 2.856-1.726 5.111-3.09 5.28-6.737l.042-.832c.207-3.998.569-8.005 1.208-13.396.679-5.727 1.194-11.575 1.691-17.23l.075-.849c.508-5.776.978-11.655 1.433-17.339.76-9.496 1.546-19.314 2.533-28.958-.693-1.275-11.35-2.132-14.65-1.929-2.15.132-4.338.309-6.454.481-.97.078-1.939.157-2.908.232m.25 97.25a2.81 2.81 0 0 1-1.52-.428c-1.118-.706-1.578-2.11-1.262-3.853.426-2.358 2.413-4.364 4.165-6.134.453-.457.886-.894 1.26-1.31l.088-.097c2.358-2.615 4.797-5.318 4.645-8.809-.588-13.602-2.465-26.973-5.103-42.867l-.046-.28c-5.425-32.554-4.165-34.161-3.75-34.69.189-.242.453-.388.744-.41 1.1-.084 2.202-.173 3.303-.262 2.124-.173 4.32-.35 6.487-.484.134-.004 13.53-.028 15.923 2.464.46.479.516.969.482 1.296-.984 9.624-1.77 19.434-2.53 28.92-.453 5.689-.924 11.571-1.433 17.354l-.075.847c-.498 5.668-1.014 11.528-1.696 17.282-.635 5.352-.994 9.326-1.2 13.286l-.04.821c-.21 4.535-3.062 6.26-6.081 8.085-.685.414-1.39.841-2.077 1.309-1.453.991-2.66 2.232-3.937 3.546-1.187 1.221-2.414 2.485-3.85 3.515-.828.596-1.695.9-2.497.9" fill="#000"/>
        <path d="M208.319 304.037c.293-.16.563-.304.803-.429-.537.278.224 2.574.736 2.823 2.42 1.183 6.422-2.533 8.11-3.836 2.75-2.125 5.328-4.455 8.046-6.562 3.147-2.439 2.636 4 2.427 6.139-.327 3.353-.714 6.648-.72 9.884-.198.021-2.449.319-2.437.381-.593-2.857-.296-5.513-1.963-8.001-3.715.611-6.612 4.579-9.057 7.065-2.301 2.34-5.398 3.028-8.558 3.27-1.6.122-5.91.93-6.208-1.46-.45-3.611 5.58-7.495 8.82-9.274" fill="#131313"/>
        <path d="m236.76 293.615.04.828c.235 5.069 4.145 6.254 7.796 8.744 2.942 2.005 4.95 5.024 7.804 7.073 2.254 1.62 4.528.49 3.975-2.558-.487-2.696-3.48-5.1-5.224-7.036-2.425-2.688-5.115-5.62-4.947-9.498.624-14.43 2.752-28.735 5.113-42.968.399-2.401 5.769-34.265 3.81-34.414-3.258-.247-6.515-.546-9.777-.745-1.509-.092-15.79.27-15.527 2.844 1.577 15.406 2.607 30.86 3.964 46.285.532 6.04 1.054 12.083 1.768 18.105.544 4.584.97 8.816 1.205 13.34" fill="#FFF"/>
        <path d="M244.133 213.842c-4.13 0-12.86.815-13.494 2.031.998 9.57 1.783 19.389 2.544 28.885.454 5.684.925 11.563 1.433 17.34l.075.847c.497 5.656 1.011 11.504 1.69 17.231.64 5.39 1.001 9.396 1.21 13.396v.002l.04.83c.169 3.647 2.425 5.011 5.28 6.738.704.425 1.43.864 2.154 1.357 1.592 1.086 2.914 2.446 4.192 3.762 1.189 1.223 2.311 2.378 3.628 3.323.812.583 1.64.743 2.158.415.508-.32.7-1.124.514-2.149-.335-1.851-2.128-3.663-3.71-5.26a41.51 41.51 0 0 1-1.314-1.367l-.088-.097c-2.462-2.73-5.253-5.823-5.072-9.994.592-13.686 2.477-27.115 5.125-43.068l.046-.282c3.615-21.69 4.477-31.297 4.118-33.198-.97-.075-1.939-.153-2.909-.232-2.116-.172-4.304-.35-6.453-.48a20.3 20.3 0 0 0-1.167-.03m10.279 97.993c-.802 0-1.668-.303-2.498-.9-1.436-1.03-2.663-2.294-3.85-3.515-1.277-1.314-2.483-2.555-3.936-3.547a45.225 45.225 0 0 0-2.077-1.308c-3.02-1.825-5.872-3.55-6.082-8.084l-.04-.822c-.205-3.962-.565-7.936-1.2-13.286-.681-5.754-1.197-11.614-1.695-17.282l-.075-.848a2190.52 2190.52 0 0 1-1.435-17.353c-.759-9.486-1.544-19.296-2.529-28.92-.034-.327.024-.817.483-1.296 2.391-2.492 15.797-2.469 15.923-2.464 2.166.133 4.363.311 6.487.484 1.1.09 2.201.178 3.302.262.291.022.555.168.746.41.414.528 1.674 2.136-3.75 34.69l-.047.28c-2.638 15.894-4.515 29.265-5.104 42.867-.15 3.491 2.287 6.194 4.645 8.809l.088.097c.375.416.808.852 1.26 1.31 1.753 1.77 3.739 3.776 4.166 6.135.316 1.742-.145 3.146-1.263 3.852-.454.287-.971.43-1.52.43" fill="#000"/>
        <path d="M254.925 304.037c-.293-.16-.563-.304-.804-.429.538.278-.224 2.574-.735 2.823-2.42 1.183-6.422-2.533-8.11-3.836-2.751-2.125-5.328-4.455-8.046-6.562-3.147-2.439-2.636 4-2.427 6.139.326 3.353.714 6.648.72 9.884.198.021 2.449.319 2.436.381.594-2.857.297-5.513 1.964-8.001 3.715.611 6.612 4.579 9.056 7.065 2.302 2.34 5.398 3.028 8.558 3.27 1.601.122 5.91.93 6.209-1.46.45-3.611-5.58-7.495-8.821-9.274" fill="#131313"/>
        <path fill="#FFF" d="m191.774 229.484 19.303-60.427 39.285.187 16.816 60.24z"/>
        <path d="M192.912 228.652h73.17l-16.352-58.58-38.046-.18-18.772 58.76zm74.266 1.663h-75.404a.833.833 0 0 1-.793-1.084l19.305-60.427a.83.83 0 0 1 .791-.58h.005l39.284.189c.372.001.697.25.798.608l16.816 60.239a.83.83 0 0 1-.802 1.056z" fill="#000"/>
        <path d="M254.134 125.558c.1 3.912-.757 8.049-1.046 11.787-.944 12.166 2.072 24.835 3.084 36.908-16.02 2.566-33.202 1.697-49.343.7-.25-11.644 3.063-17.217 3.076-28.96.01-8.828-.032-18.613 3.788-26.837.759-1.632 2.293-3.199 2.385-4.994.097-1.903-.78-2.396 1.053-3.148 9.722-3.99 25.148-2.55 33.006 4.702 2.98 2.752 3.903 6.2 3.997 9.842" fill="#FFDB00"/>
        <path d="M207.65 174.17c16.505 1.01 32.567 1.685 47.625-.619-.337-3.732-.863-7.585-1.373-11.318-1.122-8.22-2.282-16.72-1.643-24.953.104-1.354.286-2.786.462-4.17.316-2.497.644-5.08.581-7.53-.104-4.06-1.29-7-3.73-9.253-7.835-7.231-23.219-8.198-32.125-4.544-.569.233-.656.366-.66.37-.02.067.016.34.042.539.047.368.112.874.08 1.512-.072 1.404-.827 2.593-1.559 3.744-.343.541-.667 1.052-.903 1.558-3.69 7.945-3.7 17.602-3.71 26.123v.364c-.007 5.791-.81 10.128-1.587 14.322-.794 4.292-1.547 8.356-1.5 13.854m24.563 2.599c-8.316 0-16.818-.453-25.435-.986a.832.832 0 0 1-.78-.812c-.13-6.062.707-10.585 1.516-14.958.764-4.12 1.552-8.382 1.56-14.02v-.365c.01-8.693.02-18.544 3.865-26.823.28-.603.65-1.186 1.007-1.749.644-1.013 1.251-1.97 1.301-2.936.025-.489-.025-.874-.069-1.214-.143-1.106-.109-1.944 1.638-2.66 9.565-3.926 25.465-2.91 33.885 4.86 2.793 2.577 4.148 5.893 4.264 10.43.066 2.58-.27 5.226-.594 7.785-.181 1.427-.352 2.774-.454 4.09-.625 8.053.523 16.464 1.633 24.598.548 4.013 1.114 8.161 1.45 12.176a.83.83 0 0 1-.697.89c-7.802 1.25-15.855 1.694-24.09 1.694" fill="#000"/>
        <path d="M221.57 109.318c-6.27 1.328-12.743 3.406-17.802 7.53-2.97 2.417-5.351 5.412-6.81 8.968-2.398 5.852-4.835 13.246-6.622 19.417-1.941 6.708-4.298 17.444 2.707 22.176 1.977 1.33 6.656.472 8.844.4 5.32-.177 10.64-.597 15.936-1.148 5.574-.578 11.52-.121 16.896-1.906-.42-3.729.078-7.26-.617-10.989-4.736 1.262-9.852 1.454-14.744.995-1.227-.115-13.39-2.248-13.578-1.575 1.851-6.63 3.92-13.257 5.8-19.9" fill="#FFDB00"/>
        <path d="M196.663 168.981c-1.576 0-3.066-.198-4.084-.881-7.293-4.927-5.229-15.541-3.042-23.098 2.05-7.078 4.474-14.186 6.652-19.501 1.452-3.541 3.825-6.67 7.053-9.299 5.727-4.666 13.104-6.628 18.155-7.698a.832.832 0 1 1 .344 1.628c-4.881 1.034-12.001 2.922-17.448 7.36-3.012 2.452-5.22 5.359-6.565 8.64-2.157 5.262-4.56 12.308-6.593 19.333-2.042 7.056-4.018 16.938 2.373 21.255 1.289.866 4.439.582 6.522.393a34.878 34.878 0 0 1 1.83-.135c4.82-.161 10.013-.534 15.876-1.143 1.792-.187 3.643-.268 5.433-.347 3.575-.157 7.264-.32 10.656-1.324-.122-1.429-.13-2.828-.139-4.19-.01-1.77-.02-3.455-.26-5.18-4.254 1.01-9.006 1.277-14.145.796-.33-.032-1.246-.175-2.634-.392-2.782-.434-9.189-1.44-10.424-1.308a.831.831 0 0 1-1.244-.927c.981-3.514 2.04-7.084 3.064-10.537a764.67 764.67 0 0 0 2.736-9.366.833.833 0 0 1 1.602.453c-.887 3.133-1.831 6.312-2.743 9.386-.908 3.062-1.844 6.216-2.727 9.337 1.559.067 4.466.455 9.993 1.318 1.209.19 2.254.353 2.532.379 5.303.496 10.165.171 14.452-.97a.834.834 0 0 1 1.031.651c.407 2.18.42 4.301.43 6.352.01 1.533.02 3.118.197 4.696a.832.832 0 0 1-.565.882c-3.782 1.256-7.827 1.434-11.738 1.607-1.766.077-3.592.157-5.335.338-5.903.613-11.134.99-15.993 1.151-.476.016-1.073.07-1.734.13-1.111.1-2.338.211-3.518.211" fill="#000"/>
        <path d="M199.293 157.29a.83.83 0 0 1-.488-1.505c2.823-2.043 5.347-3.343 7.502-3.864a.832.832 0 1 1 .39 1.617c-1.942.47-4.27 1.68-6.917 3.595a.828.828 0 0 1-.487.158" fill="#281000"/>
        <path d="m218.86 109.845 10.583 41.13 9.622-41.851s-15.634-1.443-20.205.721" fill="#FFF"/>
        <path d="m219.848 110.346 9.55 37.115 8.64-37.587c-3.25-.253-13.95-.946-18.19.472zm9.595 41.461a.833.833 0 0 1-.806-.624l-10.582-41.131a.831.831 0 0 1 .45-.958c4.72-2.236 19.988-.858 20.636-.798a.829.829 0 0 1 .734 1.014l-9.622 41.852a.832.832 0 0 1-.8.645h-.01z" fill="#000"/>
        <path d="M258.817 122.625c2.27-1.024 2.029-4.532 2.24-6.48.115-1.055.494-1.03 1.313-1.466 1.497-.801 3.644-1.589 4.587-3.079 1.005-1.588 1.043-3.562.904-5.37-.197-2.55-.63-4.92-2.799-6.495-1.88-1.366-4.027-1.417-4.94-3.963-.582-1.619-.222-3.603-.595-5.305-.242-1.097-.926-2.853-2.35-2.5-1.813.448-1.121 3.696-1.11 5.022.034 3.886-.966 7.091-1.798 10.811-.681 3.044-1.188 6.107-1.845 9.15-.356 1.651-.931 4.11.36 5.514 1.606 1.748 4 2.984 6.033 4.16" fill="#FFF"/>
        <path d="M257.537 88.752a.673.673 0 0 0-.16.022c-.788.195-.631 2.098-.538 3.235.031.373.057.708.06.972.028 3.229-.628 5.976-1.323 8.883-.166.692-.333 1.395-.496 2.117-.362 1.619-.68 3.276-.989 4.879a192.382 192.382 0 0 1-.854 4.265l-.029.135c-.328 1.515-.777 3.591.188 4.64 1.308 1.424 3.193 2.497 5.017 3.535l.404.23c1.107-.823 1.227-2.823 1.326-4.459.026-.416.05-.807.087-1.152.135-1.236.663-1.58 1.394-1.932.106-.051.224-.108.353-.177.313-.168.655-.334 1.008-.507 1.239-.608 2.644-1.295 3.268-2.283.911-1.439.895-3.353.778-4.861-.207-2.682-.69-4.602-2.458-5.885-.538-.392-1.13-.676-1.7-.952-1.376-.663-2.796-1.348-3.534-3.404-.372-1.034-.403-2.144-.434-3.218-.023-.782-.044-1.52-.19-2.19-.193-.875-.554-1.589-.92-1.817a.476.476 0 0 0-.258-.076m1.28 34.704a.832.832 0 0 1-.416-.111l-.811-.464c-1.844-1.05-3.935-2.24-5.42-3.855-1.547-1.684-.97-4.352-.588-6.118l.029-.134c.304-1.407.575-2.817.847-4.229.31-1.614.632-3.284.999-4.926.164-.73.333-1.442.5-2.142.67-2.806 1.305-5.456 1.278-8.48-.002-.232-.027-.525-.054-.852-.137-1.665-.366-4.451 1.796-4.986a2.16 2.16 0 0 1 1.695.257c1.044.648 1.493 2.078 1.667 2.873.18.82.204 1.673.228 2.498.029.987.055 1.92.337 2.704.509 1.415 1.47 1.88 2.691 2.467.637.308 1.297.626 1.956 1.105 2.532 1.838 2.948 4.63 3.139 7.103.136 1.764.142 4.026-1.03 5.878-.877 1.386-2.506 2.184-3.944 2.887-.335.164-.657.322-.954.481-.153.082-.291.148-.417.209-.416.2-.416.2-.46.614-.036.32-.057.684-.082 1.072-.127 2.118-.303 5.02-2.644 6.076a.834.834 0 0 1-.342.073" fill="#000"/>
        <path d="M259.47 93.965c-.52.17-1.187.21-1.561.1" fill="#FFF"/>
        <path d="M258.432 94.96c-.268 0-.53-.03-.761-.098a.832.832 0 1 1 .475-1.595c.17.05.66.04 1.065-.092a.832.832 0 0 1 .517 1.581 4.369 4.369 0 0 1-1.296.204" fill="#000"/>
        <path d="M263.632 99.578c-1.522-.448-10.07 2.21-7.318 3.842 1.439.848 5.137-.96 6.85-.943" fill="#FFF"/>
        <path d="M257.354 104.477c-.55 0-1.047-.097-1.462-.341-1.26-.747-.947-1.749-.821-2.037.894-2.056 7.278-3.764 8.796-3.319a.833.833 0 0 1-.47 1.596c-1.297-.352-6.052 1.428-6.735 2.28l.076.048c.578.34 2.382-.159 3.577-.49 1.07-.297 2.065-.58 2.86-.568a.831.831 0 0 1-.01 1.664h-.026c-.548 0-1.48.258-2.38.507-1.177.326-2.381.66-3.405.66" fill="#000"/>
        <path d="M257.167 103.621c-3.553 3.586 4.892 1.456 6.078 1.75" fill="#FFF"/>
        <path d="M258.135 106.563c-1.301 0-2.178-.24-2.534-.975-.51-1.053.57-2.142.975-2.552a.832.832 0 1 1 1.182 1.17c-.291.294-.448.5-.532.632.762.18 2.83-.057 3.768-.163 1.305-.148 2.007-.223 2.452-.11a.831.831 0 1 1-.403 1.614c-.221-.036-1.169.07-1.86.149-1.178.134-2.202.235-3.048.235" fill="#000"/>
        <path d="M257.241 105.97c-2.42 3.389 4.951 2.427 6.522 2.511" fill="#FFF"/>
        <path d="M260.716 109.376c-2.214 0-3.964-.257-4.587-1.414-.38-.706-.234-1.54.435-2.476a.832.832 0 0 1 1.354.967c-.336.47-.338.695-.324.72.164.304 1.143.64 4.891.5.567-.023 1.013-.04 1.322-.023a.832.832 0 1 1-.088 1.662c-.233-.013-.668.004-1.171.022-.635.024-1.25.042-1.832.042" fill="#000"/>
        <path d="M257.48 108.262c-.452 1.374.269 2.357 1.64 2.678.994.233 3.515.64 4.177.44" fill="#FFF"/>
        <path d="M262.736 112.262c-1.45 0-3.778-.505-3.805-.512-.97-.226-1.692-.722-2.092-1.433-.375-.668-.428-1.468-.15-2.314a.833.833 0 0 1 1.58.518c-.13.396-.123.726.02.98.163.29.525.514 1.02.63 1.199.28 3.311.559 3.752.451a.849.849 0 0 1 1.02.583.815.815 0 0 1-.544 1.01c-.2.062-.48.087-.801.087" fill="#000"/>
        <path d="M257.045 108.593c.462.953.077 2.321-.85 2.848" fill="#FFF"/>
        <path d="M256.197 112.273a.831.831 0 0 1-.412-1.555c.53-.302.788-1.19.512-1.762a.831.831 0 1 1 1.496-.726c.66 1.361.106 3.2-1.186 3.934a.826.826 0 0 1-.41.109" fill="#000"/>
        <path d="M260.914 143.831c.434-3.911.643-7.826 1.115-11.952.1-.866 1.647-14.188 1.305-14.216-1.419-.112-12.395-2.669-12.782-1.702-3.359 10.383-7.284 20.607-9.766 31.253-1.307 5.616 2.904 14.02 9.403 13.878 5.528-.122 7.931-3.76 9.09-8.114.83-3.112 1.299-6.129 1.635-9.147" fill="#FFDB00"/>
        <path d="M251.226 116.573c-.9 2.78-1.871 5.633-2.812 8.397-2.48 7.287-5.044 14.823-6.818 22.433-.701 3.012.357 7.021 2.573 9.752 1.664 2.05 3.786 3.148 6.002 3.105 4.33-.094 6.968-2.477 8.305-7.497.721-2.706 1.218-5.489 1.611-9.024.207-1.861.36-3.688.52-5.623.171-2.05.349-4.169.596-6.331l.018-.16c.902-7.83 1.266-11.843 1.324-13.236-.55-.094-1.347-.248-2.434-.46-2.303-.45-7.508-1.473-8.885-1.356zm-1.194 45.353c-2.668 0-5.202-1.317-7.155-3.723-2.558-3.152-3.724-7.644-2.901-11.178 1.793-7.69 4.37-15.265 6.863-22.59a605.897 605.897 0 0 0 2.921-8.729c.445-1.118 1.743-1.153 10.67.59 1.345.262 2.614.51 2.97.538a.865.865 0 0 1 .589.308c.304.369.503.612-1.115 14.674l-.019.158c-.244 2.137-.42 4.243-.59 6.281-.155 1.86-.315 3.783-.524 5.668-.398 3.572-.924 6.517-1.658 9.268-1.535 5.764-4.765 8.62-9.876 8.732a6.176 6.176 0 0 1-.175.003z" fill="#000"/>
        <path d="M250.374 165.335c2.556-.386 8.76-1.76 9.63-4.803 1.165-4.088-4.27-1.397-6.504-1.114-3.485.44-7.226-.216-10.007-2.468 2.62 2.123 8.822-3.833 2.658-4.244-2.72-.18-5.422.336-8.067.901-1.44.309-2.691.642-4.098 1.094.286.904.234 7.764.426 7.829 5.115 1.725 10.412 3.644 15.962 2.805" fill="#FFF"/>
        <path d="m235.16 161.904.202.069c4.81 1.627 9.784 3.31 14.888 2.54 4.032-.61 8.365-2.148 8.954-4.21.198-.694.128-1 .064-1.064-.398-.398-2.541.21-3.572.502-.775.22-1.507.428-2.092.502-4.048.511-7.925-.453-10.634-2.646a.831.831 0 1 1 1.046-1.293l.002.001c.683.551 1.823.171 2.591-.323.924-.593 1.44-1.399 1.342-1.779-.066-.254-.59-.582-1.856-.667-2.61-.174-5.197.32-7.837.885-1.172.25-2.229.522-3.347.862.08.852.12 2.22.166 4.07.022.902.049 1.972.084 2.551zm12.445 4.467c-4.435 0-8.663-1.43-12.776-2.822l-.683-.231c-.639-.216-.639-.216-.733-3.923-.037-1.503-.1-4.018-.222-4.447-.122-.43.114-.902.54-1.04 1.43-.458 2.72-.802 4.179-1.114 2.65-.567 5.473-1.107 8.296-.917 2.408.16 3.154 1.128 3.356 1.911.348 1.348-.78 2.777-2.054 3.594-.278.179-.56.33-.84.454 1.984.788 4.316 1.062 6.727.757.46-.059 1.134-.25 1.847-.451 2.022-.574 4.115-1.168 5.203-.079.582.583.703 1.49.358 2.697-1.063 3.725-8.157 5.073-10.305 5.397-.974.148-1.939.214-2.893.214z" fill="#000"/>
        <path d="M235.83 102.262v7.486a6.654 6.654 0 0 1-13.308 0v-7.486" fill="#FFF"/>
        <path d="M229.176 117.234c-4.127 0-7.486-3.359-7.486-7.486v-7.486a.832.832 0 0 1 1.664 0v7.486a5.829 5.829 0 0 0 5.822 5.822 5.829 5.829 0 0 0 5.822-5.822v-7.486a.832.832 0 0 1 1.664 0v7.486c0 4.127-3.359 7.486-7.486 7.486" fill="#000"/>
        <path d="M228.344 80.636c-3.788 1.78-3.56 8.978-3.337 12.381.206 3.113-2.138 10.983 2.792 11.515 5.454.588 7.592-5.414 8.188-9.56.415-2.897.859-5.516-.365-8.258-.758-1.7-2.239-3.738-2.08-5.662" fill="#FFF"/>
        <path d="M233.23 103.909c6.182-1.871 10.655-7.959 10.537-15.104l-.142-8.78c-.097-5.878-3.272-10.937-7.868-13.476" fill="#FFF"/>
        <path d="M233.23 104.74a.833.833 0 0 1-.241-1.628c5.965-1.804 10.056-7.682 9.947-14.293l-.142-8.782c-.09-5.385-2.94-10.275-7.439-12.76a.83.83 0 1 1 .804-1.456c5.02 2.773 8.198 8.21 8.298 14.19l.143 8.781c.12 7.35-4.456 13.894-11.13 15.913a.84.84 0 0 1-.24.036" fill="#000"/>
        <path d="M239.989 70.655c-2.67-2.565-4.793-5.29-8.795-5.868-9.166-1.324-16.854 6.83-16.71 15.714l.144 8.782c.121 7.364 5.078 13.446 11.604 14.89" fill="#FFF"/>
        <path d="M226.232 105.005a.832.832 0 0 1-.18-.019c-7.09-1.57-12.13-8.022-12.256-15.689l-.143-8.796c-.08-4.816 2.07-9.632 5.75-12.871 3.39-2.983 7.618-4.287 11.91-3.666 3.677.53 5.924 2.778 8.096 4.95.379.38.761.762 1.156 1.141a.832.832 0 1 1-1.152 1.2 82.498 82.498 0 0 1-1.18-1.164c-2.16-2.162-4.028-4.028-7.158-4.48-3.8-.548-7.555.611-10.573 3.267-3.318 2.922-5.256 7.261-5.186 11.61l.143 8.782c.112 6.784 4.718 12.71 10.952 14.09a.833.833 0 0 1-.179 1.645" fill="#000"/>
        <path d="M233.555 75.123c3.09 3.851 8.007 7.177 12.077 9.716-.298-.185-.523-5.823-.626-6.586-1.158-8.42-7.356-13.937-16.114-13.718-7.07.178-14.632 4.88-15.542 12.236-.087.697-.954 8.126-.037 8.071 2.806-.252 6.055-1.75 8.686-2.988 4.233-1.993 7.643-3.93 11.556-6.73" fill="#131313"/>
        <path d="M224.248 85.151a.83.83 0 0 1-.322-1.599c3.202-1.344 8.55-4.62 8.279-8.378a.833.833 0 0 1 1.66-.119c.315 4.393-4.81 8.149-9.296 10.03a.813.813 0 0 1-.32.066" fill="#000"/>
        <path d="M242.653 84.325c1.175-2.186 4.05-.5 4.09 1.454.052 2.537-1.554 5.11-4.27 4.888" fill="#FFF"/>
        <path d="M242.8 91.512c-.13 0-.261-.005-.395-.017a.831.831 0 1 1 .136-1.658c.819.064 1.532-.18 2.121-.732.797-.75 1.276-2.018 1.25-3.31-.014-.693-.67-1.456-1.406-1.633-.49-.12-.856.064-1.12.557a.833.833 0 0 1-1.465-.788c.625-1.165 1.736-1.684 2.974-1.387 1.473.356 2.65 1.768 2.68 3.217.037 1.775-.627 3.477-1.773 4.555a4.295 4.295 0 0 1-3.001 1.196" fill="#000"/>
        <path d="M215.81 85.005c-1.175-2.186-4.05-.5-4.091 1.453-.051 2.538 1.555 5.11 4.27 4.888" fill="#FFF"/>
        <path d="M215.661 92.191a4.29 4.29 0 0 1-2.999-1.194c-1.147-1.078-1.81-2.78-1.775-4.556.03-1.45 1.208-2.862 2.68-3.216 1.238-.299 2.349.22 2.975 1.386a.833.833 0 0 1-1.465.787c-.265-.492-.63-.673-1.12-.556-.735.177-1.392.94-1.406 1.633-.026 1.292.453 2.56 1.25 3.31.588.552 1.305.8 2.12.732a.831.831 0 1 1 .136 1.658 4.575 4.575 0 0 1-.396.016M237.44 88.395c0 1.158-.558 2.096-1.245 2.096-.688 0-1.247-.938-1.247-2.096 0-1.158.559-2.096 1.247-2.096.687 0 1.246.938 1.246 2.096M224.753 88.395c0 1.158-.558 2.096-1.246 2.096s-1.247-.938-1.247-2.096c0-1.158.56-2.096 1.247-2.096.688 0 1.246.938 1.246 2.096M236.422 82.374a.84.84 0 0 1-.238-.035 11.596 11.596 0 0 0-2.114-.422.832.832 0 0 1 .172-1.656c.812.085 1.626.247 2.417.484a.832.832 0 0 1-.237 1.629M222.149 82.827a.833.833 0 0 1-.31-1.604c.896-.36 1.821-.33 2.719-.3.253.008.507.017.755.014h.008a.83.83 0 0 1 .006 1.663c-.273.004-.547-.007-.822-.015-.758-.025-1.475-.047-2.047.182a.828.828 0 0 1-.309.06M242.992 88.944h-.017a.832.832 0 0 1-.815-.848c.015-.77.375-1.495.988-1.99a.832.832 0 1 1 1.045 1.294.951.951 0 0 0-.37.728.833.833 0 0 1-.831.816" fill="#000"/>
        <path d="M215.352 90.077a.83.83 0 0 1-.798-.6c-.143-.488-.494-.828-1.071-1.036a.831.831 0 1 1 .565-1.565c1.08.391 1.808 1.129 2.102 2.135a.83.83 0 0 1-.798 1.066M229.25 98.566h-.116c-1.39-.035-2.672-.668-3.348-1.657a.833.833 0 0 1 1.374-.939c.372.546 1.163.912 2.013.932.784.023 1.458-.257 1.835-.756a.83.83 0 0 1 1.165-.162.83.83 0 0 1 .161 1.165c-.683.905-1.803 1.417-3.085 1.417M229.801 93.113a.82.82 0 0 1-.127-.01l-2.703-.416a.832.832 0 0 1-.625-1.181l2.287-4.783a.832.832 0 0 1 1.501.719l-1.804 3.77 1.596.247a.832.832 0 0 1-.125 1.654" fill="#000"/>
        <path d="M127.053 307.925c2.606-2.856-1.056-7.64-.89-10.997.18-3.592 1.325-8.155-1.645-10.98-3.793-3.607-9.955 2.55-13.232 4.408 1.852 7.63.466 12.497-3.59 18.722.4-.615 7.523.083 8.365.081 3.225-.008 8.445 1.551 10.992-1.234" fill="#FFF"/>
        <path d="M116.086 308.327c.846 0 1.79.098 2.789.2 2.784.29 5.938.615 7.564-1.163 1.306-1.431.586-3.648-.177-5.994-.491-1.512-.999-3.076-.929-4.483.033-.663.098-1.36.165-2.073.288-3.063.585-6.23-1.553-8.264-2.287-2.174-5.74-.013-9.69 2.81-.716.513-1.402 1.004-2.021 1.396 1.635 7.278.244 12.057-2.876 17.239 1.107-.001 2.765.069 5.296.246.69.048 1.21.086 1.403.086h.03zm6.035 2.089c-1.164 0-2.337-.121-3.417-.233-.965-.1-1.88-.2-2.64-.192-.193-.01-.774-.038-1.526-.09-1.52-.108-5.486-.387-6.333-.165a.832.832 0 0 1-1.206-1.112c4.284-6.575 5.162-11.135 3.479-18.071a.831.831 0 0 1 .398-.92c.672-.381 1.517-.986 2.412-1.626 3.517-2.515 8.334-5.961 11.803-2.662 2.724 2.59 2.373 6.327 2.063 9.624-.065.688-.128 1.36-.16 2-.055 1.102.385 2.454.85 3.887.836 2.57 1.783 5.483-.176 7.63-1.408 1.539-3.46 1.93-5.547 1.93z" fill="#000"/>
        <path d="M103.875 307.423a25.79 25.79 0 0 0 5.61-4.483c.153-.16 2.49 1.32 2.542 1.765.09.767-1.676 1.88-2.191 2.252 3.216.304 6.368-.342 9.537-.842 3.364-.53 6.383-1.088 9.714-1.887.41.917 1.765 8.24.178 8.535-3.702.69-7.714.708-11.489.958-.188-2.763-.964-2.188-3.545-1.899-3.985.447-8.004.608-11.965 1.255-1.318.216-4.94 1.207-5.801.17-1.002-1.208.074-1.966 1.073-2.505 2.103-1.133 4.274-2.088 6.337-3.32" fill="#131313"/>
        <path d="M104.3 308.137c-1.283.766-2.616 1.432-3.904 2.076-.825.411-1.649.823-2.463 1.261-.88.475-1.017.737-1.034.828-.016.082.063.24.206.413.294.307 1.684.212 4.13-.286.353-.071.661-.134.897-.172 2.529-.414 5.108-.634 7.602-.847 1.446-.123 2.943-.25 4.404-.414.36-.04.682-.086.974-.128 1.083-.155 1.94-.275 2.61.268.466.377.685.957.8 1.706.736-.044 1.482-.08 2.23-.118 2.753-.135 5.598-.276 8.237-.756.25-.608.223-4.558-.43-6.76-2.804.652-5.56 1.178-9.057 1.729l-1.266.205c-2.746.451-5.584.918-8.479.643l-2.202-.208 2.034-1.463c.94-.65 1.353-1.03 1.521-1.249-.324-.287-.97-.724-1.4-.963a26.496 26.496 0 0 1-5.41 4.235zm12.704 6.469-.057-.828c-.08-1.156-.252-1.333-.272-1.35-.139-.081-.826.015-1.33.087-.304.043-.645.091-1.022.134-1.483.166-2.99.294-4.448.419-2.463.21-5.009.427-7.474.83-.22.037-.507.095-.834.161-2.577.524-4.788.866-5.742-.282-.487-.588-.676-1.19-.559-1.792.184-.948 1.052-1.53 1.878-1.975.83-.447 1.669-.866 2.509-1.286 1.26-.63 2.566-1.281 3.796-2.016a25.047 25.047 0 0 0 5.434-4.342c.15-.156.479-.386 1.025-.2.19.064 2.82 1.357 2.946 2.443.065.567-.233 1.092-.71 1.588 1.917-.055 3.83-.37 5.823-.696l1.276-.207c3.75-.591 6.635-1.152 9.65-1.875l.672-.16.281.63c.376.84 1.624 6.936.606 8.875-.3.572-.728.76-1.034.816-2.785.52-5.733.665-8.583.806-1.011.05-2.015.1-3.003.165l-.828.055z" fill="#131313"/>
        <path d="M144.064 306.674c-.592-1.899.005-4.72-.002-6.544-.006-1.629-.379-3.377-.502-5.021-.25-3.298-.955-7.382 1.731-9.935 3.793-3.607 9.955 2.55 13.232 4.409-1.851 7.63-.466 12.495 3.59 18.721-.4-.614-7.523.083-8.364.08-2.354-.003-4.696.436-7.055.294-1.527-.093-2.284-.89-2.63-2.004" fill="#FFF"/>
        <path d="M144.858 306.427c.29.933.855 1.358 1.887 1.42 1.28.076 2.546-.024 3.886-.131a48.604 48.604 0 0 1 3.119-.163h.003c.192 0 .712-.038 1.402-.087 2.53-.177 4.18-.253 5.297-.245-3.12-5.183-4.511-9.961-2.877-17.24-.62-.391-1.305-.882-2.022-1.394-3.948-2.824-7.402-4.983-9.689-2.81-2.11 2.005-1.833 5.145-1.566 8.181.032.37.064.734.091 1.088.048.637.133 1.283.225 1.968.135 1.024.276 2.084.28 3.112.002.619-.058 1.318-.123 2.058-.125 1.455-.268 3.104.087 4.243m2.82 3.11c-.343 0-.689-.009-1.034-.03-1.712-.103-2.88-.997-3.374-2.585-.453-1.451-.295-3.273-.156-4.88.06-.703.118-1.366.116-1.91-.003-.92-.137-1.927-.266-2.9-.09-.677-.183-1.377-.234-2.06a71.122 71.122 0 0 0-.09-1.068c-.273-3.107-.612-6.976 2.078-9.533 3.468-3.297 8.285.147 11.803 2.663.895.64 1.74 1.243 2.412 1.625a.833.833 0 0 1 .398.92c-1.683 6.935-.805 11.495 3.48 18.07a.831.831 0 0 1-1.207 1.113c-.848-.221-4.815.057-6.332.165-.753.052-1.34.099-1.525.09-.972 0-2 .08-2.983.157-1.008.081-2.042.163-3.087.163" fill="#000"/>
        <path d="M167.3 305.943a25.788 25.788 0 0 1-5.944-4.028c-.166-.147-2.38 1.513-2.396 1.96-.029.773 1.819 1.743 2.363 2.073-3.183.557-6.377.162-9.575-.087-3.395-.263-6.45-.582-9.832-1.115-.336.946-1.11 8.353.495 8.522 3.746.395 7.746.097 11.528.05-.03-2.77.79-2.259 3.386-2.173 4.007.13 8.026-.026 12.025.308.862.071 7.523.44 6.878-2.156-.012-.046-8.006-2.898-8.927-3.354" fill="#131313"/>
        <path d="M142.623 312.454c2.668.27 5.515.185 8.269.105.75-.023 1.496-.045 2.235-.06.055-.755.228-1.35.663-1.763.626-.595 1.488-.541 2.581-.473.294.018.62.039.981.05 1.47.048 2.972.058 4.424.066 2.503.016 5.09.032 7.643.245 2.05.171 5.23-.005 5.93-.775-.488-.182-1.24-.457-1.976-.726-3.185-1.164-5.87-2.151-6.44-2.434a26.547 26.547 0 0 1-5.726-3.796c-.41.272-1.02.758-1.32 1.07.185.206.627.551 1.616 1.126l2.145 1.297-2.182.382c-2.863.501-5.732.26-8.507.026l-1.276-.104c-3.523-.272-6.312-.579-9.164-1.01-.477 2.248-.192 6.187.104 6.774m4.223 1.848c-1.521 0-3.041-.05-4.522-.206-.31-.034-.751-.187-1.096-.733-1.168-1.853-.404-8.028-.095-8.896l.23-.65.683.107c3.067.484 5.988.815 9.766 1.108l1.286.105c2.014.169 3.949.332 5.863.234-.514-.456-.853-.955-.832-1.525.039-1.096 2.56-2.59 2.745-2.67.53-.226.876-.024 1.034.118a25.071 25.071 0 0 0 5.76 3.903h.001c.538.266 4.13 1.58 6.276 2.364 2.981 1.09 2.981 1.09 3.09 1.537.169.675.028 1.302-.405 1.812-1.502 1.763-6.385 1.452-7.349 1.372-2.488-.208-5.044-.224-7.515-.24a168.584 168.584 0 0 1-4.468-.066c-.38-.012-.722-.034-1.03-.053-.507-.032-1.203-.076-1.334.02-.017.017-.175.207-.163 1.366l.01.83-.832.01c-.99.012-1.996.042-3.008.072-1.352.04-2.724.08-4.095.08M128.734 296.67c-13.095 7.392-19.272-.39-19.272-.39l-1.311-120.492c.327-9.098-3.173-8.799 7.13-12.3 7.313-2.484 12.97 3.166 15.842 9.793 1.402-4.603 3.96-8.59 8.533-10.602 9.893-4.355 17.717 7.263 19.074 15.927.815 5.211.186 11.1.277 16.39.24 14.214.483 28.428.724 42.644.32 18.921.64 37.84.963 56.762-12.522 8.537-19.247 1.16-19.247 1.16l-8.866-86.904-3.847 88.012z" fill="#131313"/>
        <path d="m129.78 178.645 1.386 28.835s2.496-18.854 4.16-28.28" fill="#131313"/>
        <path d="M158.653 145.547c-.138-5.307-.455-10.574-.169-15.98.426-8.008-2.398-16.084-7.88-22.112-6.05-6.651-15.817-5.632-23.946-4.495-10.458 1.463-26.956.115-25.167 15.494.594 5.114 2.917 9.623 3.353 14.93.688 8.358.955 16.795 1.036 25.18.083 9.162-1.53 18.026-.967 27.205 11.392.665 22.781 3.333 34.09 1.302 1.483-.266 21.46-3.09 21.743-2.967-.16-.07-.595-12.173-.776-13.594-.696-5.436-1.653-10.879-1.37-16.382.15-2.89.127-5.74.053-8.581" fill="#131313"/>
        <path fill="#FFF" d="M131.443 148.703v37.984"/>
        <path d="M131.443 187.519a.832.832 0 0 1-.831-.832v-37.984a.832.832 0 0 1 1.663 0v37.984c0 .46-.373.832-.832.832" fill="#281000"/>
        <path d="M137.534 101.846c6.851.608 14.02 2.072 19.971 6.164 3.491 2.401 6.436 5.57 8.477 9.546 3.358 6.54 6.968 14.894 9.719 21.905 2.989 7.62 6.975 19.932.176 26.589-1.92 1.87-7.014 1.574-9.352 1.823-3.05.324-35.648 2.79-35.628 3.756-.103-1.77-.01-15.31-.57-15.405 2.293.39 30.115-4.829 30.044-5.016-2.883-7.54-5.996-15.047-8.911-22.6" fill="#131313"/>
        <path d="M118.967 104.342s12.2 46.024 13.308 44.36c1.109-1.663 13.586-45.47 13.586-45.47s-15.526-2.771-26.894 1.11" fill="#FFF"/>
        <path d="M119.972 104.889c3.853 14.498 9.947 36.43 12.133 41.989 1.963-5.743 8.306-27.563 12.699-42.97-3.377-.492-15.45-1.937-24.832.98m12.235 44.69c-.05 0-.1-.003-.15-.012-.758-.125-1.474-.244-7.85-22.892a1743.615 1743.615 0 0 1-6.045-22.119.832.832 0 0 1 .536-1c11.44-3.907 26.667-1.257 27.31-1.142a.833.833 0 0 1 .653 1.047c-2.09 7.337-12.57 44.018-13.694 45.704a.91.91 0 0 1-.76.415" fill="#281000"/>
        <path fill="#FFDB00" d="m132.275 108.085-4.159 6.654 3.327 3.743-4.159 15.803 4.16 14.417 5.822-16.08-4.16-14.556 3.744-3.743z"/>
        <path d="m128.147 134.275 3.386 11.737 4.86-13.42-4.086-14.298a.832.832 0 0 1 .212-.817l3.238-3.238-3.427-4.673-3.178 5.085 2.913 3.278a.831.831 0 0 1 .183.765l-4.1 15.581zm3.296 15.26-.027-.001a.832.832 0 0 1-.772-.6l-4.159-14.418a.833.833 0 0 1-.005-.442l4.045-15.373-3.03-3.41a.833.833 0 0 1-.084-.993l4.159-6.654a.831.831 0 0 1 1.376-.051l4.575 6.238a.832.832 0 0 1-.083 1.08l-3.397 3.397 4.024 14.085a.83.83 0 0 1-.017.512l-5.823 16.08a.832.832 0 0 1-.782.55z" fill="#000"/>
        <path d="M96.035 119.874c-2.373-.755-2.538-4.266-2.973-6.179-.236-1.033-.61-.964-1.473-1.304-1.58-.622-3.803-1.157-4.912-2.528-1.181-1.46-1.448-3.417-1.519-5.23-.098-2.556.057-4.959 2.03-6.774 1.71-1.574 3.837-1.874 4.45-4.508.39-1.674-.196-3.605-.022-5.337.112-1.118.59-2.942 2.045-2.756 1.853.236 1.542 3.543 1.682 4.86.416 3.865 1.78 6.934 3.035 10.532 1.028 2.945 1.886 5.929 2.89 8.875.545 1.6 1.4 3.974.28 5.519-1.394 1.922-3.629 3.427-5.513 4.83" fill="#FFF"/>
        <path d="M93.459 86.077a.474.474 0 0 0-.311.109c-.338.268-.615 1.019-.705 1.911-.068.681-.004 1.417.064 2.196.094 1.07.19 2.177-.059 3.247-.495 2.128-1.829 2.972-3.117 3.79-.536.34-1.09.69-1.58 1.14-1.607 1.48-1.865 3.444-1.761 6.131.059 1.51.263 3.415 1.334 4.739.734.91 2.209 1.43 3.51 1.89.37.13.73.257 1.06.387.136.054.26.097.37.135.767.265 1.332.546 1.61 1.758.076.339.145.725.218 1.135.287 1.613.639 3.586 1.833 4.277l.375-.277c1.691-1.241 3.44-2.525 4.574-4.09.838-1.154.152-3.164-.35-4.632l-.044-.13a191.385 191.385 0 0 1-1.34-4.134c-.49-1.557-1-3.168-1.547-4.735-.244-.699-.492-1.378-.736-2.046-1.026-2.808-1.995-5.46-2.34-8.67-.03-.264-.04-.599-.053-.974-.039-1.14-.103-3.048-.908-3.15a.809.809 0 0 0-.097-.007m2.576 34.629a.847.847 0 0 1-.252-.04c-2.447-.778-2.957-3.64-3.329-5.729a23.607 23.607 0 0 0-.204-1.057c-.092-.405-.092-.405-.529-.556a8.944 8.944 0 0 1-.436-.16c-.314-.122-.653-.242-1.004-.366-1.51-.533-3.22-1.137-4.251-2.412-1.378-1.704-1.634-3.953-1.703-5.72-.096-2.479-.005-5.3 2.297-7.419.6-.551 1.218-.944 1.816-1.322 1.144-.725 2.047-1.298 2.388-2.762.19-.812.108-1.741.023-2.724-.073-.822-.147-1.672-.063-2.508.082-.81.362-2.283 1.325-3.048a2.153 2.153 0 0 1 1.655-.45c2.208.281 2.302 3.076 2.358 4.745.011.328.02.623.045.851.323 3.01 1.258 5.569 2.249 8.279.247.675.497 1.362.744 2.068a168.946 168.946 0 0 1 1.563 4.782c.432 1.37.865 2.739 1.328 4.1l.044.127c.583 1.711 1.465 4.295.122 6.147-1.288 1.775-3.226 3.198-4.936 4.454l-.753.555a.83.83 0 0 1-.497.165" fill="#000"/>
        <path d="M92.076 91.482c.536.108 1.204.072 1.563-.082" fill="#FFF"/>
        <path d="M92.744 92.376c-.3 0-.589-.03-.832-.079a.832.832 0 1 1 .33-1.63c.418.084.904.04 1.069-.032a.831.831 0 1 1 .656 1.53c-.353.15-.797.211-1.223.211" fill="#000"/>
        <path d="M88.59 97.538c1.46-.621 10.258 1.033 7.712 2.97-1.33 1.01-5.212-.36-6.913-.144" fill="#FFF"/>
        <path d="M94.712 101.715c-.863 0-1.829-.15-2.777-.298-.934-.146-1.899-.296-2.44-.227a.833.833 0 0 1-.21-1.651c.771-.1 1.807.063 2.905.234 1.225.19 3.076.479 3.61.073.028-.021.051-.04.07-.057-.778-.767-5.705-1.986-6.955-1.485a.841.841 0 0 1-1.086-.454.823.823 0 0 1 .436-1.078c1.458-.62 7.995.343 9.12 2.28.16.273.585 1.232-.578 2.119-.537.406-1.27.544-2.095.544" fill="#000"/>
        <path d="M95.48 100.807c3.942 3.151-4.693 2.01-5.836 2.441" fill="#FFF"/>
        <path d="M89.684 104.065a.845.845 0 0 1-.805-.56c-.142-.424.053-.878.472-1.035.428-.162 1.134-.171 2.449-.174.945-.003 3.026-.008 3.76-.273a3.911 3.911 0 0 0-.6-.566.833.833 0 0 1 1.038-1.3c.451.361 1.65 1.318 1.264 2.423-.444 1.271-2.45 1.372-5.458 1.38-.696 0-1.65.003-1.878.07a.864.864 0 0 1-.242.035z" fill="#000"/>
        <path d="M95.676 103.148c2.796 3.087-4.637 2.983-6.187 3.248" fill="#FFF"/>
        <path d="M89.488 107.228a.832.832 0 0 1-.14-1.652c.304-.052.751-.086 1.318-.131 3.735-.294 4.672-.739 4.8-1.06.01-.027-.019-.25-.406-.679a.832.832 0 0 1 1.233-1.117c.773.854 1.014 1.665.718 2.41-.613 1.543-3.177 1.865-6.216 2.104-.502.04-.937.073-1.167.113a.808.808 0 0 1-.14.012" fill="#000"/>
        <path d="M95.705 105.453c.606 1.313.005 2.373-1.32 2.85-.96.345-3.417 1.04-4.098.918" fill="#FFF"/>
        <path d="M90.459 110.064c-.12 0-.226-.007-.319-.024a.831.831 0 1 1 .294-1.638c.44.053 2.51-.465 3.67-.882.478-.172.811-.436.94-.742.112-.269.08-.597-.094-.976a.831.831 0 1 1 1.51-.697c.374.807.414 1.608.118 2.315-.314.753-.975 1.329-1.911 1.665-.031.011-2.866.98-4.208.98" fill="#000"/>
        <path d="M96.175 105.731c-.35 1.001.191 2.315 1.172 2.732" fill="#FFF"/>
        <path d="M97.346 109.295a.83.83 0 0 1-.324-.067c-1.368-.58-2.13-2.342-1.633-3.771a.833.833 0 0 1 1.572.548c-.21.6.15 1.453.71 1.692a.832.832 0 0 1-.325 1.598" fill="#000"/>
        <path d="M97.801 145.008c-.938-4.442-1.66-8.914-2.663-13.6-.21-.982-3.47-16.107-3.147-16.176 1.343-.287 11.51-4.445 12.01-3.377 4.6 11.548 9.723 22.85 13.52 34.797 2.001 6.302-.908 16.419-7.15 16.98-5.307.475-8.092-3.434-9.784-8.305-1.21-3.48-2.061-6.891-2.786-10.319" fill="#131313"/>
        <path d="M138.513 95.608v7.486a6.654 6.654 0 0 1-13.308 0v-7.486" fill="#FFF"/>
        <path d="M131.86 110.58c-4.128 0-7.487-3.359-7.487-7.486v-7.486a.832.832 0 0 1 1.664 0v7.486a5.829 5.829 0 0 0 5.822 5.822 5.829 5.829 0 0 0 5.823-5.822v-7.486a.832.832 0 0 1 1.663 0v7.486c0 4.127-3.359 7.486-7.486 7.486" fill="#000"/>
        <path d="M135.913 97.254c6.182-1.87 10.656-7.958 10.537-15.103l-.142-8.78c-.097-5.878-3.272-10.937-7.867-13.476" fill="#FFF"/>
        <path d="M135.912 98.087a.833.833 0 0 1-.24-1.629c5.965-1.804 10.056-7.682 9.947-14.293l-.142-8.782c-.09-5.385-2.94-10.275-7.439-12.76a.83.83 0 1 1 .804-1.457c5.02 2.774 8.199 8.21 8.298 14.19l.143 8.782c.12 7.35-4.456 13.894-11.13 15.913a.84.84 0 0 1-.24.036" fill="#000"/>
        <path d="M128.915 97.52c-6.526-1.446-11.483-7.527-11.604-14.891l-.143-8.782c-.145-8.884 7.543-17.038 16.709-15.714 4.002.578 6.125 3.302 8.795 5.868l4.62 13.447" fill="#FFF"/>
        <path d="M128.915 98.351a.832.832 0 0 1-.18-.02c-7.09-1.57-12.13-8.02-12.256-15.688l-.143-8.796c-.08-4.816 2.07-9.632 5.75-12.872 3.39-2.982 7.618-4.286 11.91-3.665 3.677.53 5.924 2.778 8.096 4.95.379.379.761.762 1.157 1.14a.832.832 0 0 1 .21.33l4.62 13.448a.833.833 0 0 1-1.574.54L141.95 64.46c-.35-.34-.694-.684-1.034-1.023-2.16-2.162-4.028-4.029-7.158-4.481-3.8-.548-7.555.612-10.573 3.268-3.317 2.922-5.256 7.261-5.186 11.609l.143 8.783c.112 6.784 4.718 12.71 10.952 14.09a.833.833 0 0 1-.179 1.645" fill="#000"/>
        <path d="M139.76 80.844c0 1.158-.558 2.096-1.246 2.096s-1.247-.938-1.247-2.096c0-1.158.559-2.096 1.247-2.096.688 0 1.246.938 1.246 2.096M127.072 80.844c0 1.158-.558 2.096-1.246 2.096-.687 0-1.246-.938-1.246-2.096 0-1.158.559-2.096 1.246-2.096.688 0 1.246.938 1.246 2.096M139.105 75.72a.84.84 0 0 1-.238-.035 11.596 11.596 0 0 0-2.114-.423.832.832 0 0 1 .172-1.655c.813.085 1.626.247 2.417.483a.832.832 0 0 1-.237 1.63M124.832 76.173a.833.833 0 0 1-.31-1.604c.896-.36 1.822-.33 2.719-.3.253.007.507.016.755.013h.008a.83.83 0 0 1 .006 1.664c-.273 0-.547-.006-.822-.015-.758-.025-1.475-.047-2.046.182a.828.828 0 0 1-.31.06M131.724 91.496h-.115c-1.39-.035-2.672-.669-3.348-1.657a.833.833 0 0 1 1.374-.939c.373.546 1.163.912 2.014.932.784.018 1.457-.257 1.835-.756a.83.83 0 0 1 1.164-.162.83.83 0 0 1 .161 1.165c-.682.905-1.803 1.417-3.085 1.417M132.484 86.459a.82.82 0 0 1-.127-.01l-2.703-.416a.832.832 0 0 1-.625-1.181l2.287-4.783a.833.833 0 0 1 1.502.719l-1.804 3.77 1.595.247a.832.832 0 0 1-.125 1.654" fill="#000"/>
        <path d="M118.214 61.798c-1.367 1.807-2.708 3.527-2.38 5.992.452 3.373-.843 6.35-.576 9.55.045.53.132 1.066.278 1.611.628-.105 1.206-.25 1.843-.098.062-1.684 1.113-3.482 1.991-4.908.972-1.581 2.432-3.142 4.373-3.389 2.681-.339 5.334.433 8.024-.379 1.97-.595 4.48-.894 6.038-2.344-2.854 2.659 1.647 4.935 3.65 6.058 2.507 1.406 3.775 3.404 4.517 6.12 1.098-.577 1.418-1.615 2.802-1.268-.592-.148.084-6.756.074-7.411-.063-4.342-1.177-8.911-5.529-10.805-.558-.241-1.525-.406-1.999-.719-.869-.576-.524-.649-1.083-1.635-1.301-2.284-4.07-2.771-6.457-3.06-4.425-.537-9.528.875-12.964 3.733-3.216 2.677-6.89 7.782-5.935 12.165.387 1.783 1.958 4.061 1.858 5.821" fill="#131313"/>
        <path d="M127.263 67.166c-1.736.721-3.429 1.628-4.914 2.79-.677.529-1.538 1.165-1.991 1.914-.105.173-.647 1.712-.546 1.684 2.204-.634 4.02-2.3 6.204-2.966-1.143.798-2.12 2.488-2.575 3.852 1.953-1.026 5.234-2.772 6.483-4.602-.812 1.19-.707 2.388-1.08 3.678.049-.166 1.594-.96 1.834-1.106.688-.419 1.346-.718 1.95-1.282.974-.904 2.287-1.795 2.918-2.988-.02.953-.574 1.93-.35 2.918 1.38-.51 3.022-3.743 3.226-5.175" fill="#131313"/>
        <path d="M145.336 77.67c1.175-2.185 4.05-.499 4.091 1.454.05 2.538-1.555 5.11-4.271 4.889" fill="#FFF"/>
        <path d="M145.484 84.858c-.13 0-.262-.005-.396-.017a.831.831 0 1 1 .136-1.658c.819.065 1.532-.18 2.121-.733.797-.749 1.276-2.017 1.25-3.31-.014-.692-.67-1.456-1.406-1.632-.49-.119-.856.064-1.12.557a.832.832 0 0 1-1.465-.788c.625-1.165 1.737-1.684 2.974-1.387 1.473.355 2.65 1.768 2.681 3.217.036 1.775-.628 3.477-1.774 4.555a4.295 4.295 0 0 1-3.001 1.196" fill="#000"/>
        <path d="M145.675 82.29h-.017a.832.832 0 0 1-.815-.848c.015-.77.375-1.495.988-1.99a.833.833 0 0 1 1.046 1.294.951.951 0 0 0-.37.728.833.833 0 0 1-.832.815" fill="#000"/>
        <path d="M118.492 78.35c-1.174-2.186-4.05-.499-4.09 1.454-.05 2.538 1.555 5.11 4.27 4.888" fill="#FFF"/>
        <path d="M118.345 85.537a4.29 4.29 0 0 1-3-1.194c-1.147-1.078-1.81-2.781-1.775-4.556.03-1.45 1.208-2.862 2.681-3.217 1.236-.297 2.348.22 2.974 1.387a.833.833 0 0 1-1.465.787c-.265-.493-.63-.675-1.12-.557-.735.178-1.392.94-1.406 1.634-.026 1.292.453 2.56 1.25 3.31.588.553 1.302.801 2.12.732a.83.83 0 1 1 .137 1.657 4.575 4.575 0 0 1-.396.017" fill="#000"/>
        <path d="M118.045 83.412a.831.831 0 0 1-.794-.588c-.15-.487-.505-.822-1.085-1.023a.83.83 0 1 1 .544-1.572c1.086.375 1.823 1.104 2.13 2.106a.83.83 0 0 1-.795 1.077" fill="#000"/>
        <path fill="#FFF" d="m140.82 101.014-8.129 6.655 4.16 6.654 8.317-10.397z"/>
        <path d="m133.784 107.849 3.15 5.038 7.019-8.774-3.084-2.064-7.085 5.8zm3.066 7.306a.834.834 0 0 1-.706-.392l-4.159-6.654a.832.832 0 0 1 .179-1.084l8.129-6.654a.833.833 0 0 1 .989-.047l4.348 2.91a.829.829 0 0 1 .187 1.21l-8.318 10.398a.831.831 0 0 1-.649.313z" fill="#000"/>
        <path fill="#FFF" d="m124.147 101.43 8.128 6.655-4.16 6.654-8.317-10.397z"/>
        <path d="m121.014 104.529 7.018 8.774 3.15-5.039-7.085-5.799-3.083 2.064zm7.102 11.041a.83.83 0 0 1-.65-.312l-8.317-10.397a.828.828 0 0 1 .187-1.21l4.348-2.912a.835.835 0 0 1 .99.048l8.128 6.654c.324.265.4.73.178 1.084l-4.158 6.655a.832.832 0 0 1-.706.39z" fill="#000"/>
        <path d="M114.853 167.83c-2.556-.386-8.761-1.76-9.63-4.803-1.166-4.087 4.27-1.397 6.504-1.114 3.484.441 7.225-.216 10.007-2.468-2.621 2.123-8.823-3.832-2.658-4.243 2.72-.18 5.422.335 8.067.9 1.44.31 2.69.643 4.098 1.094-.286.904-.235 7.764-.427 7.829-5.114 1.725-10.412 3.644-15.961 2.805" fill="#FFF"/>
        <path d="M114.977 167.008c5.104.772 10.078-.912 14.888-2.54l.201-.068c.034-.58.06-1.65.084-2.551.047-1.85.087-3.218.165-4.071a39.865 39.865 0 0 0-3.347-.862c-2.64-.565-5.229-1.057-7.837-.884-1.265.084-1.79.412-1.855.666-.098.38.417 1.186 1.342 1.78.767.493 1.908.874 2.59.322h.002a.833.833 0 0 1 1.047 1.293c-2.709 2.193-6.582 3.156-10.635 2.646-.584-.074-1.317-.282-2.092-.502-1.03-.292-3.173-.9-3.571-.503-.064.065-.134.37.064 1.064.589 2.062 4.921 3.601 8.954 4.21m2.644 1.858c-.954 0-1.918-.066-2.893-.213-2.148-.325-9.242-1.673-10.305-5.398-.344-1.206-.223-2.113.359-2.697 1.088-1.09 3.18-.495 5.203.079.712.202 1.386.393 1.846.451 2.414.305 4.743.031 6.728-.757a6.037 6.037 0 0 1-.841-.454c-1.272-.817-2.4-2.246-2.053-3.594.202-.783.948-1.75 3.355-1.91 2.824-.188 5.647.349 8.297.916 1.459.312 2.747.657 4.178 1.115.436.14.677.606.539 1.043-.12.425-.183 2.941-.221 4.443-.093 3.707-.093 3.707-.733 3.923l-.682.231c-4.113 1.392-8.342 2.822-12.777 2.822" fill="#000"/>
        <path d="M28.89 146.06a2.08 2.08 0 1 1-4.084.787 2.08 2.08 0 0 1 4.084-.787" fill="#FFF"/>
        <path d="M26.848 145.206a1.251 1.251 0 0 0-1.226 1.485c.063.326.25.61.527.796.276.187.608.255.934.192.328-.064.612-.25.798-.526.187-.276.255-.609.192-.936a1.252 1.252 0 0 0-1.225-1.011m-.007 4.16c-.575 0-1.137-.171-1.624-.5a2.895 2.895 0 0 1-1.229-1.86 2.917 2.917 0 0 1 2.308-3.411 2.92 2.92 0 0 1 3.41 2.307 2.89 2.89 0 0 1-.447 2.183 2.89 2.89 0 0 1-1.86 1.227 2.962 2.962 0 0 1-.558.053M38.31 152.794a3.743 3.743 0 1 1-7.352 1.418 3.743 3.743 0 0 1 7.352-1.418" fill="#000"/>
        <path d="M34.642 150.592a2.915 2.915 0 0 0-2.865 3.464 2.886 2.886 0 0 0 1.226 1.859 2.9 2.9 0 0 0 2.184.447 2.915 2.915 0 0 0 2.307-3.41 2.897 2.897 0 0 0-1.228-1.86c-.487-.33-1.05-.5-1.624-.5m-.017 7.488a4.54 4.54 0 0 1-2.553-.787 4.54 4.54 0 0 1-1.93-2.922 4.582 4.582 0 0 1 3.626-5.359 4.55 4.55 0 0 1 3.43.702 4.55 4.55 0 0 1 1.93 2.922 4.581 4.581 0 0 1-4.503 5.444" fill="#000"/>
        <path fill="#131313" d="m341.538 163.901-9.98 10.813M320.744 154.751a3.744 3.744 0 1 1-7.488-.001 3.744 3.744 0 0 1 7.488.001"/>
        <path d="M317 151.84a2.914 2.914 0 0 0-2.91 2.911 2.914 2.914 0 0 0 2.91 2.911 2.914 2.914 0 0 0 2.912-2.91A2.914 2.914 0 0 0 317 151.84m0 7.486a4.58 4.58 0 0 1-4.575-4.575 4.58 4.58 0 0 1 4.575-4.575 4.58 4.58 0 0 1 4.574 4.575 4.58 4.58 0 0 1-4.574 4.575" fill="#000"/>
        <path fill="#131313" d="m257.318 79.666.554-10.536"/>
        <path d="m257.318 80.498-.044-.001a.832.832 0 0 1-.787-.875l.554-10.536a.84.84 0 0 1 .875-.787c.459.024.81.416.786.875l-.553 10.536a.832.832 0 0 1-.83.788" fill="#000"/>
        <path fill="#131313" d="m261.2 81.884 6.098-6.654"/>
        <path d="M261.199 82.716a.831.831 0 0 1-.613-1.394l6.1-6.655a.832.832 0 0 1 1.226 1.125l-6.1 6.654a.83.83 0 0 1-.613.27" fill="#000"/>
        <path fill="#131313" d="m248.445 75.784 4.991 5.545"/>
        <path d="M253.436 82.161a.832.832 0 0 1-.619-.275l-4.99-5.546a.831.831 0 0 1 1.237-1.112l4.99 5.545a.831.831 0 0 1-.618 1.388M92.073 77.448l.555-10.536M92.074 78.28l-.045-.001a.832.832 0 0 1-.787-.875l.555-10.536a.839.839 0 0 1 .874-.787c.46.024.811.416.787.875l-.554 10.536a.832.832 0 0 1-.83.788M95.955 79.666l6.1-6.654M95.954 80.498a.831.831 0 0 1-.613-1.394l6.1-6.655a.831.831 0 1 1 1.226 1.125l-6.099 6.654a.83.83 0 0 1-.614.27M83.201 73.566l4.99 5.546M88.192 79.943a.832.832 0 0 1-.619-.275l-4.99-5.545a.831.831 0 0 1 1.236-1.113l4.99 5.545a.831.831 0 0 1-.617 1.388" fill="#000"/>
        <g fill="#131313">
            <path d="M118.673 61.388c-1.459 1.115-2.48 2.559-3.067 4.33-.879 2.656-.18 8.065.728 9.494.605.953 2.165-.98 4.68-5.798V62.78l-2.341-1.393z"/>
        </g>
    </g>
</svg>
