<svg width="360" height="326" xmlns="http://www.w3.org/2000/svg" xmlns:xlink="http://www.w3.org/1999/xlink">
    <defs>
        <path id="a" d="M0 0h26.484v22.407H0z"/>
    </defs>
    <g fill="none" fill-rule="evenodd">
        <path d="M259.898 71c0 3.046-.094 6.137.061 9.16 1.855-.533 6.079.526 7.47-.733 2.31-2.091.118-8.077 2.07-10.827" fill="#FFF"/>
        <path d="M259.959 80.96a.801.801 0 0 1-.8-.76c-.113-2.217-.094-4.492-.074-6.692a292.1 292.1 0 0 0 .013-2.508.8.8 0 0 1 1.6 0c0 .838-.006 1.68-.014 2.522-.015 1.88-.032 3.815.036 5.705.7-.055 1.505-.024 2.34.01 1.447.057 3.246.127 3.833-.403.936-.847.919-2.87.903-4.827-.017-2.134-.035-4.341 1.05-5.87a.8.8 0 0 1 1.305.926c-.786 1.108-.77 3.05-.755 4.93.019 2.31.038 4.698-1.43 6.027-1.07.97-3.052.892-4.969.815-1.076-.043-2.19-.086-2.817.094a.8.8 0 0 1-.221.031" fill="#000"/>
        <path d="M119.44 225.782a.798.798 0 0 1-.442-.134c-13.735-9.141-27.496-22.152-36.812-34.803-12.325-16.74-17.114-32.823-13.85-46.513 2.512-10.512 8.315-19.68 16.788-26.543 16.97-13.745 40.903-11.644 57.99-7.46 22.334 5.467 43.229 16.867 55.337 25.711a.801.801 0 0 1-.944 1.292c-29.248-21.368-83.139-41.172-111.376-18.3-8.196 6.64-13.81 15.506-16.23 25.64-7.006 29.375 26.054 63.719 49.983 79.644a.8.8 0 0 1-.444 1.466M290.566 279.872c-21.186 0-41.335-6.05-54.684-16.563a.799.799 0 1 1 .99-1.257c14.124 11.124 36.076 17.14 58.727 16.104 14.584-.67 27.273-7.301 33.947-17.74 5.902-9.232 6.55-20.692 1.828-32.268-6.61-16.203-20.868-31.48-42.378-45.406-20.524-13.288-42.694-22.18-57.678-27.3a.8.8 0 0 1 .518-1.513c15.068 5.148 37.368 14.093 58.03 27.47 21.79 14.107 36.253 29.633 42.989 46.144 4.925 12.072 4.228 24.052-1.961 33.734-6.953 10.877-20.12 17.784-35.222 18.478-1.706.077-3.41.117-5.106.117" fill="#FFE000"/>
        <path d="M272.666 154.2h-8.259c-.391 0-.746-1.05-1.01-1.302-.863-.416-1.477-1.874-1.991-2.652-.55-.83-.85-1.995-.85-2.992 0-2.947 2.551-5.43 5.7-5.43.56 0 1.1.032 1.61.174.484-4.207 4.054-7.496 8.39-7.496a8.433 8.433 0 0 1 7.655 4.868 3.976 3.976 0 0 1 1.982-.534 3.988 3.988 0 0 1 3.925 4.697 4.5 4.5 0 0 1 5.972 4.262c0 2.255-1.656 5.02-3.818 5.352-.198.1-.42 1.053-.656 1.053h-18.65z" fill="#CCC"/>
        <path d="M264.643 153.4h26.28l.036-.087c.157-.363.306-.706.653-.88a.785.785 0 0 1 .239-.077c1.739-.267 3.139-2.714 3.139-4.56a3.713 3.713 0 0 0-3.708-3.71c-.407 0-.811.07-1.203.204a.8.8 0 0 1-1.048-.897 3.193 3.193 0 0 0-3.138-3.757c-.549 0-1.096.148-1.583.428a.803.803 0 0 1-1.123-.356 7.67 7.67 0 0 0-6.93-4.406 7.65 7.65 0 0 0-7.595 6.787.802.802 0 0 1-1.01.679c-.454-.126-.961-.143-1.397-.143-2.656 0-4.9 2.12-4.9 4.63 0 .889.282 1.89.718 2.549.14.211.286.468.44.742.344.603.813 1.43 1.232 1.632a.804.804 0 0 1 .205.141c.185.177.316.415.468.692.057.106.15.275.225.389m26.673 1.6h-26.909c-.723 0-1.094-.676-1.392-1.218-.052-.096-.1-.188-.144-.26-.77-.461-1.288-1.375-1.748-2.187-.136-.239-.263-.465-.384-.649-.607-.916-.984-2.232-.984-3.432 0-3.435 2.916-6.23 6.5-6.23.294 0 .617.008.952.042.886-4.252 4.637-7.364 9.05-7.364a9.284 9.284 0 0 1 8.011 4.623 4.748 4.748 0 0 1 1.625-.289 4.795 4.795 0 0 1 4.78 4.486 5.314 5.314 0 0 1 5.917 5.273c0 2.456-1.676 5.438-4.126 6.067l-.037.088c-.192.443-.456 1.05-1.11 1.05" fill="#000"/>
        <path d="M268.684 79.041c-3.791-1.239-11.407-3.468-11.354-3.724-.953 4.13-2.14 8.49-3.352 12.601-.833 2.828-2.29 8.077-5.7 8.856-5.602 1.282-14.372-5.588-20.158-6.357-4.955-.66-7.34 4.342-7.307 8.58.05 5.978 4.413 9.276 9.633 10.977 8.827 2.878 24.55 7.505 31.219-2.125 2.27-3.28 3.5-7.201 4.623-10.99.305-1.03 5.325-16.6 4.392-17.095-.252-.135-.989-.394-1.996-.723" fill="#131313"/>
        <path fill="#FFE000" d="M285.765 205.736 170.06 233.19 53.498 207.453l87.584 65.257h55.383z"/>
        <path d="M141.347 271.91h54.85l86.014-64.508-111.966 26.566a.817.817 0 0 1-.357.003L56.964 209.037l84.383 62.874zm55.118 1.6h-55.384a.798.798 0 0 1-.477-.158L53.02 208.094a.8.8 0 0 1 .65-1.423l116.384 25.698 115.526-27.411a.801.801 0 0 1 .665 1.418l-89.3 66.975a.8.8 0 0 1-.48.16z" fill="#000"/>
        <path fill="#FFE000" d="m215.785 237.291-44.436-56.67-41.215 59.246 39.283 28.336z"/>
        <path d="m131.24 239.678 38.195 27.55 45.187-30.123-43.234-55.14-40.148 57.713zm38.177 29.324a.796.796 0 0 1-.468-.15l-39.283-28.336a.8.8 0 0 1-.189-1.106l41.216-59.248a.802.802 0 0 1 1.286-.036l44.436 56.672a.8.8 0 0 1-.186 1.159l-46.368 30.911a.792.792 0 0 1-.444.134z" fill="#000"/>
        <path fill="#FFE000" d="m173.925 257.899-2.576-77.28-3.22 76.636"/>
        <path d="M173.925 258.699a.8.8 0 0 1-.8-.774l-1.868-56.055-2.328 55.418a.8.8 0 1 1-1.598-.067l3.22-76.635a.8.8 0 0 1 .798-.766h.004a.8.8 0 0 1 .796.773l2.576 77.28a.8.8 0 0 1-.773.826h-.027" fill="#000"/>
        <path d="M212.775 237.384c-1.106 4.983 2.413 8.266 4.832 12.02-4.85-.35-10.125-.676-14.78-1.346.264-2.962-.27-8.098 1.196-10.455" fill="#FFF"/>
        <path d="m217.607 250.204-.058-.002-1.756-.126c-4.402-.31-8.953-.632-13.08-1.226a.8.8 0 0 1-.683-.863c.074-.82.083-1.837.094-2.914.026-2.822.057-6.022 1.218-7.892a.8.8 0 1 1 1.36.844c-.925 1.49-.955 4.58-.978 7.064a62.123 62.123 0 0 1-.05 2.28c3.875.52 8.12.82 12.231 1.111l.11.008c-.191-.27-.385-.538-.575-.803-2.168-3.012-4.411-6.126-3.447-10.474a.8.8 0 0 1 1.562.347c-.809 3.648 1.13 6.34 3.183 9.192a53.157 53.157 0 0 1 1.542 2.22.801.801 0 0 1-.673 1.234" fill="#000"/>
        <path d="M219.78 248.949c-.998-.611-1.583-1.159-2.344-1.92-.734-.731-1.562-1.42-2.369-1.598l.004.1c.049 1.296 1.02 1.953 1.885 2.875-.314-.335-1.806-.418-2.23-.519-1.77-.415-3.548-.829-5.32-1.244-1.834-.43-5.827-.591-7.058-2.122-.218.519-.792 4.876-.162 5.041 1.972.52 3.928 1.208 5.87 1.852 1.589.524 2.078.084 2.437-.894.744.138 1.492.269 2.238.409l10.175 1.906.634-1.58c.038-.098-3.523-2.161-3.76-2.306" fill="#131313"/>
        <path d="M230.137 162.547c-1.752 10.797-4.467 24.372-6.072 35.103-2.343 15.673-6.054 29.41-9.084 45.247l-13.824-.622 3.034-66.606c.265-5.85-2.203-12.589-2.367-18.607-.105-3.83-.772-10.962 1.465-14.17 2.202-3.16 7.036-2.03 11.134-3.353 6.225-2.009 12.16-8.519 19.68-5.759 6.914 2.542 3.628 7.799 1.63 12.444" fill="#FFF"/>
        <path d="M214.982 243.698h-.036l-13.825-.624a.803.803 0 0 1-.763-.836c3.034-66.628 3.034-66.628 3.038-66.657.136-3.024-.527-6.469-1.166-9.8-.555-2.889-1.129-5.875-1.206-8.697-.014-.51-.038-1.078-.064-1.687-.177-4.205-.42-9.963 1.672-12.963 1.628-2.333 4.459-2.624 7.198-2.906 1.458-.15 2.966-.305 4.348-.75 1.883-.608 3.738-1.644 5.704-2.742 4.424-2.47 8.998-5.022 14.497-3.006 2.252.828 3.663 1.984 4.313 3.534 1.095 2.613-.272 5.637-1.595 8.562-.215.475-.429.948-.63 1.414a.799.799 0 1 1-1.468-.632c.204-.476.421-.957.64-1.442 1.181-2.612 2.403-5.313 1.577-7.284-.468-1.117-1.577-1.984-3.39-2.65-4.806-1.765-9.055.607-13.164 2.9-1.946 1.088-3.96 2.212-5.993 2.868-1.541.498-3.135.662-4.676.82-2.597.266-4.84.498-6.048 2.229-1.783 2.557-1.545 8.228-1.386 11.98.026.618.05 1.195.065 1.711.073 2.691.634 5.614 1.177 8.44.658 3.422 1.337 6.96 1.189 10.226l-2.997 65.806 12.334.555c1.145-5.93 2.392-11.613 3.6-17.117 2.016-9.19 3.92-17.872 5.346-27.418.908-6.066 2.179-13.094 3.408-19.89.979-5.412 1.903-10.524 2.666-15.224a.801.801 0 0 1 1.58.257c-.766 4.714-1.735 10.07-2.671 15.251-1.228 6.785-2.496 13.801-3.4 19.843-1.435 9.6-3.344 18.305-5.367 27.524-1.251 5.704-2.545 11.601-3.721 17.755a.8.8 0 0 1-.786.65" fill="#000"/>
        <path fill="#FFE000" d="m285.765 205.736-51.09 84.578H104.158l-50.661-82.861 117.206 48.514z"/>
        <path d="M104.607 289.514h129.616l49.556-82.038L171.024 256.7a.801.801 0 0 1-.625.006L55.462 209.13l49.145 80.383zm130.068 1.6H104.159a.8.8 0 0 1-.683-.384l-50.66-82.86a.8.8 0 0 1 .987-1.156l116.893 48.384 114.749-50.096a.802.802 0 0 1 1.005 1.148l-51.09 84.577a.8.8 0 0 1-.685.387z" fill="#000"/>
        <path fill="#FFE000" d="m234.675 290.314-63.97-34.348-66.546 34.348"/>
        <path d="M104.16 291.114a.8.8 0 0 1-.367-1.512l66.544-34.346a.798.798 0 0 1 .746.006l63.97 34.347a.8.8 0 1 1-.757 1.41l-63.6-34.149-66.17 34.155a.805.805 0 0 1-.366.089" fill="#000"/>
        <path d="M265.428 210.97c-1.312-3.102-1.25-6.254-2.001-9.444-.48-2.034-2.053-4.519-1.012-6.659 1.616-3.325 7.216-.778 9.843-.36.664 5.504 2.786 8.38 7.009 11.493-1.094.515-13.725 5.238-13.839 4.97" fill="#FFF"/>
        <path d="M265.607 193.98c-1.156 0-2.032.33-2.472 1.236-.61 1.254-.054 2.798.484 4.292.22.607.446 1.236.587 1.835.285 1.21.456 2.417.621 3.583.252 1.773.492 3.46 1.099 5.123 2.045-.617 8.847-3.135 11.745-4.264-3.302-2.642-5.39-5.46-6.13-10.603-.476-.105-1.002-.247-1.549-.394-1.649-.443-3.171-.807-4.385-.807m-.319 17.761a.4.4 0 0 1-.136-.018.833.833 0 0 1-.46-.442v-.001c-.87-2.054-1.165-4.127-1.449-6.13-.16-1.132-.326-2.3-.595-3.441-.12-.51-.321-1.068-.534-1.66-.62-1.721-1.323-3.672-.419-5.533 1.556-3.197 5.863-2.04 8.712-1.274.745.2 1.448.39 1.977.473a.8.8 0 0 1 .668.694c.595 4.935 2.283 7.697 6.69 10.946a.8.8 0 0 1-.134 1.368c-.119.056-12.62 5.018-14.32 5.018" fill="#000"/>
        <path d="M281.384 203.96a18.276 18.276 0 0 1-4.82-1.576c-.14-.069-1.32 1.489-1.244 1.796.131.53 1.574.83 2.007.946-2.053.999-4.297 1.351-6.516 1.805-2.357.482-4.492.86-6.893 1.157-.043.707.434 4.714 1.557 4.517 2.008-.354 4.074-.547 6.106-.776 1.663-.188 1.923-.792 1.839-1.83.734-.188 1.468-.382 2.205-.567 2.745-.69 5.444-1.579 8.223-2.13 1.293-.257 2.708-.778 3.99-.892-.06-.105-.873-1.81-.523-1.819-1.85.054-4.114-.3-5.931-.631" fill="#FFF"/>
        <path d="M264.745 208.788c.101 1 .424 2.562.757 3 1.597-.274 3.235-.452 4.822-.626l1.168-.128c1.198-.136 1.181-.346 1.13-.972a.8.8 0 0 1 .6-.839l.949-.244c.419-.108.838-.217 1.258-.323 1.007-.253 2.008-.534 3.009-.814 1.707-.477 3.471-.97 5.254-1.325.48-.095.976-.23 1.477-.363.494-.132.997-.266 1.5-.37a4.57 4.57 0 0 1-.126-.393c-1.766-.041-3.729-.358-5.302-.644a19.017 19.017 0 0 1-4.526-1.41c-.151.19-.325.434-.45.634.196.084.526.195 1.075.333l.196.05a.799.799 0 0 1 .141 1.492c-1.872.91-3.88 1.308-5.822 1.692l-.883.177c-2.372.485-4.28.815-6.227 1.073m.65 4.624c-.318 0-.628-.123-.89-.358-1.141-1.017-1.417-4.504-1.385-5.015a.801.801 0 0 1 .7-.745c2.165-.268 4.208-.61 6.83-1.147l.894-.178c1.23-.244 2.416-.479 3.552-.83-.275-.2-.473-.448-.552-.767-.233-.942 1.4-2.549 1.417-2.563.423-.343.807-.215.951-.146a17.516 17.516 0 0 0 4.615 1.51c1.737.315 3.968.665 5.765.618a.79.79 0 0 1 .822.776.794.794 0 0 1-.051.307c.099.33.366.943.477 1.154a.81.81 0 0 1-.004.76.8.8 0 0 1-.628.42c-.721.063-1.537.28-2.326.492a25.52 25.52 0 0 1-1.578.386c-1.723.342-3.457.828-5.134 1.297-1.014.284-2.029.568-3.05.825-.417.105-.833.213-1.248.32l-.357.092c-.125 1.195-.935 1.822-2.544 2.004l-1.175.13c-1.615.176-3.284.357-4.883.639-.072.013-.145.019-.217.019" fill="#000"/>
        <path d="M229.124 142.157c9.565 1.058 21.234 2.92 30.105 6.064 7.905 2.801 10.247 5.408 12.192 14.352 2.352 10.812 3.282 22.072 5.282 33.044.418 2.292.623 3.965.354 4.081-4.976 2.155-10.584 2.271-15.899 2.055-.524-.02-5.72-29.325-6.293-31.85-.336-1.484-21.417-4.39-24.003-4.323" fill="#FFF"/>
        <path d="M264.591 202.631c-1.164 0-2.32-.032-3.465-.078-.943-.039-1-.04-5.467-24.153-.73-3.935-1.316-7.1-1.532-8.131-2.018-1.247-20.253-3.935-23.244-3.89a.794.794 0 0 1-.82-.779.8.8 0 0 1 .779-.82c1.417-.04 7.484.706 12.993 1.59 11.468 1.838 11.666 2.715 11.81 3.356.18.795.802 4.144 1.586 8.383 1.436 7.745 3.776 20.373 4.475 22.865 4.92.18 10.063.035 14.673-1.858-.007-.378-.085-1.278-.464-3.355-.858-4.711-1.53-9.543-2.179-14.216-.864-6.216-1.757-12.645-3.097-18.802-1.866-8.58-3.94-11.026-11.678-13.769-9.192-3.257-21.347-5.073-29.925-6.022a.801.801 0 0 1-.708-.883.81.81 0 0 1 .883-.707c8.663.958 20.948 2.796 30.284 6.104 8.238 2.92 10.732 5.85 12.708 14.937 1.352 6.217 2.25 12.675 3.118 18.922.647 4.657 1.317 9.471 2.169 14.149.72 3.954.617 4.643-.115 4.959-4.063 1.76-8.464 2.198-12.784 2.198" fill="#000"/>
        <path fill="#FFF" d="m220.006 96.47 10.05-.267-.422-15.891-10.05.266z"/>
        <path d="m220.405 81.357.38 14.292 8.45-.224-.38-14.292-8.45.224zm-.4 15.912a.8.8 0 0 1-.799-.779l-.421-15.891a.797.797 0 0 1 .778-.82l10.05-.267c.442-.039.808.337.82.778l.422 15.892a.8.8 0 0 1-.78.821l-10.048.266h-.022z" fill="#000"/>
        <path d="M228.343 87.625a10.288 10.288 0 0 0 3.268-1.084c3.752-1.996 6.018-6.207 5.336-10.646l-.888-5.778c-.864-5.614-6.116-9.466-11.73-8.603-5.614.864-9.466 6.115-8.604 11.73l.888 5.777a10.285 10.285 0 0 0 6.71 8.127" fill="#FFF"/>
        <path d="M228.341 88.425a.8.8 0 0 1-.12-1.59 9.454 9.454 0 0 0 3.013-1 9.5 9.5 0 0 0 4.923-9.818l-.89-5.778a9.423 9.423 0 0 0-3.765-6.207 9.427 9.427 0 0 0-7.051-1.727c-5.17.796-8.73 5.648-7.936 10.817l.889 5.778a9.487 9.487 0 0 0 6.188 7.494.8.8 0 1 1-.54 1.507 11.087 11.087 0 0 1-7.23-8.758l-.888-5.778c-.928-6.041 3.232-11.712 9.274-12.641a11.01 11.01 0 0 1 8.24 2.017 11.015 11.015 0 0 1 4.401 7.255l.89 5.777a11.1 11.1 0 0 1-5.753 11.474c-1.095.584-2.28.977-3.521 1.168a.807.807 0 0 1-.124.01" fill="#000"/>
        <path d="M233.62 72.327c.087.573.352 1.008.592.972.24-.036.362-.532.274-1.106-.089-.574-.354-1.01-.593-.974-.24.037-.362.532-.274 1.108" fill="#000"/>
        <path d="M234.175 74.102c-.66 0-1.19-.641-1.346-1.654-.169-1.094.209-1.906.94-2.02.737-.11 1.34.551 1.507 1.643.047.306.116 1.077-.264 1.596a1.038 1.038 0 0 1-.837.435zM225.115 73.811c.088.574.384 1.006.66.962.279-.042.43-.542.342-1.116-.088-.575-.383-1.005-.662-.963-.275.043-.428.543-.34 1.117" fill="#000"/>
        <path d="M225.738 75.577c-.233 0-.465-.079-.667-.227-.378-.277-.65-.793-.746-1.417v-.001c-.163-1.06.262-1.913 1.008-2.029.75-.11 1.412.573 1.575 1.631.162 1.062-.263 1.915-1.011 2.03a.954.954 0 0 1-.159.013M234.552 69.967a.796.796 0 0 1-.536-.207 1.585 1.585 0 0 0-1.484-.363.8.8 0 1 1-.384-1.554 3.186 3.186 0 0 1 2.941.73.8.8 0 0 1-.537 1.394M229.734 82.852c-.939 0-1.94-.222-2.747-.65-.98-.518-1.603-1.304-1.752-2.214a.8.8 0 1 1 1.579-.26c.085.519.548.863.921 1.061 1.037.548 2.47.577 3.16.258a.801.801 0 0 1 .672 1.453c-.513.236-1.156.352-1.833.352M223.032 71.967a.8.8 0 0 1-.374-1.508l.174-.092c.604-.32 1.176-.622 1.879-.825a.8.8 0 1 1 .442 1.538c-.543.156-1.02.409-1.572.7l-.177.095a.8.8 0 0 1-.372.092M232.112 78.45h-.026l-2.172-.072a.8.8 0 0 1 .052-1.6l.99.034-2.197-6.052a.8.8 0 1 1 1.503-.545l2.602 7.162a.802.802 0 0 1-.752 1.073" fill="#000"/>
        <path d="M228.564 66.164c1.978-.507 6.614-.595 7.173 2.032.552-4.45-.623-7.039-4.126-9.606-2.697-1.977-7.03-2.351-9.997-.917-1.8.87-3.18 1.902-3.534 3.982-.02.115-2.994.696-3.37.862-1.261.554-2.041 1.402-2.71 2.66-1.36 2.551-1.306 5.661-.144 8.275.923 2.075 1.966 2.688 3.643 4.163-.804-.708-1.294-2.705-.237-3.405 1.505-.996 3.536 1.938 3.636 3.185-.164-2.039.062-4.128.57-6.099.527-2.028 1.59-4.044 1.677-6.16 2.26 2.43 4.575 1.759 7.419 1.028" fill="#131313"/>
        <g transform="translate(210.182 56.008)">
            <mask id="b" fill="#fff">
                <use xlink:href="#a"/>
            </mask>
            <path d="M15.51 1.602c-1.331 0-2.637.255-3.73.783-1.692.818-2.8 1.672-3.094 3.397-.1.589-.313.637-2.351 1.1-.531.12-1.334.303-1.496.364-1.01.443-1.683 1.11-2.316 2.299-1.19 2.234-1.234 5.066-.118 7.574.393.884.799 1.465 1.298 1.988.094-.679.422-1.232.935-1.572.63-.417 1.392-.445 2.145-.079.409.2.805.511 1.162.883.099-1.08.29-2.174.567-3.25.193-.742.451-1.478.702-2.189.462-1.31.897-2.546.949-3.805a.799.799 0 0 1 1.385-.512c1.881 2.023 3.69 1.556 6.425.852l.21-.053c1.56-.4 4.744-.594 6.657.593l.044.028c-.055-2.877-1.216-4.788-3.927-6.776-1.454-1.064-3.476-1.625-5.448-1.625M5.317 22.407a.798.798 0 0 1-.528-.199c-.286-.251-.552-.477-.804-.69-1.232-1.042-2.204-1.865-3.042-3.75-1.314-2.954-1.251-6.31.167-8.975.798-1.496 1.752-2.426 3.096-3.016.22-.098.686-.208 1.775-.455.378-.087.89-.203 1.228-.287.559-2.207 2.184-3.272 3.876-4.09 3.248-1.571 7.9-1.145 10.816.991 3.78 2.77 5.028 5.672 4.447 10.35a.8.8 0 0 1-.76.7.813.813 0 0 1-.816-.631c-.089-.419-.343-.752-.776-1.02-1.394-.866-4.056-.752-5.415-.404l-.21.054c-2.375.612-4.642 1.195-6.814-.284-.202.938-.521 1.844-.834 2.731-.25.71-.487 1.383-.662 2.057-.507 1.962-.696 3.98-.548 5.834a.801.801 0 0 1-.734.862.805.805 0 0 1-.86-.734c-.053-.65-.96-2.13-1.837-2.556-.345-.168-.491-.072-.561-.026-.143.094-.224.28-.243.551-.041.604.266 1.321.567 1.587a.8.8 0 0 1-.528 1.4" fill="#131313" mask="url(#b)"/>
        </g>
        <path d="M218.947 77.09c-.087-1.059-.908-2.466-1.963-2.807-1.07-.344-2.74.272-3.05 1.428-.482 1.808 1.9 3.887 3.514 4.128" fill="#FFF"/>
        <path d="M217.45 80.639a.754.754 0 0 1-.12-.009c-1.277-.191-2.798-1.236-3.618-2.485-.584-.89-.774-1.803-.55-2.641.182-.677.677-1.266 1.394-1.658.843-.459 1.866-.584 2.673-.325 1.413.457 2.405 2.174 2.515 3.504a.8.8 0 0 1-.73.863.791.791 0 0 1-.865-.731c-.063-.77-.706-1.885-1.41-2.112-.383-.124-.967-.039-1.416.206-.19.105-.525.33-.615.666-.13.487.114 1.004.342 1.35.631.962 1.798 1.674 2.516 1.78a.8.8 0 0 1-.117 1.591" fill="#000"/>
        <path d="M217.074 78.628a.8.8 0 0 1-.733-.479c-.169-.385-.4-.613-.54-.638a.8.8 0 1 1 .288-1.574c.71.13 1.336.703 1.717 1.57a.8.8 0 0 1-.732 1.121" fill="#000"/>
        <path d="M199.454 161.133c16.412.829 32.214-5.928 44.155-16.91-5.633-9.572-4.102-20.189-4.77-30.679-.274-4.3-1.135-9.18-2.42-13.298-.644-2.065-1.482-4.032-2.603-5.887-.897-1.483-3.94-3.885-4.276-5.383.492 2.194-.55 4.778-2.837 5.518-2.899.938-4.78-1.61-6.198-4.076-.854-1.486-2.344-2.504-4.175-2.195-16.201 2.738-17.445 25.577-18.209 41.69-.311 6.559.12 13.112.43 19.662.183 3.875.477 7.683.788 11.552.038.003.076.004.115.006" fill="#131313"/>
        <path d="M221.266 91.578c-.543.53 1.08 1.308 1.482 1.66.95.828 1.763 1.779 2.716 2.621 2.02-1.01 2.782-3.258 4.465-4.597-.551 3.763-.16 7.868-.185 11.672l-.141 20.644-.075 11.056-9.078-43.673" fill="#FFE000"/>
        <path d="m221.807 93.557 6.972 33.543.164-24.172c.008-1.147-.023-2.354-.053-3.521-.05-1.922-.102-3.89.008-5.82l-.135.178c-.79 1.053-1.606 2.142-2.941 2.81a.799.799 0 0 1-.888-.117c-.487-.43-.938-.885-1.372-1.326-.452-.457-.878-.889-1.34-1.291-.078-.068-.214-.152-.367-.252l-.048-.032zm7.72 41.877a.801.801 0 0 1-.783-.637l-9.077-43.673a.8.8 0 0 1 1.563-.345.815.815 0 0 1 .61.242.796.796 0 0 1 .204.742c.189.162.51.371.686.486.229.15.427.284.544.385.506.443.974.916 1.426 1.373.295.3.578.586.869.862.754-.517 1.32-1.272 1.915-2.064.568-.756 1.155-1.54 1.947-2.17a.8.8 0 0 1 1.29.742c-.374 2.548-.302 5.313-.232 7.988.03 1.18.062 2.4.054 3.574l-.216 31.7a.8.8 0 0 1-.8.795z" fill="#000"/>
        <path d="M229.48 91.19c.682.833.906 3.167.913 4.209.002.373-1.022 3.812-1.46 3.366-1.068-1.084-1.89-2.284-3.165-3.148 1.096-1.54 2.448-2.984 3.713-4.427" fill="#FFE000"/>
        <path d="M226.88 95.458c.639.538 1.17 1.14 1.688 1.725.112.126.223.253.336.378.303-.74.654-1.89.69-2.204-.006-.839-.136-1.912-.34-2.703-.81.911-1.64 1.847-2.374 2.804m2.136 4.147a.913.913 0 0 1-.653-.28c-.35-.353-.673-.719-.994-1.083-.65-.735-1.263-1.43-2.05-1.963a.8.8 0 0 1-.203-1.126c.899-1.263 1.961-2.459 2.988-3.615.26-.293.52-.584.776-.876a.799.799 0 0 1 1.22.022c1.057 1.293 1.092 4.675 1.092 4.71.002.265-.762 3.704-1.816 4.14a.95.95 0 0 1-.36.071" fill="#000"/>
        <path d="M219.108 89.545c-.727.995-1.583 1.949-2.064 3.188-.165.44 2.643 3.073 2.95 3.422 1.072 1.212 2.314 2.432 3.162 3.802-.342-.553 2.815-4.262 2.727-4.338-.59-.568-6.883-5.925-6.775-6.074" fill="#FFE000"/>
        <path d="M219.89 89.712zm-1.988 3.045c.395.571 1.72 1.89 2.185 2.353.252.25.438.436.508.515.248.281.506.563.767.847.543.594 1.098 1.2 1.605 1.84.373-.587.916-1.328 1.65-2.294l.208-.274c-.362-.318-.862-.752-1.405-1.225-2.168-1.885-3.475-3.023-4.233-3.751-.496.648-.962 1.272-1.285 1.99zm5.255 8a.8.8 0 0 1-.682-.379v-.002c-.61-.984-1.465-1.919-2.293-2.823-.267-.29-.531-.58-.787-.869-.059-.068-.22-.226-.436-.44-2.476-2.462-2.924-3.1-2.664-3.792.424-1.09 1.073-1.94 1.701-2.761.159-.207.315-.411.466-.618a.8.8 0 0 1 1.346.084c.462.502 3.18 2.865 4.663 4.155 1.125.98 1.772 1.543 1.967 1.73.56.489.213.946-.547 1.946-.486.637-1.74 2.284-1.944 2.848a.8.8 0 0 1-.79.921z" fill="#000"/>
        <path d="M216.744 91.848c-.393-.516-1.184-.738-1.109-1.358.098-.831 1.668-1.834 2.274-2.357.639-.552 1.278-1.105 1.919-1.657l1.262 6.566 2.108 11.044M229.657 89.756c.013.48.014 9.6.014 9.6l2.995-.2" fill="#131313"/>
        <path d="M285.112 291H36.298a.8.8 0 0 1 0-1.6h248.814a.8.8 0 0 1 0 1.6M185.098 307.8h-64.795a.8.8 0 0 1 0-1.6h64.795a.8.8 0 0 1 0 1.6M126.698 315H93.906a.8.8 0 0 1 0-1.6h32.792a.8.8 0 0 1 0 1.6M45.89 280.6H26.7a.8.8 0 0 1 0-1.6H45.89a.8.8 0 0 1 0 1.6M309.898 300.6h-32.792a.8.8 0 0 1 0-1.6h32.792a.8.8 0 0 1 0 1.6" fill="#281000"/>
        <path d="m282.613 72.63-28.255 2.116a4.532 4.532 0 0 1-4.858-4.182 4.532 4.532 0 0 1 4.18-4.859l28.256-2.116" fill="#131313"/>
        <path d="M260.049 69.774a3.021 3.021 0 0 1-2.788 3.24l-18.837 1.41a3.023 3.023 0 1 1-.451-6.027l18.837-1.41a3.021 3.021 0 0 1 3.239 2.787" fill="#131313"/>
        <path d="M284.346 67.954c.16 2.133-.597 3.928-1.689 4.01-1.092.082-2.107-1.58-2.266-3.714-.16-2.132.596-3.927 1.689-4.008 1.09-.082 2.106 1.58 2.266 3.712" fill="#FFF"/>
        <path d="m282.153 64.805-.032.001c-.296.023-.608.355-.834.89-.28.667-.4 1.582-.331 2.512.153 2.043 1.086 3.239 1.659 3.19.59-.044 1.32-1.359 1.166-3.401-.15-2.006-1.037-3.192-1.628-3.192m.424 7.728c-1.396 0-2.568-1.788-2.752-4.24-.084-1.12.064-2.198.418-3.036.406-.964 1.043-1.524 1.794-1.581 1.459-.09 2.685 1.713 2.874 4.236.189 2.523-.762 4.508-2.211 4.617-.041.003-.082.004-.123.004" fill="#000"/>
        <path d="M191.96 142.367c-1.74 1.098-3.058 3.431-3.198 5.133-.393 4.743 6.046 8.197 7.506 12.987.66 2.162.193.546-.607 1.369-2.899 2.989 3.335 4.026 4.107 1.771-.24.701-1.35 2.14-.41 2.696 1.18.703 5.2-3.46 5.319-4.706-.139 1.493-1.695 3.07-1.095 4.742 3.346-.923 5.422-7.333 4.508-10.307-1.155-3.748-2.188-5.955-5.513-7.956-2.416-1.454-5.773-6.078-8.372-6.332-.784-.077-1.549.165-2.245.603" fill="#FFF"/>
        <path d="M200.515 163.917c-.076.21-.19.435-.31.67-.12.237-.382.75-.417 1.007 1.028-.188 3.956-3.207 4.093-4.058.069-.427.467-.743.894-.69.428.055.738.415.698.845-.066.709-.365 1.375-.654 2.019-.23.51-.44.98-.53 1.425.65-.461 1.273-1.208 1.809-2.186 1.177-2.146 1.716-5.073 1.227-6.662-1.173-3.81-2.15-5.694-5.16-7.506-1.004-.604-2.091-1.649-3.242-2.754-1.626-1.564-3.47-3.337-4.796-3.467-.558-.052-1.144.108-1.74.484-1.6 1.008-2.713 3.132-2.828 4.522-.194 2.342 1.624 4.45 3.548 6.682 1.594 1.848 3.241 3.758 3.927 6.006l.046.154c.34 1.112.443 1.448.044 1.835-.165.159-.453.316-.893.181-.419.439-.599.81-.51 1.008.15.33.93.655 1.843.61.739-.035 1.32-.305 1.447-.673a.8.8 0 1 1 1.504.548zm-.843 3.285c-.266 0-.508-.064-.723-.192-.618-.366-.79-.891-.758-1.426-.176.028-.36.048-.552.056-1.304.06-2.853-.394-3.376-1.55-.223-.494-.413-1.516.824-2.79a1.72 1.72 0 0 1 .483-.36l-.02-.065-.047-.155c-.587-1.925-2.122-3.705-3.607-5.427-2.056-2.383-4.18-4.848-3.932-7.86.15-1.811 1.527-4.455 3.57-5.743.902-.569 1.826-.811 2.749-.722 1.878.184 3.847 2.076 5.75 3.905 1.083 1.042 2.107 2.026 2.956 2.537 3.42 2.058 4.616 4.35 5.865 8.406.62 2.018.051 5.341-1.353 7.903-.705 1.284-1.92 2.918-3.706 3.41a.8.8 0 0 1-.966-.5 3.146 3.146 0 0 1-.186-1.055c-.628.56-1.265 1.03-1.799 1.3-.43.22-.823.328-1.172.328z" fill="#000"/>
        <path d="M198.657 164.982c2.364-2.937 3.046-3.214.733-6.634" fill="#FFF"/>
        <path d="M198.657 165.782a.799.799 0 0 1-.622-1.302l.549-.676c1.824-2.228 1.933-2.362.143-5.007a.8.8 0 0 1 1.326-.898c2.353 3.48 1.856 4.37-.23 6.918l-.543.666a.796.796 0 0 1-.623.299" fill="#000"/>
        <path d="M204.098 163.4c1.627-2.774.164-4.338-1.87-6.966" fill="#FFF"/>
        <path d="M204.098 164.2a.801.801 0 0 1-.69-1.205c1.206-2.057.474-3.139-1.45-5.605l-.362-.467a.8.8 0 1 1 1.266-.978l.358.46c1.884 2.416 3.372 4.324 1.569 7.4a.802.802 0 0 1-.691.395" fill="#000"/>
        <path d="M194.027 122.381c1.936-5.6 8.297-6.576 12.09-10.453 1.905-1.947 4.631-3.812 6.07-6.113 1.357-2.169 1.672-4.495 2.423-6.875.51-1.616 1.46-2.761 2.232-4.23 1.357-2.588 2.381-6.88-1.944-6.466-4.068.39-8.283 2.913-11.886 4.732a56.417 56.417 0 0 0-9.696 6.195c-5.74 4.567-10.983 10.568-12.92 17.795-2.324 8.68-3.104 16.327.7 24.192 2.478 5.122 5.887 10.662 9.996 14.646.204-.194.414-.386.627-.574 3.488-3.089 8.03-5.48 11.012-8.817-2.763-2.918-4.886-6.388-6.823-9.914-2.194-3.995-3.532-9.346-1.881-14.118" fill="#131313"/>
        <path d="M63.005 121.4h-13.15c-.624 0-1.19-1.036-1.608-1.435-1.374-.664-2.352-2.666-3.172-3.906-.873-1.321-1.353-3.016-1.353-4.603 0-4.693 4.062-8.566 9.075-8.566.893 0 1.753.09 2.566.315.77-6.698 6.455-11.916 13.358-11.916A13.436 13.436 0 0 1 80.91 99.05a6.328 6.328 0 0 1 3.155-.844 6.352 6.352 0 0 1 6.251 7.482 7.148 7.148 0 0 1 2.329-.391 7.18 7.18 0 0 1 7.178 7.178c0 3.591-2.635 7.355-6.078 7.885-.315.158-.67 1.04-1.045 1.04H63.005z" fill="#CCC"/>
        <path d="M52.797 103.69c-4.563 0-8.275 3.483-8.275 7.766 0 1.471.445 2.988 1.221 4.162.17.257.347.547.532.85.639 1.046 1.435 2.349 2.32 2.776a.822.822 0 0 1 .204.141c.143.137.303.334.473.548.158.2.487.616.638.675l42.588-.008c.058-.071.128-.169.176-.237.198-.276.402-.562.712-.718a.806.806 0 0 1 .238-.076c2.876-.442 5.4-3.757 5.4-7.094a6.385 6.385 0 0 0-6.378-6.378c-.702 0-1.399.116-2.07.348a.794.794 0 0 1-.78-.15.797.797 0 0 1-.267-.746 5.559 5.559 0 0 0-5.464-6.543c-.961 0-1.915.255-2.758.739a.798.798 0 0 1-1.122-.356 12.692 12.692 0 0 0-11.464-7.3 12.644 12.644 0 0 0-12.563 11.207.801.801 0 0 1-1.008.68c-.693-.192-1.463-.286-2.353-.286M92.7 122.2H49.855c-.831 0-1.39-.707-1.838-1.275-.09-.113-.173-.221-.252-.308-1.239-.67-2.133-2.132-2.855-3.316-.176-.285-.342-.558-.502-.8-.945-1.43-1.486-3.268-1.486-5.045 0-5.164 4.43-9.366 9.875-9.366.683 0 1.312.049 1.9.149 1.2-6.758 7.08-11.75 14.024-11.75 5.241 0 10.079 2.916 12.546 7.492a7.134 7.134 0 0 1 2.798-.575c3.944 0 7.153 3.208 7.153 7.151l-.001.07c.47-.086.949-.13 1.429-.13 4.399 0 7.977 3.579 7.977 7.978 0 4.049-2.96 7.937-6.515 8.634-.043.055-.086.12-.131.184-.274.383-.648.907-1.277.907" fill="#000"/>
        <path d="M124.666 142.2h-8.259c-.391 0-.746-1.05-1.01-1.302-.863-.416-1.477-1.874-1.991-2.652-.55-.83-.85-1.995-.85-2.992 0-2.947 2.551-5.43 5.7-5.43.56 0 1.1.032 1.61.174.484-4.207 4.054-7.496 8.39-7.496a8.433 8.433 0 0 1 7.655 4.868 3.976 3.976 0 0 1 1.982-.534 3.988 3.988 0 0 1 3.925 4.697 4.5 4.5 0 0 1 5.972 4.262c0 2.255-1.656 5.02-3.818 5.352-.198.1-.42 1.053-.656 1.053h-18.65z" fill="#FFF"/>
        <path d="M116.643 141.4h26.28l.036-.087c.157-.363.306-.706.653-.88a.785.785 0 0 1 .239-.077c1.739-.267 3.139-2.714 3.139-4.56a3.713 3.713 0 0 0-3.708-3.71c-.407 0-.811.07-1.203.204a.797.797 0 0 1-.78-.15.803.803 0 0 1-.268-.747 3.193 3.193 0 0 0-3.138-3.757c-.549 0-1.096.148-1.583.428a.803.803 0 0 1-1.123-.356 7.67 7.67 0 0 0-6.93-4.406 7.65 7.65 0 0 0-7.595 6.787.802.802 0 0 1-1.01.679c-.454-.126-.961-.143-1.397-.143-2.656 0-4.9 2.12-4.9 4.63 0 .889.282 1.89.718 2.549.14.211.286.468.44.742.344.603.813 1.43 1.232 1.632a.804.804 0 0 1 .205.141c.185.177.316.415.468.692.057.106.15.275.225.389m26.673 1.6h-26.909c-.723 0-1.094-.676-1.392-1.218-.052-.096-.1-.188-.144-.26-.77-.461-1.288-1.375-1.748-2.187-.136-.239-.263-.465-.384-.649-.607-.916-.984-2.232-.984-3.432 0-3.435 2.916-6.23 6.5-6.23.294 0 .617.008.952.042.886-4.252 4.637-7.364 9.05-7.364a9.284 9.284 0 0 1 8.011 4.623 4.748 4.748 0 0 1 1.625-.289 4.795 4.795 0 0 1 4.78 4.486 5.314 5.314 0 0 1 5.917 5.273c0 2.456-1.676 5.438-4.126 6.067l-.037.088c-.192.443-.456 1.05-1.11 1.05" fill="#000"/>
        <path d="M44.86 173.925a2 2 0 1 1-3.927.757 2 2 0 0 1 3.927-.757" fill="#FFF"/>
        <path d="M42.896 173.103a1.204 1.204 0 0 0-1.18 1.428c.062.315.242.587.508.767.264.179.585.244.899.184.315-.061.588-.241.767-.506.18-.266.246-.586.185-.9a1.204 1.204 0 0 0-1.179-.973m-.007 4a2.777 2.777 0 0 1-1.561-.48 2.785 2.785 0 0 1-1.182-1.789 2.806 2.806 0 0 1 2.22-3.28 2.808 2.808 0 0 1 3.28 2.219 2.78 2.78 0 0 1-.431 2.1 2.78 2.78 0 0 1-1.789 1.18 2.85 2.85 0 0 1-.537.05" fill="#000"/>
        <path d="M53.921 180.402a3.6 3.6 0 1 1-7.071 1.364 3.6 3.6 0 0 1 7.071-1.364" fill="#131313"/>
        <path d="M50.393 178.283a2.804 2.804 0 0 0-2.756 3.332c.14.735.56 1.37 1.18 1.788.619.42 1.364.572 2.1.43a2.804 2.804 0 0 0 2.219-3.28 2.786 2.786 0 0 0-1.181-1.788 2.782 2.782 0 0 0-1.562-.482m-.016 7.203c-.87 0-1.72-.259-2.456-.757a4.367 4.367 0 0 1-1.856-2.81 4.407 4.407 0 0 1 3.487-5.155 4.375 4.375 0 0 1 3.299.675 4.376 4.376 0 0 1 1.856 2.81v.001a4.406 4.406 0 0 1-4.33 5.236" fill="#000"/>
        <path d="M262.266 63.73c-2.568-.261-4.239-.524-4.448 2.45-.117 1.653.456 3.718 1.32 5.126.394.642 1.148.945 1.84.581.898-.477.737-1.593.49-2.428.267.903.654 2.748 1.914 2.65 1.303-.1 1.068-2.09.852-3.348.184.93.516 2.16 1.103 2.575 1.267.903 1.601-.876 1.633-2.151.058.253.146.495.303.701 1.025 1.35 1.892.683 1.968-.632.096-1.684 1.314-4.541-.335-5.578-1.09-.685-3.1.215-4.288.212-.806-.002-1.584-.078-2.352-.158" fill="#FFF"/>
        <path d="m262.271 69.36.046.157c.164.586.504 1.795.98 1.795l.023-.001c.086-.006.102-.027.119-.049.102-.131.307-.623.006-2.365a.8.8 0 0 1 1.574-.292c.342 1.724.736 2.048.78 2.078.037.026.067.045.092.06.106-.2.258-.711.28-1.578a.8.8 0 0 1 1.578-.16c.042.182.093.308.161.398.182.24.316.346.391.391.05-.088.123-.273.14-.585.03-.496.136-1.043.25-1.621.306-1.565.486-2.796-.211-3.235-.441-.276-1.443-.067-2.25.102-.574.12-1.116.234-1.607.234h-.007c-.874-.003-1.737-.092-2.431-.163l-.226-.023c-1.26-.13-2.351-.242-2.822.153-.29.243-.465.775-.521 1.581-.101 1.42.394 3.332 1.204 4.65.151.246.445.472.785.292.293-.155.337-.618.13-1.377l-.034-.116a.8.8 0 1 1 1.533-.454h.001c.012.043.025.085.036.128m1.002 3.553c-.616 0-1.081-.273-1.436-.667-.152.147-.318.26-.483.347-1.038.547-2.255.18-2.898-.868-.983-1.601-1.56-3.852-1.436-5.6.09-1.29.436-2.146 1.088-2.694.989-.831 2.392-.687 4.015-.52l.224.024c.694.071 1.48.151 2.273.154h.003c.326 0 .789-.097 1.28-.2 1.142-.24 2.44-.512 3.428.11 1.682 1.057 1.247 3.276.93 4.896-.103.523-.2 1.018-.222 1.405-.062 1.069-.537 1.84-1.272 2.065-.285.085-.76.132-1.311-.212-.2.53-.491.892-.876 1.084-.364.182-.956.286-1.707-.25h-.002c-.05.09-.106.177-.17.258-.305.393-.74.622-1.258.662a2.458 2.458 0 0 1-.17.006" fill="#000"/>
        <path d="M266.998 69.253a14.522 14.522 0 0 0-.387-1.58" fill="#FFF"/>
        <path d="M266.997 70.053a.8.8 0 0 1-.788-.665c-.086-.501-.222-.992-.367-1.492a.8.8 0 1 1 1.538-.444c.151.524.307 1.084.406 1.667a.8.8 0 0 1-.79.934" fill="#000"/>
        <path d="M261.639 70.308c-.102-.698-.348-1.386-.486-2.085" fill="#FFF"/>
        <path d="M261.638 71.108a.8.8 0 0 1-.79-.684c-.053-.354-.15-.718-.252-1.104a15.481 15.481 0 0 1-.229-.94.8.8 0 0 1 1.57-.313c.056.282.131.562.206.842.11.412.223.838.288 1.283a.8.8 0 0 1-.793.916" fill="#000"/>
        <path d="M0 0h360v326H0z"/>
    </g>
</svg>
