<svg width="360" height="326" xmlns="http://www.w3.org/2000/svg">
    <g fill="none" fill-rule="evenodd">
        <path d="M0 0h360v326H0z"/>
        <path stroke="#FFE000" stroke-width="1.6" stroke-linecap="round" stroke-linejoin="round" d="m101.43 200.18 41.997-34.27 34.94 13.102 42.67-35.277 41.324 19.151 64.17-70.218"/>
        <path d="M146.938 166.734a3.585 3.585 0 0 1-7.169 0 3.585 3.585 0 0 1 7.17 0" fill="#FFF"/>
        <path d="M146.938 166.734a3.585 3.585 0 0 1-7.169 0 3.585 3.585 0 0 1 7.17 0z" stroke="#000" stroke-width="1.6" stroke-linecap="round" stroke-linejoin="round"/>
        <path d="M180.537 179.725a3.584 3.584 0 1 1-7.167 0 3.584 3.584 0 0 1 7.167 0" fill="#FFF"/>
        <path d="M180.537 179.725a3.584 3.584 0 1 1-7.167 0 3.584 3.584 0 0 1 7.167 0z" stroke="#000" stroke-width="1.6" stroke-linecap="round" stroke-linejoin="round"/>
        <path d="M225.335 144.335a3.584 3.584 0 1 1-7.168 0 3.584 3.584 0 0 1 7.168 0" fill="#FFF"/>
        <path d="M225.335 144.335a3.584 3.584 0 1 1-7.168 0 3.584 3.584 0 0 1 7.168 0z" stroke="#000" stroke-width="1.6" stroke-linecap="round" stroke-linejoin="round"/>
        <path d="M330.612 91.92a3.584 3.584 0 1 1-7.167 0 3.584 3.584 0 0 1 7.167 0" fill="#FFE000"/>
        <path d="M330.612 91.92a3.584 3.584 0 1 1-7.167 0 3.584 3.584 0 0 1 7.167 0z" stroke="#000" stroke-width="1.6" stroke-linecap="round" stroke-linejoin="round"/>
        <path d="M82.973 193.488c3.646.983 8.794 4.633 13.841 9.986 4.682 4.968 7.597 10.006 8.788 13.724l.682-2.025 2.436 3.797-3.19 2.779c-2.509 2.367-10.38-1.947-17.644-9.655-7.266-7.707-11.094-15.864-8.585-18.23l3.309-2.739.363 2.363z" fill="#FFE000"/>
        <path d="M82.973 193.488c3.646.983 8.794 4.633 13.841 9.986 4.682 4.968 7.597 10.006 8.788 13.724l.682-2.025 2.436 3.797-3.19 2.779c-2.509 2.367-10.38-1.947-17.644-9.655-7.266-7.707-11.094-15.864-8.585-18.23l3.309-2.739.363 2.363z" stroke="#000" stroke-width="1.6" stroke-linecap="round" stroke-linejoin="round"/>
        <path d="M82.623 191.13c-2.509 2.364 1.346 10.53 8.61 18.238 7.266 7.707 15.19 12.039 17.7 9.674 2.51-2.366-1.347-10.533-8.612-18.24-7.266-7.708-15.187-12.038-17.698-9.673" fill="#FFE000"/>
        <path d="M82.623 191.13c-2.509 2.364 1.346 10.53 8.61 18.238 7.266 7.707 15.19 12.039 17.7 9.674 2.51-2.366-1.347-10.533-8.612-18.24-7.266-7.708-15.187-12.038-17.698-9.673z" stroke="#000" stroke-width="1.6" stroke-linecap="round" stroke-linejoin="round"/>
        <path d="M275.949 189.495c.854-3.678 4.322-8.95 9.495-14.182 4.8-4.853 9.733-7.945 13.406-9.265l-2.047-.61 3.709-2.567 2.89 3.09c2.452 2.424-1.583 10.441-9.03 17.972-7.448 7.533-15.467 11.643-17.918 9.218l-2.855-3.21 2.35-.446z" fill="#FFE000"/>
        <path d="M275.949 189.495c.854-3.678 4.322-8.95 9.495-14.182 4.8-4.853 9.733-7.945 13.406-9.265l-2.047-.61 3.709-2.567 2.89 3.09c2.452 2.424-1.583 10.441-9.03 17.972-7.448 7.533-15.467 11.643-17.918 9.218l-2.855-3.21 2.35-.446z" stroke="#000" stroke-width="1.6" stroke-linecap="round" stroke-linejoin="round"/>
        <path d="M273.604 189.928c2.451 2.425 10.477-1.715 17.924-9.245 7.45-7.532 11.5-15.603 9.049-18.027-2.453-2.426-10.479 1.714-17.927 9.245-7.449 7.531-11.5 15.6-9.046 18.027" fill="#FFE000"/>
        <path d="M273.604 189.928c2.451 2.425 10.477-1.715 17.924-9.245 7.45-7.532 11.5-15.603 9.049-18.027-2.453-2.426-10.479 1.714-17.927 9.245-7.449 7.531-11.5 15.6-9.046 18.027z" stroke="#000" stroke-width="1.6" stroke-linecap="round" stroke-linejoin="round"/>
        <path d="M90.817 256.606c.855-3.678 4.322-8.952 9.495-14.183 4.8-4.853 9.733-7.945 13.406-9.264l-2.046-.61 3.708-2.568 2.89 3.09c2.453 2.424-1.582 10.441-9.03 17.972-7.448 7.533-15.466 11.643-17.917 9.218l-2.855-3.21 2.35-.445z" fill="#FFE000"/>
        <path d="M90.817 256.606c.855-3.678 4.322-8.952 9.495-14.183 4.8-4.853 9.733-7.945 13.406-9.264l-2.046-.61 3.708-2.568 2.89 3.09c2.453 2.424-1.582 10.441-9.03 17.972-7.448 7.533-15.466 11.643-17.917 9.218l-2.855-3.21 2.35-.445z" stroke="#000" stroke-width="1.6" stroke-linecap="round" stroke-linejoin="round"/>
        <path d="M88.472 257.038c2.452 2.425 10.477-1.715 17.925-9.245 7.45-7.532 11.5-15.603 9.048-18.027-2.453-2.425-10.478 1.714-17.927 9.245-7.448 7.531-11.499 15.6-9.046 18.027" fill="#FFE000"/>
        <path d="M88.472 257.038c2.452 2.425 10.477-1.715 17.925-9.245 7.45-7.532 11.5-15.603 9.048-18.027-2.453-2.425-10.478 1.714-17.927 9.245-7.448 7.531-11.499 15.6-9.046 18.027z" stroke="#000" stroke-width="1.6" stroke-linecap="round" stroke-linejoin="round"/>
        <path d="M255.886 107.434c5.681 8.162 3.672 19.382-4.49 25.064-8.16 5.681-19.382 3.673-25.065-4.489-5.682-8.16-3.671-19.382 4.49-25.064 8.161-5.682 19.383-3.672 25.065 4.489" fill="#FFE000"/>
        <path d="M255.886 107.434c5.681 8.162 3.672 19.382-4.49 25.064-8.16 5.681-19.382 3.673-25.065-4.489-5.682-8.16-3.671-19.382 4.49-25.064 8.161-5.682 19.383-3.672 25.065 4.489z" stroke="#000" stroke-width="1.6" stroke-linecap="round" stroke-linejoin="round"/>
        <path d="M252.718 109.64c4.464 6.412 2.885 15.227-3.527 19.691-6.412 4.464-15.227 2.887-19.693-3.527-4.464-6.411-2.884-15.227 3.529-19.691 6.411-4.464 15.227-2.886 19.691 3.526" fill="#FFE000"/>
        <path d="M252.718 109.64c4.464 6.412 2.885 15.227-3.527 19.691-6.412 4.464-15.227 2.887-19.693-3.527-4.464-6.411-2.884-15.227 3.529-19.691 6.411-4.464 15.227-2.886 19.691 3.526z" stroke="#000" stroke-width="1.6" stroke-linecap="round" stroke-linejoin="round"/>
        <path d="M194.933 294.839c0 1.039-1.119 2.587-2.157 2.587h-47.86c-1.038 0-2.436-1.548-2.436-2.587v-5.953c0-1.038 1.398-1.488 2.436-1.488h47.86c1.038 0 2.157.45 2.157 1.488v5.953z" fill="#FFE000"/>
        <path d="M194.933 294.839c0 1.039-1.119 2.587-2.157 2.587h-47.86c-1.038 0-2.436-1.548-2.436-2.587v-5.953c0-1.038 1.398-1.488 2.436-1.488h47.86c1.038 0 2.157.45 2.157 1.488v5.953z" stroke="#000" stroke-width="1.6" stroke-linecap="round" stroke-linejoin="round"/>
        <path d="M191.848 284.735c0 1.04-.56 2.663-1.598 2.663h-47.86c-1.038 0-2.225-1.623-2.225-2.663v-5.952c0-1.039 1.187-1.413 2.225-1.413h47.86c1.038 0 1.598.374 1.598 1.413v5.952z" fill="#FFE000"/>
        <path d="M191.848 284.735c0 1.04-.56 2.663-1.598 2.663h-47.86c-1.038 0-2.225-1.623-2.225-2.663v-5.952c0-1.039 1.187-1.413 2.225-1.413h47.86c1.038 0 1.598.374 1.598 1.413v5.952z" stroke="#000" stroke-width="1.6" stroke-linecap="round" stroke-linejoin="round"/>
        <path d="M194.933 274.633c0 1.039-1.119 2.737-2.157 2.737h-47.86c-1.038 0-2.436-1.698-2.436-2.737v-5.953c0-1.038 1.398-1.338 2.436-1.338h47.86c1.038 0 2.157.3 2.157 1.338v5.953z" fill="#FFE000"/>
        <path d="M194.933 274.633c0 1.039-1.119 2.737-2.157 2.737h-47.86c-1.038 0-2.436-1.698-2.436-2.737v-5.953c0-1.038 1.398-1.338 2.436-1.338h47.86c1.038 0 2.157.3 2.157 1.338v5.953z" stroke="#000" stroke-width="1.6" stroke-linecap="round" stroke-linejoin="round"/>
        <path d="M191.848 264.53c0 1.04-.56 2.812-1.598 2.812h-47.86c-1.038 0-2.225-1.773-2.225-2.813v-5.952c0-1.039 1.187-1.263 2.225-1.263h47.86c1.038 0 1.598.224 1.598 1.263v5.952z" fill="#FFE000"/>
        <path d="M191.848 264.53c0 1.04-.56 2.812-1.598 2.812h-47.86c-1.038 0-2.225-1.773-2.225-2.813v-5.952c0-1.039 1.187-1.263 2.225-1.263h47.86c1.038 0 1.598.224 1.598 1.263v5.952z" stroke="#000" stroke-width="1.6" stroke-linecap="round" stroke-linejoin="round"/>
        <path d="M189.534 254.427c0 1.039-.772 2.887-1.81 2.887h-47.86c-1.038 0-2.784-1.848-2.784-2.887v-5.953c0-1.038 1.746-1.188 2.784-1.188h47.86c1.038 0 1.81.15 1.81 1.188v5.953z" fill="#FFE000"/>
        <path d="M189.534 254.427c0 1.039-.772 2.887-1.81 2.887h-47.86c-1.038 0-2.784-1.848-2.784-2.887v-5.953c0-1.038 1.746-1.188 2.784-1.188h47.86c1.038 0 1.81.15 1.81 1.188v5.953z" stroke="#000" stroke-width="1.6" stroke-linecap="round" stroke-linejoin="round"/>
        <path d="M194.162 244.324c0 1.04-1.19 2.963-2.228 2.963h-47.86c-1.038 0-2.366-1.923-2.366-2.963v-5.953c0-1.038 1.328-1.884 2.365-1.884h47.86c1.039 0 2.23.846 2.23 1.884v5.953z" fill="#FFE000"/>
        <path d="M194.162 244.324c0 1.04-1.19 2.963-2.228 2.963h-47.86c-1.038 0-2.366-1.923-2.366-2.963v-5.953c0-1.038 1.328-1.884 2.365-1.884h47.86c1.039 0 2.23.846 2.23 1.884v5.953z" stroke="#000" stroke-width="1.6" stroke-linecap="round" stroke-linejoin="round"/>
        <path d="M198.019 233.9c0 1.039-1.12 2.587-2.158 2.587h-47.86c-1.037 0-2.436-1.548-2.436-2.588v-5.952c0-1.039 1.399-1.488 2.436-1.488h47.86c1.039 0 2.158.45 2.158 1.488v5.952z" fill="#FFE000"/>
        <path d="M198.019 233.9c0 1.039-1.12 2.587-2.158 2.587h-47.86c-1.037 0-2.436-1.548-2.436-2.588v-5.952c0-1.039 1.399-1.488 2.436-1.488h47.86c1.039 0 2.158.45 2.158 1.488v5.952z" stroke="#000" stroke-width="1.6" stroke-linecap="round" stroke-linejoin="round"/>
        <path d="M194.933 223.796c0 1.04-.56 2.663-1.597 2.663h-47.86c-1.039 0-2.225-1.623-2.225-2.663v-5.953c0-1.038 1.186-1.412 2.225-1.412h47.86c1.037 0 1.597.374 1.597 1.412v5.953z" fill="#FFE000"/>
        <path d="M194.933 223.796c0 1.04-.56 2.663-1.597 2.663h-47.86c-1.039 0-2.225-1.623-2.225-2.663v-5.953c0-1.038 1.186-1.412 2.225-1.412h47.86c1.037 0 1.597.374 1.597 1.412v5.953z" stroke="#000" stroke-width="1.6" stroke-linecap="round" stroke-linejoin="round"/>
        <path d="M198.019 213.694c0 1.039-1.12 2.737-2.158 2.737h-47.86c-1.037 0-2.436-1.698-2.436-2.737v-5.953c0-1.038 1.399-1.338 2.436-1.338h47.86c1.039 0 2.158.3 2.158 1.338v5.953z" fill="#FFE000"/>
        <path d="M198.019 213.694c0 1.039-1.12 2.737-2.158 2.737h-47.86c-1.037 0-2.436-1.698-2.436-2.737v-5.953c0-1.038 1.399-1.338 2.436-1.338h47.86c1.039 0 2.158.3 2.158 1.338v5.953z" stroke="#000" stroke-width="1.6" stroke-linecap="round" stroke-linejoin="round"/>
        <path d="M194.933 203.59c0 1.04-.56 2.813-1.597 2.813h-47.86c-1.039 0-2.225-1.773-2.225-2.813v-5.952c0-1.039 1.186-1.263 2.225-1.263h47.86c1.037 0 1.597.224 1.597 1.263v5.952z" fill="#FFE000"/>
        <path d="M194.933 203.59c0 1.04-.56 2.813-1.597 2.813h-47.86c-1.039 0-2.225-1.773-2.225-2.813v-5.952c0-1.039 1.186-1.263 2.225-1.263h47.86c1.037 0 1.597.224 1.597 1.263v5.952z" stroke="#000" stroke-width="1.6" stroke-linecap="round" stroke-linejoin="round"/>
        <path d="M192.62 193.488c0 1.039-.772 2.887-1.81 2.887h-47.86c-1.038 0-2.785-1.848-2.785-2.887v-5.953c0-1.038 1.747-1.188 2.784-1.188h47.86c1.039 0 1.81.15 1.81 1.188v5.953z" fill="#FFE000"/>
        <path d="M192.62 193.488c0 1.039-.772 2.887-1.81 2.887h-47.86c-1.038 0-2.785-1.848-2.785-2.887v-5.953c0-1.038 1.747-1.188 2.784-1.188h47.86c1.039 0 1.81.15 1.81 1.188v5.953z" stroke="#000" stroke-width="1.6" stroke-linecap="round" stroke-linejoin="round"/>
        <path d="M197.248 183.385c0 1.04-1.19 2.962-2.229 2.962h-47.86c-1.038 0-2.365-1.923-2.365-2.962v-5.953c0-1.038 1.327-1.884 2.365-1.884h47.86c1.038 0 2.229.846 2.229 1.884v5.953z" fill="#FFE000"/>
        <path d="M197.248 183.385c0 1.04-1.19 2.962-2.229 2.962h-47.86c-1.038 0-2.365-1.923-2.365-2.962v-5.953c0-1.038 1.327-1.884 2.365-1.884h47.86c1.038 0 2.229.846 2.229 1.884v5.953z" stroke="#000" stroke-width="1.6" stroke-linecap="round" stroke-linejoin="round"/>
        <path d="M284.017 296.932c.39-6.39-2.692-16.87-8.566-27.871-5.453-10.207-11.972-17.917-17.302-21.774h3.62l-4.783-5.73-6.19 3.738c-5.158 2.752-2.48 17.789 5.978 33.628 8.459 15.841 19.498 26.429 24.655 23.676l6.19-3.82-3.602-1.847z" fill="#FFE000"/>
        <path d="M284.017 296.932c.39-6.39-2.692-16.87-8.566-27.871-5.453-10.207-11.972-17.917-17.302-21.774h3.62l-4.783-5.73-6.19 3.738c-5.158 2.752-2.48 17.789 5.978 33.628 8.459 15.841 19.498 26.429 24.655 23.676l6.19-3.82-3.602-1.847z" stroke="#000" stroke-width="1.6" stroke-linecap="round" stroke-linejoin="round"/>
        <path d="M287.62 298.77c-5.158 2.752-16.195-7.856-24.654-23.694-8.46-15.842-11.136-30.915-5.98-33.668 5.159-2.754 16.196 7.853 24.655 23.694 8.459 15.84 11.136 30.912 5.979 33.667" fill="#FFE000"/>
        <path d="M287.62 298.77c-5.158 2.752-16.195-7.856-24.654-23.694-8.46-15.842-11.136-30.915-5.98-33.668 5.159-2.754 16.196 7.853 24.655 23.694 8.459 15.84 11.136 30.912 5.979 33.667z" stroke="#000" stroke-width="1.6" stroke-linecap="round" stroke-linejoin="round"/>
        <path d="M258.644 274.252c0 19.529-15.831 35.361-35.361 35.361-19.53 0-35.362-15.832-35.362-35.361 0-19.529 15.832-35.361 35.362-35.361s35.36 15.832 35.36 35.36" fill="#FFE000"/>
        <path d="M258.644 274.252c0 19.529-15.831 35.361-35.361 35.361-19.53 0-35.362-15.832-35.362-35.361 0-19.529 15.832-35.361 35.362-35.361s35.36 15.832 35.36 35.36z" stroke="#000" stroke-width="1.6" stroke-linecap="round" stroke-linejoin="round"/>
        <path d="M254.094 274.252c0 17.018-13.795 30.812-30.811 30.812-17.017 0-30.812-13.794-30.812-30.812s13.795-30.812 30.812-30.812c17.016 0 30.811 13.794 30.811 30.812" fill="#FFE000"/>
        <path d="M254.094 274.252c0 17.018-13.795 30.812-30.811 30.812-17.017 0-30.812-13.794-30.812-30.812s13.795-30.812 30.812-30.812c17.016 0 30.811 13.794 30.811 30.812z" stroke="#000" stroke-width="1.6" stroke-linecap="round" stroke-linejoin="round"/>
        <path d="M226.578 71.842c3.733-3.277 6.919-5.839 9.8-9.991 2.806-4.04 5.743-8.27 10.848-9.425 3.01-.681 6.021-.59 9.068-.86 2.129-.192 3.64-1.343 1.412-2.624-1.153-.658-5.786-.198-7.254-.205-2.222-.01-4.45.298-6.675.333-2.55.04-5.247.893-7.695.766-.072-1.501.696-6.552-1.382-7.155-3.17-.918-1.875 7.748-2.916 9.42 0 0-2.822 4.777-2.089 6.66l-6.707 5.546 3.59 7.535z" fill="#FFF"/>
        <path d="M226.578 71.842c3.733-3.277 6.919-5.839 9.8-9.991 2.806-4.04 5.743-8.27 10.848-9.425 3.01-.681 6.021-.59 9.068-.86 2.129-.192 3.64-1.343 1.412-2.624-1.153-.658-5.786-.198-7.254-.205-2.222-.01-4.45.298-6.675.333-2.55.04-5.247.893-7.695.766-.072-1.501.696-6.552-1.382-7.155-3.17-.918-1.875 7.748-2.916 9.42 0 0-2.822 4.777-2.089 6.66l-6.707 5.546 3.59 7.535z" stroke="#000" stroke-width="1.6" stroke-linecap="round" stroke-linejoin="round"/>
        <path d="M119.298 73.864c-3.851-3.135-7.13-5.577-10.164-9.62-2.955-3.932-6.047-8.049-11.192-9.013-3.033-.57-6.038-.366-9.093-.525-2.135-.11-3.688-1.205-1.508-2.566 1.127-.703 5.775-.414 7.24-.476 2.22-.092 4.46.132 6.684.083 2.55-.054 5.276.698 7.717.479.017-1.5-.938-6.521 1.115-7.2 3.135-1.035 2.162 7.673 3.265 9.306 0 0 2.997 4.667 2.335 6.576l6.91 5.293-3.309 7.663z" fill="#FFF"/>
        <path d="M119.298 73.864c-3.851-3.135-7.13-5.577-10.164-9.62-2.955-3.932-6.047-8.049-11.192-9.013-3.033-.57-6.038-.366-9.093-.525-2.135-.11-3.688-1.205-1.508-2.566 1.127-.703 5.775-.414 7.24-.476 2.22-.092 4.46.132 6.684.083 2.55-.054 5.276.698 7.717.479.017-1.5-.938-6.521 1.115-7.2 3.135-1.035 2.162 7.673 3.265 9.306 0 0 2.997 4.667 2.335 6.576l6.91 5.293-3.309 7.663z" stroke="#000" stroke-width="1.6" stroke-linecap="round" stroke-linejoin="round"/>
        <path d="M223.512 59.181c-3.373 3.998-4.027 4.484-7.073 8.703-2.97 4.11-5.94 7.907-9.853 11.303-6.223 5.392-12.41 11.002-20.074 14.26-6.215 2.642-10.296 5.575-15.886 6.167-4.363-1.074-8.072-3.496-13.287-5.713-7.663-3.26-13.85-8.868-20.073-14.262-2.633-2.282-4.957-4.885-7.104-7.624-.661-.844-9.017-12.29-8.948-12.352-3.643 3.267-7.852 7.135-12.008 9.703-.122.077 5.781 8.766 6.207 9.464 2.42 3.948 5.165 7.695 8.124 11.256 5.745 6.913 12.303 13.165 19.382 18.697 2.698 2.107 4.095 3.64 7.391 4.544 3.082.89-3.669 42.776-1.842 42.8l1.444.002c0 .033-1.331.07-1.331.095 0 0 2.792-.019 5.181-.048 10.84.135 32.466.502 32.466.502l-3.517-1c.213-.003 10.466-.004 10.466-.004 1.827-.023-3.38-41.91-.3-42.801 3.297-.903 5.358-2.436 8.056-4.544 8.298-6.487 15.917-13.96 22.291-22.356a110.218 110.218 0 0 0 7.226-10.77c1.368-2.329 3.08-5.12 4.158-7.523-1.065-.717-11.026-8.552-11.096-8.499" fill="#FFF"/>
        <path d="M223.512 59.181c-3.373 3.998-4.027 4.484-7.073 8.703-2.97 4.11-5.94 7.907-9.853 11.303-6.223 5.392-12.41 11.002-20.074 14.26-6.215 2.642-10.296 5.575-15.886 6.167-4.363-1.074-8.072-3.496-13.287-5.713-7.663-3.26-13.85-8.868-20.073-14.262-2.633-2.282-4.957-4.885-7.104-7.624-.661-.844-9.017-12.29-8.948-12.352-3.643 3.267-7.852 7.135-12.008 9.703-.122.077 5.781 8.766 6.207 9.464 2.42 3.948 5.165 7.695 8.124 11.256 5.745 6.913 12.303 13.165 19.382 18.697 2.698 2.107 4.095 3.64 7.391 4.544 3.082.89-3.669 42.776-1.842 42.8l1.444.002c0 .033-1.331.07-1.331.095 0 0 2.792-.019 5.181-.048 10.84.135 32.466.502 32.466.502l-3.517-1c.213-.003 10.466-.004 10.466-.004 1.827-.023-3.38-41.91-.3-42.801 3.297-.903 5.358-2.436 8.056-4.544 8.298-6.487 15.917-13.96 22.291-22.356a110.218 110.218 0 0 0 7.226-10.77c1.368-2.329 3.08-5.12 4.158-7.523-1.065-.717-11.026-8.552-11.096-8.499z" stroke="#000" stroke-width="1.6" stroke-linecap="round" stroke-linejoin="round"/>
        <path d="M172.341 230.125c-1.468.025-2.91.544-3.9 1.32-5.907 4.63-1.776 16.584.155 22.364 1.132 3.392 6.146 11.066 10.338 9.741 4.088-1.29 3.934-8.365 3.498-11.97-.756-6.245-1.911-14.54-5.699-19.464-1.122-1.46-2.774-2.02-4.392-1.99" fill="#131313"/>
        <path d="M174.498 169.698c3.452.848 6.33 3.62 6.942 8.657 1.956 16.118-6.818 32.356-4.856 48.967.662 5.597 4.282 19.802.895 24.596-4.129 5.844-8.623-6.13-9.492-10.227-1.933-9.121-2.014-18.565-4.28-27.723-2.556-10.335-6.223-25.707-2.912-36.174 1.987-6.286 8.496-9.378 13.703-8.096" fill="#FFF"/>
        <path d="M174.498 169.698c3.452.848 6.33 3.62 6.942 8.657 1.956 16.118-6.818 32.356-4.856 48.967.662 5.597 4.282 19.802.895 24.596-4.129 5.844-8.623-6.13-9.492-10.227-1.933-9.121-2.014-18.565-4.28-27.723-2.556-10.335-6.223-25.707-2.912-36.174 1.987-6.286 8.496-9.378 13.703-8.096z" stroke="#000" stroke-width="1.684" stroke-linecap="round" stroke-linejoin="round"/>
        <path d="M152.116 224.588c1.291.916 2.452 2.299 3.158 3.663 4.893 9.447-3.403 19.648-9.914 25.446-8.637 7.691-10.297-3.707-8.157-9.948 2.041-5.951 5.07-16.665 10.606-19.865 1.306-.754 2.885-.305 4.307.704" fill="#131313"/>
        <path d="M160.422 168.744c-6.386 13.053-9.04 42.138-12.348 50.877-1.63 4.306-10.439 23.145-3.752 26.341 6.9 3.296 16.097-26.838 18.71-31.453 4.199-7.415 19.384-47.413 5.96-51.924-3.478-1.17-6.269 1.451-8.57 6.16" fill="#FFF"/>
        <path d="M160.422 168.744c-6.386 13.053-9.04 42.138-12.348 50.877-1.63 4.306-10.439 23.145-3.752 26.341 6.9 3.296 16.097-26.838 18.71-31.453 4.199-7.415 19.384-47.413 5.96-51.924-3.478-1.17-6.269 1.451-8.57 6.16z" stroke="#000" stroke-width="1.684" stroke-linecap="round" stroke-linejoin="round"/>
        <path d="M136.917 176.54c.036.721-.343 13.406-.267 14.146.26 2.273 18.967 1.772 20.692 1.812 15.337.36 30.534.831 45.817.482.796-8.738-.739-29.577-5.617-36.934-7.353-11.09-23.181-12.34-34.898-10.743-17.306 2.359-26.6 14.265-25.727 31.237" fill="#131313"/>
        <path d="M176.722 99.03c-1.653 2.458-3.95 4.842-6.7 4.843a5.586 5.586 0 0 1-5.583-5.585v-9.963c0-3.083 2.5-5.584 5.585-5.584s12.83.69 12.83 3.772c0 1.845-3.4 7.584-4.423 9.585a28.69 28.69 0 0 1-1.71 2.933" fill="#FFF"/>
        <path d="M176.722 99.03c-1.653 2.458-3.95 4.842-6.7 4.843a5.586 5.586 0 0 1-5.583-5.585v-9.963c0-3.083 2.5-5.584 5.585-5.584s12.83.69 12.83 3.772c0 1.845-3.4 7.584-4.423 9.585a28.69 28.69 0 0 1-1.71 2.933z" stroke="#000" stroke-width="1.6" stroke-linecap="round" stroke-linejoin="round"/>
        <path d="M165.56 89.904a12.577 12.577 0 0 1-2.996-2.962c-3.03-4.23-3.225-10.079-.064-14.575l4.113-5.85c3.998-5.69 11.85-7.06 17.538-3.061 5.689 3.997 7.059 11.85 3.059 17.537l-4.113 5.851a12.581 12.581 0 0 1-11.773 5.266" fill="#FFF"/>
        <path d="M165.56 89.904a12.577 12.577 0 0 1-2.996-2.962c-3.03-4.23-3.225-10.079-.064-14.575l4.113-5.85c3.998-5.69 11.85-7.06 17.538-3.061 5.689 3.997 7.059 11.85 3.059 17.537l-4.113 5.851a12.581 12.581 0 0 1-11.773 5.266" stroke="#000" stroke-width="1.6" stroke-linecap="round" stroke-linejoin="round"/>
        <path d="M179.943 59.153a17.647 17.647 0 0 0-4.363-.135c-1.36.127-3.502.654-4.657 1.356-1.112.676-2.045 2.343-2.688 3.409.562-.93 6.9-1.892 8.146-1.826.788 6.948 7.03 9.537 8.897 15.854.646 2.195.624 6.532-.789 8.485-.506.7-1.264.748-1.869 1.391-.775.824-1.01 1.998-1.504 2.985 2.428-.867 5.532-1.932 7.772-3.15 2.333-1.27 4.464-3.155 5.605-5.585 2.398-5.1 2.566-11.596-2.151-15.434-3.914-3.184-7.16-6.534-12.399-7.35" fill="#131313"/>
        <path d="M183.857 81.785c1.647-1.249 4.343 1.08 3.976 2.886-.452 2.246-4.197 3.23-6.097 2.616" fill="#FFF"/>
        <path d="M183.857 81.785c1.647-1.249 4.343 1.08 3.976 2.886-.452 2.246-4.197 3.23-6.097 2.616" stroke="#000" stroke-width="1.6" stroke-linecap="round" stroke-linejoin="round"/>
        <path d="M185.141 84.435c-.699-.201-1.487.199-2.04.664M168.102 67.033a2.928 2.928 0 0 1 2.724.603M175.61 60.904c-2.105 4.624 3.283 10.94 7.849 11.17" stroke="#000" stroke-width="1.6" stroke-linecap="round" stroke-linejoin="round"/>
        <path d="M175.603 73.768c1.739-.138 3.86.703 4.848 2.147" fill="#FFF"/>
        <path d="M175.603 73.768c1.739-.138 3.86.703 4.848 2.147" stroke="#000" stroke-width="1.6" stroke-linecap="round" stroke-linejoin="round"/>
        <path d="M166.975 69.759c1.2-.15 2.335.246 2.976 1.23" fill="#FFF"/>
        <path d="M166.975 69.759c1.2-.15 2.335.246 2.976 1.23M167.064 79.339c1.069 2.17 4.736 2.491 6.853 2.262-.362 1.741-2.886 7.185-5.455 5.035-1.468-1.229-.133-4.483.303-5.955M172.893 72.678c-1.367 1.002-2.768 2.12-4.18 3.094.53.644 1.46 1.236 2.37 1.434" stroke="#000" stroke-width="1.6" stroke-linecap="round" stroke-linejoin="round"/>
        <path d="M188.036 84.206c-.79 2.797-4.951 2.726-6.833 4.582-1.468 1.447-4.359 6.539-3.846 8.62 1.053 4.277 6.514 4.732 10.1 4.287 4.676-.582 7.865-2.642 8.88-7.41-3.082 2.812-4.368-1.727-3.846-4.117.802-3.67 2.286-7.385 2.58-11.172.218-2.819-.633-5.623-.639-8.435" fill="#131313"/>
        <path d="M111.376 152.508a1.929 1.929 0 1 1-3.787.73 1.929 1.929 0 0 1 3.787-.73" fill="#FFF"/>
        <path d="M111.376 152.508a1.929 1.929 0 1 1-3.787.73 1.929 1.929 0 0 1 3.787-.73z" stroke="#000" stroke-width="1.6" stroke-linecap="round" stroke-linejoin="round"/>
        <path d="M120.113 158.752a3.471 3.471 0 1 1-6.819 1.315 3.471 3.471 0 0 1 6.82-1.315" fill="#131313"/>
        <path d="M120.113 158.752a3.471 3.471 0 1 1-6.819 1.315 3.471 3.471 0 0 1 6.82-1.315z" stroke="#000" stroke-width="1.6"/>
        <path fill="#CCC" d="m229.134 211.477-1.972 18.794"/>
        <path stroke="#000" stroke-width="1.6" stroke-linecap="round" stroke-linejoin="round" d="m229.134 211.477-1.972 18.794"/>
        <path fill="#CCC" d="m233.883 232.012 9.726-11.389"/>
        <path stroke="#000" stroke-width="1.6" stroke-linecap="round" stroke-linejoin="round" d="m233.883 232.012 9.726-11.389"/>
        <path fill="#CCC" d="m215.589 220.789 3.638 9.69"/>
        <path stroke="#000" stroke-width="1.6" stroke-linecap="round" stroke-linejoin="round" d="m215.589 220.789 3.638 9.69"/>
        <path fill="#CCC" d="m203.09 228.499 7.19 5.409"/>
        <path stroke="#000" stroke-width="1.6" stroke-linecap="round" stroke-linejoin="round" d="m203.09 228.499 7.19 5.409"/>
        <path fill="#CCC" d="m242.69 235.963 8.236-4.566"/>
        <path stroke="#000" stroke-width="1.6" stroke-linecap="round" stroke-linejoin="round" d="m242.69 235.963 8.236-4.566M262.044 136.979c5.723-6.281 7.32-14.724 3.085-22.37M267.443 139.293c3.485-2.592 5.569-7.262 6.171-11.57M71.512 189.433c-3.648 2.842-3.023 8.877-.77 12.342M62.256 193.29c-1.74 3.63-.939 7.895 3.085 9.256M277.471 201.004c3.42 2.438 10.872 2.423 14.656 0M275.928 206.403c2.446 2.311 5.986 3.58 9.257 3.857"/>
        <path d="m227.788 276.997.744-4.014h-1.624l.88 4.014zm-9.372 0 .879-4.014h-1.623l.744 4.014zm14.239-4.014-2.557 11.465c-.246 1.044-1.182 1.704-2.089 1.704-.88 0-1.76-.55-2.035-1.704l-2.665-11.465h-.385l-2.504 11.437c-.246 1.154-1.181 1.732-2.061 1.732-.879 0-1.842-.66-2.089-1.704l-2.64-11.465h-1.402c-1.043 0-1.677-.963-1.677-2.089 0-1.099.634-2.035 1.677-2.035h.44l-.825-3.655c-.273-1.155.302-2.42 1.65-2.668 1.181-.22 2.31.384 2.556 1.732l.853 4.591h3.3l.77-3.462c.245-1.156 1.181-1.816 2.144-1.816.933 0 1.87.634 2.116 1.816l.77 3.462h3.272l.85-4.59c.25-1.32 1.431-1.953 2.613-1.733 1.348.248 1.925 1.457 1.65 2.668l-.826 3.655h.441c1.045 0 1.65.907 1.65 2.035 0 1.1-.605 2.09-1.65 2.09h-1.347zM244.39 118.425l-.659-2.167-.8.415 1.459 1.752zm-4.617 2.394-.592-2.203-.8.415 1.392 1.788zm5.99-5.614 1.667 6.301c.146.577-.147 1.142-.593 1.372-.434.225-1.008.178-1.437-.319l-4.241-4.968-.19.099 1.687 6.273c.174.632-.14 1.155-.573 1.38-.434.224-1.076.144-1.464-.306l-4.228-4.975-.691.359c-.514.266-1.072-.047-1.359-.601-.281-.542-.208-1.164.306-1.431l.217-.112-1.34-1.59c-.43-.499-.469-1.27.131-1.736.527-.41 1.237-.4 1.702.201l1.592 2.044 1.626-.843-.504-1.902c-.175-.633.118-1.196.592-1.442.46-.238 1.082-.165 1.505.354l1.264 1.51 1.613-.835-.754-2.48c-.214-.713.207-1.326.845-1.52.727-.222 1.32.226 1.494.892l.526 2.013.217-.113c.515-.267 1.045.025 1.333.581.28.542.236 1.183-.28 1.45l-.664.344z" fill="#000"/>
    </g>
</svg>
