<svg xmlns="http://www.w3.org/2000/svg" xmlns:xlink="http://www.w3.org/1999/xlink" width="22" height="22" viewBox="0 0 22 22">
    <defs>
        <path id="ildq81ev6a" d="M0 0.361L0.946 0.361 0.946 4.468 0 4.468z"/>
    </defs>
    <g fill="none" fill-rule="evenodd">
        <g>
            <g>
                <g>
                    <path fill="#212529" d="M2.958 12.337c-.703 0-1.273-.57-1.273-1.271V7.694c0-.703.57-1.272 1.273-1.272.702 0 1.272.57 1.272 1.272v3.372c0 .702-.57 1.271-1.272 1.271M9.793 12.337c-.703 0-1.273-.57-1.273-1.271V7.694c0-.703.57-1.272 1.273-1.272.702 0 1.271.57 1.271 1.272v3.372c0 .702-.57 1.271-1.271 1.271M3.678 8.271L3.678 10.487" transform="translate(-101 -2785) translate(101 2785) translate(5 3)"/>
                    <g transform="translate(-101 -2785) translate(101 2785) translate(5 3) translate(0 6.965)">
                        <mask id="dteu4udxxb" fill="#fff">
                            <use xlink:href="#ildq81ev6a"/>
                        </mask>
                        <path fill="#212529" d="M.946.361C.424.361 0 .784 0 1.306v2.217c0 .522.424.945.946.945V.36z" mask="url(#dteu4udxxb)"/>
                    </g>
                    <path fill="#212529" d="M11.861 7.326c.522 0 .946.423.946.945v2.217c0 .522-.424.945-.946.945V7.326zM12.784 6.561h-.9c0-3.121-2.458-5.66-5.48-5.66C3.382.9.923 3.44.923 6.56h-.9c0-3.618 2.862-6.56 6.38-6.56s6.381 2.942 6.381 6.56M7.938 13.701c0 .754-.61 1.364-1.364 1.364-.754 0-1.364-.61-1.364-1.364 0-.753.61-1.364 1.364-1.364.754 0 1.364.61 1.364 1.364" transform="translate(-101 -2785) translate(101 2785) translate(5 3)"/>
                    <path fill="#212529" d="M8.915 14.151H6.574v-.9h2.341c.684 0 1.24-.556 1.24-1.24V9.12h.9v2.893c0 1.18-.96 2.14-2.14 2.14" transform="translate(-101 -2785) translate(101 2785) translate(5 3)"/>
                </g>
                <path d="M0 0H22V22H0z" transform="translate(-101 -2785) translate(101 2785)"/>
            </g>
        </g>
    </g>
</svg>
