<svg xmlns="http://www.w3.org/2000/svg" xmlns:xlink="http://www.w3.org/1999/xlink" width="50" height="50" viewBox="0 0 50 50">
    <defs>
        <path id="ibznc7uiza" d="M.314 11.549c0 6.155 4.99 11.144 11.144 11.144 6.155 0 11.145-4.989 11.145-11.144S17.613.404 11.458.404C5.304.404.314 5.394.314 11.549z"/>
    </defs>
    <g fill="none" fill-rule="evenodd">
        <g>
            <g>
                <path d="M0 0H50V50H0z" transform="translate(-30.000000, -144.000000) translate(30.000000, 144.000000)"/>
                <g>
                    <g transform="translate(-30.000000, -144.000000) translate(30.000000, 144.000000) translate(5.000000, 3.000000) translate(17.000000, 21.578200)">
                        <mask id="4d3zar8tib" fill="#fff">
                            <use xlink:href="#ibznc7uiza"/>
                        </mask>
                        <path fill="#FFEB00" d="M-4.993 27.999L27.909 27.999 27.909 -4.903 -4.993 -4.903z" mask="url(#4d3zar8tib)"/>
                    </g>
                    <path stroke="#2A2A2A" stroke-linecap="round" stroke-linejoin="round" stroke-width="2" d="M20.361 31.217L23.884 35.459 31.231 27.024" transform="translate(-30.000000, -144.000000) translate(30.000000, 144.000000) translate(5.000000, 3.000000)"/>
                    <g stroke="#2A2A2A" stroke-linejoin="round" stroke-width="2">
                        <path d="M29.742 20.616L29.742.422 10.816.422 10.816 11.135 0 11.135 0 40.924 22.65 40.924M.001 11.134L10.816.421" transform="translate(-30.000000, -144.000000) translate(30.000000, 144.000000) translate(5.000000, 3.000000) translate(0.000000, 0.578200)"/>
                        <path stroke-linecap="round" d="M34.425 37.248c-1.389 1.823-3.364 3.223-5.743 3.879-5.779 1.594-11.756-1.8-13.35-7.577-1.594-5.78 1.799-11.756 7.577-13.351 5.779-1.594 11.756 1.799 13.35 7.577.474 1.717.507 3.45.169 5.082" transform="translate(-30.000000, -144.000000) translate(30.000000, 144.000000) translate(5.000000, 3.000000) translate(0.000000, 0.578200)"/>
                    </g>
                </g>
            </g>
        </g>
    </g>
</svg>
