<svg xmlns="http://www.w3.org/2000/svg" xmlns:xlink="http://www.w3.org/1999/xlink" width="50" height="50" viewBox="0 0 50 50">
    <defs>
        <path id="c4uwqawpla" d="M0 11.145C0 17.3 4.99 22.289 11.144 22.289c6.155 0 11.145-4.989 11.145-11.144S17.299 0 11.144 0C4.99 0 0 4.99 0 11.145z"/>
    </defs>
    <g fill="none" fill-rule="evenodd">
        <g>
            <g>
                <path d="M0 0H50V50H0z" transform="translate(-30.000000, -144.000000) translate(30.000000, 144.000000)"/>
                <g>
                    <g transform="translate(-30.000000, -144.000000) translate(30.000000, 144.000000) translate(4.999900, 3.999700) translate(17.314100, 20.982500)">
                        <mask id="dnn0coajzb" fill="#fff">
                            <use xlink:href="#c4uwqawpla"/>
                        </mask>
                        <path fill="#F04552" d="M-5.307 27.595L27.595 27.595 27.595 -5.307 -5.307 -5.307z" mask="url(#dnn0coajzb)"/>
                    </g>
                    <path stroke="#2A2A2A" stroke-linecap="round" stroke-linejoin="round" stroke-width="2" d="M20.361 30.217L23.884 34.459 31.231 26.024" transform="translate(-30.000000, -144.000000) translate(30.000000, 144.000000) translate(4.999900, 3.999700)"/>
                    <g stroke="#2A2A2A" stroke-linejoin="round" stroke-width="2">
                        <path d="M29.742 20.194L29.742 0 10.816 0 10.816 10.713 0 10.713 0 40.502 22.65 40.502M.001 10.713L10.816 0" transform="translate(-30.000000, -144.000000) translate(30.000000, 144.000000) translate(4.999900, 3.999700)"/>
                        <path stroke-linecap="round" d="M34.425 36.826c-1.389 1.823-3.364 3.223-5.743 3.88-5.779 1.593-11.756-1.8-13.35-7.578-1.594-5.78 1.8-11.756 7.577-13.35 5.78-1.595 11.756 1.798 13.35 7.576.474 1.717.507 3.451.17 5.082" transform="translate(-30.000000, -144.000000) translate(30.000000, 144.000000) translate(4.999900, 3.999700)"/>
                    </g>
                </g>
            </g>
        </g>
    </g>
</svg>
