<svg xmlns="http://www.w3.org/2000/svg" xmlns:xlink="http://www.w3.org/1999/xlink" width="100" height="30" viewBox="0 0 100 30">
    <defs>
        <path id="ybfmogznia" d="M0 0L6.83 0 6.83 9.528 0 9.528z"/>
        <path id="gevbxthzec" d="M0 29.702L100 29.702 100 0 0 0z"/>
    </defs>
    <g fill="none" fill-rule="evenodd">
        <g>
            <g transform="translate(-230.000000, -52.000000) translate(230.000000, 52.000000)">
                <path fill="#4C4948" d="M88.34 21.538c.271-.385.865-1.495 1.078-2.076.193-.525.311-1.077.39-1.632.036-.26.054-.429.054-.508 0-.078-.01-.121-.03-.142-.015-.018-.049-.037-.103-.054l-.015-.007c-.112-.059-.198-.084-.256-.084-.075 0-.156.054-.258.159l-.037.025c-.067.051-.12.108-.145.18-.025.066-.036.2-.036.404 0 .582-.221 1.326-.4 1.912-.373 1.253-.915 1.816-1.81 2.759-.236.25-.458.448-.651.598-.092.06-.212.148-.36.26-.177.13-.276.195-.304.195-.027 0-.035-.016-.035-.052l.008-.014v-.035c0-.326.14-.694.223-1.012.103-.405.197-.81.34-1.196.047-.13.07-.222.07-.282 0-.07.042-.292-.032-.292-.028 0-.078.004-.14.016-.092.018-.171.027-.225.027-.106.005-.177.015-.213.029-.042.016-.206.247-.354.34-.135.093-.263.178-.368.241-.279.188-.42.397-.637.637-.158.167-.338.32-.5.47-.195.177-.358.375-.554.552-.13.116-.324.273-.586.47.03-.095.065-.21.125-.333.272-.562.553-1.132.844-1.684.2-.374.353-.769.573-1.133.072-.129.292-.339.291-.494-.012-.072.024-.19.094-.349.071-.161.194-.44.378-.843.092-.19.16-.326.191-.408.027-.048.04-.091.04-.122-.005-.031-.052-.054-.154-.062-.077 0-.128-.002-.163-.016-.058.007-.134.037-.217.098-.631.416-.67 1.077-.966 1.694-.152.318-.443.886-.707 1.355-.11.196-.216.4-.28.556-.209.514-.55 1.092-.824 1.833-.058.164-.112.328-.112.494 0 .134.027.262.074.378l.012.008c.016.043.042.062.08.062.03 0 .084-.013.16-.032.063 0 .123-.014.173-.033.288-.113.54-.4.751-.611.606-.607 1.29-1.136 1.905-1.739.085-.084.138-.125.138-.125.023 0 .03.008.03.03 0 .025-.011.076-.031.157-.033.14-.17.55-.245.845-.103.354-.226.761-.226 1.134 0 .174.042.276.136.304.378.1.76-.036 1.098-.194.042-.014.119-.092.228-.228.28-.347.588-.625.953-.89.144-.1.257-.187.337-.26.31-.255.98-.954 1.2-1.28"/>
                <g transform="translate(89.427244, 20.173339)">
                    <mask id="qi05v09sib" fill="#fff">
                        <use xlink:href="#ybfmogznia"/>
                    </mask>
                    <path fill="#4C4948" d="M6.4 2.37c.054-.066.104-.15.156-.269.05-.12.096-.248.134-.385.047-.138.08-.281.101-.413.027-.136.04-.252.04-.342 0-.134-.032-.2-.082-.2H6.73c-.005.006-.01.01-.017.01-.222.1-.418.182-.6.314-.174.14-.308.257-.384.421-.028.074-.086.151-.175.229-.09.08-.493.689-.576.758-.21.162-.352.331-.535.51-.22.213-.605.372-.895.44-.118.026-.268.01-.384-.008-.095-.012-.238-.093-.17-.203.036-.107.452-.591.606-.795.189-.256.359-.493.514-.729.15-.24.31-.51.47-.812.088-.16.152-.273.185-.337.15-.235.219-.392.219-.473 0-.054-.029-.08-.085-.086-.108 0-.226.015-.353.045-.127.032-.24.08-.327.145-.055.034-.112.12-.184.262-.07.138-.168.353-.298.633-.008.024-.054.113-.119.268-.051.11-.144.245-.282.42-.149.171-.234.31-.272.401-.026.068-.053.124-.08.162-.033.04-.074.084-.127.132-.07.06-.516.673-.572.8-.138.303-.193.358-.21.582-.009.107-.009.19.06.279.098.117.808.173 1.033.098.196-.066.404-.072.6-.148.26-.105.497-.254.717-.417.095-.071.179-.136.253-.186.078-.053.491-.581.546-.652.099-.158.228-.556.247-.556.01 0 .02.01.02.031 0 .025-.011.082-.04.17-.023.09-.037.157-.04.21-.017.123-.04.237-.06.34-.02.102-.046.198-.076.285-.03.093-.07.199-.113.328-.04.13-.116.324-.217.58l-.099.25c-.019.064-.067.168-.153.3-.077.115-.14.23-.198.336-.055.105-.116.235-.181.392-.223.531-.4.952-.537 1.264-.138.314-.25.554-.334.724-.087.165-.164.3-.235.395-.069.1-.166.217-.298.356-.227.287-.39.47-.472.545-.092.08-.185.118-.282.118h-.052c-.032-.006-.054-.006-.062-.006-.277-.016-.554-.123-.845-.325-.278-.202-.472-.457-.564-.77-.034-.132-.046-.288-.046-.44 0-.138.011-.27.027-.393.025-.124.05-.225.081-.307.01-.025.036-.063.07-.11.045-.062.072-.099.072-.114 0-.01-.012-.01-.028-.01-.017 0-.04 0-.07.01-.106.036-.184.077-.222.12-.043.046-.107.144-.188.301-.006.004-.033.05-.07.126-.107.132-.18.264-.24.397-.055.13-.083.279-.083.441 0 .152.023.276.062.374.037.103.085.21.142.324.072.114.11.205.11.264 0 .039.04.096.13.174.09.079.203.16.34.243.135.088.27.152.397.21.129.057.245.087.334.094.06 0 .145.004.26.016.13.012.217.017.275.017.074-.005.178-.042.308-.11.123-.075.257-.163.39-.274.246-.237.443-.424.592-.57.138-.14.252-.266.34-.377.09-.109.164-.217.227-.313.063-.1.147-.238.245-.419.205-.34.375-.664.513-.967.058-.129.11-.255.163-.37.05-.114.118-.282.198-.495.144-.349.244-.595.303-.735.097-.21.162-.384.2-.507.039-.13.067-.25.086-.366.016-.084.036-.145.057-.19.022-.047.064-.1.133-.161.045-.052.09-.118.123-.2.035-.084.08-.212.14-.384.058-.182.116-.325.166-.442.048-.113.108-.207.166-.279" mask="url(#qi05v09sib)"/>
                </g>
                <path fill="#4C4948" d="M99.461 20.6c-.073-.05-.178-.07-.32-.07-.205 0-.431.054-.686.17-.09.04-.194.1-.317.177-.122.076-.244.158-.362.25-.121.094-.233.19-.324.29-.099.102-.166.2-.214.295 0 .01-.022.05-.061.125-.056.123-.103.23-.138.319-.03.087-.043.186-.043.302 0 .1.019.226.067.373.045.146.118.294.217.432.066.082.11.147.138.198.03.052.05.114.07.18.012.058.02.09.03.102.022.038.033.077.033.1 0 .065-.07.098-.217.098-.076 0-.169-.005-.28-.028-.11-.02-.22-.037-.32-.057-.099-.028-.203-.051-.306-.078-.105-.033-.184-.06-.238-.08-.021-.088-.061-.137-.115-.137h-.023l-.019.007c-.084.051-.148.092-.176.124-.034.03-.062.077-.087.128-.12.03-.215.072-.282.132-.067.063-.096.117-.096.16s.02.077.06.1c.045.023.09.04.137.047.127.038.292.086.494.128.198.041.37.061.52.073.128 0 .279-.015.452-.042.172-.027.314-.058.433-.091.079-.021.156-.058.232-.116.084-.056.15-.121.222-.19.062-.069.123-.129.162-.191.048-.052.066-.087.066-.116 0-.04-.009-.09-.022-.16-.016-.054-.021-.096-.021-.12 0-.07-.009-.132-.023-.18-.014-.047-.044-.105-.088-.175-.053-.07-.09-.124-.109-.155-.013-.03-.026-.056-.034-.082-.01-.036-.032-.076-.064-.116-.097-.128-.156-.222-.18-.288-.026-.07-.032-.158-.032-.263.004-.135.02-.233.033-.285.019-.058.043-.108.076-.162.034-.039.05-.087.063-.124.03-.094.08-.171.157-.242.078-.064.19-.134.349-.206.045-.014.1-.036.169-.063.096-.038.168-.058.208-.064.072 0 .13.018.167.06.038.039.058.088.058.144 0 .037-.008.067-.026.094-.028.066-.08.145-.152.238-.07.093-.16.199-.255.32-.083.09-.128.144-.131.16.023.053.059.08.09.08 0 0 .03-.007.064-.021.025-.012.04-.021.051-.025.088-.068.17-.15.264-.251.095-.1.186-.211.292-.332.091-.117.178-.224.254-.318.07-.095.122-.169.154-.22.034-.07.057-.137.057-.197 0-.066-.023-.123-.078-.162M57.333 21.256c.056-.025.128-.042.215-.067.083-.021.151-.046.2-.077.05-.033.097-.084.136-.164.04-.033.075-.079.118-.13.042-.058.063-.103.063-.13 0-.018-.016-.023-.036-.023-.03 0-.084.017-.157.05-.042.017-.088.023-.13.032-.054.005-.128.005-.235.005-.092 0-.272.018-.544.046-.432.037-.79.063-1.08.081-.043 0-.1.004-.155.01-.023.008-.039.008-.053.008 0 0-.011-.006-.019-.018 0-.01.033-.055.107-.14.043-.051.078-.1.12-.152.19-.278.36-.524.511-.747.148-.22.323-.482.525-.79.264-.39.42-.628.479-.717.09-.15.138-.258.138-.337 0-.057-.029-.088-.09-.088-.052 0-.113.02-.163.057-.075.05-.134.081-.182.096-.047.016-.09.025-.138.026-.038 0-.067.01-.084.023-.035.019-.104.115-.197.286-.094.17-.175.299-.232.38-.258.456-.488.84-.684 1.149-.145.23-.321.489-.52.757-.001-.012-.001-.017-.022-.017-.025 0-.08.017-.153.05-.042.017-.086.023-.134.032-.052.005-.133.005-.237.005-.086 0-.265.018-.536.046-.433.037-.798.063-1.088.081-.044 0-.093.004-.148.01-.028.008-.044.008-.055.008 0 0-.015-.006-.019-.018 0-.01.04-.055.108-.14.037-.051.076-.1.114-.152.19-.278.361-.524.516-.747.15-.22.325-.482.527-.79.254-.39.418-.628.477-.717.09-.15.138-.258.138-.337 0-.057-.034-.088-.086-.088-.06 0-.113.02-.164.057-.077.05-.142.081-.184.096-.047.016-.091.025-.136.026-.039 0-.073.01-.088.023-.036.019-.103.115-.2.286-.094.17-.168.299-.223.38-.263.456-.49.84-.688 1.149-.196.31-.43.65-.719 1.023-.082 0-.21.034-.386.11-.122.049-.204.075-.243.075h-.007c-.077.006-.142.028-.19.067-.055.044-.124.15-.218.325-.032.072-.05.153-.05.238 0 .064.007.163.026.305.073-.129.165-.237.27-.321.11-.088.183-.13.232-.13 0 0 .014.005.014.016 0 .004-.003.018-.025.041-.304.475-.542.848-.71 1.124-.173.277-.423.694-.501.835-.078.144-.127.246-.146.309-.022.065-.034.135-.05.212-.003.04-.008.077-.016.109-.014.08-.016.147-.016.198 0 .12.029.234.087.336.032.066.078.1.13.1.058 0 .142-.034.258-.1.105 0 .222-.052.356-.152.13-.104.196-.247.196-.43v-.053c-.006-.025-.01-.04-.01-.048-.038.083-.088.122-.144.122-.058 0-.086-.028-.086-.089.05-.172.11-.346.181-.521.07-.173.278-.566.38-.754.102-.186.23-.387.371-.605.15-.218.321-.455.524-.718.753-.089 1.269-.154 1.551-.195.032-.005.06-.006.086-.01-.031.051-.067.108-.102.18-.039.073-.057.154-.057.239 0 .064.011.163.03.305.071-.129.165-.237.272-.321.104-.088.182-.13.23-.13.014 0 .014.005.014.016 0 .004-.01.018-.023.041-.304.475-.543.848-.712 1.124-.175.277-.419.694-.504.835-.08.144-.123.246-.146.309-.015.065-.036.135-.046.212-.01.04-.01.077-.015.109-.013.08-.02.147-.02.198 0 .12.026.234.086.336.034.066.077.1.13.1.058 0 .147-.034.263-.1.1 0 .22-.052.353-.152.132-.104.197-.247.197-.43v-.053c-.008-.025-.008-.04-.008-.048-.04.083-.09.122-.145.122-.058 0-.086-.028-.086-.089.05-.172.112-.346.18-.521.071-.173.279-.566.383-.754.1-.186.222-.387.366-.605.15-.218.327-.455.527-.718.75-.089 1.265-.154 1.554-.195.286-.039.452-.072.502-.098M63.424 20.092h-.028l-.018.007c-.143.054-.355.187-.646.388-.117.088-.207.156-.277.2-.007.011-.027.026-.035.048-.006.02-.015.05-.039.08-.02.038-.059.086-.122.156-.06.067-.15.156-.256.266-.11.107-.261.236-.435.392-.018.003-.035.022-.065.048l-.02.018c-.005-.006-.003-.011.006-.011v-.064c0-.022.005-.069.036-.14.016-.073.043-.142.07-.21.028-.071.06-.154.1-.246.043-.091.08-.17.112-.23h-.084l-.07-.01c-.182 0-.296.03-.35.097-.107.13-.193.234-.256.32-.066.088-.12.163-.15.229-.037.065-.074.13-.091.193-.024.066-.048.137-.06.227-.018.09-.058.211-.13.372-.066.159-.129.293-.195.395-.087.146-.147.253-.19.332-.116.19-.197.325-.246.394-.053.074-.117.154-.2.243-.059.055-.11.14-.15.256-.046.121-.105.31-.182.56l-.006.033h.026c.074.019.133.025.162.025.074 0 .137-.031.2-.088.058-.061.183-.203.362-.424l.04-.059c.202-.322.439-.659.717-1.023.283-.365.557-.7.842-1.016.028-.027.08-.075.155-.148.08-.07.159-.14.24-.203.078-.063.158-.132.246-.207.088-.071.163-.136.229-.183.076.092.15.136.208.136.021 0 .055-.005.087-.024.075-.03.16-.107.253-.227.097-.124.194-.272.285-.446.064-.122.095-.222.095-.308 0-.042-.006-.072-.022-.087-.041-.042-.089-.06-.148-.06M63.532 23.593c-.044-.01-.1-.007-.177 0-.072.01-.139.02-.203.037-.166.035-.277.134-.321.292-.028.297-.058.5-.09.61-.036.12-.102.197-.164.29-.085.126-.104.218-.226.316-.036.032-.067.096-.134.159-.017.011.014.037.045.037.1-.003.16 0 .265-.039.072-.03.402-.157.448-.198.043-.033.052-.011.089-.05.061-.066.152-.117.201-.178.062-.075.116-.177.153-.31.022-.08.04-.196.07-.343.017-.102.024-.176.04-.228.004-.043.016-.097.028-.15.02-.09.03-.155.035-.188.013-.026-.01-.048-.059-.057M43.48 19.565c.058-.116.124-.332.18-.453.044-.099.13-.279.181-.378.07-.152.182-.3.248-.443.122-.26.232-.498.327-.705.017 0 .031 0 .05.007.885.166 1.468.178 1.906.7.086.107.14.312.14.439-.006.203-.14.394-.398.61-.032.029-.126.08-.241.143-.115.058-.247.157-.391.228-.148.068-.314.147-.498.226-.319.125-.88.197-1.137.213-.133.002-.437.01-.656.01.084-.178.186-.381.289-.597m2.98 2.062c-.088-.277-.373-.732-.648-.878-.105-.06-.186-.112-.233-.147-.141-.103-.348-.169-.583-.21.128-.02.235-.04.304-.065.382-.15.76-.244 1.092-.47.327-.215.626-.528.854-.846.243-.344.312-.764.063-1.083-.39-.505-1.168-.755-1.482-.827-.145-.032-.672-.092-1.162-.08.04-.097.068-.165.068-.188.007-.16-.185-.241-.344-.235-.043 0-.21.01-.27.025-.029.005-.069.032-.126.077-.059.045-.117.097-.178.156-.057.059-.111.115-.155.178-.044.058-.015.146-.021.19-.016.041-.035.116-.047.22-.008.043-.048.395-.305.93-.067.134-.257.372-.33.52-.121.257-.096.348-.213.575-.21.398-.481.866-.488.894-.062.122-.245.478-.312.54 0 0-.168.367-.247.492-.075.127-.383.59-.437.648-.127.25-.385.701-.657 1.143l-.186.221c-.03.04-.06.094-.079.176-.014.061-.123.16-.162.194-.198.157-.308.264-.395.415-.007.016-.017.03-.023.031-.033.064-.07.16-.115.307-.049.14.07.23.074.25l-.012.023c-.003.022.012.062.036.056.023-.002.074.031.127.011l.028-.005.005-.003c.03-.005.057-.003.077.013.014.015.037.022.056.02.142.012.304-.03.4-.054.003-.013.189-.127.23-.183.374-.547 1.286-2.052 1.415-2.327.171-.35.47-.964.59-1.175l.229-.385c.002-.006.006-.011.016-.022.346.021.774.084.992.117.412.06 1.086.185 1.352.459.132.133.282.36.333.619.08.39-.018.813-.257 1.168-.218.327-.583.567-1.132.777-.785.303-1.137.337-1.708.402-.111.01-.403.025-.525.025-.27-.004-.527-.046-.612-.073-.108-.027-.112-.006-.087.058.077.181.38.558.602.517l.072-.012c.028-.011.05-.018.064-.02.047-.006.085-.005.111.004.012-.002.032.013.068.038.02.031.039.047.06.05.282.005.564.025 1.19-.133.503-.125 1.102-.328 1.204-.37.152-.063.558-.295.583-.305 0 0 .402-.233.62-.509.017-.015.16-.164.208-.226.057-.064.24-.38.278-.46.21-.389.239-.92.13-1.248M48.552 22.26c.093-.09.213-.218.279-.271.13-.154.315-.29.485-.416.165-.126.292-.203.372-.232.053-.035.113-.05.166-.05.097 0 .15.047.15.145 0 .062-.018.129-.06.211-.102.195-.226.362-.372.503-.148.143-.279.233-.398.275-.14.037-.33.068-.438.086-.109.026-.196.037-.259.037-.07 0-.1-.019-.1-.042 0-.037.067-.144.175-.247m-.941 1.12c.067-.076.136-.16.214-.246h.126c.047.003.097.009.132.009.42 0 .877-.071 1.238-.214.369-.143.667-.38.897-.71.322-.514.473-.895.473-1.146 0-.274-.17-.456-.51-.543-.088 0-.193.028-.32.084-.125.056-.261.129-.404.22-.149.094-.298.206-.452.333-.155.123-.335.254-.48.392-.048.043-.102.093-.159.16-.112.117-.448.37-.62.56-.018.02-.122.136-.18.184-.116.095-.23.197-.325.317-.04.056-.06.097-.06.129 0 .019.004.027.016.033.01.006.01.014.01.016 0 .026-.022.068-.061.131-.04.058-.106.144-.191.255-.12.152-.127.25-.162.305-.068.107-.129.23-.174.372-.048.14-.075.293-.075.45 0 .287.22.427.658.427.094 0 .573.004.87-.093.295-.094.598-.18.848-.335.18-.113.462-.286.578-.37.11-.08.3-.252.335-.28.038-.036.194-.203.216-.251.025-.043.052-.128.072-.243 0-.015-.003-.027-.016-.027-.022 0-.082.038-.173.106-.103.083-.179.132-.22.149-.056.015-.12.046-.201.087-.081.039-.19.095-.328.175-.195.104-.32.168-.374.192l-.044.02c-.263.09-.475.156-.63.205-.151.04-.283.063-.4.063-.076 0-.169-.019-.26-.057-.1-.037-.151-.107-.151-.21.006-.139.025-.237.069-.306.035-.067.068-.18.218-.344M57.762 22.26c.097-.09.216-.218.278-.271.135-.154.318-.29.486-.416.17-.126.293-.203.374-.232.055-.035.113-.05.169-.05.094 0 .15.047.15.145 0 .062-.02.129-.06.211-.105.195-.224.362-.37.503-.153.143-.283.233-.397.275-.145.037-.34.068-.443.086-.105.026-.194.037-.263.037-.065 0-.091-.019-.091-.042 0-.037.068-.144.167-.247m1.388 1.145c-.108.083-.183.132-.223.149-.055.015-.125.046-.205.087-.079.039-.187.095-.329.175-.193.104-.319.168-.37.192l-.045.02c-.263.09-.472.156-.632.205-.152.04-.28.063-.395.063-.08 0-.164-.019-.266-.057-.1-.037-.148-.107-.148-.21.004-.139.023-.237.068-.306.039-.067.068-.18.213-.344.07-.075.14-.159.222-.245h.122c.055.003.097.009.134.009.413 0 .875-.071 1.24-.214.37-.143.665-.38.901-.71.312-.514.47-.895.47-1.146 0-.274-.173-.456-.516-.543-.082 0-.19.028-.316.084-.123.056-.26.129-.403.22-.146.094-.3.206-.453.333-.157.123-.34.254-.482.392-.048.043-.097.093-.161.16-.107.117-.446.37-.618.56-.022.02-.12.136-.178.184-.115.095-.234.197-.327.317-.044.056-.06.097-.06.129 0 .019.005.027.013.033.012.006.012.014.012.016 0 .026-.02.068-.064.131-.038.058-.1.144-.188.255-.114.152-.129.25-.155.305-.07.107-.136.23-.176.372-.052.14-.075.293-.075.45 0 .287.213.427.646.427.1 0 .586.004.88-.093.294-.094.595-.18.844-.335.193-.113.464-.286.586-.37.106-.08.29-.252.33-.28.043-.036.197-.203.22-.251.019-.043.046-.128.071-.243 0-.015-.008-.027-.02-.027-.02 0-.078.038-.167.106M89.686 23.134c-.025.062-.09.09-.19.103-.054.006-.087.02-.101.045-.02.024-.034.056-.04.104-.022.053-.037.09-.067.112-.048.014-.128.063-.235.138-.113.075-.255.176-.43.294-.129.095-.232.14-.307.19-.076.043-.126.06-.15.075-.012.005-.208.045-.226.04-.031-.011-.182.005-.182-.047 0-.024.013-.03.047-.09.025-.054.073-.125.135-.217.24-.394.499-.772.783-1.13.28-.362.585-.689.915-.986.36-.35.619-.525.755-.525h.03c.014.005.02.01.026.01.118.059.186.138.186.23 0 .04-.019.09-.04.147-.004.02-.012.055-.029.1-.104.299-.2.545-.291.737-.094.195-.208.35-.352.457-.02.016-.054.044-.105.08-.064.043-.104.09-.132.133m.434.189c.084-.045.163-.096.232-.15.071-.053.112-.107.13-.157v.058l.008.035c0 .072-.013.136-.049.208l-.012.006c-.025.047-.077.187-.16.422-.065.159-.12.304-.168.43-.055.13-.098.216-.125.265-.021.05-.037.097-.037.134 0 .077.047.121.143.148.07.016.158.024.25.024.097 0 .148-.01.15-.034.019-.041.084-.074.18-.109l.032-.012c.07-.024.147-.085.237-.174.078-.078.153-.137.212-.176.062-.119.089-.212.089-.278 0-.041-.013-.067-.05-.067l-.018.01h-.02c-.037.01-.126.05-.262.129-.093.055-.168.098-.22.122.016-.15.06-.3.139-.446.081-.145.192-.323.337-.54.244-.358.395-.624.456-.81.025-.079.052-.23.07-.45.015-.198.026-.33.041-.407-.08.037-.149.053-.19.053-.048 0-.075-.013-.093-.036-.016-.027-.025-.065-.03-.107v-.029c.012-.076.016-.15.016-.23 0-.3-.064-.485-.19-.565-.05-.038-.117-.06-.2-.06-.118 0-.253.028-.41.087-.146.067-.285.133-.416.214-.143.101-.3.225-.472.373-.165.142-.331.299-.496.457-.163.162-.3.303-.423.434-.118.126-.212.234-.272.32l-1.258 1.748c-.079.084-.125.16-.14.215-.022.058-.026.142-.034.252v.013c0 .064.016.123.051.178.041.046.094.076.167.076h.032c.009-.011.025-.014.034-.013.12.013.409-.08.487-.123.04-.02.147-.066.239-.118.093-.052.176-.106.253-.169.113-.103.304-.185.415-.259.112-.078.19-.12.233-.128.053 0 .094-.018.12-.065.018-.025.032-.038.044-.045.131-.146.633-.514.706-.541.077-.028.157-.066.242-.113M79.139 19.62c.212-.375.17-.322.213-.404.046-.087.098-.173.148-.254l.238-.388c.02-.034.043-.082.097-.15.08-.104.15-.2.207-.286.053-.09.098-.162.126-.286.063-.171.104-.22.152-.316.105-.254.234-.493.268-.598.036-.107.056-.18.056-.217.004-.02-.007-.04-.015-.051-.005-.005-.014-.008-.024-.015-.04-.035-.084-.057-.137-.057h-.035l-.046.01c-.134.006-.242.035-.336.087-.094.053-.223.16-.386.318-.005.13-.027.15-.039.23-.008.085-.093.287-.13.372-.037.084-.076.135-.137.283l-.007.016c-.036.096-.05.187-.05.282v.155c0 .03-.005.044-.017.059-.016.015-.09.14-.228.37-.127.207-.248.416-.368.623-.12.206-.063.134-.196.359-.14.228-.254.417-.354.57-.095.152-.16.256-.192.299l-.756 1.112c-.025.038-.072.118-.14.249-.064.125-.146.281-.243.475-.1.192-.187.373-.27.54-.084.168-.239.495-.476.985-.015.037-.025.076-.025.106 0 .035.017.083.053.15l.027.043c0 .008.003.02.005.032.006.044.02.078.036.1.02.024.048.037.09.037.076-.004.189-.025.33-.06.14-.036.24-.077.304-.127.063-.059.147-.142.245-.25.103-.102.181-.176.23-.22-.049-.087-.074-.19-.074-.303-.164.134-.299.216-.41.239.007-.098.066-.258.175-.472.115-.23.248-.483.397-.756.154-.271.288-.51.412-.721l.57-.93c.055-.077.142-.223.262-.438l.45-.801M76.384 20.422c.12-.212.269-.48.448-.801.217-.376.172-.323.217-.405.045-.087.095-.173.145-.254l.236-.388c.026-.034.045-.082.1-.15.086-.104.152-.2.203-.287.055-.088.099-.161.138-.285.06-.171.1-.221.143-.316.106-.254.24-.493.273-.598.038-.107.054-.18.054-.217 0-.022-.005-.04-.016-.052-.006-.004-.014-.007-.03-.014-.03-.037-.081-.057-.13-.057h-.034c-.032.007-.047.01-.057.01-.125.006-.24.035-.33.087-.094.053-.218.16-.382.318 0 .13-.027.15-.034.23-.013.082-.101.287-.137.372-.037.084-.078.135-.13.281l-.012.018c-.038.095-.057.187-.057.282v.155c0 .03-.003.044-.009.059-.015.015-.09.138-.228.37-.13.207-.255.412-.371.623-.12.206-.059.134-.2.359-.133.228-.253.417-.348.57-.096.152-.162.256-.195.299l-.75 1.112c-.03.038-.076.118-.142.249-.067.125-.15.281-.244.475-.1.192-.187.373-.269.542-.083.162-.238.493-.478.983-.016.037-.025.076-.025.106 0 .033.02.083.053.15l.025.043c0 .008.004.02.008.032.004.044.017.078.039.1.013.024.046.037.085.037.08-.004.19-.025.33-.06.144-.036.244-.077.308-.127.066-.059.145-.142.237-.25l.235-.22c-.047-.087-.078-.19-.078-.303-.16.134-.293.216-.405.239.006-.099.064-.258.172-.472.116-.233.249-.484.396-.756.153-.271.287-.51.418-.721l.57-.93c.053-.077.139-.224.258-.438M81.087 21.84l-.013.002c-.025.008-.053.011-.069.011-.035.003-.148.02-.336.041-.247.033-.423.06-.525.068-.1.007-.252.013-.45.013-.38.004-.654.04-.826.1-.175.059-.306.159-.394.292-.016.037-.04.086-.086.139-.032.032-.047.054-.047.068 0 .02.019.052.066.087.038.037.097.052.176.052.073 0 .184-.013.335-.04.146-.025.35-.067.627-.125.091-.015.148-.03.19-.036.17-.032.31-.056.414-.075.1-.01.238-.018.398-.018.11 0 .18-.01.224-.031.039-.021.073-.05.093-.09.036-.06.09-.095.157-.109.053-.011.079-.054.079-.122 0-.037.005-.088.006-.145v-.042c0-.03-.001-.04-.019-.04M71.332 23.63c-.042-.03-.125-.171-.172-.234-.233-.307-.5-.583-.765-.865-.092-.093-.142-.144-.151-.159-.04-.045-.116-.128-.224-.243-.11-.113-.317-.405-.437-.484l-.292-.28c.078-.08.147-.161.22-.243.04-.021.069-.033.092-.031 0 0 .201-.029.201-.014l.603-.042c.676-.063 1.593-.136 1.984-.182l-.077.552c-.023.083-.035.166-.042.24-.063.307-.225 1.08-.245 1.111l-.133.493-.24.392c-.065.095-.166.084-.268.034-.031-.018-.05-.033-.054-.044zm-1.139-3.32c.277-.325.481-.573.623-.744.15-.171.229-.262.242-.265.047-.026.11-.102.2-.216.043-.067.077-.107.099-.129.154-.13.328-.314.511-.554.186-.245.407-.544.652-.904.022.059.052.137.094.24.062.15.109.264.131.347.026.077.04.158.04.232 0 .104-.024.215-.076.337-.032.069-.049.213-.07.431-.014.174-.025.299-.044.373l-.12.842c-.465.044-1.185.082-1.445.096-.049-.007-.103 0-.158.002-.024.006-.038.011-.056.011 0 0-.348.025-.519.033l.006-.003c-.02 0-.052.003-.095.003h-.001c-.033.003-.08.003-.121.008l.107-.14zm3.485-.053c.037-.056.062-.095.053-.124 0-.015-.01-.027-.032-.027-.03.004-.08.022-.16.059-.038.016-.077.028-.131.036-.048.011-.13.016-.238.02-.028 0-.061.004-.102.008.004-.062.012-.125.016-.174.008-.03.02-.059.047-.093.025-.039.04-.074.04-.098l.05-.397c.028-.32.057-.566.084-.74.028-.168.056-.276.098-.325.063-.061.105-.118.123-.16.013-.05.022-.11.022-.19 0-.038 0-.101.008-.187v-.225c0-.148-.002-.284-.01-.407-.007-.117-.02-.209-.038-.268v-.02c-.01-.047-.042-.085-.085-.117-.042-.031-.124-.077-.253-.134-.12-.059-.219-.09-.28-.096-.043 0-.109.034-.201.104-.088.068-.19.152-.3.254-.11.105-.212.206-.309.304-.092.098-.159.178-.197.238l-.033.042c-.083.1-.142.178-.175.227-.032.054-.094.138-.164.262-.048.081-.14.198-.253.354-.124.155-.288.344-.495.577-.016.018-.054.065-.107.141-.123.165-.249.316-.372.465-.127.148-.264.297-.413.439l-.436.476-.403.024s-.654-.021-.837.027c-.087.017-.16.039-.224.07-.073.034-.169.137-.169.137s-.059.15-.045.235c-.006.088.46.19.573.222.114.035.235.086.36.153-.049.056-.108.113-.155.168-.075.084-.141.145-.185.19l-1.438 1.364c-.032.032-.062.088-.104.167-.025.056-.044.098-.07.131-.02.027-.059.041-.112.041-.072 0-.134.023-.192.073-.056.052-.132.144-.236.285-.007.015-.02.024-.026.031-.04.052-.091.15-.157.29-.059.139-.09.214-.09.234l-.02.02c-.006.023-.006.035-.006.05 0 .01.01.015.034.015.023 0 .058-.004.11-.015h.036c.03 0 .05.008.068.023.012.023.027.037.05.037h.016c.012-.009.024-.011.024-.011.052-.034.14-.079.29-.15.184-.081.284-.14.308-.182.108-.173.24-.356.388-.546.145-.19.306-.385.482-.576.04-.049.086-.115.16-.187.065-.076.135-.152.218-.233.077-.088.154-.16.226-.232.072-.074.135-.13.185-.175.035-.033.113-.126.268-.272.108-.105.203-.202.295-.288l.324.196c.11.045.214.238.357.351.15.108.164.21.356.373.091.077.157.128.183.146.051.043.161.188.242.288.077.1.179.243.296.42.093.119.187.267.227.316.037.05.063.081.071.085.034.012.034.034.075.079.038.042.058.113.133.216.067.094.12.166.167.208.012.008.018.01.023.013.046.037.097.067.162.067.027.02.047.038.067.049v.007c.004.001.014.001.02.008l.019.014c.016.005.032.01.05.01.012.002.021.013.021.013l.018-.003c.043.003.085.003.1.003.021 0 .068-.018.148-.06.072-.036.15-.081.23-.132.083-.054.16-.103.226-.162.07-.058.123-.102.147-.14.048-.071.082-.848.109-1.183.005-.065.011-.131.02-.196.033-.271.066-.645.104-1.114.015-.063.023-.133.035-.217.013-.105.03-.337.039-.543.054-.021.116-.046.206-.07.085-.025.154-.053.202-.085.047-.03.092-.089.125-.162.041-.039.082-.082.12-.139z"/>
                <mask id="chz4usfgsd" fill="#fff">
                    <use xlink:href="#gevbxthzec"/>
                </mask>
                <path fill="#4C4948" d="M0 12.227h2.527V0H0v12.227zm7.38.003L2.55 5.75 7.364 0h2.905L5.354 5.666l5.245 6.564H7.38zM20.939 9.877c-.673 2.008-2.718 2.79-4.823 2.79-2.032 0-4.023-.747-4.747-2.665-.27-.712-.31-1.493-.31-2.242V.437h2.466v6.877c0 .73-.035 1.67.366 2.33.446.768 1.376 1.018 2.246 1.018.815 0 1.745-.25 2.191-.954.424-.655.403-1.525.403-2.274V.437h2.467v7.487c0 .666-.035 1.325-.26 1.953M33.725 12.23L33.725 2.689 30.975 12.23 28.43 12.23 25.722 2.689 25.722 12.23 23.502 12.23 23.502 0 26.943 0 29.721 9.715 32.543 0 35.945 0 35.945 12.23zM45.429 12.23L45.429 6.822 40.286 6.822 40.286 12.23 37.788 12.23 37.788 0 40.286 0 40.286 4.881 45.429 4.881 45.429 0 47.926 0 47.926 12.23zM58.402 11.945c-.868.5-1.899.722-2.893.722-.828 0-1.789-.204-2.542-.567-2.35-1.155-3.197-3.367-3.197-5.768 0-2.325.774-4.467 3.003-5.675C53.599.209 54.575 0 55.525 0c1.506 0 2.97.52 4.013 1.554 1.289 1.259 1.752 3.077 1.752 4.778 0 2.28-.755 4.382-2.888 5.613m-2.893-9.94c-2.468 0-3.193 2.379-3.193 4.327 0 1.952.725 4.333 3.209 4.333 2.46 0 3.219-2.38 3.219-4.333 0-1.948-.76-4.328-3.235-4.328M70.808 2.013L70.808 12.23 68.343 12.23 68.343 2.013 64.977 2.013 64.977 0 74.194 0 74.194 2.013zM76.037 12.23L78.802 12.23 78.802 0 76.037 0zM87.47 12.23l-2.6-4.681h-1.768v4.681h-2.457V.001h3.448c1.032 0 2.114-.035 3.09.31 1.604.556 2.473 1.838 2.473 3.452 0 1.554-.782 2.732-2.258 3.388l2.925 5.08H87.47zm-1.302-9.997c-.538-.237-1.299-.22-1.893-.22h-1.173v3.531h1.606c1.3 0 2.435-.348 2.435-1.818 0-.677-.325-1.219-.975-1.493zM91.705 12.23L91.705 0 99.798 0 99.798 2.013 94.178 2.013 94.178 4.881 99.289 4.881 99.289 6.893 94.178 6.893 94.178 10.222 100 10.222 100 12.23z" mask="url(#chz4usfgsd)"/>
            </g>
        </g>
    </g>
</svg>
